<svg width="80" height="80" viewBox="0 0 80 80" fill="none" xmlns="http://www.w3.org/2000/svg">
<g clip-path="url(#clip0_8544_12329)">
<path d="M39.9987 0.832733C17.911 0.832733 0 18.8108 0 40.994C0 58.7347 11.4594 73.7876 27.36 79.0973C29.3587 79.4676 30.0877 78.2276 30.0877 77.1618C30.0877 76.2095 30.0529 73.6843 30.0335 70.3321C18.9045 72.7618 16.5574 64.9489 16.5574 64.9489C14.7406 60.3089 12.1187 59.0766 12.1187 59.0766C8.48516 56.5837 12.3923 56.6314 12.3923 56.6314C16.4052 56.914 18.5174 60.7721 18.5174 60.7721C22.089 66.9089 27.8826 65.1347 30.1613 64.1063C30.5213 61.5127 31.5574 59.7411 32.6994 58.7385C23.8194 57.7231 14.4826 54.2805 14.4826 38.8934C14.4826 34.5102 16.04 30.9244 18.5987 28.114C18.1845 27.0985 16.8129 23.0173 18.9884 17.4895C18.9884 17.4895 22.3484 16.4108 29.9884 21.6056C33.1794 20.7153 36.6013 20.2702 40.0039 20.2521C43.3987 20.2702 46.8232 20.714 50.0194 21.6056C57.6529 16.4108 61.0077 17.4895 61.0077 17.4895C63.1884 23.0173 61.8168 27.0985 61.4039 28.114C63.969 30.9244 65.5174 34.5089 65.5174 38.8934C65.5174 54.3192 56.1652 57.7127 47.2542 58.7089C48.6903 59.9489 49.969 62.3979 49.969 66.1463C49.969 71.5166 49.9213 75.8444 49.9213 77.1618C49.9213 78.2379 50.6426 79.4882 52.671 79.0921C68.551 73.7721 80 58.7295 80 40.994C80 18.8108 62.089 0.832733 39.9987 0.832733Z" fill="#3E77BF"/>
<path d="M39.9987 0.832733C17.911 0.832733 0 18.8108 0 40.994C0 58.7347 11.4594 73.7876 27.36 79.0973C29.3587 79.4676 30.0877 78.2276 30.0877 77.1618C30.0877 76.2095 30.0529 73.6843 30.0335 70.3321C18.9045 72.7618 16.5574 64.9489 16.5574 64.9489C14.7406 60.3089 12.1187 59.0766 12.1187 59.0766C8.48516 56.5837 12.3923 56.6314 12.3923 56.6314C16.4052 56.914 18.5174 60.7721 18.5174 60.7721C22.089 66.9089 27.8826 65.1347 30.1613 64.1063C30.5213 61.5127 31.5574 59.7411 32.6994 58.7385C23.8194 57.7231 14.4826 54.2805 14.4826 38.8934C14.4826 34.5102 16.04 30.9244 18.5987 28.114C18.1845 27.0985 16.8129 23.0173 18.9884 17.4895C18.9884 17.4895 22.3484 16.4108 29.9884 21.6056C33.1794 20.7153 36.6013 20.2702 40.0039 20.2521C43.3987 20.2702 46.8232 20.714 50.0194 21.6056C57.6529 16.4108 61.0077 17.4895 61.0077 17.4895C63.1884 23.0173 61.8168 27.0985 61.4039 28.114C63.969 30.9244 65.5174 34.5089 65.5174 38.8934C65.5174 54.3192 56.1652 57.7127 47.2542 58.7089C48.6903 59.9489 49.969 62.3979 49.969 66.1463C49.969 71.5166 49.9213 75.8444 49.9213 77.1618C49.9213 78.2379 50.6426 79.4882 52.671 79.0921C68.551 73.7721 80 58.7295 80 40.994C80 18.8108 62.089 0.832733 39.9987 0.832733Z" fill="#3E77BF"/>
<path d="M61.0478 17.6018C63.1652 23.0702 61.8142 27.1063 61.4026 28.114C63.9678 30.9244 65.5162 34.5089 65.5162 38.8934C65.5162 54.3192 56.1639 57.7127 47.2529 58.7089C48.6891 59.9489 49.9678 62.3979 49.9678 66.1463C49.9678 71.5166 49.92 75.8444 49.92 77.1618C49.92 78.2379 50.6413 79.4882 52.6697 79.0921C68.551 73.7721 80 58.7295 80 40.994C80 36.2263 79.1691 31.656 77.6504 27.4134C72.1355 21.6069 65.9974 17.7398 61.0478 17.6018Z" fill="#114C82"/>
<path d="M31.1253 60.8585C31.5744 59.9527 32.1228 59.2482 32.6995 58.7385C27.8324 58.1811 22.8337 56.8818 19.3047 53.296C22.0195 57.8147 26.4402 59.8702 31.1253 60.8585Z" fill="#114C82"/>
<path d="M2.08258 43.7011C2.08258 21.5179 19.9935 3.53983 42.0813 3.53983C54.3458 3.53983 65.3161 9.08693 72.6516 17.8121C65.4064 7.54112 53.4865 0.832733 39.9987 0.832733C17.911 0.832733 0 18.8108 0 40.994C0 50.8843 3.56774 59.9334 9.47613 66.9282C4.82968 60.3695 2.08258 52.3618 2.08258 43.7011Z" fill="#6CA9EA"/>
<path d="M52.0504 68.8547C52.0504 65.1076 50.7716 62.6547 49.3355 61.4147C58.2465 60.4211 67.6 57.025 67.6 41.6005C67.6 37.216 66.0516 33.6327 63.4839 30.8224C63.8994 29.8069 65.2736 25.7243 63.0878 20.1979C63.0878 20.1979 62.6723 20.0701 61.8142 20.1192C62.751 24.2869 61.7471 27.2676 61.4026 28.114C63.9678 30.9243 65.5162 34.5089 65.5162 38.8934C65.5162 54.3192 56.1639 57.7127 47.2529 58.7089C48.6891 59.9489 49.9678 62.3979 49.9678 66.1463C49.9678 71.5166 49.92 75.8443 49.92 77.1618C49.92 78.1089 50.4839 79.1889 52.0039 79.163C52.0142 77.3476 52.0504 73.4934 52.0504 68.8547Z" fill="#083E66"/>
<path d="M18.9458 68.3863C19.7858 70.1153 22.609 74.2573 30.0568 73.385C30.0464 72.474 30.0387 71.4534 30.0335 70.3321C24.2877 71.5863 20.8955 70.1076 18.9458 68.3863Z" fill="#114C82"/>
<path d="M20.3819 63.1269C20.1252 62.7398 19.6439 62.083 18.9458 61.4263C19.3987 62.0985 19.88 62.6624 20.3819 63.1269Z" fill="#6CA9EA"/>
</g>
<defs>
<clipPath id="clip0_8544_12329">
<rect width="80" height="80" fill="white"/>
</clipPath>
</defs>
</svg>
