<svg width="16" height="16" viewBox="0 0 16 16" fill="none" xmlns="http://www.w3.org/2000/svg">
<rect width="16" height="16" style="mix-blend-mode:multiply"/>
<path d="M8.03057 13.6772L14.0309 7.67688C14.1284 7.57938 14.1284 7.42094 14.0309 7.32344L8.03057 1.32282C7.93307 1.22532 7.77463 1.22532 7.67713 1.32282L7.32369 1.67626C7.22619 1.77376 7.22619 1.93219 7.32369 2.02969L12.6168 7.32313C12.7143 7.42063 12.7143 7.57907 12.6168 7.67657L7.32369 12.9697C7.22619 13.0672 7.22619 13.2256 7.32369 13.3231L7.67713 13.6766C7.77463 13.7741 7.93307 13.7741 8.03057 13.6766V13.6772Z" fill="white"/>
<path d="M2.24994 7.00001H12.7812C12.9193 7.00001 13.0312 7.11194 13.0312 7.25001V7.75001C13.0312 7.88808 12.9193 8.00001 12.7812 8.00001H2.24994C2.11187 8.00001 1.99994 7.88808 1.99994 7.75001V7.25001C1.99994 7.11194 2.11187 7.00001 2.24994 7.00001Z" fill="white"/>
</svg>
