<svg width="8" height="5" viewBox="0 0 8 5" fill="none" xmlns="http://www.w3.org/2000/svg">
<path d="M-0.00195312 4.5C-0.00195312 4.36328 0.046875 4.24609 0.144531 4.14844L3.64844 0.644531C3.74609 0.546875 3.86328 0.498047 4 0.498047C4.13672 0.498047 4.25391 0.546875 4.35156 0.644531L7.85547 4.14844C7.95312 4.24609 8.00195 4.36328 8.00195 4.5C8.00195 4.64062 7.95117 4.75977 7.84961 4.85742C7.75195 4.95117 7.63477 4.99805 7.49805 4.99805C7.36133 4.99805 7.24414 4.94922 7.14648 4.85156L4 1.70508L0.853516 4.85156C0.755859 4.94922 0.638672 4.99805 0.501953 4.99805C0.365234 4.99805 0.246094 4.95117 0.144531 4.85742C0.046875 4.75977 -0.00195312 4.64062 -0.00195312 4.5Z" fill="#6A6D75"/>
</svg>
