<svg width="57" height="24" viewBox="0 0 57 32" fill="none" xmlns="http://www.w3.org/2000/svg">
<g clip-path="url(#clip0_6200_1091)">
<path d="M53.8667 16.56V16.3467H55.1094V16.56H54.608V17.936H54.368V16.56H53.8667ZM55.6107 16.3467L56.1974 17.168L56.7787 16.3467H56.9867V17.9467H56.752V16.768L56.2187 17.536L55.6854 16.768V17.936H55.4507V16.336L55.6107 16.3467Z" fill="#0089B9"/>
<path d="M8.24 15.968C12.4693 15.968 14.4693 18.688 14.4693 18.688L12.912 20.2667C12.912 20.2667 11.4667 18.2187 8.24 18.2187C7.46495 18.1951 6.69306 18.3275 5.97011 18.6078C5.24716 18.8882 4.58786 19.3109 4.03131 19.8508C3.47476 20.3907 3.03228 21.0369 2.73012 21.751C2.42796 22.4651 2.27226 23.2326 2.27226 24.008C2.27226 24.7834 2.42796 25.5509 2.73012 26.265C3.03228 26.9791 3.47476 27.6253 4.03131 28.1652C4.58786 28.7051 5.24716 29.1278 5.97011 29.4082C6.69306 29.6885 7.46495 29.8209 8.24 29.7973C9.78872 29.8191 11.3059 29.3588 12.5813 28.48V25.6H8.57067V23.3813H15.0293V29.216C15.0293 29.216 12.8693 32 8.24 32C6.11402 32 4.07512 31.1555 2.57183 29.6522C1.06854 28.1489 0.223999 26.11 0.223999 23.984C0.223999 21.858 1.06854 19.8191 2.57183 18.3158C4.07512 16.8125 6.11402 15.968 8.24 15.968Z" fill="#0089B9"/>
<path d="M16.6986 24C16.7032 22.9304 16.9213 21.8725 17.3401 20.8882C17.7588 19.904 18.3698 19.0132 19.1372 18.2682C19.9046 17.5231 20.8131 16.9387 21.8092 16.5492C22.8054 16.1597 23.8693 15.973 24.9386 16C26.0076 15.973 27.0713 16.1598 28.0672 16.5493C29.0631 16.9388 29.9711 17.5233 30.7381 18.2685C31.5051 19.0136 32.1156 19.9044 32.5338 20.8886C32.9519 21.8728 33.1694 22.9306 33.1733 24C33.1721 24.3688 33.1364 24.7366 33.0666 25.0987H19.2586C19.5033 26.4258 20.2058 27.625 21.2437 28.4875C22.2816 29.35 23.5891 29.8211 24.9386 29.8187C25.9199 29.8683 26.8988 29.6822 27.7933 29.2757C28.6878 28.8693 29.4719 28.2545 30.0799 27.4827L31.9999 28.928C30.5013 30.64 28.3893 32 24.9386 32C23.8693 32.027 22.8054 31.8403 21.8092 31.4508C20.8131 31.0613 19.9046 30.4769 19.1372 29.7318C18.3698 28.9868 17.7588 28.096 17.3401 27.1118C16.9213 26.1275 16.7032 25.0696 16.6986 24ZM19.2586 22.9333H30.6346C30.4084 21.5971 29.7124 20.3857 28.6719 19.5173C27.6315 18.649 26.315 18.1809 24.9599 18.1973C23.6042 18.1895 22.2892 18.6602 21.2463 19.5265C20.2035 20.3928 19.4996 21.5992 19.2586 22.9333Z" fill="#0089B9"/>
<path d="M33.1733 18.4213V16.192H47.0027V18.4213H41.3227V31.7547H38.8747V18.4213H33.1733Z" fill="#0089B9"/>
<path d="M51.808 18.8853H49.2267V16.2187H51.808V18.8853ZM51.7333 20.9813V31.776H49.296V20.9813H51.7333Z" fill="#0089B9"/>
</g>
<defs>
<clipPath id="clip0_6200_1091">
<rect width="56.9653" height="32" fill="white"/>
</clipPath>
</defs>
</svg>
