<svg width="4130" height="2329" xmlns="http://www.w3.org/2000/svg" xmlns:xlink="http://www.w3.org/1999/xlink" xml:space="preserve" overflow="hidden"><defs><clipPath id="clip0"><rect x="100" y="33" width="4130" height="2329"/></clipPath></defs><g clip-path="url(#clip0)" transform="translate(-100 -33)"><path d="M750.5 68.2411C750.5 52.3679 763.368 39.5 779.241 39.5L1477.76 39.5C1493.63 39.5 1506.5 52.3679 1506.5 68.2411L1506.5 381.759C1506.5 397.632 1493.63 410.5 1477.76 410.5L779.241 410.5C763.368 410.5 750.5 397.632 750.5 381.759Z" stroke="#70AD47" stroke-width="4.58333" stroke-miterlimit="8" fill="#FFFFFF" fill-rule="evenodd"/><path d="M1575.5 66.2415C1575.5 50.368 1588.37 37.5 1604.24 37.5L2272.76 37.5C2288.63 37.5 2301.5 50.368 2301.5 66.2415L2301.5 379.758C2301.5 395.632 2288.63 408.5 2272.76 408.5L1604.24 408.5C1588.37 408.5 1575.5 395.632 1575.5 379.758Z" stroke="#70AD47" stroke-width="4.58333" stroke-miterlimit="8" fill="#FFFFFF" fill-rule="evenodd"/><path d="M270.5 1783.39C270.5 1761.91 287.912 1744.5 309.39 1744.5L957.61 1744.5C979.088 1744.5 996.5 1761.91 996.5 1783.39L996.5 2207.61C996.5 2229.09 979.088 2246.5 957.61 2246.5L309.39 2246.5C287.912 2246.5 270.5 2229.09 270.5 2207.61Z" stroke="#FFC000" stroke-width="4.58333" stroke-miterlimit="8" fill="#FFFFFF" fill-rule="evenodd"/><path d="M3498.5 1047.51C3498.5 1028.73 3513.73 1013.5 3532.51 1013.5L4190.49 1013.5C4209.27 1013.5 4224.5 1028.73 4224.5 1047.51L4224.5 1418.49C4224.5 1437.27 4209.27 1452.5 4190.49 1452.5L3532.51 1452.5C3513.73 1452.5 3498.5 1437.27 3498.5 1418.49Z" stroke="#A5A5A5" stroke-width="4.58333" stroke-miterlimit="8" fill="#FFFFFF" fill-rule="evenodd"/><path d="M2078.5 1788.39C2078.5 1766.91 2095.91 1749.5 2117.39 1749.5L2765.61 1749.5C2787.09 1749.5 2804.5 1766.91 2804.5 1788.39L2804.5 2212.61C2804.5 2234.09 2787.09 2251.5 2765.61 2251.5L2117.39 2251.5C2095.91 2251.5 2078.5 2234.09 2078.5 2212.61Z" stroke="#FFC000" stroke-width="4.58333" stroke-miterlimit="8" fill="#FFFFFF" fill-rule="evenodd"/><path d="M3501.5 1700.59C3501.5 1681.76 3516.76 1666.5 3535.59 1666.5L4193.41 1666.5C4212.24 1666.5 4227.5 1681.76 4227.5 1700.59L4227.5 2072.41C4227.5 2091.24 4212.24 2106.5 4193.41 2106.5L3535.59 2106.5C3516.76 2106.5 3501.5 2091.24 3501.5 2072.41Z" stroke="#A5A5A5" stroke-width="4.58333" stroke-miterlimit="8" fill="#FFFFFF" fill-rule="evenodd"/><path d="M270.5 887.77C270.5 866.634 287.634 849.5 308.77 849.5L958.23 849.5C979.366 849.5 996.5 866.634 996.5 887.77L996.5 1305.23C996.5 1326.37 979.366 1343.5 958.23 1343.5L308.77 1343.5C287.634 1343.5 270.5 1326.37 270.5 1305.23Z" stroke="#FFC000" stroke-width="4.58333" stroke-miterlimit="8" fill="#FFFFFF" fill-rule="evenodd"/><text fill="#002060" font-family="Calibri,Calibri_MSFontService,sans-serif" font-weight="700" font-size="64" transform="matrix(1 0 0 1 325.743 945)">Active Learning System</text><text font-family="Calibri,Calibri_MSFontService,sans-serif" font-weight="400" font-size="64" transform="matrix(1 0 0 1 372.666 1060)">Allows customers to </text><text font-family="Calibri,Calibri_MSFontService,sans-serif" font-weight="400" font-size="64" transform="matrix(1 0 0 1 327.268 1137)">build datasets and train </text><text font-family="Calibri,Calibri_MSFontService,sans-serif" font-weight="400" font-size="64" transform="matrix(1 0 0 1 378.487 1214)">models using active </text><text font-family="Calibri,Calibri_MSFontService,sans-serif" font-weight="400" font-size="64" transform="matrix(1 0 0 1 341.225 1291)">learning </text><text font-family="Calibri,Calibri_MSFontService,sans-serif" font-weight="400" font-size="64" transform="matrix(1 0 0 1 568.673 1291)">methodology.</text><path d="M1176.5 887.77C1176.5 866.634 1193.63 849.5 1214.77 849.5L1864.23 849.5C1885.37 849.5 1902.5 866.634 1902.5 887.77L1902.5 1305.23C1902.5 1326.37 1885.37 1343.5 1864.23 1343.5L1214.77 1343.5C1193.63 1343.5 1176.5 1326.37 1176.5 1305.23Z" stroke="#FFC000" stroke-width="4.58333" stroke-miterlimit="8" fill="#FFFFFF" fill-rule="evenodd"/><text fill="#002060" font-family="Calibri,Calibri_MSFontService,sans-serif" font-weight="700" font-size="64" transform="matrix(1 0 0 1 1246.81 945)">Model Serving System</text><text font-family="Calibri,Calibri_MSFontService,sans-serif" font-weight="400" font-size="64" transform="matrix(1 0 0 1 1275.42 1065)">Serves and manages </text><text font-family="Calibri,Calibri_MSFontService,sans-serif" font-weight="400" font-size="64" transform="matrix(1 0 0 1 1310.39 1142)">the deep learning </text><text font-family="Calibri,Calibri_MSFontService,sans-serif" font-weight="400" font-size="64" transform="matrix(1 0 0 1 1437.57 1219)">models.</text><path d="M1177.5 1782.93C1177.5 1761.7 1194.7 1744.5 1215.93 1744.5L1865.07 1744.5C1886.3 1744.5 1903.5 1761.7 1903.5 1782.93L1903.5 2202.07C1903.5 2223.3 1886.3 2240.5 1865.07 2240.5L1215.93 2240.5C1194.7 2240.5 1177.5 2223.3 1177.5 2202.07Z" stroke="#FFC000" stroke-width="4.58333" stroke-miterlimit="8" fill="#FFFFFF" fill-rule="evenodd"/><text fill="#002060" font-family="Calibri,Calibri_MSFontService,sans-serif" font-weight="700" font-size="64" transform="matrix(1 0 0 1 1247.2 1842)">Import/Export system</text><text font-family="Calibri,Calibri_MSFontService,sans-serif" font-weight="400" font-size="64" transform="matrix(1 0 0 1 1277.79 1979)">Exports and imports </text><text font-family="Calibri,Calibri_MSFontService,sans-serif" font-weight="400" font-size="64" transform="matrix(1 0 0 1 1310.44 2056)">the deep learning </text><text font-family="Calibri,Calibri_MSFontService,sans-serif" font-weight="400" font-size="64" transform="matrix(1 0 0 1 1258.81 2133)">project, datasets, and </text><text font-family="Calibri,Calibri_MSFontService,sans-serif" font-weight="400" font-size="64" transform="matrix(1 0 0 1 1437.63 2210)">models.</text><path d="M2078.5 885.925C2078.5 864.703 2095.7 847.5 2116.93 847.5L2766.07 847.5C2787.3 847.5 2804.5 864.703 2804.5 885.925L2804.5 1305.07C2804.5 1326.3 2787.3 1343.5 2766.07 1343.5L2116.93 1343.5C2095.7 1343.5 2078.5 1326.3 2078.5 1305.07Z" stroke="#FFC000" stroke-width="4.58333" stroke-miterlimit="8" fill="#FFFFFF" fill-rule="evenodd"/><text fill="#002060" font-family="Calibri,Calibri_MSFontService,sans-serif" font-weight="700" font-size="64" transform="matrix(1 0 0 1 2150.2 942)">Job Scheduler System</text><text font-family="Calibri,Calibri_MSFontService,sans-serif" font-weight="400" font-size="64" transform="matrix(1 0 0 1 2267.39 1066)">schedules the </text><text font-family="Calibri,Calibri_MSFontService,sans-serif" font-weight="400" font-size="64" transform="matrix(1 0 0 1 2168.62 1143)">execution of jobs and </text><text font-family="Calibri,Calibri_MSFontService,sans-serif" font-weight="400" font-size="64" transform="matrix(1 0 0 1 2165.23 1220)">workflows, e.g. active </text><text font-family="Calibri,Calibri_MSFontService,sans-serif" font-weight="400" font-size="64" transform="matrix(1 0 0 1 2270.72 1297)">learning </text><text font-family="Calibri,Calibri_MSFontService,sans-serif" font-weight="400" font-size="64" transform="matrix(1 0 0 1 2498.17 1297)">flow.</text><text fill="#002060" font-family="Calibri,Calibri_MSFontService,sans-serif" font-weight="700" font-size="64" transform="matrix(1 0 0 1 328.001 1840)">Accounts management </text><text fill="#002060" font-family="Calibri,Calibri_MSFontService,sans-serif" font-weight="700" font-size="64" transform="matrix(1 0 0 1 539.728 1917)">system</text><text font-family="Calibri,Calibri_MSFontService,sans-serif" font-weight="400" font-size="64" transform="matrix(1 0 0 1 353.725 2015)">Creates and manages </text><text font-family="Calibri,Calibri_MSFontService,sans-serif" font-weight="400" font-size="64" transform="matrix(1 0 0 1 366.489 2092)">customers accounts.</text><text fill="#002060" font-family="Calibri,Calibri_MSFontService,sans-serif" font-weight="700" font-size="64" transform="matrix(1 0 0 1 3637.9 1100)">Deployment and </text><text fill="#002060" font-family="Calibri,Calibri_MSFontService,sans-serif" font-weight="700" font-size="64" transform="matrix(1 0 0 1 3576.23 1177)">Orchestration system</text><text font-family="Calibri,Calibri_MSFontService,sans-serif" font-weight="400" font-size="64" transform="matrix(1 0 0 1 3615.99 1270)">Deploys Geti in on</text><text font-family="Calibri,Calibri_MSFontService,sans-serif" font-weight="400" font-size="64" transform="matrix(1 0 0 1 4091.95 1270)">-</text><text font-family="Calibri,Calibri_MSFontService,sans-serif" font-weight="400" font-size="64" transform="matrix(1 0 0 1 3606.89 1347)">premises and in the </text><text font-family="Calibri,Calibri_MSFontService,sans-serif" font-weight="400" font-size="64" transform="matrix(1 0 0 1 3582.67 1424)">cloud as SaaS </text><text font-family="Calibri,Calibri_MSFontService,sans-serif" font-weight="400" font-size="64" transform="matrix(1 0 0 1 3945.33 1424)">service. </text><text fill="#002060" font-family="Calibri,Calibri_MSFontService,sans-serif" font-weight="700" font-size="64" transform="matrix(1 0 0 1 3612.78 1766)">Monitoring System</text><text font-family="Calibri,Calibri_MSFontService,sans-serif" font-weight="400" font-size="64" transform="matrix(1 0 0 1 3584.21 1919)">Monitors the services </text><text font-family="Calibri,Calibri_MSFontService,sans-serif" font-weight="400" font-size="64" transform="matrix(1 0 0 1 3641.04 1996)">performance and </text><text font-family="Calibri,Calibri_MSFontService,sans-serif" font-weight="400" font-size="64" transform="matrix(1 0 0 1 3738.3 2073)">reliability.</text><text fill="#002060" font-family="Calibri,Calibri_MSFontService,sans-serif" font-weight="700" font-size="64" transform="matrix(1 0 0 1 2270.2 1844)">DL operators</text><text font-family="Calibri,Calibri_MSFontService,sans-serif" font-weight="400" font-size="64" transform="matrix(1 0 0 1 2161.92 1979)">Creates and manages </text><text font-family="Calibri,Calibri_MSFontService,sans-serif" font-weight="400" font-size="64" transform="matrix(1 0 0 1 2152.48 2056)">the training and batch </text><text font-family="Calibri,Calibri_MSFontService,sans-serif" font-weight="400" font-size="64" transform="matrix(1 0 0 1 2168.61 2133)">inference </text><text font-family="Calibri,Calibri_MSFontService,sans-serif" font-weight="400" font-size="64" transform="matrix(1 0 0 1 2427.62 2133)">workloads. </text><text fill="#002060" font-family="Calibri,Calibri_MSFontService,sans-serif" font-weight="700" font-size="64" transform="matrix(1 0 0 1 954.367 140)">User Interface</text><text font-family="Calibri,Calibri_MSFontService,sans-serif" font-weight="400" font-size="64" transform="matrix(1 0 0 1 917.136 231)">Provides all Geti </text><text font-family="Calibri,Calibri_MSFontService,sans-serif" font-weight="400" font-size="64" transform="matrix(1 0 0 1 786.351 308)">functionality to customers </text><text font-family="Calibri,Calibri_MSFontService,sans-serif" font-weight="400" font-size="64" transform="matrix(1 0 0 1 913.791 385)">via web browser </text><text fill="#002060" font-family="Calibri,Calibri_MSFontService,sans-serif" font-weight="700" font-size="64" transform="matrix(1 0 0 1 1864.15 144)">SDK</text><text font-family="Calibri,Calibri_MSFontService,sans-serif" font-weight="400" font-size="64" transform="matrix(1 0 0 1 1655.97 229)">Allows customer with </text><text font-family="Calibri,Calibri_MSFontService,sans-serif" font-weight="400" font-size="64" transform="matrix(1 0 0 1 1655.29 306)">Geti using Python API </text><path d="M0-1.14583 18.3333-1.14583 18.3333 1.14583 0 1.14583ZM25.2083-1.14583 43.5417-1.14583 43.5417 1.14583 25.2083 1.14583ZM50.4167-1.14583 68.75-1.14583 68.75 1.14583 50.4167 1.14583ZM75.625-1.14583 83.6458-1.14583 83.6458 11.4583 81.3542 11.4583 81.3542 0 82.5 1.14583 75.625 1.14583ZM83.6458 18.3333 83.6458 36.6667 81.3542 36.6667 81.3542 18.3333ZM83.6458 43.5417 83.6458 61.875 81.3542 61.875 81.3542 43.5417ZM83.6458 68.75 83.6458 87.0833 81.3542 87.0833 81.3542 68.75ZM83.6458 93.9583 83.6458 112.292 81.3542 112.292 81.3542 93.9583ZM83.6458 119.167 83.6458 137.5 81.3542 137.5 81.3542 119.167ZM83.6458 144.375 83.6458 162.708 81.3542 162.708 81.3542 144.375ZM83.6458 169.583 83.6458 187.917 81.3542 187.917 81.3542 169.583ZM83.6458 194.792 83.6458 213.125 81.3542 213.125 81.3542 194.792ZM83.6458 220 83.6458 238.333 81.3542 238.333 81.3542 220ZM83.6458 245.208 83.6458 263.542 81.3542 263.542 81.3542 245.208ZM83.6458 270.417 83.6458 288.75 81.3542 288.75 81.3542 270.417ZM83.6458 295.625 83.6458 313.958 81.3542 313.958 81.3542 295.625ZM83.6458 320.833 83.6458 339.167 81.3542 339.167 81.3542 320.833ZM83.6458 346.042 83.6458 364.375 81.3542 364.375 81.3542 346.042ZM83.6458 371.25 83.6458 389.583 81.3542 389.583 81.3542 371.25ZM83.6458 396.458 83.6458 414.792 81.3542 414.792 81.3542 396.458ZM83.6458 421.667 83.6458 440 81.3542 440 81.3542 421.667ZM83.6458 446.875 83.6458 465.208 81.3542 465.208 81.3542 446.875ZM83.6458 472.083 83.6458 490.417 81.3542 490.417 81.3542 472.083ZM83.6458 497.292 83.6458 515.625 81.3542 515.625 81.3542 497.292ZM83.6458 522.5 83.6458 540.833 81.3542 540.833 81.3542 522.5ZM83.6458 547.708 83.6458 566.042 81.3542 566.042 81.3542 547.708ZM83.6458 572.917 83.6458 591.25 81.3542 591.25 81.3542 572.917ZM83.6458 598.125 83.6458 616.458 81.3542 616.458 81.3542 598.125ZM83.6458 623.333 83.6458 641.667 81.3542 641.667 81.3542 623.333ZM83.6458 648.542 83.6458 666.875 81.3542 666.875 81.3542 648.542ZM83.6458 673.75 83.6458 692.083 81.3542 692.083 81.3542 673.75ZM83.6458 698.958 83.6458 717.292 81.3542 717.292 81.3542 698.958ZM83.6458 724.167 83.6458 742.5 81.3542 742.5 81.3542 724.167ZM83.6458 749.375 83.6458 767.708 81.3542 767.708 81.3542 749.375ZM83.6458 774.583 83.6458 792.917 81.3542 792.917 81.3542 774.583ZM83.6458 799.792 83.6458 818.125 81.3542 818.125 81.3542 799.792ZM83.6458 825 83.6458 843.333 81.3542 843.333 81.3542 825ZM83.6458 850.208 83.6458 868.542 81.3542 868.542 81.3542 850.208ZM83.6458 875.417 83.6458 893.75 81.3542 893.75 81.3542 875.417ZM83.6458 900.625 83.6458 907.276 69.6717 907.276 69.6717 904.984 82.5 904.984 81.3542 906.13 81.3542 900.625ZM62.7967 907.276 44.4634 907.276 44.4634 904.984 62.7967 904.984ZM37.5884 907.276 27.5 907.276 27.5 904.984 37.5884 904.984ZM32.0833 919.88 4.58333 906.13 32.0833 892.38Z" fill="#4472C4" transform="matrix(1.83697e-16 1 1 -1.83697e-16 635 1340)"/><path d="M0-1.14583 18.3333-1.14583 18.3333 1.14583 0 1.14583ZM25.2083-1.14583 43.5417-1.14583 43.5417 1.14583 25.2083 1.14583ZM50.4167-1.14583 68.75-1.14583 68.75 1.14583 50.4167 1.14583ZM75.625-1.14583 93.9583-1.14583 93.9583 1.14583 75.625 1.14583ZM100.833-1.14583 119.167-1.14583 119.167 1.14583 100.833 1.14583ZM126.042-1.14583 144.375-1.14583 144.375 1.14583 126.042 1.14583ZM151.25-1.14583 169.583-1.14583 169.583 1.14583 151.25 1.14583ZM176.458-1.14583 194.792-1.14583 194.792 1.14583 176.458 1.14583ZM201.667-1.14583 203.422-1.14583 203.422 17.7241 201.13 17.7241 201.13 0 202.276 1.14583 201.667 1.14583ZM203.422 24.5991 203.422 42.9325 201.13 42.9325 201.13 24.5991ZM203.422 49.8075 203.422 68.1408 201.13 68.1408 201.13 49.8075ZM203.422 75.0158 203.422 93.3491 201.13 93.3491 201.13 75.0158ZM203.422 100.224 203.422 118.557 201.13 118.557 201.13 100.224ZM203.422 125.432 203.422 143.766 201.13 143.766 201.13 125.432ZM203.422 150.641 203.422 168.974 201.13 168.974 201.13 150.641ZM203.422 175.849 203.422 194.182 201.13 194.182 201.13 175.849ZM203.422 201.057 203.422 219.391 201.13 219.391 201.13 201.057ZM203.422 226.266 203.422 244.599 201.13 244.599 201.13 226.266ZM203.422 251.474 203.422 269.807 201.13 269.807 201.13 251.474ZM203.422 276.682 203.422 295.016 201.13 295.016 201.13 276.682ZM203.422 301.891 203.422 320.224 201.13 320.224 201.13 301.891ZM203.422 327.099 203.422 345.432 201.13 345.432 201.13 327.099ZM203.422 352.307 203.422 370.641 201.13 370.641 201.13 352.307ZM203.422 377.516 203.422 395.849 201.13 395.849 201.13 377.516ZM203.422 402.724 203.422 421.057 201.13 421.057 201.13 402.724ZM203.422 427.932 203.422 446.266 201.13 446.266 201.13 427.932ZM203.422 453.141 203.422 471.474 201.13 471.474 201.13 453.141ZM203.422 478.349 203.422 496.682 201.13 496.682 201.13 478.349ZM203.422 503.557 203.422 521.891 201.13 521.891 201.13 503.557ZM203.422 528.766 203.422 547.099 201.13 547.099 201.13 528.766ZM203.422 553.974 203.422 572.307 201.13 572.307 201.13 553.974ZM203.422 579.182 203.422 597.516 201.13 597.516 201.13 579.182ZM203.422 604.391 203.422 622.724 201.13 622.724 201.13 604.391ZM203.422 629.599 203.422 647.932 201.13 647.932 201.13 629.599ZM203.422 654.807 203.422 673.141 201.13 673.141 201.13 654.807ZM203.422 680.016 203.422 698.349 201.13 698.349 201.13 680.016ZM203.422 705.224 203.422 723.557 201.13 723.557 201.13 705.224ZM203.422 730.432 203.422 748.766 201.13 748.766 201.13 730.432ZM203.422 755.641 203.422 773.974 201.13 773.974 201.13 755.641ZM203.422 780.849 203.422 799.182 201.13 799.182 201.13 780.849ZM203.422 806.057 203.422 824.391 201.13 824.391 201.13 806.057ZM203.422 831.266 203.422 849.599 201.13 849.599 201.13 831.266ZM203.422 856.474 203.422 874.807 201.13 874.807 201.13 856.474ZM203.422 881.682 203.422 900.016 201.13 900.016 201.13 881.682ZM203.422 906.891 203.422 925.224 201.13 925.224 201.13 906.891ZM203.422 932.099 203.422 950.432 201.13 950.432 201.13 932.099ZM203.422 957.307 203.422 975.641 201.13 975.641 201.13 957.307ZM203.422 982.516 203.422 1000.85 201.13 1000.85 201.13 982.516ZM203.422 1007.72 203.422 1026.06 201.13 1026.06 201.13 1007.72ZM203.422 1032.93 203.422 1051.27 201.13 1051.27 201.13 1032.93ZM203.422 1058.14 203.422 1076.47 201.13 1076.47 201.13 1058.14ZM203.422 1083.35 203.422 1101.68 201.13 1101.68 201.13 1083.35ZM203.422 1108.56 203.422 1126.89 201.13 1126.89 201.13 1108.56ZM203.422 1133.77 203.422 1152.1 201.13 1152.1 201.13 1133.77ZM203.422 1158.97 203.422 1177.31 201.13 1177.31 201.13 1158.97ZM203.422 1184.18 203.422 1202.52 201.13 1202.52 201.13 1184.18ZM203.422 1209.39 203.422 1227.72 201.13 1227.72 201.13 1209.39ZM203.422 1234.6 203.422 1252.93 201.13 1252.93 201.13 1234.6ZM203.422 1259.81 203.422 1278.14 201.13 1278.14 201.13 1259.81ZM203.422 1285.02 203.422 1303.35 201.13 1303.35 201.13 1285.02ZM203.422 1310.22 203.422 1328.56 201.13 1328.56 201.13 1310.22ZM203.422 1335.43 203.422 1353.77 201.13 1353.77 201.13 1335.43ZM203.422 1360.64 203.422 1378.97 201.13 1378.97 201.13 1360.64ZM203.422 1385.85 203.422 1404.18 201.13 1404.18 201.13 1385.85ZM203.422 1411.06 203.422 1429.39 201.13 1429.39 201.13 1411.06ZM203.422 1436.27 203.422 1454.6 201.13 1454.6 201.13 1436.27ZM203.422 1461.47 203.422 1479.81 201.13 1479.81 201.13 1461.47ZM203.422 1486.68 203.422 1505.02 201.13 1505.02 201.13 1486.68ZM203.422 1511.89 203.422 1530.22 201.13 1530.22 201.13 1511.89ZM203.422 1537.1 203.422 1555.43 201.13 1555.43 201.13 1537.1ZM203.422 1562.31 203.422 1580.64 201.13 1580.64 201.13 1562.31ZM203.422 1587.52 203.422 1605.85 201.13 1605.85 201.13 1587.52ZM203.422 1612.72 203.422 1620.28 190.349 1620.28 190.349 1617.98 202.276 1617.98 201.13 1619.13 201.13 1612.72ZM183.474 1620.28 165.141 1620.28 165.141 1617.98 183.474 1617.98ZM158.266 1620.28 139.932 1620.28 139.932 1617.98 158.266 1617.98ZM133.057 1620.28 114.724 1620.28 114.724 1617.98 133.057 1617.98ZM107.849 1620.28 89.5157 1620.28 89.5157 1617.98 107.849 1617.98ZM82.6407 1620.28 64.3074 1620.28 64.3074 1617.98 82.6407 1617.98ZM57.4324 1620.28 39.0991 1620.28 39.0991 1617.98 57.4324 1617.98ZM37.2748 1632.88 9.77477 1619.13 37.2748 1605.38Z" fill="#4472C4" transform="matrix(1.83697e-16 1 1 -1.83697e-16 633 1343)"/><path d="M886.5 1392.27C886.5 1385.77 891.768 1380.5 898.265 1380.5L1434.73 1380.5C1441.23 1380.5 1446.5 1385.77 1446.5 1392.27L1446.5 1450.73C1446.5 1457.23 1441.23 1462.5 1434.73 1462.5L898.265 1462.5C891.768 1462.5 886.5 1457.23 886.5 1450.73Z" stroke="#FFFFFF" stroke-width="3.4375" stroke-linejoin="round" stroke-miterlimit="10" fill="#F2F2F2" fill-rule="evenodd"/><text font-family="Calibri,Calibri_MSFontService,sans-serif" font-weight="400" font-size="55" transform="matrix(1 0 0 1 933.81 1439)">Register new models</text><path d="M1.14574-0.0150022 1.38577 18.3168-0.9057 18.3468-1.14574 0.0150022ZM1.47578 25.1912 1.71582 43.5229-0.575652 43.5529-0.815687 25.2212ZM1.80583 50.3973 2.04587 68.7291-0.245603 68.7591-0.485638 50.4273ZM2.13588 75.6035 2.37592 93.9353 0.0844452 93.9653-0.15559 75.6335ZM2.46593 100.81 2.70596 119.141 0.414494 119.171 0.174458 100.84ZM2.79598 126.016 3.03601 144.348 0.744542 144.378 0.504507 126.046ZM3.12603 151.222 3.36606 169.554 1.07459 169.584 0.834555 151.252ZM3.45607 176.428 3.69611 194.76 1.40464 194.79 1.1646 176.458ZM3.78612 201.634 4.02616 219.966 1.73469 219.996 1.49465 201.664ZM4.11617 226.841 4.35621 245.172 2.06474 245.202 1.8247 226.871ZM4.44622 252.047 4.68625 270.378 2.39478 270.408 2.15475 252.077ZM4.77627 277.253 5.0163 295.585 2.72483 295.615 2.4848 277.283ZM5.10632 302.459 5.34635 320.791 3.05488 320.821 2.81485 302.489ZM5.43636 327.665 5.6764 345.997 3.38493 346.027 3.14489 327.695ZM5.76641 352.871 6.00393 371.011 3.71246 371.041 3.47494 352.901ZM18.547 366.263 5.15824 393.94-8.95064 366.623Z" fill="#4472C4" transform="matrix(-1 0 0 1 2643.16 1351)"/><path d="M2470.5 1439.67C2470.5 1426.87 2480.87 1416.5 2493.67 1416.5L2906.33 1416.5C2919.13 1416.5 2929.5 1426.87 2929.5 1439.67L2929.5 1532.33C2929.5 1545.13 2919.13 1555.5 2906.33 1555.5L2493.67 1555.5C2480.87 1555.5 2470.5 1545.13 2470.5 1532.33Z" stroke="#FFFFFF" stroke-width="3.4375" stroke-linejoin="round" stroke-miterlimit="10" fill="#F2F2F2" fill-rule="evenodd"/><text font-family="Calibri,Calibri_MSFontService,sans-serif" font-weight="400" font-size="55" transform="matrix(1 0 0 1 2490.22 1471)">Run training/batch </text><text font-family="Calibri,Calibri_MSFontService,sans-serif" font-weight="400" font-size="55" transform="matrix(1 0 0 1 2542.13 1537)">inference jobs</text><path d="M1939.53 408 1939.53 426.333 1937.24 426.333 1937.24 408ZM1939.53 433.208 1939.53 451.542 1937.24 451.542 1937.24 433.208ZM1939.53 458.417 1939.53 476.75 1937.24 476.75 1937.24 458.417ZM1939.53 483.625 1939.53 501.958 1937.24 501.958 1937.24 483.625ZM1939.53 508.833 1939.53 527.167 1937.24 527.167 1937.24 508.833ZM1939.53 534.042 1939.53 552.375 1937.24 552.375 1937.24 534.042ZM1939.53 559.25 1939.53 569.234 1928.89 569.234 1928.89 566.943 1938.38 566.943 1937.24 568.088 1937.24 559.25ZM1922.01 569.234 1903.68 569.234 1903.68 566.943 1922.01 566.943ZM1896.8 569.234 1878.47 569.234 1878.47 566.943 1896.8 566.943ZM1871.59 569.234 1853.26 569.234 1853.26 566.943 1871.59 566.943ZM1846.39 569.234 1828.05 569.234 1828.05 566.943 1846.39 566.943ZM1821.18 569.234 1802.84 569.234 1802.84 566.943 1821.18 566.943ZM1795.97 569.234 1777.64 569.234 1777.64 566.943 1795.97 566.943ZM1770.76 569.234 1752.43 569.234 1752.43 566.943 1770.76 566.943ZM1745.55 569.234 1727.22 569.234 1727.22 566.943 1745.55 566.943ZM1720.34 569.234 1702.01 569.234 1702.01 566.943 1720.34 566.943ZM1695.14 569.234 1676.8 569.234 1676.8 566.943 1695.14 566.943ZM1669.93 569.234 1651.59 569.234 1651.59 566.943 1669.93 566.943ZM1644.72 569.234 1626.39 569.234 1626.39 566.943 1644.72 566.943ZM1619.51 569.234 1601.18 569.234 1601.18 566.943 1619.51 566.943ZM1594.3 569.234 1575.97 569.234 1575.97 566.943 1594.3 566.943ZM1569.09 569.234 1550.76 569.234 1550.76 566.943 1569.09 566.943ZM1543.89 569.234 1535 569.234 1536.15 568.088 1536.15 577.535 1533.85 577.535 1533.85 566.943 1543.89 566.943ZM1536.15 584.41 1536.15 602.744 1533.85 602.744 1533.85 584.41ZM1536.15 609.619 1536.15 627.952 1533.85 627.952 1533.85 609.619ZM1536.15 634.827 1536.15 653.16 1533.85 653.16 1533.85 634.827ZM1536.15 660.035 1536.15 678.369 1533.85 678.369 1533.85 660.035ZM1536.15 685.244 1536.15 703.577 1533.85 703.577 1533.85 685.244ZM1548.75 700.676 1535 728.176 1521.25 700.676Z" fill="#4472C4"/><path d="M0-1.14583 18.3333-1.14583 18.3333 1.14583 0 1.14583ZM25.2083-1.14583 43.5417-1.14583 43.5417 1.14583 25.2083 1.14583ZM50.4167-1.14583 68.75-1.14583 68.75 1.14583 50.4167 1.14583ZM75.625-1.14583 93.9583-1.14583 93.9583 1.14583 75.625 1.14583ZM100.833-1.14583 119.167-1.14583 119.167 1.14583 100.833 1.14583ZM126.042-1.14583 144.375-1.14583 144.375 1.14583 126.042 1.14583ZM151.25-1.14583 160.371-1.14583 160.371 10.3579 158.08 10.3579 158.08 0 159.225 1.14583 151.25 1.14583ZM160.371 17.2329 160.371 35.5663 158.08 35.5663 158.08 17.2329ZM160.371 42.4413 160.371 60.7746 158.08 60.7746 158.08 42.4413ZM160.371 67.6496 160.371 85.9829 158.08 85.9829 158.08 67.6496ZM160.371 92.8579 160.371 111.191 158.08 111.191 158.08 92.8579ZM160.371 118.066 160.371 136.4 158.08 136.4 158.08 118.066ZM160.371 143.275 160.371 161.608 158.08 161.608 158.08 143.275ZM160.371 168.483 160.371 186.816 158.08 186.816 158.08 168.483ZM160.371 193.691 160.371 212.025 158.08 212.025 158.08 193.691ZM160.371 218.9 160.371 237.233 158.08 237.233 158.08 218.9ZM160.371 244.108 160.371 262.441 158.08 262.441 158.08 244.108ZM160.371 269.316 160.371 287.65 158.08 287.65 158.08 269.316ZM160.371 294.525 160.371 312.858 158.08 312.858 158.08 294.525ZM160.371 319.733 160.371 338.066 158.08 338.066 158.08 319.733ZM160.371 344.941 160.371 363.275 158.08 363.275 158.08 344.941ZM160.371 370.15 160.371 388.483 158.08 388.483 158.08 370.15ZM160.371 395.358 160.371 406.384 159.225 405.238 166.532 405.238 166.532 407.53 158.08 407.53 158.08 395.358ZM173.407 405.238 191.741 405.238 191.741 407.53 173.407 407.53ZM198.616 405.238 216.949 405.238 216.949 407.53 198.616 407.53ZM223.824 405.238 242.157 405.238 242.157 407.53 223.824 407.53ZM249.032 405.238 267.366 405.238 267.366 407.53 249.032 407.53ZM274.241 405.238 292.574 405.238 292.574 407.53 274.241 407.53ZM290.95 392.634 318.45 406.384 290.95 420.134Z" fill="#4472C4" transform="matrix(1.83697e-16 1 1 -1.83697e-16 1128 410)"/><path d="M1656.5 473.841C1656.5 452.113 1674.11 434.5 1695.84 434.5L2180.16 434.5C2201.89 434.5 2219.5 452.113 2219.5 473.841L2219.5 482.159C2219.5 503.887 2201.89 521.5 2180.16 521.5L1695.84 521.5C1674.11 521.5 1656.5 503.887 1656.5 482.159Z" stroke="#FFFFFF" stroke-width="3.4375" stroke-linejoin="round" stroke-miterlimit="10" fill="#F2F2F2" fill-rule="evenodd"/><text font-family="Calibri,Calibri_MSFontService,sans-serif" font-weight="400" font-size="50" transform="matrix(1 0 0 1 1693 494)">Makes REST API calls to </text><path d="M869.5 470.388C869.5 448.911 886.911 431.5 908.388 431.5L1393.61 431.5C1415.09 431.5 1432.5 448.911 1432.5 470.388L1432.5 478.611C1432.5 500.089 1415.09 517.5 1393.61 517.5L908.388 517.5C886.911 517.5 869.5 500.089 869.5 478.611Z" stroke="#FFFFFF" stroke-width="3.4375" stroke-linejoin="round" stroke-miterlimit="10" fill="#F2F2F2" fill-rule="evenodd"/><text font-family="Calibri,Calibri_MSFontService,sans-serif" font-weight="400" font-size="50" transform="matrix(1 0 0 1 905.147 491)">Makes REST API calls to </text><path d="M102.5 752.475C102.5 739.234 113.234 728.5 126.475 728.5L2943.53 728.5C2956.77 728.5 2967.5 739.234 2967.5 752.475L2967.5 2335.52C2967.5 2348.77 2956.77 2359.5 2943.53 2359.5L126.475 2359.5C113.234 2359.5 102.5 2348.77 102.5 2335.52Z" stroke="#2F528F" stroke-width="4.58333" stroke-miterlimit="8" stroke-dasharray="18.3333 13.75" fill="none" fill-rule="evenodd"/><path d="M0.00416288-1.14583 510.516 0.708908 510.508 3.00056-0.00416288 1.14583ZM505.979-11.9118 533.429 1.93799 505.879 15.588Z" fill="#4472C4" transform="matrix(-1 0 0 1 3498.43 1233)"/><path d="M3108.5 1179.5C3108.5 1164.59 3120.59 1152.5 3135.5 1152.5L3391.5 1152.5C3406.41 1152.5 3418.5 1164.59 3418.5 1179.5L3418.5 1287.5C3418.5 1302.41 3406.41 1314.5 3391.5 1314.5L3135.5 1314.5C3120.59 1314.5 3108.5 1302.41 3108.5 1287.5Z" stroke="#FFFFFF" stroke-width="3.4375" stroke-linejoin="round" stroke-miterlimit="10" fill="#F2F2F2" fill-rule="evenodd"/><text font-family="Calibri,Calibri_MSFontService,sans-serif" font-weight="400" font-size="55" transform="matrix(1 0 0 1 3136.57 1218)">Deploy and </text><text font-family="Calibri,Calibri_MSFontService,sans-serif" font-weight="400" font-size="55" transform="matrix(1 0 0 1 3135.08 1284)">orchestrate</text><path d="M7.75159e-07-1.14583 510.551-1.14549 510.551 1.14618-7.75159e-07 1.14583ZM505.968-13.7497 533.468 0.000360892 505.968 13.7503Z" fill="#4472C4" transform="matrix(-1 0 0 1 3500.47 1886)"/><path d="M3157.52 1842.5 3330.48 1842.5C3353.13 1842.5 3371.5 1859.29 3371.5 1880 3371.5 1900.71 3353.13 1917.5 3330.48 1917.5L3157.52 1917.5C3134.87 1917.5 3116.5 1900.71 3116.5 1880 3116.5 1859.29 3134.87 1842.5 3157.52 1842.5Z" stroke="#FFFFFF" stroke-width="3.4375" stroke-linejoin="round" stroke-miterlimit="10" fill="#F2F2F2" fill-rule="evenodd"/><text font-family="Calibri,Calibri_MSFontService,sans-serif" font-weight="400" font-size="55" transform="matrix(1 0 0 1 3152.23 1898)">Monitor</text><rect x="2243" y="1336" width="17.0002" height="15.9998" fill="#FFC000"/><path d="M1538.85 1743.38 1538.85 1725.05 1541.15 1725.05 1541.15 1743.38ZM1538.85 1718.17 1538.85 1699.84 1541.15 1699.84 1541.15 1718.17ZM1538.85 1692.96 1538.85 1674.63 1541.15 1674.63 1541.15 1692.96ZM1540.25 1666.86 1558.58 1666.86 1558.58 1669.15 1540.25 1669.15ZM1565.46 1666.86 1583.79 1666.86 1583.79 1669.15 1565.46 1669.15ZM1590.67 1666.86 1609 1666.86 1609 1669.15 1590.67 1669.15ZM1615.87 1666.86 1634.21 1666.86 1634.21 1669.15 1615.87 1669.15ZM1641.08 1666.86 1659.42 1666.86 1659.42 1669.15 1641.08 1669.15ZM1666.29 1666.86 1684.62 1666.86 1684.62 1669.15 1666.29 1669.15ZM1691.5 1666.86 1709.83 1666.86 1709.83 1669.15 1691.5 1669.15ZM1716.71 1666.86 1735.04 1666.86 1735.04 1669.15 1716.71 1669.15ZM1741.92 1666.86 1760.25 1666.86 1760.25 1669.15 1741.92 1669.15ZM1767.12 1666.86 1785.46 1666.86 1785.46 1669.15 1767.12 1669.15ZM1792.33 1666.86 1810.67 1666.86 1810.67 1669.15 1792.33 1669.15ZM1817.54 1666.86 1835.87 1666.86 1835.87 1669.15 1817.54 1669.15ZM1842.75 1666.86 1861.08 1666.86 1861.08 1669.15 1842.75 1669.15ZM1867.96 1666.86 1886.29 1666.86 1886.29 1669.15 1867.96 1669.15ZM1893.17 1666.86 1911.5 1666.86 1911.5 1669.15 1893.17 1669.15ZM1918.37 1666.86 1936.71 1666.86 1936.71 1669.15 1918.37 1669.15ZM1943.58 1666.86 1961.92 1666.86 1961.92 1669.15 1943.58 1669.15ZM1968.79 1666.86 1987.12 1666.86 1987.12 1669.15 1968.79 1669.15ZM1994 1666.86 2012.33 1666.86 2012.33 1669.15 1994 1669.15ZM2019.21 1666.86 2037.54 1666.86 2037.54 1669.15 2019.21 1669.15ZM2044.42 1666.86 2062.75 1666.86 2062.75 1669.15 2044.42 1669.15ZM2069.62 1666.86 2087.96 1666.86 2087.96 1669.15 2069.62 1669.15ZM2094.83 1666.86 2113.17 1666.86 2113.17 1669.15 2094.83 1669.15ZM2120.04 1666.86 2138.37 1666.86 2138.37 1669.15 2120.04 1669.15ZM2145.25 1666.86 2163.58 1666.86 2163.58 1669.15 2145.25 1669.15ZM2170.46 1666.86 2188.79 1666.86 2188.79 1669.15 2170.46 1669.15ZM2195.67 1666.86 2214 1666.86 2214 1669.15 2195.67 1669.15ZM2220.87 1666.86 2239.21 1666.86 2239.21 1669.15 2220.87 1669.15ZM2246.08 1666.86 2264.42 1666.86 2264.42 1669.15 2246.08 1669.15ZM2271.29 1666.86 2289.62 1666.86 2289.62 1669.15 2271.29 1669.15ZM2296.5 1666.86 2314.83 1666.86 2314.83 1669.15 2296.5 1669.15ZM2321.71 1666.86 2340.04 1666.86 2340.04 1669.15 2321.71 1669.15ZM2346.92 1666.86 2365.25 1666.86 2365.25 1669.15 2346.92 1669.15ZM2372.12 1666.86 2390.46 1666.86 2390.46 1669.15 2372.12 1669.15ZM2397.33 1666.86 2415.67 1666.86 2415.67 1669.15 2397.33 1669.15ZM2422.54 1666.86 2423.6 1666.86 2422.45 1668 2422.45 1650.73 2424.74 1650.73 2424.74 1669.15 2422.54 1669.15ZM2422.45 1643.85 2422.45 1625.52 2424.74 1625.52 2424.74 1643.85ZM2422.45 1618.64 2422.45 1600.31 2424.74 1600.31 2424.74 1618.64ZM2422.45 1593.43 2422.45 1575.1 2424.74 1575.1 2424.74 1593.43ZM2422.45 1568.23 2422.45 1549.89 2424.74 1549.89 2424.74 1568.23ZM2422.45 1543.02 2422.45 1524.68 2424.74 1524.68 2424.74 1543.02ZM2422.45 1517.81 2422.45 1499.48 2424.74 1499.48 2424.74 1517.81ZM2422.45 1492.6 2422.45 1474.27 2424.74 1474.27 2424.74 1492.6ZM2422.45 1467.39 2422.45 1449.06 2424.74 1449.06 2424.74 1467.39ZM2422.45 1442.18 2422.45 1423.85 2424.74 1423.85 2424.74 1442.18ZM2422.45 1416.98 2422.45 1398.64 2424.74 1398.64 2424.74 1416.98ZM2422.45 1391.77 2422.45 1374.92 2424.74 1374.92 2424.74 1391.77ZM2409.85 1379.5 2423.6 1352 2437.35 1379.5Z" fill="#4472C4"/><rect x="2415" y="1336" width="17.0002" height="15.9998" fill="#FFC000"/><path d="M1603.5 1651.07C1603.5 1637.5 1614.5 1626.5 1628.07 1626.5L2277.93 1626.5C2291.5 1626.5 2302.5 1637.5 2302.5 1651.07L2302.5 1681.93C2302.5 1695.5 2291.5 1706.5 2277.93 1706.5L1628.07 1706.5C1614.5 1706.5 1603.5 1695.5 1603.5 1681.93Z" stroke="#FFFFFF" stroke-width="3.4375" stroke-linejoin="round" stroke-miterlimit="10" fill="#F2F2F2" fill-rule="evenodd"/><text font-family="Calibri,Calibri_MSFontService,sans-serif" font-weight="400" font-size="55" transform="matrix(1 0 0 1 1633.71 1684)">Schedule import/export jobs</text><path d="M679.5 1541.31C679.5 1520.43 696.428 1503.5 717.311 1503.5L1548.69 1503.5C1569.57 1503.5 1586.5 1520.43 1586.5 1541.31L1586.5 1548.69C1586.5 1569.57 1569.57 1586.5 1548.69 1586.5L717.311 1586.5C696.428 1586.5 679.5 1569.57 679.5 1548.69Z" stroke="#FFFFFF" stroke-width="3.4375" stroke-linejoin="round" stroke-miterlimit="10" fill="#F2F2F2" fill-rule="evenodd"/><text font-family="Calibri,Calibri_MSFontService,sans-serif" font-weight="400" font-size="55" transform="matrix(1 0 0 1 702.505 1562)">Schedule training/batch inference jobs</text><rect x="2635" y="1334" width="17.0002" height="16.9999" fill="#FFC000"/><rect x="2630" y="1740" width="16.9998" height="15.9998" fill="#FFC000"/><path d="M3054.5 61.7678C3054.5 58.8584 3056.86 56.4999 3059.77 56.4999L3154.23 56.4999C3157.14 56.4999 3159.5 58.8584 3159.5 61.7678L3159.5 119.232C3159.5 122.141 3157.14 124.5 3154.23 124.5L3059.77 124.5C3056.86 124.5 3054.5 122.141 3054.5 119.232Z" stroke="#70AD47" stroke-width="4.58333" stroke-miterlimit="8" fill="#FFFFFF" fill-rule="evenodd"/><text font-family="Calibri,Calibri_MSFontService,sans-serif" font-weight="400" font-size="64" transform="matrix(1 0 0 1 3205.04 112)">Client component </text><path d="M3054.5 176.691C3054.5 173.824 3056.82 171.5 3059.69 171.5L3154.31 171.5C3157.18 171.5 3159.5 173.824 3159.5 176.691L3159.5 233.31C3159.5 236.176 3157.18 238.5 3154.31 238.5L3059.69 238.5C3056.82 238.5 3054.5 236.176 3054.5 233.31Z" stroke="#FFC000" stroke-width="4.58333" stroke-miterlimit="8" fill="#FFFFFF" fill-rule="evenodd"/><text font-family="Calibri,Calibri_MSFontService,sans-serif" font-weight="400" font-size="64" transform="matrix(1 0 0 1 3205.04 226)">Server component </text><path d="M3053.5 283.923C3053.5 280.928 3055.93 278.5 3058.92 278.5L3154.08 278.5C3157.07 278.5 3159.5 280.928 3159.5 283.923L3159.5 343.077C3159.5 346.072 3157.07 348.5 3154.08 348.5L3058.92 348.5C3055.93 348.5 3053.5 346.072 3053.5 343.077Z" stroke="#A5A5A5" stroke-width="4.58333" stroke-miterlimit="8" fill="#FFFFFF" fill-rule="evenodd"/><text font-family="Calibri,Calibri_MSFontService,sans-serif" font-weight="400" font-size="64" transform="matrix(1 0 0 1 3205.04 334)">DevOps component </text><path d="M3053.5 401.485C3053.5 400.941 3053.94 400.5 3054.48 400.5L3158.51 400.5C3159.06 400.5 3159.5 400.941 3159.5 401.485L3159.5 466.515C3159.5 467.059 3159.06 467.5 3158.51 467.5L3054.48 467.5C3053.94 467.5 3053.5 467.059 3053.5 466.515Z" stroke="#2F528F" stroke-width="4.58333" stroke-miterlimit="8" stroke-dasharray="18.3333 13.75" fill="none" fill-rule="evenodd"/><text font-family="Calibri,Calibri_MSFontService,sans-serif" font-weight="400" font-size="64" transform="matrix(1 0 0 1 3205.04 451)">Grouped/connected components </text></g></svg>