<svg width="32" height="32" viewBox="0 0 32 32" fill="none" xmlns="http://www.w3.org/2000/svg">
<path d="M4.46976 16.174H8.64976V18H9.60676V16.174H11.0148V15.393H9.60676V10.3H8.12176L4.46976 15.36V16.174ZM8.69376 15.426H5.40476L8.69376 10.872V15.426ZM16.0323 16.317C17.3413 14.876 17.8033 13.908 17.8033 12.742C17.8033 11.169 16.5713 10.113 15.0203 10.113C13.3153 10.113 12.0283 11.29 12.0283 12.852C12.0283 14.348 13.1173 15.338 14.5913 15.338C15.2073 15.338 15.8013 15.14 16.2743 14.777C16.0213 15.14 15.6913 15.514 15.2513 15.965L13.2713 17.978V18H14.5033L16.0323 16.317ZM16.8243 12.797C16.8243 13.864 15.9773 14.612 14.8773 14.612C13.7003 14.612 13.0073 13.864 13.0073 12.852C13.0073 11.785 13.7883 10.916 14.9763 10.916C15.9993 10.916 16.8243 11.653 16.8243 12.797ZM19.1955 12.181C19.1955 13.402 19.9765 14.161 21.0435 14.161C22.1105 14.161 22.8915 13.391 22.8915 12.17C22.8915 10.949 22.1215 10.19 21.0545 10.19C19.9875 10.19 19.1955 10.96 19.1955 12.181ZM25.5865 10.278L23.0785 14.018L20.1745 18.022H21.0105L23.4965 14.304L26.4225 10.278H25.5865ZM21.0435 10.817C21.6705 10.817 22.1435 11.323 22.1435 12.181C22.1435 13.028 21.6815 13.523 21.0545 13.523C20.4055 13.523 19.9545 13.017 19.9545 12.17C19.9545 11.312 20.3945 10.817 21.0435 10.817ZM27.4015 16.119C27.4015 14.898 26.6095 14.139 25.5535 14.139C24.4865 14.139 23.7165 14.909 23.7165 16.13C23.7165 17.351 24.4755 18.11 25.5425 18.11C26.5985 18.11 27.4015 17.34 27.4015 16.119ZM25.5535 17.483C24.9155 17.483 24.4645 16.977 24.4645 16.119C24.4645 15.272 24.9045 14.777 25.5425 14.777C26.1805 14.777 26.6535 15.283 26.6535 16.13C26.6535 16.988 26.1915 17.483 25.5535 17.483Z" fill="#E3E3E5"/>
<rect x="4" y="24" width="24" height="2" rx="1" fill="#585A62"/>
<rect x="4" y="24" width="11" height="2" rx="1" fill="#FF5662"/>
</svg>
