<svg width="16" height="16" viewBox="0 0 16 16" fill="none" xmlns="http://www.w3.org/2000/svg">
<path d="M1 3V13C1 13.264 1.10232 13.5042 1.26947 13.6829C1.45197 13.878 1.71174 14 2 14H7.75778C7.45697 13.5506 7.23495 13.044 7.11151 12.5H2.5V3.5L6.42953 3.50283L7.43757 5.24876C7.53166 5.41171 7.70326 5.50207 7.87891 5.5H13.5V7.46776C14.083 7.7575 14.5943 8.16996 15 8.67134V5C15 4.73598 14.8977 4.49585 14.7305 4.31711C14.548 4.12197 14.2883 4 14 4H8.44645L7.43686 2.25139C7.34357 2.08983 7.17408 1.99951 7 2H2C1.71621 2 1.46002 2.11822 1.27801 2.3081C1.10581 2.48774 1 2.73151 1 3Z" fill="white"/>
<path fill-rule="evenodd" clip-rule="evenodd" d="M15 11.5C15 13.433 13.433 15 11.5 15C9.567 15 8 13.433 8 11.5C8 9.567 9.567 8 11.5 8C13.433 8 15 9.567 15 11.5ZM11 9.25C11 9.11193 11.1119 9 11.25 9H11.75C11.8881 9 12 9.11193 12 9.25V11H13.75C13.8881 11 14 11.1119 14 11.25V11.75C14 11.8881 13.8881 12 13.75 12H12V13.75C12 13.8881 11.8881 14 11.75 14H11.25C11.1119 14 11 13.8881 11 13.75V12H9.25C9.11193 12 9 11.8881 9 11.75V11.25C9 11.1119 9.11193 11 9.25 11H11V9.25Z" fill="white"/>
</svg>
