<svg width="16" height="16" viewBox="0 0 16 16" fill="none" xmlns="http://www.w3.org/2000/svg">
<path d="M5.75 1C5.88807 1 6 1.11193 6 1.25V2H4V1.25C4 1.11193 4.11193 1 4.25 1H5.75Z" fill="white"/>
<path d="M7.33333 9L6.5 6.5L5.66667 9H7.33333Z" fill="white"/>
<path fill-rule="evenodd" clip-rule="evenodd" d="M4 3C3.44772 3 3 3.44771 3 4V12C3 12.5523 3.44772 13 4 13H12C12.5523 13 13 12.5523 13 12V4C13 3.44771 12.5523 3 12 3H4ZM5.94302 5.17094C5.97705 5.06886 6.07258 5 6.18019 5H6.81981C6.92742 5 7.02295 5.06886 7.05698 5.17094L8.89031 10.6709C8.94427 10.8328 8.82378 11 8.65314 11H8.18019C8.07258 11 7.97705 10.9311 7.94302 10.8291L7.66667 10H5.33333L5.05698 10.8291C5.02295 10.9311 4.92742 11 4.81981 11H4.34686C4.17622 11 4.05572 10.8328 4.10969 10.6709L5.94302 5.17094ZM10 5.25C10 5.11193 10.1119 5 10.25 5H10.75C10.8881 5 11 5.11193 11 5.25V10.75C11 10.8881 10.8881 11 10.75 11H10.25C10.1119 11 10 10.8881 10 10.75V5.25Z" fill="white"/>
<path d="M14 6V4H14.75C14.8881 4 15 4.11193 15 4.25V5.75C15 5.88807 14.8881 6 14.75 6H14Z" fill="white"/>
<path d="M14 7V9H14.75C14.8881 9 15 8.88807 15 8.75V7.25C15 7.11193 14.8881 7 14.75 7H14Z" fill="white"/>
<path d="M14 12V10H14.75C14.8881 10 15 10.1119 15 10.25V11.75C15 11.8881 14.8881 12 14.75 12H14Z" fill="white"/>
<path d="M12 14.75V14H10V14.75C10 14.8881 10.1119 15 10.25 15H11.75C11.8881 15 12 14.8881 12 14.75Z" fill="white"/>
<path d="M7 14H9V14.75C9 14.8881 8.88807 15 8.75 15H7.25C7.11193 15 7 14.8881 7 14.75V14Z" fill="white"/>
<path d="M6 14H4V14.75C4 14.8881 4.11193 15 4.25 15H5.75C5.88807 15 6 14.8881 6 14.75V14Z" fill="white"/>
<path d="M2 10L2 12H1.25C1.11193 12 1 11.8881 1 11.75V10.25C1 10.1119 1.11193 10 1.25 10H2Z" fill="white"/>
<path d="M2 9L2 7H1.25C1.11193 7 1 7.11193 1 7.25V8.75C1 8.88807 1.11193 9 1.25 9H2Z" fill="white"/>
<path d="M2 4L2 6H1.25C1.11193 6 1 5.88807 1 5.75V4.25C1 4.11193 1.11193 4 1.25 4H2Z" fill="white"/>
<path d="M7 2V1.25C7 1.11193 7.11193 1 7.25 1L8.75 1C8.88807 1 9 1.11193 9 1.25V2H7Z" fill="white"/>
<path d="M12 2H10V1.25C10 1.11193 10.1119 1 10.25 1L11.75 1C11.8881 1 12 1.11193 12 1.25V2Z" fill="white"/>
</svg>
