<svg width="168" height="32" viewBox="0 0 168 32" fill="none" xmlns="http://www.w3.org/2000/svg">
<path d="M9.908 20L10.724 17.972H14.804L15.62 20H17.288L13.784 11.576H11.804L8.288 20H9.908ZM11.204 16.748L12.764 12.884L14.312 16.748H11.204ZM20.0442 14.072H18.6282V20H20.1042V17.036C20.1042 15.908 20.7282 15.128 21.6162 15.128C22.4202 15.128 22.8522 15.68 22.8522 16.484V20H24.3282V16.352C24.3282 14.936 23.5242 13.928 22.1322 13.928C21.2442 13.928 20.5002 14.372 20.0442 15.152V14.072ZM27.5364 14.072H26.1204V20H27.5964V17.036C27.5964 15.908 28.2204 15.128 29.1084 15.128C29.9124 15.128 30.3444 15.68 30.3444 16.484V20H31.8204V16.352C31.8204 14.936 31.0164 13.928 29.6244 13.928C28.7364 13.928 27.9924 14.372 27.5364 15.152V14.072ZM36.4686 20.204C38.3166 20.204 39.6726 18.776 39.6726 17.036C39.6726 15.26 38.3286 13.868 36.5046 13.868C34.6566 13.868 33.3006 15.296 33.3006 17.024C33.3006 18.812 34.6446 20.204 36.4686 20.204ZM36.4926 18.992C35.5566 18.992 34.8006 18.212 34.8006 17.024C34.8006 15.86 35.5086 15.068 36.4806 15.068C37.4166 15.068 38.1726 15.848 38.1726 17.036C38.1726 18.212 37.4646 18.992 36.4926 18.992ZM41.7154 17.888C41.7154 19.388 42.3994 20 43.9354 20H44.8114V18.824H44.1874C43.5514 18.824 43.1914 18.536 43.1914 17.756V15.248H44.8114V14.072H43.1794V12.392H41.7394V14.072H40.6354V15.248H41.7154V17.888ZM50.1984 20H51.5544V16.484C51.5544 14.792 50.6064 13.892 48.9984 13.892C47.9784 13.892 47.1504 14.216 46.4544 14.744L46.9704 15.716C47.6424 15.26 48.2784 15.02 48.8184 15.02C49.6464 15.02 50.1504 15.488 50.1504 16.4V16.52H48.5424C46.7784 16.52 45.9264 17.24 45.9264 18.344C45.9264 19.4 46.7424 20.144 47.9184 20.144C48.8904 20.144 49.6584 19.748 50.1984 18.86V20ZM48.6144 17.372H50.1504C50.1504 18.428 49.2624 19.136 48.3744 19.136C47.6904 19.136 47.3304 18.764 47.3304 18.284C47.3304 17.744 47.6904 17.372 48.6144 17.372ZM53.7935 17.888C53.7935 19.388 54.4775 20 56.0135 20H56.8895V18.824H56.2655C55.6295 18.824 55.2695 18.536 55.2695 17.756V15.248H56.8895V14.072H55.2575V12.392H53.8175V14.072H52.7135V15.248H53.7935V17.888ZM59.9859 11.456H58.3899V12.908H59.9859V11.456ZM58.4499 14.072V20H59.9259V14.072H58.4499ZM64.6952 20.204C66.5432 20.204 67.8992 18.776 67.8992 17.036C67.8992 15.26 66.5552 13.868 64.7312 13.868C62.8832 13.868 61.5272 15.296 61.5272 17.024C61.5272 18.812 62.8712 20.204 64.6952 20.204ZM64.7192 18.992C63.7832 18.992 63.0272 18.212 63.0272 17.024C63.0272 15.86 63.7352 15.068 64.7072 15.068C65.6432 15.068 66.3992 15.848 66.3992 17.036C66.3992 18.212 65.6912 18.992 64.7192 18.992ZM70.8645 14.072H69.4485V20H70.9245V17.036C70.9245 15.908 71.5485 15.128 72.4365 15.128C73.2405 15.128 73.6725 15.68 73.6725 16.484V20H75.1485V16.352C75.1485 14.936 74.3445 13.928 72.9525 13.928C72.0645 13.928 71.3205 14.372 70.8645 15.152V14.072ZM81.7647 18.248C81.7647 17.168 81.2007 16.604 79.3167 16.352C78.2607 16.208 78.0447 15.98 78.0447 15.644C78.0447 15.308 78.3927 14.996 79.1847 14.996C79.7727 14.996 80.4207 15.188 81.1407 15.596L81.5727 14.576C80.8767 14.132 80.0847 13.904 79.2207 13.904C77.6607 13.904 76.7607 14.756 76.7607 15.728C76.7607 16.784 77.3007 17.336 79.1247 17.588C80.2407 17.732 80.4807 17.972 80.4807 18.332C80.4807 18.74 80.1087 19.076 79.1967 19.076C78.5487 19.076 77.7927 18.848 77.0127 18.404L76.5327 19.436C77.3007 19.916 78.1647 20.168 79.1607 20.168C80.8167 20.168 81.7647 19.292 81.7647 18.248ZM87.1419 14.072H85.7259V20H87.2019V17.372C87.2019 16.052 87.8259 15.428 89.1339 15.428H89.6979V14.036H89.2299C88.3179 14.036 87.5619 14.468 87.1419 15.5V14.072ZM93.6974 19.1C92.7854 19.1 92.0054 18.488 91.8494 17.432H96.3614C96.3854 17.3 96.4094 17.12 96.4094 16.88C96.4094 15.068 95.2334 13.868 93.5414 13.868C91.8374 13.868 90.4334 15.224 90.4334 17.036C90.4334 18.932 91.6574 20.204 93.5654 20.204C94.6454 20.204 95.4854 19.832 96.1694 19.136L95.4854 18.332C94.9694 18.848 94.3454 19.1 93.6974 19.1ZM93.5294 14.948C94.2974 14.948 94.9094 15.476 95.0054 16.568H91.8614C92.0294 15.524 92.7254 14.948 93.5294 14.948ZM104.015 14.072H102.587V15.116C102.143 14.36 101.411 13.928 100.523 13.928C99.0232 13.928 97.6912 15.2 97.6912 17.06C97.6912 18.944 99.0112 20.144 100.415 20.144C101.279 20.144 102.035 19.76 102.539 19.064V22.52H104.015V14.072ZM102.575 17.012C102.575 18.116 101.735 18.932 100.835 18.932C99.9112 18.932 99.1912 18.236 99.1912 17.036C99.1912 15.836 99.9112 15.128 100.859 15.128C101.771 15.128 102.575 15.944 102.575 17.012ZM110.094 20H111.522V14.072H110.046V17.036C110.046 18.164 109.41 18.932 108.522 18.932C107.73 18.932 107.298 18.392 107.298 17.588V14.072H105.81V17.72C105.81 19.124 106.614 20.144 108.006 20.144C108.882 20.144 109.638 19.7 110.094 18.92V20ZM114.959 11.456H113.363V12.908H114.959V11.456ZM113.423 14.072V20H114.899V14.072H113.423ZM118.228 14.072H116.812V20H118.288V17.372C118.288 16.052 118.912 15.428 120.22 15.428H120.784V14.036H120.316C119.404 14.036 118.648 14.468 118.228 15.5V14.072ZM124.783 19.1C123.871 19.1 123.091 18.488 122.935 17.432H127.447C127.471 17.3 127.495 17.12 127.495 16.88C127.495 15.068 126.319 13.868 124.627 13.868C122.923 13.868 121.519 15.224 121.519 17.036C121.519 18.932 122.743 20.204 124.651 20.204C125.731 20.204 126.571 19.832 127.255 19.136L126.571 18.332C126.055 18.848 125.431 19.1 124.783 19.1ZM124.615 14.948C125.383 14.948 125.995 15.476 126.091 16.568H122.947C123.115 15.524 123.811 14.948 124.615 14.948ZM133.673 20H135.101V11.24H133.625V15.032C133.181 14.336 132.473 13.928 131.609 13.928C130.109 13.928 128.777 15.2 128.777 17.06C128.777 18.944 130.097 20.144 131.501 20.144C132.401 20.144 133.169 19.736 133.673 18.992V20ZM133.661 17.012C133.661 18.116 132.821 18.932 131.921 18.932C130.997 18.932 130.277 18.236 130.277 17.036C130.277 15.836 130.997 15.128 131.945 15.128C132.857 15.128 133.661 15.944 133.661 17.012ZM138.66 14.072H136.932V15.836H138.66V14.072ZM138.66 18.236H136.932V20H138.66V18.236Z" fill="#E3E3E5"/>
<rect x="144" y="8" width="16" height="16" rx="2" fill="#C81326"/>
<path d="M148.887 20H155.199V18.728H150.819L152.547 17.276C154.539 15.656 154.995 14.912 154.995 13.892C154.995 12.38 153.867 11.396 152.091 11.396C150.063 11.396 148.899 12.68 148.863 14.516H150.351C150.399 13.28 151.035 12.668 152.043 12.668C152.835 12.668 153.435 13.184 153.435 13.916C153.435 14.54 153.207 15.008 151.731 16.268L148.887 18.692V20Z" fill="white"/>
</svg>
