<svg width="368" height="214" viewBox="0 0 368 214" fill="none" xmlns="http://www.w3.org/2000/svg">
<rect width="368" height="214" fill="#3C3E42"/>
<rect x="8" y="48" width="348" height="1" fill="#242528"/>
<rect x="8" y="89" width="348" height="1" fill="#242528"/>
<rect x="8" y="130" width="348" height="1" fill="#242528"/>
<g clip-path="url(#clip0_30410_229076)">
<path fill-rule="evenodd" clip-rule="evenodd" d="M29 64H19L19 74H29V64ZM19 63C18.4477 63 18 63.4477 18 64V74C18 74.5523 18.4477 75 19 75H29C29.5523 75 30 74.5523 30 74V64C30 63.4477 29.5523 63 29 63H19Z" fill="white"/>
</g>
<g clip-path="url(#clip1_30410_229076)">
<path fill-rule="evenodd" clip-rule="evenodd" d="M29 105H19L19 115H29V105ZM19 104C18.4477 104 18 104.448 18 105V115C18 115.552 18.4477 116 19 116H29C29.5523 116 30 115.552 30 115V105C30 104.448 29.5523 104 29 104H19Z" fill="white"/>
</g>
<g clip-path="url(#clip2_30410_229076)">
<path fill-rule="evenodd" clip-rule="evenodd" d="M29 146H19L19 156H29V146ZM19 145C18.4477 145 18 145.448 18 146V156C18 156.552 18.4477 157 19 157H29C29.5523 157 30 156.552 30 156V146C30 145.448 29.5523 145 29 145H19Z" fill="white"/>
</g>
<rect x="40" y="102" width="28" height="16" rx="2" fill="#2E2F32"/>
<path d="M48.543 113.373C46.904 113.373 45.672 112.053 45.672 110.139C45.672 108.302 46.893 106.927 48.587 106.927C49.61 106.927 50.413 107.378 51.029 108.456L51.777 107.961C51.15 106.795 50.061 106.113 48.62 106.113C46.365 106.113 44.671 107.884 44.671 110.161C44.671 112.548 46.266 114.187 48.521 114.187C50.083 114.187 51.194 113.428 51.81 112.284L51.095 111.833C50.49 112.878 49.632 113.373 48.543 113.373ZM57.146 114H58.026V110.865C58.026 109.336 57.168 108.522 55.826 108.522C54.913 108.522 54.22 108.83 53.626 109.358L54.033 109.963C54.583 109.512 55.166 109.259 55.705 109.259C56.585 109.259 57.124 109.798 57.124 110.832V110.909H55.463C53.967 110.909 53.175 111.558 53.175 112.559C53.175 113.494 53.945 114.132 54.979 114.132C55.914 114.132 56.706 113.648 57.146 112.79V114ZM55.496 111.525H57.124C57.069 112.68 56.156 113.45 55.199 113.45C54.495 113.45 54.077 113.043 54.077 112.526C54.077 111.943 54.484 111.525 55.496 111.525ZM60.7075 108.687H59.7945V114H60.7295V111.569C60.7295 110.205 61.3565 109.545 62.6545 109.545H63.0615V108.654H62.6765C61.7745 108.654 61.0595 109.083 60.7075 109.963V108.687Z" fill="#E3E3E5"/>
<rect x="40" y="143" width="67" height="16" rx="2" fill="#2E2F32"/>
<path d="M45.012 147.3V155H46.002V152.063H48.169C49.951 152.063 51.117 151.106 51.117 149.654C51.117 148.246 50.094 147.3 48.345 147.3H45.012ZM48.312 148.125C49.478 148.125 50.116 148.73 50.116 149.676C50.116 150.589 49.423 151.238 48.235 151.238H46.002V148.125H48.312ZM54.9411 154.461C53.9841 154.461 53.1701 153.757 53.0601 152.602H57.3831C57.3941 152.514 57.4051 152.393 57.4051 152.239C57.4051 150.534 56.3051 149.5 54.8641 149.5C53.3791 149.5 52.1471 150.71 52.1471 152.338C52.1471 154.032 53.2361 155.187 54.8641 155.187C55.8541 155.187 56.6131 154.824 57.2181 154.131L56.7231 153.625C56.1951 154.208 55.6011 154.461 54.9411 154.461ZM54.8641 150.215C55.7001 150.215 56.4041 150.809 56.5031 151.975H53.0711C53.2141 150.875 53.9841 150.215 54.8641 150.215ZM63.322 155H64.235V146.97H63.3V150.721C62.882 150.017 62.167 149.555 61.309 149.555C59.989 149.555 58.735 150.655 58.735 152.371C58.735 154.065 59.923 155.132 61.221 155.132C62.101 155.132 62.871 154.659 63.322 153.9V155ZM63.333 152.316C63.333 153.482 62.431 154.362 61.463 154.362C60.451 154.362 59.681 153.603 59.681 152.349C59.681 151.073 60.473 150.314 61.496 150.314C62.464 150.314 63.333 151.172 63.333 152.316ZM68.6218 154.461C67.6648 154.461 66.8508 153.757 66.7408 152.602H71.0638C71.0748 152.514 71.0858 152.393 71.0858 152.239C71.0858 150.534 69.9858 149.5 68.5448 149.5C67.0598 149.5 65.8278 150.71 65.8278 152.338C65.8278 154.032 66.9168 155.187 68.5448 155.187C69.5348 155.187 70.2938 154.824 70.8988 154.131L70.4038 153.625C69.8758 154.208 69.2818 154.461 68.6218 154.461ZM68.5448 150.215C69.3808 150.215 70.0848 150.809 70.1838 151.975H66.7518C66.8948 150.875 67.6648 150.215 68.5448 150.215ZM76.9257 153.504C76.9257 152.536 76.3207 152.03 74.7037 151.865C73.6587 151.766 73.3837 151.469 73.3837 151.04C73.3837 150.633 73.8127 150.248 74.6157 150.248C75.1987 150.248 75.7487 150.446 76.4197 150.897L76.7717 150.215C76.1227 149.764 75.4517 149.533 74.6377 149.533C73.3397 149.533 72.5257 150.27 72.5257 151.073C72.5257 152.019 73.0977 152.525 74.6157 152.679C75.7707 152.8 76.0677 153.086 76.0677 153.537C76.0677 154.032 75.6057 154.439 74.6487 154.439C74.0547 154.439 73.3947 154.208 72.7127 153.757L72.3277 154.417C72.9877 154.901 73.7687 155.154 74.6377 155.154C76.0677 155.154 76.9257 154.395 76.9257 153.504ZM78.9577 153.306C78.9577 154.461 79.4857 155 80.6957 155H81.4217V154.241H80.8387C80.2447 154.241 79.8817 153.955 79.8817 153.229V150.435H81.4217V149.687H79.8817V148.059H78.9577V149.687H77.9237V150.435H78.9577V153.306ZM83.8471 149.687H82.9341V155H83.8691V152.569C83.8691 151.205 84.4961 150.545 85.7941 150.545H86.2011V149.654H85.8161C84.9141 149.654 84.1991 150.083 83.8471 150.963V149.687ZM88.3863 147.388H87.3413V148.389H88.3863V147.388ZM87.3963 149.687V155H88.3313V149.687H87.3963ZM93.8081 155H94.6881V151.865C94.6881 150.336 93.8301 149.522 92.4881 149.522C91.5751 149.522 90.8821 149.83 90.2881 150.358L90.6951 150.963C91.2451 150.512 91.8281 150.259 92.3671 150.259C93.2471 150.259 93.7861 150.798 93.7861 151.832V151.909H92.1251C90.6291 151.909 89.8371 152.558 89.8371 153.559C89.8371 154.494 90.6071 155.132 91.6411 155.132C92.5761 155.132 93.3681 154.648 93.8081 153.79V155ZM92.1581 152.525H93.7861C93.7311 153.68 92.8181 154.45 91.8611 154.45C91.1571 154.45 90.7391 154.043 90.7391 153.526C90.7391 152.943 91.1461 152.525 92.1581 152.525ZM97.3696 149.687H96.4566V155H97.3916V152.404C97.3916 151.183 98.0626 150.314 99.0636 150.314C99.9326 150.314 100.406 150.919 100.406 151.81V155H101.341V151.755C101.341 150.468 100.604 149.555 99.3276 149.555C98.4586 149.555 97.7546 150.006 97.3696 150.787V149.687Z" fill="#E3E3E5"/>
<rect x="8" y="171" width="348" height="1" fill="#242528"/>
<g clip-path="url(#clip3_30410_229076)">
<path fill-rule="evenodd" clip-rule="evenodd" d="M29 187H19L19 197H29V187ZM19 186C18.4477 186 18 186.448 18 187V197C18 197.552 18.4477 198 19 198H29C29.5523 198 30 197.552 30 197V187C30 186.448 29.5523 186 29 186H19Z" fill="white"/>
</g>
<rect x="40" y="184" width="32" height="16" rx="2" fill="#2E2F32"/>
<path d="M45.012 188.3V196H48.576C50.424 196 51.238 195.109 51.238 194.009C51.238 193.03 50.655 192.304 49.225 192.073C50.457 191.754 50.919 191.061 50.919 190.236C50.919 189.07 50.072 188.3 48.378 188.3H45.012ZM48.356 189.081C49.412 189.081 49.962 189.532 49.962 190.335C49.962 191.116 49.313 191.732 47.729 191.732H45.969V189.081H48.356ZM48.037 192.513C49.676 192.513 50.281 193.129 50.281 193.888C50.281 194.647 49.775 195.219 48.642 195.219H45.969V192.513H48.037ZM53.983 188.388H52.938V189.389H53.983V188.388ZM52.993 190.687V196H53.928V190.687H52.993ZM56.7978 187.97H55.8628V196H56.7978V193.415L59.3718 196H60.5928V195.978L57.7108 193.195L60.5818 190.709V190.687H59.3938L56.7978 193.063V187.97ZM64.0027 195.461C63.0457 195.461 62.2317 194.757 62.1217 193.602H66.4447C66.4557 193.514 66.4667 193.393 66.4667 193.239C66.4667 191.534 65.3667 190.5 63.9257 190.5C62.4407 190.5 61.2087 191.71 61.2087 193.338C61.2087 195.032 62.2977 196.187 63.9257 196.187C64.9157 196.187 65.6747 195.824 66.2797 195.131L65.7847 194.625C65.2567 195.208 64.6627 195.461 64.0027 195.461ZM63.9257 191.215C64.7617 191.215 65.4657 191.809 65.5647 192.975H62.1327C62.2757 191.875 63.0457 191.215 63.9257 191.215Z" fill="#E3E3E5"/>
<rect x="292.5" y="12.5" width="63" height="23" fill="#242528"/>
<rect x="292.5" y="12.5" width="63" height="23" stroke="#8E9099"/>
<path d="M340 25.2914L336.783 22.0742C336.685 21.9766 336.527 21.9766 336.429 22.0742L336.076 22.4278C335.978 22.5254 335.978 22.6837 336.076 22.7813L339.823 26.5288C339.848 26.5532 339.876 26.5715 339.906 26.5837C339.996 26.6204 340.104 26.6021 340.177 26.5289L343.924 22.7813C344.022 22.6837 344.022 22.5254 343.924 22.4278L343.571 22.0742C343.473 21.9766 343.315 21.9766 343.217 22.0742L340 25.2914Z" fill="#E3E3E5"/>
<path d="M300.756 28H306.816V27.124H302.028L304.32 25.144C306.168 23.572 306.624 22.852 306.624 21.796C306.624 20.404 305.52 19.396 303.852 19.396C301.98 19.396 300.828 20.584 300.78 22.384H301.8C301.848 21.016 302.628 20.284 303.816 20.284C304.764 20.284 305.544 20.908 305.544 21.82C305.544 22.528 305.268 23.104 303.708 24.46L300.756 27.04V28ZM308.221 28H314.281V27.124H309.493L311.785 25.144C313.633 23.572 314.089 22.852 314.089 21.796C314.089 20.404 312.985 19.396 311.317 19.396C309.445 19.396 308.293 20.584 308.245 22.384H309.265C309.313 21.016 310.093 20.284 311.281 20.284C312.229 20.284 313.009 20.908 313.009 21.82C313.009 22.528 312.733 23.104 311.173 24.46L308.221 27.04V28Z" fill="white"/>
<path d="M212.012 20.3V28H213.002V24.601H217.259V23.798H213.002V21.103H217.578V20.3H212.012ZM220.078 20.388H219.033V21.389H220.078V20.388ZM219.088 22.687V28H220.023V22.687H219.088ZM222.698 19.97H221.763V28H222.698V19.97ZM224.888 26.306C224.888 27.461 225.416 28 226.626 28H227.352V27.241H226.769C226.175 27.241 225.812 26.955 225.812 26.229V23.435H227.352V22.687H225.812V21.059H224.888V22.687H223.854V23.435H224.888V26.306ZM231.048 27.461C230.091 27.461 229.277 26.757 229.167 25.602H233.49C233.501 25.514 233.512 25.393 233.512 25.239C233.512 23.534 232.412 22.5 230.971 22.5C229.486 22.5 228.254 23.71 228.254 25.338C228.254 27.032 229.343 28.187 230.971 28.187C231.961 28.187 232.72 27.824 233.325 27.131L232.83 26.625C232.302 27.208 231.708 27.461 231.048 27.461ZM230.971 23.215C231.807 23.215 232.511 23.809 232.61 24.975H229.178C229.321 23.875 230.091 23.215 230.971 23.215ZM235.79 22.687H234.877V28H235.812V25.569C235.812 24.205 236.439 23.545 237.737 23.545H238.144V22.654H237.759C236.857 22.654 236.142 23.083 235.79 23.963V22.687ZM241.065 28H241.978V26.933C242.396 27.648 243.122 28.132 243.991 28.132C245.311 28.132 246.554 27.032 246.554 25.327C246.554 23.611 245.366 22.555 244.079 22.555C243.221 22.555 242.451 23.006 242 23.743V19.97H241.065V28ZM241.956 25.371C241.956 24.205 242.858 23.314 243.837 23.314C244.838 23.314 245.619 24.073 245.619 25.349C245.619 26.614 244.827 27.362 243.804 27.362C242.836 27.362 241.956 26.515 241.956 25.371ZM247.1 22.687L249.344 28.187L248.365 30.31H249.333L252.457 22.687H251.489L249.795 27.109L248.09 22.687H247.1ZM259.802 26.504C259.802 25.536 259.197 25.03 257.58 24.865C256.535 24.766 256.26 24.469 256.26 24.04C256.26 23.633 256.689 23.248 257.492 23.248C258.075 23.248 258.625 23.446 259.296 23.897L259.648 23.215C258.999 22.764 258.328 22.533 257.514 22.533C256.216 22.533 255.402 23.27 255.402 24.073C255.402 25.019 255.974 25.525 257.492 25.679C258.647 25.8 258.944 26.086 258.944 26.537C258.944 27.032 258.482 27.439 257.525 27.439C256.931 27.439 256.271 27.208 255.589 26.757L255.204 27.417C255.864 27.901 256.645 28.154 257.514 28.154C258.944 28.154 259.802 27.395 259.802 26.504ZM263.584 28.187C264.695 28.187 265.586 27.626 266.015 26.735L265.322 26.35C264.948 27.054 264.31 27.417 263.628 27.417C262.583 27.417 261.791 26.526 261.791 25.36C261.791 24.183 262.594 23.259 263.628 23.259C264.343 23.259 264.904 23.589 265.245 24.381L265.971 23.963C265.531 22.995 264.761 22.5 263.65 22.5C262.055 22.5 260.845 23.765 260.845 25.349C260.845 27.087 261.989 28.187 263.584 28.187ZM269.729 28.187C271.324 28.187 272.523 26.933 272.523 25.36C272.523 23.732 271.335 22.5 269.762 22.5C268.167 22.5 266.968 23.754 266.968 25.327C266.968 26.944 268.156 28.187 269.729 28.187ZM269.751 27.417C268.717 27.417 267.914 26.537 267.914 25.338C267.914 24.139 268.706 23.259 269.74 23.259C270.774 23.259 271.577 24.15 271.577 25.349C271.577 26.548 270.785 27.417 269.751 27.417ZM274.774 22.687H273.861V28H274.796V25.569C274.796 24.205 275.423 23.545 276.721 23.545H277.128V22.654H276.743C275.841 22.654 275.126 23.083 274.774 23.963V22.687ZM280.386 27.461C279.429 27.461 278.615 26.757 278.505 25.602H282.828C282.839 25.514 282.85 25.393 282.85 25.239C282.85 23.534 281.75 22.5 280.309 22.5C278.824 22.5 277.592 23.71 277.592 25.338C277.592 27.032 278.681 28.187 280.309 28.187C281.299 28.187 282.058 27.824 282.663 27.131L282.168 26.625C281.64 27.208 281.046 27.461 280.386 27.461ZM280.309 23.215C281.145 23.215 281.849 23.809 281.948 24.975H278.516C278.659 23.875 279.429 23.215 280.309 23.215Z" fill="#E3E3E5"/>
<path d="M17.908 28L18.724 25.972H22.804L23.62 28H25.288L21.784 19.576H19.804L16.288 28H17.908ZM19.204 24.748L20.764 20.884L22.312 24.748H19.204ZM27.7942 22.072H26.3782V28H27.8542V25.036C27.8542 23.908 28.4782 23.128 29.3662 23.128C30.1702 23.128 30.6022 23.68 30.6022 24.484V28H32.0782V24.352C32.0782 22.936 31.2742 21.928 29.8822 21.928C28.9942 21.928 28.2502 22.372 27.7942 23.152V22.072ZM35.0364 22.072H33.6204V28H35.0964V25.036C35.0964 23.908 35.7204 23.128 36.6084 23.128C37.4124 23.128 37.8444 23.68 37.8444 24.484V28H39.3204V24.352C39.3204 22.936 38.5164 21.928 37.1244 21.928C36.2364 21.928 35.4924 22.372 35.0364 23.152V22.072ZM43.7186 28.204C45.5666 28.204 46.9226 26.776 46.9226 25.036C46.9226 23.26 45.5786 21.868 43.7546 21.868C41.9066 21.868 40.5506 23.296 40.5506 25.024C40.5506 26.812 41.8946 28.204 43.7186 28.204ZM43.7426 26.992C42.8066 26.992 42.0506 26.212 42.0506 25.024C42.0506 23.86 42.7586 23.068 43.7306 23.068C44.6666 23.068 45.4226 23.848 45.4226 25.036C45.4226 26.212 44.7146 26.992 43.7426 26.992ZM48.7154 25.888C48.7154 27.388 49.3994 28 50.9354 28H51.8114V26.824H51.1874C50.5514 26.824 50.1914 26.536 50.1914 25.756V23.248H51.8114V22.072H50.1794V20.392H48.7394V22.072H47.6354V23.248H48.7154V25.888ZM56.9484 28H58.3044V24.484C58.3044 22.792 57.3564 21.892 55.7484 21.892C54.7284 21.892 53.9004 22.216 53.2044 22.744L53.7204 23.716C54.3924 23.26 55.0284 23.02 55.5684 23.02C56.3964 23.02 56.9004 23.488 56.9004 24.4V24.52H55.2924C53.5284 24.52 52.6764 25.24 52.6764 26.344C52.6764 27.4 53.4924 28.144 54.6684 28.144C55.6404 28.144 56.4084 27.748 56.9484 26.86V28ZM55.3644 25.372H56.9004C56.9004 26.428 56.0124 27.136 55.1244 27.136C54.4404 27.136 54.0804 26.764 54.0804 26.284C54.0804 25.744 54.4404 25.372 55.3644 25.372ZM60.2935 25.888C60.2935 27.388 60.9775 28 62.5135 28H63.3895V26.824H62.7655C62.1295 26.824 61.7695 26.536 61.7695 25.756V23.248H63.3895V22.072H61.7575V20.392H60.3175V22.072H59.2135V23.248H60.2935V25.888ZM66.2359 19.456H64.6399V20.908H66.2359V19.456ZM64.6999 22.072V28H66.1759V22.072H64.6999ZM70.6952 28.204C72.5432 28.204 73.8992 26.776 73.8992 25.036C73.8992 23.26 72.5552 21.868 70.7312 21.868C68.8832 21.868 67.5272 23.296 67.5272 25.024C67.5272 26.812 68.8712 28.204 70.6952 28.204ZM70.7192 26.992C69.7832 26.992 69.0272 26.212 69.0272 25.024C69.0272 23.86 69.7352 23.068 70.7072 23.068C71.6432 23.068 72.3992 23.848 72.3992 25.036C72.3992 26.212 71.6912 26.992 70.7192 26.992ZM76.6145 22.072H75.1985V28H76.6745V25.036C76.6745 23.908 77.2985 23.128 78.1865 23.128C78.9905 23.128 79.4225 23.68 79.4225 24.484V28H80.8985V24.352C80.8985 22.936 80.0945 21.928 78.7025 21.928C77.8145 21.928 77.0705 22.372 76.6145 23.152V22.072ZM87.2647 26.248C87.2647 25.168 86.7007 24.604 84.8167 24.352C83.7607 24.208 83.5447 23.98 83.5447 23.644C83.5447 23.308 83.8927 22.996 84.6847 22.996C85.2727 22.996 85.9207 23.188 86.6407 23.596L87.0727 22.576C86.3767 22.132 85.5847 21.904 84.7207 21.904C83.1607 21.904 82.2607 22.756 82.2607 23.728C82.2607 24.784 82.8007 25.336 84.6247 25.588C85.7407 25.732 85.9807 25.972 85.9807 26.332C85.9807 26.74 85.6087 27.076 84.6967 27.076C84.0487 27.076 83.2927 26.848 82.5127 26.404L82.0327 27.436C82.8007 27.916 83.6647 28.168 84.6607 28.168C86.3167 28.168 87.2647 27.292 87.2647 26.248Z" fill="#E3E3E5"/>
<defs>
<clipPath id="clip0_30410_229076">
<rect width="32" height="32" fill="white" transform="translate(8 53)"/>
</clipPath>
<clipPath id="clip1_30410_229076">
<rect width="32" height="32" fill="white" transform="translate(8 94)"/>
</clipPath>
<clipPath id="clip2_30410_229076">
<rect width="32" height="32" fill="white" transform="translate(8 135)"/>
</clipPath>
<clipPath id="clip3_30410_229076">
<rect width="32" height="32" fill="white" transform="translate(8 176)"/>
</clipPath>
</defs>
</svg>
