<svg width="16" height="16" viewBox="0 0 16 16" fill="none" xmlns="http://www.w3.org/2000/svg">
<g clip-path="url(#clip0_29629_205132)">
<path d="M0.792894 8.71702C0.40237 8.3265 0.402368 7.69333 0.792893 7.30281L7.295 0.800706C7.68552 0.410181 8.31869 0.410181 8.70921 0.800706L9.41632 1.50781C9.80684 1.89834 9.80684 2.5315 9.41632 2.92203L5.83847 6.49988H14.492C15.0443 6.49988 15.492 6.94759 15.492 7.49988V8.49988C15.492 9.05216 15.0443 9.49988 14.492 9.49988H5.81839L9.38507 13.0666C9.77559 13.4571 9.77559 14.0902 9.38507 14.4808L8.67796 15.1879C8.28744 15.5784 7.65427 15.5784 7.26375 15.1879L0.792894 8.71702Z" fill="white"/>
</g>
<defs>
<clipPath id="clip0_29629_205132">
<rect width="16" height="16" fill="white"/>
</clipPath>
</defs>
</svg>
