<svg width="16" height="16" viewBox="0 0 16 16" fill="none" xmlns="http://www.w3.org/2000/svg">
<path fill-rule="evenodd" clip-rule="evenodd" d="M7.99999 1C9.88137 1 11.4594 2.29887 11.8862 4.04881L14.6118 1.32322C14.7094 1.22558 14.8677 1.22558 14.9654 1.32322L15.3189 1.67677C15.4165 1.7744 15.4165 1.93269 15.3189 2.03032L11.9816 5.36764C11.9816 5.36763 11.9816 5.36765 11.9816 5.36764L9.75889 7.59037C9.75888 7.59039 9.75891 7.59034 9.75889 7.59037L1.53033 15.8189C1.4327 15.9165 1.27441 15.9165 1.17678 15.8189L0.823223 15.4654C0.725592 15.3677 0.725592 15.2094 0.823223 15.1118L2.93502 13H2.24936C2.11158 12.9997 1.99999 12.8879 1.99999 12.75V10.25C1.99999 10.1119 2.11192 10 2.24999 10H5.93502L5.99937 9.93565C5.99266 9.58793 5.93173 9.28087 5.83498 9C5.65153 8.4674 5.33932 8.02896 5.02394 7.58607C4.51609 6.87289 3.99999 6.14815 3.99999 5C3.99999 2.79086 5.79085 1 7.99999 1ZM5.87229 7.05341C6.23142 7.55716 6.68275 8.19022 6.88853 9.04649L10.9993 4.9357C10.9651 3.30854 9.63536 2 7.99999 2C6.34314 2 4.99999 3.34315 4.99999 5C4.99999 5.79904 5.32912 6.29067 5.83851 7.00601L5.87229 7.05341ZM2.99999 12H3.93502L4.93502 11H2.99999V12Z" fill="white"/>
<path d="M3.76347 15L13.75 15C13.8881 15 14 14.8881 14 14.75V14.25C14 14.1119 13.8881 14 13.75 14L4.76347 14L3.76347 15Z" fill="white"/>
<path d="M5.76347 13L13.75 13C13.8881 13 14 12.8881 14 12.75V10.25C14 10.1119 13.8881 10 13.75 10H9.99999C9.99999 9.62564 10.0623 9.29807 10.165 9C10.2625 8.71685 10.3964 8.46032 10.5479 8.21559L9.00696 9.75652C9.00237 9.83603 8.99999 9.91717 8.99999 10V11H13V12H6.76347L5.76347 13Z" fill="white"/>
</svg>
