<svg width="32" height="32" viewBox="0 0 32 32" fill="none" xmlns="http://www.w3.org/2000/svg">
<path d="M15.25 10C15.1119 10 15 10.1119 15 10.25V12.75C15 12.8881 15.1119 13 15.25 13H15.75C15.8881 13 16 12.8881 16 12.75V12L22.75 12C22.8881 12 23 11.8881 23 11.75V11.25C23 11.1119 22.8881 11 22.75 11L16 11V10.25C16 10.1119 15.8881 10 15.75 10H15.25Z" fill="white"/>
<path d="M14 11L9.25 11C9.11193 11 9 11.1119 9 11.25V11.75C9 11.8881 9.11193 12 9.25 12L14 12V11Z" fill="white"/>
<path d="M22.75 16C22.8881 16 23 15.8881 23 15.75V15.25C23 15.1119 22.8881 15 22.75 15H21V14.25C21 14.1119 20.8881 14 20.75 14H20.25C20.1119 14 20 14.1119 20 14.25V16.75C20 16.8881 20.1119 17 20.25 17H20.75C20.8881 17 21 16.8881 21 16.75V16L22.75 16Z" fill="white"/>
<path d="M19 15V16L9.25 16C9.11193 16 9 15.8881 9 15.75L9 15.25C9 15.1119 9.11193 15 9.25 15L19 15Z" fill="white"/>
<path d="M23 19.75C23 19.8881 22.8881 20 22.75 20H14V20.75C14 20.8881 13.8881 21 13.75 21H13.25C13.1119 21 13 20.8881 13 20.75L13 18.25C13 18.1119 13.1119 18 13.25 18H13.75C13.8881 18 14 18.1119 14 18.25L14 19L22.75 19C22.8881 19 23 19.1119 23 19.25V19.75Z" fill="white"/>
<path d="M12 20V19L9.25 19C9.11193 19 9 19.1119 9 19.25V19.75C9 19.8881 9.11193 20 9.25 20H12Z" fill="white"/>
</svg>
