<svg width="16" height="16" viewBox="0 0 16 16" fill="none" xmlns="http://www.w3.org/2000/svg">
<path d="M6.125 4C6.05596 4 6 4.05597 6 4.125V4.875C6 4.94404 6.05596 5 6.125 5H8.875C8.94404 5 9 4.94404 9 4.875V4.125C9 4.05597 8.94404 4 8.875 4H6.125Z" fill="white"/>
<path d="M10.125 4C10.056 4 10 4.05597 10 4.125V4.875C10 4.94404 10.056 5 10.125 5H12.875C12.944 5 13 4.94404 13 4.875V4.125C13 4.05597 12.944 4 12.875 4H10.125Z" fill="white"/>
<path fill-rule="evenodd" clip-rule="evenodd" d="M1 3C1 2.44772 1.44772 2 2 2H14.0016C14.5532 2.00088 15 2.44826 15 3V11C15 11.5517 14.5532 11.9991 14.0017 12H9V13H10.75C10.8881 13 11 13.1119 11 13.25V13.75C11 13.8881 10.8881 14 10.75 14H5.25C5.11193 14 5 13.8881 5 13.75V13.25C5 13.1119 5.11193 13 5.25 13H7.00171V12.0001L2 12C1.44773 12 1.00002 11.5523 1 11V3ZM14 3V11H2.00171L2.00162 3H14Z" fill="white"/>
</svg>
