<svg width="12" height="14" viewBox="0 0 12 14" xmlns="http://www.w3.org/2000/svg" fill="#fff">
<path d="M8 3H5.25C5.11193 3 5 2.88807 5 2.75V1.5L1.5 1.497V8.5H2.75C2.88807 8.5 3 8.61193 3 8.75V9.75C3 9.88807 2.88807 10 2.75 10H1C0.711464 10 0.451469 9.8778 0.268948 9.68233C0.102107 9.50365 0 9.26375 0 9V0H6L8 2V3Z"/>
<path fill-rule="evenodd" clip-rule="evenodd" d="M12 6V13C12 13.2637 11.8979 13.5036 11.7311 13.6823C11.5485 13.8778 11.2885 14 11 14H5C4.71146 14 4.45147 13.8778 4.26895 13.6823C4.10211 13.5036 4 13.2637 4 13V4H10L12 6ZM10.5 7V12.5H5.5V5.497L9 5.5V6.75C9 6.88807 9.11193 7 9.25 7H10.5Z"/>
</svg>
