<svg width="16" height="16" viewBox="0 0 16 16" fill="none" xmlns="http://www.w3.org/2000/svg">
<path d="M7.25 12C7.11193 12 7 11.8881 7 11.75V5.25C7 5.11193 7.11193 5 7.25 5H7.75C7.88807 5 8 5.11193 8 5.25V11.75C8 11.8881 7.88807 12 7.75 12H7.25Z" fill="white"/>
<path d="M5 11.75C5 11.8881 5.11193 12 5.25 12H5.75C5.88807 12 6 11.8881 6 11.75V5.25C6 5.11193 5.88807 5 5.75 5H5.25C5.11193 5 5 5.11193 5 5.25V11.75Z" fill="white"/>
<path d="M9.25 12C9.11193 12 9 11.8881 9 11.75V5.25C9 5.11193 9.11193 5 9.25 5H9.75C9.88807 5 10 5.11193 10 5.25V11.75C10 11.8881 9.88807 12 9.75 12H9.25Z" fill="white"/>
<path fill-rule="evenodd" clip-rule="evenodd" d="M5 2.25C5 2.11193 5.11193 2 5.25 2L9.75 2C9.88807 2 10 2.11193 10 2.25V3L12.75 3C12.8881 3 13 3.11193 13 3.25V3.75C13 3.88807 12.8881 4 12.75 4H12V13C12 13.5523 11.5523 14 11 14H4C3.44772 14 3 13.5523 3 13V4L2.25 4C2.11193 4 2 3.88807 2 3.75V3.25C2 3.11193 2.11193 3 2.25 3L5 3V2.25ZM4 4H11V13H4V4Z" fill="white"/>
</svg>
