<svg width="16" height="16" viewBox="0 0 16 16" fill="none" xmlns="http://www.w3.org/2000/svg">
<path d="M4.75975 7.00488H6.99995L6.99995 1.25488C6.99995 1.11681 7.11188 1.00488 7.24995 1.00488H7.74995C7.88802 1.00488 7.99995 1.11681 7.99995 1.25488L7.99995 7.00488L10.2401 7.00488C10.4629 7.00488 10.5744 7.27417 10.4169 7.43166L7.67672 9.92676C7.57909 10.0244 7.4208 10.0244 7.32317 9.92676L4.58297 7.43166C4.42548 7.27417 4.53702 7.00488 4.75975 7.00488Z" fill="white"/>
<path d="M3.89645 9C3.96275 9 4.02634 9.02634 4.07322 9.07322L4.57322 9.57322C4.73072 9.73071 4.61917 10 4.39645 10H2L2 14L13 14V10H10.6036C10.3808 10 10.2693 9.73071 10.4268 9.57322L10.9268 9.07322C10.9737 9.02634 11.0372 9 11.1036 9H13C13.5523 9 14 9.44772 14 10V14C14 14.5523 13.5523 15 13 15L2 15C1.44772 15 1 14.5523 1 14L1 10C1 9.44772 1.44772 9 2 9H3.89645Z" fill="white"/>
</svg>
