<svg width="16" height="16" viewBox="0 0 16 16" fill="none" xmlns="http://www.w3.org/2000/svg">
<path d="M10.75 0.25V3H12.749C12.9717 3 13.0833 3.26929 12.9258 3.42678L10.1768 5.91697C10.128 5.96579 10.064 6 10 6C9.93602 6 9.87204 5.96579 9.82322 5.91697L7.07372 3.42678C6.91623 3.26928 7.02777 3 7.2505 3L9.25 3V0.25C9.25 0.111929 9.36193 0 9.5 0H10.5C10.6381 0 10.75 0.111929 10.75 0.25Z" fill="white"/>
<path d="M3.25 3H6V4.5H4.5V8.5H11.5V6H13V9.75C13 9.88807 12.8881 10 12.75 10H3.25C3.11193 10 3 9.88807 3 9.75V3.25C3 3.11193 3.11193 3 3.25 3Z" fill="white"/>
<path d="M2.25 10.5C2.11193 10.5 2 10.6119 2 10.75V11.75C2 11.8881 2.11193 12 2.25 12H13.75C13.8881 12 14 11.8881 14 11.75V10.75C14 10.6119 13.8881 10.5 13.75 10.5H2.25Z" fill="white"/>
</svg>
