<svg width="16" height="16" viewBox="0 0 16 16" fill="none" xmlns="http://www.w3.org/2000/svg">
<path d="M6.85734 7.57702C6.68709 7.12734 7.12727 6.68716 7.57696 6.85741L15.4068 9.82181C15.859 9.99302 15.8943 10.6191 15.4642 10.8402L12.4098 12.4099L10.8401 15.4643C10.6191 15.8944 9.99294 15.8591 9.82173 15.4069L6.85734 7.57702Z" fill="white"/>
<path d="M6 3.5C6 3.22386 6.22386 3 6.5 3C6.77614 3 7 3.22386 7 3.5C7 3.77614 6.77614 4 6.5 4C6.22386 4 6 3.77614 6 3.5Z" fill="white"/>
<path d="M8 3.5C8 3.22386 8.22385 3 8.49999 3C8.77613 3 8.99998 3.22386 8.99998 3.5C8.99998 3.77614 8.77613 4 8.49999 4C8.22385 4 8 3.77614 8 3.5Z" fill="white"/>
<path d="M8 5.5C8 5.77614 8.22385 6 8.49999 6C8.77613 6 8.99998 5.77614 8.99998 5.5C8.99998 5.22386 8.77613 5 8.49999 5C8.22385 5 8 5.22386 8 5.5Z" fill="white"/>
<path d="M4.5 6C4.22386 6 4 5.77614 4 5.5C4 5.22386 4.22386 5 4.5 5C4.77614 5 5 5.22386 5 5.5C5 5.77614 4.77614 6 4.5 6Z" fill="white"/>
<path d="M2 7.5C2 7.77614 2.22386 8 2.5 8C2.77614 8 3 7.77614 3 7.5C3 7.22386 2.77614 7 2.5 7C2.22386 7 2 7.22386 2 7.5Z" fill="white"/>
<path d="M2.5 10C2.22386 10 2 9.77614 2 9.5C2 9.22386 2.22386 9 2.5 9C2.77614 9 3 9.22386 3 9.5C3 9.77614 2.77614 10 2.5 10Z" fill="white"/>
<path d="M2 11.5C2 11.7761 2.22386 12 2.5 12C2.77614 12 3 11.7761 3 11.5C3 11.2239 2.77614 11 2.5 11C2.22386 11 2 11.2239 2 11.5Z" fill="white"/>
<path d="M4.5 14C4.22386 14 4 13.7761 4 13.5C4 13.2239 4.22386 13 4.5 13C4.77614 13 5 13.2239 5 13.5C5 13.7761 4.77614 14 4.5 14Z" fill="white"/>
<path d="M6 13.5C6 13.7761 6.22386 14 6.5 14C6.77614 14 7 13.7761 7 13.5C7 13.2239 6.77614 13 6.5 13C6.22386 13 6 13.2239 6 13.5Z" fill="white"/>
</svg>
