<svg width="16" height="16" viewBox="0 0 16 16" fill="none" xmlns="http://www.w3.org/2000/svg">
<path fill-rule="evenodd" clip-rule="evenodd" d="M2.46437 2.00012L13.5325 2.00012L8.99998 8.47324L8.99998 13.751L6.99998 12.902L6.99998 8.47764L2.46437 2.00012ZM9.29868 14.9641C9.46375 15.0342 9.6454 15.0088 9.78216 14.9129C9.91368 14.8229 9.99998 14.6716 9.99998 14.5001V8.78854L14.8829 1.81503C14.9527 1.72906 14.9945 1.61948 14.9945 1.50012C14.9945 1.38077 14.9527 1.27118 14.8829 1.18522C14.7912 1.07229 14.6513 1.00012 14.4945 1.00012L1.50489 1.00012C1.35973 1.00012 1.22902 1.06198 1.13768 1.16077C1.05545 1.24971 1.00513 1.36857 1.00489 1.49918C1.00435 1.59921 1.0337 1.70037 1.09544 1.78854L5.99998 8.79294L5.99998 13.2267C5.99998 13.3313 6.03014 13.4293 6.08484 13.5111C6.13803 13.5907 6.21444 13.6549 6.30887 13.695L9.29868 14.9641Z" fill="white"/>
</svg>
