<svg width="16" height="16" viewBox="0 0 16 16" fill="none" xmlns="http://www.w3.org/2000/svg">
<path d="M13 4.13C13 4.0582 12.9418 4 12.87 4H10.13C10.0582 4 10 4.0582 10 4.13V4.87C10 4.9418 10.0582 5 10.13 5H12V6.87C12 6.9418 12.0582 7 12.13 7H12.87C12.9418 7 13 6.9418 13 6.87V4.13Z" fill="white"/>
<path d="M12 9.13V11H10.13C10.0582 11 10 11.0582 10 11.13V11.87C10 11.9418 10.0582 12 10.13 12H12.87C12.9418 12 13 11.9418 13 11.87V9.13C13 9.0582 12.9418 9 12.87 9H12.13C12.0582 9 12 9.0582 12 9.13Z" fill="white"/>
<path d="M5.875 4L3.125 4C3.05596 4 3 4.05596 3 4.125L3 6.87C3 6.9418 3.0582 7 3.13 7L3.87 7C3.9418 7 4 6.9418 4 6.87L4 5L5.875 5C5.94404 5 6 4.94404 6 4.875L6 4.125C6 4.05596 5.94404 4 5.875 4Z" fill="white"/>
<path d="M3.13 12C3.0582 12 3 11.9418 3 11.87L3 9.13C3 9.0582 3.0582 9 3.13 9H3.87C3.9418 9 4 9.0582 4 9.13V11H5.87C5.9418 11 6 11.0582 6 11.13V11.87C6 11.9418 5.9418 12 5.87 12H3.13Z" fill="white"/>
<path fill-rule="evenodd" clip-rule="evenodd" d="M2 2C1.44772 2 1 2.44771 1 3L1 13C1 13.5523 1.44772 14 2 14L14 14C14.5523 14 15 13.5523 15 13L15 3C15 2.44772 14.5523 2 14 2L2 2ZM14 3L2 3L2 13L14 13L14 3Z" fill="white"/>
</svg>
