<svg width="22" height="23" viewBox="0 0 22 23" fill="none" xmlns="http://www.w3.org/2000/svg">
<g clip-path="url(#clip0_31886_283696)">
<rect x="8" width="14" height="12" rx="6" fill="white"/>
<path d="M10.5501 4.248V3.4H12.5741V9H11.5501V4.248H10.5501ZM16.5726 2.432L14.1886 9.968H13.2686L15.6606 2.432H16.5726ZM16.9954 4.248V3.4H19.0194V9H17.9954V4.248H16.9954Z" fill="black"/>
<path d="M13 11V20H3V11H13ZM13 10H3C2.44781 10 2 10.4478 2 11V20C2 20.5522 2.44781 21 3 21H13C13.5522 21 14 20.5522 14 20V11C14 10.4478 13.5522 10 13 10Z" fill="white"/>
<path d="M4.75 12H4.25C4.11193 12 4 12.1119 4 12.25V12.75C4 12.8881 4.11193 13 4.25 13H4.75C4.88807 13 5 12.8881 5 12.75V12.25C5 12.1119 4.88807 12 4.75 12Z" fill="white"/>
<path d="M4.75 14H4.25C4.11193 14 4 14.1119 4 14.25V14.75C4 14.8881 4.11193 15 4.25 15H4.75C4.88807 15 5 14.8881 5 14.75V14.25C5 14.1119 4.88807 14 4.75 14Z" fill="white"/>
<path d="M4.75 16H4.25C4.11193 16 4 16.1119 4 16.25V16.75C4 16.8881 4.11193 17 4.25 17H4.75C4.88807 17 5 16.8881 5 16.75V16.25C5 16.1119 4.88807 16 4.75 16Z" fill="white"/>
<path d="M4.75 18H4.25C4.11193 18 4 18.1119 4 18.25V18.75C4 18.8881 4.11193 19 4.25 19H4.75C4.88807 19 5 18.8881 5 18.75V18.25C5 18.1119 4.88807 18 4.75 18Z" fill="white"/>
<path d="M11.75 12H11.25C11.1119 12 11 12.1119 11 12.25V12.75C11 12.8881 11.1119 13 11.25 13H11.75C11.8881 13 12 12.8881 12 12.75V12.25C12 12.1119 11.8881 12 11.75 12Z" fill="white"/>
<path d="M11.75 14H11.25C11.1119 14 11 14.1119 11 14.25V14.75C11 14.8881 11.1119 15 11.25 15H11.75C11.8881 15 12 14.8881 12 14.75V14.25C12 14.1119 11.8881 14 11.75 14Z" fill="white"/>
<path d="M11.75 16H11.25C11.1119 16 11 16.1119 11 16.25V16.75C11 16.8881 11.1119 17 11.25 17H11.75C11.8881 17 12 16.8881 12 16.75V16.25C12 16.1119 11.8881 16 11.75 16Z" fill="white"/>
<path d="M11.75 18H11.25C11.1119 18 11 18.1119 11 18.25V18.75C11 18.8881 11.1119 19 11.25 19H11.75C11.8881 19 12 18.8881 12 18.75V18.25C12 18.1119 11.8881 18 11.75 18Z" fill="white"/>
<path d="M9 13V14H7V13H9ZM9.75 12H6.25C6.11188 12 6 12.1119 6 12.25V14.75C6 14.8881 6.11188 15 6.25 15H9.75C9.88812 15 10 14.8881 10 14.75V12.25C10 12.1119 9.88812 12 9.75 12Z" fill="white"/>
<path d="M9 17V18H7V17H9ZM9.75 16H6.25C6.11188 16 6 16.1119 6 16.25V18.75C6 18.8881 6.11188 19 6.25 19H9.75C9.88812 19 10 18.8881 10 18.75V16.25C10 16.1119 9.88812 16 9.75 16Z" fill="white"/>
</g>
<defs>
<clipPath id="clip0_31886_283696">
<rect width="22" height="23" fill="white"/>
</clipPath>
</defs>
</svg>
