<svg width="16" height="16" viewBox="0 0 16 16" fill="none" xmlns="http://www.w3.org/2000/svg">
<path d="M7.0185 5.33333C7.17896 4.06969 8.5 3 8.5 3C8.5 3 8.46412 3.71457 8.5 4.16667C8.56087 4.93367 8.93777 5.39714 9.2985 5.84073C9.70439 6.33985 10.0898 6.8138 9.9815 7.66667C9.82104 8.93031 8.5 10 8.5 10C8.5 10 8.53588 9.28543 8.5 8.83333C8.43913 8.06633 8.06223 7.60286 7.7015 7.15927C7.29561 6.66015 6.9102 6.1862 7.0185 5.33333Z" fill="white"/>
<path d="M6.75 6C6.75 6 6.08948 6.61125 6.00925 7.33333C5.9551 7.82069 6.14781 8.09151 6.35075 8.37673C6.53112 8.6302 6.71956 8.89504 6.75 9.33333C6.76794 9.59167 6.75 10 6.75 10C6.75 10 7.41052 9.38875 7.49075 8.66667C7.5449 8.17931 7.35219 7.90849 7.14925 7.62327C6.96888 7.3698 6.78044 7.10496 6.75 6.66667C6.73206 6.40833 6.75 6 6.75 6Z" fill="white"/>
<path fill-rule="evenodd" clip-rule="evenodd" d="M8.83374 13.4116C8.96567 13.0984 9.24937 12.8796 9.57728 12.7905C12.1258 12.098 14 9.76786 14 7C14 3.68629 11.3137 1 8 1C4.68629 1 2 3.68629 2 7C2 9.76786 3.87418 12.098 6.42272 12.7905C6.75063 12.8796 7.03433 13.0984 7.16626 13.4116L7.76961 14.8438C7.85552 15.0477 8.14448 15.0477 8.23039 14.8438L8.83374 13.4116ZM13 7C13 9.76142 10.7614 12 8 12C5.23858 12 3 9.76142 3 7C3 4.23858 5.23858 2 8 2C10.7614 2 13 4.23858 13 7Z" fill="white"/>
</svg>
