<svg width="16" height="16" viewBox="0 0 16 16" fill="none" xmlns="http://www.w3.org/2000/svg">
<path d="M8.00187 3.86914C6.54895 3.86914 5.37084 5.04575 5.36842 6.4981L5.36841 6.50256L5.36842 6.50395L5.36843 6.50806C5.37138 6.85987 5.6575 7.14417 6.01001 7.14417C6.36252 7.14417 6.64864 6.85987 6.65159 6.50806L6.65164 6.50254C6.65164 5.75685 7.25615 5.15234 8.00184 5.15234C8.74754 5.15234 9.35204 5.75685 9.35204 6.50254C9.35204 7.06302 9.01054 7.54373 8.52427 7.74796L7.76068 8.06679C7.52603 8.1622 7.3606 8.39247 7.3606 8.66138C7.3606 8.84069 7.43415 9.00282 7.55274 9.11924C7.7691 9.33165 8.03771 9.32666 8.30151 9.22903L9.01245 8.93515C9.96533 8.53883 10.6353 7.59895 10.6353 6.50258C10.6353 5.04817 9.45627 3.86914 8.00187 3.86914Z" fill="white"/>
<path d="M8.74999 11C8.74999 11.2022 8.66994 11.3858 8.5398 11.5207C8.4034 11.6621 8.21196 11.75 7.99999 11.75C7.78005 11.75 7.58222 11.6553 7.44503 11.5045C7.32385 11.3713 7.24999 11.1943 7.24999 11C7.24999 10.7978 7.33004 10.6142 7.46018 10.4793C7.59658 10.3379 7.78801 10.25 7.99999 10.25C8.21196 10.25 8.4034 10.3379 8.5398 10.4793C8.66994 10.6142 8.74999 10.7978 8.74999 11Z" fill="white"/>
<path fill-rule="evenodd" clip-rule="evenodd" d="M15.5 8C15.5 10.3264 14.4408 12.4054 12.7784 13.781C11.4808 14.8547 9.81576 15.5 8 15.5C6.18424 15.5 4.51919 14.8547 3.22163 13.781C1.55919 12.4054 0.5 10.3264 0.5 8C0.5 5.67362 1.55919 3.59464 3.22163 2.21898C4.51919 1.14526 6.18424 0.5 8 0.5C9.81576 0.5 11.4808 1.14526 12.7784 2.21898C14.4408 3.59464 15.5 5.67362 15.5 8ZM14 8C14 9.90693 13.1104 11.6061 11.7236 12.7051C10.7005 13.5159 9.40677 14 8 14C6.59323 14 5.29953 13.5159 4.27644 12.7051C2.8896 11.6061 2 9.90693 2 8C2 6.09307 2.8896 4.39391 4.27644 3.2949C5.29953 2.48414 6.59323 2 8 2C9.40677 2 10.7005 2.48414 11.7236 3.2949C13.1104 4.39391 14 6.09307 14 8Z" fill="white"/>
</svg>
