<svg width="16" height="16" viewBox="0 0 16 16" fill="none" xmlns="http://www.w3.org/2000/svg">
<path d="M14 5V12H2V5H14ZM14 4H2C1.73478 4 1.48043 4.10536 1.29289 4.29289C1.10536 4.48043 1 4.73478 1 5V12C1 12.2652 1.10536 12.5196 1.29289 12.7071C1.48043 12.8946 1.73478 13 2 13H14C14.2652 13 14.5196 12.8946 14.7071 12.7071C14.8946 12.5196 15 12.2652 15 12V5C15 4.73478 14.8946 4.48043 14.7071 4.29289C14.5196 4.10536 14.2652 4 14 4Z" fill="white"/>
<path d="M6.875 6H6.125C6.05596 6 6 6.05596 6 6.125V6.875C6 6.94404 6.05596 7 6.125 7H6.875C6.94404 7 7 6.94404 7 6.875V6.125C7 6.05596 6.94404 6 6.875 6Z" fill="white"/>
<path d="M8.875 6H8.125C8.05596 6 8 6.05596 8 6.125V6.875C8 6.94404 8.05596 7 8.125 7H8.875C8.94404 7 9 6.94404 9 6.875V6.125C9 6.05596 8.94404 6 8.875 6Z" fill="white"/>
<path d="M10.875 6H10.125C10.056 6 10 6.05596 10 6.125V6.875C10 6.94404 10.056 7 10.125 7H10.875C10.944 7 11 6.94404 11 6.875V6.125C11 6.05596 10.944 6 10.875 6Z" fill="white"/>
<path d="M9.875 8H9.125C9.05596 8 9 8.05596 9 8.125V8.875C9 8.94404 9.05596 9 9.125 9H9.875C9.94404 9 10 8.94404 10 8.875V8.125C10 8.05596 9.94404 8 9.875 8Z" fill="white"/>
<path d="M7.875 8H7.125C7.05596 8 7 8.05596 7 8.125V8.875C7 8.94404 7.05596 9 7.125 9H7.875C7.94404 9 8 8.94404 8 8.875V8.125C8 8.05596 7.94404 8 7.875 8Z" fill="white"/>
<path d="M5.875 8H5.125C5.05596 8 5 8.05596 5 8.125V8.875C5 8.94404 5.05596 9 5.125 9H5.875C5.94404 9 6 8.94404 6 8.875V8.125C6 8.05596 5.94404 8 5.875 8Z" fill="white"/>
<path d="M3.875 8H3.125C3.05596 8 3 8.05596 3 8.125V8.875C3 8.94404 3.05596 9 3.125 9H3.875C3.94404 9 4 8.94404 4 8.875V8.125C4 8.05596 3.94404 8 3.875 8Z" fill="white"/>
<path d="M3.875 10H3.125C3.05596 10 3 10.056 3 10.125V10.875C3 10.944 3.05596 11 3.125 11H3.875C3.94404 11 4 10.944 4 10.875V10.125C4 10.056 3.94404 10 3.875 10Z" fill="white"/>
<path d="M10.875 10H5.125C5.05596 10 5 10.056 5 10.125V10.875C5 10.944 5.05596 11 5.125 11H10.875C10.944 11 11 10.944 11 10.875V10.125C11 10.056 10.944 10 10.875 10Z" fill="white"/>
<path d="M12.875 10H12.125C12.056 10 12 10.056 12 10.125V10.875C12 10.944 12.056 11 12.125 11H12.875C12.944 11 13 10.944 13 10.875V10.125C13 10.056 12.944 10 12.875 10Z" fill="white"/>
<path d="M4.86404 6H3.13686C3.06782 6 3.01186 6.05596 3.01186 6.125V6.875C3.01186 6.94404 3.06782 7 3.13686 7H4.86404C4.93308 7 4.98904 6.94404 4.98904 6.875V6.125C4.98904 6.05596 4.93308 6 4.86404 6Z" fill="white"/>
<path d="M12 6.125V7.875C12 7.90815 11.9868 7.93995 11.9634 7.96339C11.9399 7.98683 11.9082 8 11.875 8H11.125C11.0918 8 11.0601 8.01317 11.0366 8.03661C11.0132 8.06005 11 8.09185 11 8.125V8.875C11 8.90815 11.0132 8.93995 11.0366 8.96339C11.0601 8.98683 11.0918 9 11.125 9H12.875C12.9082 9 12.9399 8.98683 12.9634 8.96339C12.9868 8.93995 13 8.90815 13 8.875V6.125C13 6.09185 12.9868 6.06005 12.9634 6.03661C12.9399 6.01317 12.9082 6 12.875 6H12.125C12.0918 6 12.0601 6.01317 12.0366 6.03661C12.0132 6.06005 12 6.09185 12 6.125Z" fill="white"/>
</svg>
