<svg width="16" height="16" xmlns="http://www.w3.org/2000/svg" xmlns:xlink="http://www.w3.org/1999/xlink" xml:space="preserve" overflow="hidden"><g transform="translate(-95 -338)"><path d="M104.521 342.299C104.82 341.95 105 341.496 105 341 105 339.895 104.105 339 103 339 101.895 339 101 339.895 101 341 101 341.496 101.18 341.95 101.479 342.299 100.024 342.898 99 344.329 99 346L99 349C99 349.552 99.4477 350 100 350L100.25 350C100.388 350 100.5 349.888 100.5 349.75L100.5 349.25C100.5 349.112 100.388 349 100.25 349L100 349 100 346C100 344.343 101.343 343 103 343 104.657 343 106 344.343 106 346L106 349 105.75 349C105.612 349 105.5 349.112 105.5 349.25L105.5 349.75C105.5 349.888 105.612 350 105.75 350L106 350C106.552 350 107 349.552 107 349L107 346C107 344.329 105.976 342.898 104.521 342.299ZM103 342C103.552 342 104 341.552 104 341 104 340.448 103.552 340 103 340 102.448 340 102 340.448 102 341 102 341.552 102.448 342 103 342Z" fill="#FFFFFF" fill-rule="evenodd"/><path d="M101 346.5C101 346.224 101.224 346 101.5 346 101.776 346 102 346.224 102 346.5L102 352 104 352 104 346.5C104 346.224 104.224 346 104.5 346 104.776 346 105 346.224 105 346.5L105 352C105 352.552 104.552 353 104 353L102 353C101.448 353 101 352.552 101 352L101 346.5Z" fill="#FFFFFF"/></g></svg>