<svg width="16" height="16" viewBox="0 0 16 16" fill="none" xmlns="http://www.w3.org/2000/svg">
<path d="M8.3033 2C8.16523 2 8.0533 2.11193 8.0533 2.25V3.75C8.0533 3.88807 8.16523 4 8.3033 4H8.8033C8.94137 4 9.0533 3.88807 9.0533 3.75V2.25C9.0533 2.11193 8.94137 2 8.8033 2H8.3033Z" fill="white"/>
<path d="M8.08363 7.05546C8.18126 6.95783 8.33955 6.95783 8.43719 7.05546L9.49785 8.11612C9.59548 8.21375 9.59548 8.37204 9.49785 8.46967L7.5533 10.4142L6.13909 9L8.08363 7.05546Z" fill="white"/>
<path d="M5.78553 9.35355L7.19975 10.7678L3.48744 14.4801C3.38981 14.5777 3.23151 14.5777 3.13388 14.4801L2.07322 13.4194C1.97559 13.3218 1.97559 13.1635 2.07322 13.0659L5.78553 9.35355Z" fill="white"/>
<path d="M8.0533 12.25C8.0533 12.1119 8.16523 12 8.3033 12H8.8033C8.94137 12 9.0533 12.1119 9.0533 12.25V13.75C9.0533 13.8881 8.94137 14 8.8033 14H8.3033C8.16523 14 8.0533 13.8881 8.0533 13.75V12.25Z" fill="white"/>
<path d="M2.5533 8.25C2.5533 8.38807 2.66523 8.5 2.8033 8.5H4.3033C4.44137 8.5 4.5533 8.38807 4.5533 8.25V7.75C4.5533 7.61193 4.44137 7.5 4.3033 7.5H2.8033C2.66523 7.5 2.5533 7.61193 2.5533 7.75V8.25Z" fill="white"/>
<path d="M12.8033 8.5C12.6652 8.5 12.5533 8.38807 12.5533 8.25V7.75C12.5533 7.61193 12.6652 7.5 12.8033 7.5H14.3033C14.4414 7.5 14.5533 7.61193 14.5533 7.75V8.25C14.5533 8.38807 14.4414 8.5 14.3033 8.5H12.8033Z" fill="white"/>
<path d="M4.13388 3.93414C4.03625 4.03177 4.03625 4.19006 4.13388 4.28769L5.19454 5.34835C5.29218 5.44598 5.45047 5.44598 5.5481 5.34835L5.90165 4.9948C5.99928 4.89717 5.99928 4.73887 5.90165 4.64124L4.84099 3.58058C4.74336 3.48295 4.58507 3.48295 4.48744 3.58058L4.13388 3.93414Z" fill="white"/>
<path d="M11.205 11.3588C11.1073 11.2611 11.1073 11.1028 11.205 11.0052L11.5585 10.6517C11.6561 10.554 11.8144 10.554 11.9121 10.6517L12.9727 11.7123C13.0703 11.8099 13.0703 11.9682 12.9727 12.0659L12.6192 12.4194C12.5215 12.517 12.3632 12.517 12.2656 12.4194L11.205 11.3588Z" fill="white"/>
<path d="M11.5585 5.34835C11.6561 5.44598 11.8144 5.44598 11.9121 5.34835L12.9727 4.28769C13.0703 4.19006 13.0703 4.03177 12.9727 3.93414L12.6192 3.58058C12.5215 3.48295 12.3632 3.48295 12.2656 3.58058L11.205 4.64124C11.1073 4.73887 11.1073 4.89717 11.205 4.9948L11.5585 5.34835Z" fill="white"/>
</svg>
