<svg width="16" height="29" viewBox="0 0 16 29" fill="none" xmlns="http://www.w3.org/2000/svg">
<g clip-path="url(#clip0_30320_225244)">
<mask id="mask0_30320_225244" style="mask-type:luminance" maskUnits="userSpaceOnUse" x="0" y="0" width="16" height="29">
<path d="M16 0H0V29H16V0Z" fill="white"/>
</mask>
<g mask="url(#mask0_30320_225244)">
<path d="M8.5 0H7.5V29H8.5V0Z" fill="white"/>
<path d="M11.4689 3.41087C11.3984 3.35869 11.3086 3.3676 11.2384 3.41087C11.1732 3.45107 11.125 3.52091 11.125 3.59899V8.39892C11.125 8.47844 11.1679 8.54689 11.2285 8.58704C11.2981 8.63319 11.3911 8.64193 11.4689 8.58704L15.1483 6.1871C15.2144 6.14355 15.25 6.07423 15.25 6.00197C15.25 5.92955 15.2141 5.85419 15.1483 5.81086L11.4689 3.41087Z" fill="white"/>
<path d="M4.53111 8.58913C4.60156 8.64131 4.6914 8.6324 4.76158 8.58913C4.82677 8.54893 4.875 8.47909 4.875 8.40101V3.60108C4.875 3.52156 4.83207 3.45311 4.77151 3.41296C4.70187 3.36681 4.60892 3.35807 4.53111 3.41296L0.851741 5.8129C0.785611 5.85645 0.749954 5.92577 0.75 5.99803C0.750047 6.07045 0.785939 6.14581 0.851741 6.18914L4.53111 8.58913Z" fill="white"/>
</g>
</g>
<defs>
<clipPath id="clip0_30320_225244">
<rect width="16" height="29" fill="white"/>
</clipPath>
</defs>
</svg>
