<svg width="16" height="16" viewBox="0 0 16 16" fill="none" xmlns="http://www.w3.org/2000/svg">
<path fill-rule="evenodd" clip-rule="evenodd" d="M12.7325 2.86424C12.6349 2.76661 12.4766 2.76661 12.379 2.86424L10.7981 4.44507C9.91766 4.15621 8.97708 3.99996 8 3.99996C5.33873 3.99996 2.94819 5.15906 1.30566 6.99996C1.02527 7.31422 0.75 7.59371 0.75 7.99996C0.75 8.43747 1.02527 8.68571 1.30566 8.99997C2.09099 9.88014 3.04731 10.6045 4.12247 11.1207L2.83303 12.4102C2.7354 12.5078 2.7354 12.6661 2.83303 12.7637L3.18658 13.1173C3.28421 13.2149 3.4425 13.2149 3.54013 13.1173L6.95305 9.70438C7.25758 9.89184 7.61616 9.99997 8 9.99997C9.10457 9.99997 10 9.10453 10 7.99996C10 7.61613 9.89187 7.25754 9.70441 6.95301L13.0861 3.57135C13.1837 3.47372 13.1837 3.31542 13.0861 3.21779L12.7325 2.86424ZM8.98453 6.25867L9.70912 5.53409C9.22417 5.19734 8.63513 4.99996 8 4.99996C6.34315 4.99996 5 6.34311 5 7.99996C5 8.6351 5.19737 9.22413 5.53413 9.70908L6.25871 8.9845C6.09402 8.69385 6 8.35789 6 7.99996C6 6.89539 6.89543 5.99996 8 5.99996C8.35792 5.99996 8.69388 6.09398 8.98453 6.25867ZM1.76439 8.00548C1.84847 8.12322 1.95558 8.22633 2.05183 8.33421C2.79167 9.1634 3.70133 9.83645 4.72618 10.2988C4.26864 9.64845 4 8.85558 4 7.99996C4 7.14435 4.26864 6.35148 4.72618 5.7011C3.70133 6.16348 2.79167 6.83653 2.05183 7.66572C1.95348 7.77595 1.84616 7.8822 1.76439 8.00548Z" fill="white"/>
<path d="M7.16255 10.8815C7.42834 10.9586 7.70934 11 8 11C9.65685 11 11 9.65682 11 7.99996C11 7.70931 10.9587 7.4283 10.8816 7.16251L11.6601 6.38394C11.8786 6.87813 12 7.42487 12 7.99996C12 8.85558 11.7314 9.64845 11.2738 10.2988C12.2959 9.83772 13.2033 9.16708 13.9421 8.34101C14.0362 8.23578 14.1504 8.12732 14.2145 7.99932C14.1513 7.87453 14.04 7.7687 13.9482 7.66572C13.3832 7.03252 12.7192 6.49037 11.9805 6.06356L12.7095 5.33452C13.4495 5.79197 14.118 6.35399 14.6943 6.99996C14.9747 7.31422 15.2177 7.59371 15.2177 7.99996C15.2177 8.40622 14.9705 8.69113 14.6875 9.00762C13.0452 10.8441 10.6576 12 8 12C7.39077 12 6.79573 11.9392 6.22061 11.8235L7.16255 10.8815Z" fill="white"/>
</svg>
