<svg width="16" height="16" viewBox="0 0 16 16" fill="none" xmlns="http://www.w3.org/2000/svg">
<path fill-rule="evenodd" clip-rule="evenodd" d="M13.75 10.7528C13.7362 10.7372 13.7219 10.7219 13.7071 10.7071L12 9V5C12 2.68686 10.3062 1 7.99366 1C5.68108 1 4 2.68686 4 5V9L2.29289 10.7071C2.27808 10.7219 2.26378 10.7372 2.25 10.7528C2.08937 10.9349 2 11.1699 2 11.4142V11.75C2 11.8881 2.11193 12 2.25 12H13.75C13.8881 12 14 11.8881 14 11.75V11.4142C14 11.1699 13.9106 10.9349 13.75 10.7528ZM10.5 5V9.62132L11.3787 10.5H4.62132L5.5 9.62132V5C5.5 3.51227 6.51252 2.5 7.99366 2.5C9.48111 2.5 10.5 3.51857 10.5 5Z" fill="white"/>
<path d="M9 14C9 14.5523 8.55228 15 8 15C7.44771 15 7 14.5523 7 14C7 13.4477 7.44771 13 8 13C8.55228 13 9 13.4477 9 14Z" fill="white"/>
</svg>
