<svg width="16" height="16" viewBox="0 0 16 16" fill="none" xmlns="http://www.w3.org/2000/svg">
<path d="M2.25 2C2.11193 2 2 2.11193 2 2.25V2.75C2 2.88807 2.11193 3 2.25 3H2.75C2.88807 3 3 2.88807 3 2.75V2.25C3 2.11193 2.88807 2 2.75 2H2.25Z" fill="white"/>
<path d="M4.25 4C4.11193 4 4 4.11193 4 4.25V10.75C4 10.8881 4.11193 11 4.25 11H8.15331L6.85734 7.57696C6.68709 7.12728 7.12728 6.6871 7.57696 6.85735L11 8.15331V4.25C11 4.11193 10.8881 4 10.75 4H4.25Z" fill="white"/>
<path d="M4 2.25C4 2.11193 4.11193 2 4.25 2H4.75C4.88807 2 5 2.11193 5 2.25V2.75C5 2.88807 4.88807 3 4.75 3H4.25C4.11193 3 4 2.88807 4 2.75V2.25Z" fill="white"/>
<path d="M6.25 2C6.11193 2 6 2.11193 6 2.25V2.75C6 2.88807 6.11193 3 6.25 3H6.75C6.88807 3 7 2.88807 7 2.75V2.25C7 2.11193 6.88807 2 6.75 2H6.25Z" fill="white"/>
<path d="M8 2.25C8 2.11193 8.11193 2 8.25 2H8.75C8.88807 2 9 2.11193 9 2.25V2.75C9 2.88807 8.88807 3 8.75 3H8.25C8.11193 3 8 2.88807 8 2.75V2.25Z" fill="white"/>
<path d="M10.25 2C10.1119 2 10 2.11193 10 2.25V2.75C10 2.88807 10.1119 3 10.25 3H10.75C10.8881 3 11 2.88807 11 2.75V2.25C11 2.11193 10.8881 2 10.75 2H10.25Z" fill="white"/>
<path d="M12 2.25C12 2.11193 12.1119 2 12.25 2H12.75C12.8881 2 13 2.11193 13 2.25V2.75C13 2.88807 12.8881 3 12.75 3H12.25C12.1119 3 12 2.88807 12 2.75V2.25Z" fill="white"/>
<path d="M2.25 12C2.11193 12 2 12.1119 2 12.25V12.75C2 12.8881 2.11193 13 2.25 13H2.75C2.88807 13 3 12.8881 3 12.75V12.25C3 12.1119 2.88807 12 2.75 12H2.25Z" fill="white"/>
<path d="M4 12.25C4 12.1119 4.11193 12 4.25 12H4.75C4.88807 12 5 12.1119 5 12.25V12.75C5 12.8881 4.88807 13 4.75 13H4.25C4.11193 13 4 12.8881 4 12.75V12.25Z" fill="white"/>
<path d="M6.25 12C6.11193 12 6 12.1119 6 12.25V12.75C6 12.8881 6.11193 13 6.25 13H6.75C6.88807 13 7 12.8881 7 12.75V12.25C7 12.1119 6.88807 12 6.75 12H6.25Z" fill="white"/>
<path d="M2.25 11C2.11193 11 2 10.8881 2 10.75V10.25C2 10.1119 2.11193 10 2.25 10H2.75C2.88807 10 3 10.1119 3 10.25L3 10.75C3 10.8881 2.88807 11 2.75 11H2.25Z" fill="white"/>
<path d="M2 8.75C2 8.88807 2.11193 9 2.25 9H2.75C2.88807 9 3 8.88807 3 8.75L3 8.25C3 8.11193 2.88807 8 2.75 8H2.25C2.11193 8 2 8.11193 2 8.25V8.75Z" fill="white"/>
<path d="M2.25 7C2.11193 7 2 6.88807 2 6.75V6.25C2 6.11193 2.11193 6 2.25 6H2.75C2.88807 6 3 6.11193 3 6.25L3 6.75C3 6.88807 2.88807 7 2.75 7H2.25Z" fill="white"/>
<path d="M12 6.75C12 6.88807 12.1119 7 12.25 7H12.75C12.8881 7 13 6.88807 13 6.75V6.25C13 6.11193 12.8881 6 12.75 6H12.25C12.1119 6 12 6.11193 12 6.25V6.75Z" fill="white"/>
<path d="M2.25 5C2.11193 5 2 4.88807 2 4.75V4.25C2 4.11193 2.11193 4 2.25 4H2.75C2.88807 4 3 4.11193 3 4.25L3 4.75C3 4.88807 2.88807 5 2.75 5H2.25Z" fill="white"/>
<path d="M12 4.75C12 4.88807 12.1119 5 12.25 5H12.75C12.8881 5 13 4.88807 13 4.75V4.25C13 4.11193 12.8881 4 12.75 4H12.25C12.1119 4 12 4.11193 12 4.25V4.75Z" fill="white"/>
<path d="M14.1231 10.405L11.6672 11.6672L10.405 14.1231L8.13965 8.13965L14.1231 10.405Z" fill="white"/>
</svg>
