<svg width="16" height="16" viewBox="0 0 16 16" fill="none" xmlns="http://www.w3.org/2000/svg">
<path d="M8.93504 2.07243C8.63035 2.02475 8.31807 2 8 2C4.68629 2 2 4.68629 2 8C2 10.2299 3.21645 12.1757 5.02196 13.2099C5.02057 13.1957 5.01922 13.1814 5.01793 13.1672C4.99764 12.9307 4.99457 12.6931 5.00873 12.4563C5.02438 12.2018 5.06417 11.9493 5.12759 11.7022C5.19385 11.4424 5.28953 11.1909 5.41284 10.9522C5.44453 10.8922 5.47623 10.8322 5.51331 10.7737C5.52459 10.756 5.53578 10.7382 5.54695 10.7205C5.57252 10.6799 5.598 10.6394 5.62424 10.5994C5.65369 10.5545 5.68739 10.5105 5.72082 10.4669C5.7302 10.4547 5.73956 10.4425 5.7488 10.4303C5.78197 10.3865 5.81888 10.3443 5.85549 10.3024C5.86541 10.2911 5.8753 10.2798 5.88509 10.2684C6.06955 10.0631 6.27991 9.88197 6.51106 9.72938C6.71602 9.59505 6.9336 9.48046 7.1608 9.38719C7.35003 9.30987 7.54308 9.24198 7.73922 9.18375C7.84497 9.15193 7.94469 9.12347 8.03757 9.09696C8.09974 9.07922 8.15885 9.06235 8.21464 9.04594C8.35378 9.005 8.47232 8.96781 8.56328 8.9325C8.63354 8.90643 8.70167 8.87508 8.76708 8.83875C8.81242 8.81489 8.85302 8.78313 8.88688 8.745C8.90641 8.72374 8.92371 8.70061 8.93855 8.67594C8.95403 8.65012 8.96749 8.62316 8.9788 8.59531C9.00501 8.52124 9.01882 8.44345 9.01968 8.365C9.02068 8.25504 9.01006 8.14529 8.98799 8.0375C8.94172 7.79344 8.84822 7.515 8.73443 7.225C8.65887 7.03241 8.57436 6.83375 8.4873 6.62912C8.44328 6.52562 8.3986 6.4206 8.3541 6.31406C8.21103 5.98277 8.08577 5.64428 7.97883 5.3C7.9223 5.11391 7.87732 4.9246 7.84413 4.73313C7.82638 4.635 7.81434 4.53312 7.80483 4.43094C7.79532 4.32875 7.79152 4.22313 7.79437 4.11625C7.79741 3.89852 7.82818 3.68203 7.88597 3.47187C7.9453 3.26106 8.03416 3.05943 8.14998 2.87281C8.26304 2.69164 8.39905 2.5254 8.55472 2.37812C8.67237 2.26555 8.79962 2.16328 8.93504 2.07243Z" fill="white"/>
<path d="M8.47934 13.9811C11.5689 13.7369 14 11.1524 14 8C14 5.45002 12.4093 3.27157 10.166 2.40287C9.96377 2.50845 9.77329 2.63494 9.59779 2.78031C9.39834 2.94373 9.24142 3.15181 9.14012 3.38719C9.05288 3.60161 9.02722 3.83558 9.06596 4.06344C9.07388 4.1225 9.08783 4.18344 9.10209 4.24438C9.11635 4.30531 9.13378 4.3675 9.15756 4.43188C9.20254 4.56301 9.25546 4.69136 9.31603 4.81625C9.45124 5.09115 9.60072 5.35901 9.76387 5.61875C9.81651 5.70496 9.87033 5.79193 9.92493 5.88017C10.0449 6.07403 10.1686 6.27399 10.2919 6.48531C10.4713 6.79281 10.6485 7.12406 10.7933 7.51656C10.8704 7.72604 10.9274 7.9422 10.9635 8.16219C11.0051 8.41401 11.0112 8.67029 10.9816 8.92375C10.9644 9.05958 10.9367 9.19392 10.8989 9.32562C10.8602 9.45834 10.8104 9.58764 10.7499 9.71219C10.6269 9.96858 10.4614 10.2029 10.2602 10.4056C10.075 10.59 9.86742 10.7511 9.64217 10.8853C9.45765 10.9947 9.2672 11.094 9.07166 11.1828C8.99468 11.2187 8.92093 11.2522 8.8507 11.2842C8.76248 11.3243 8.6798 11.3619 8.60322 11.3984C8.48342 11.4542 8.36701 11.5168 8.25458 11.5859C8.17628 11.6333 8.10412 11.6898 8.03969 11.7544C7.99793 11.7973 7.96347 11.8466 7.93763 11.9003C7.93504 11.9073 7.93188 11.9137 7.92872 11.9202C7.92609 11.9255 7.92345 11.9309 7.92115 11.9366C7.9172 11.9497 7.91233 11.9625 7.90657 11.975C7.903 11.9894 7.89866 12.0036 7.89358 12.0175C7.89124 12.0241 7.88952 12.0317 7.88781 12.0393C7.88604 12.0472 7.88427 12.055 7.88185 12.0616C7.86756 12.1251 7.85991 12.1899 7.85903 12.255C7.8575 12.3334 7.86216 12.4117 7.87297 12.4894C7.88637 12.5842 7.90564 12.6781 7.93066 12.7706C7.99343 12.9952 8.07638 13.2137 8.17851 13.4237C8.27036 13.6139 8.37074 13.7999 8.47934 13.9811Z" fill="white"/>
</svg>
