<svg width="47" height="16" viewBox="0 0 47 16" fill="none" xmlns="http://www.w3.org/2000/svg">
<g clip-path="url(#clip0_31886_283712)">
<path d="M4 4.00073H8V5.00073H4V4.00073Z" fill="white"/>
<path d="M7 7.00073V8.00073H1V7.00073H7Z" fill="white"/>
<path d="M4 10.0007H8V11.0007H4V10.0007Z" fill="white"/>
<path d="M14.7747 7.56036L10.7853 5.07529C10.6079 4.9648 10.3885 4.98311 10.2268 5.08828C10.094 5.17464 10 5.31957 10 5.49986V10.4999C10 10.6987 10.1159 10.8565 10.2726 10.9386C10.4278 11.02 10.6231 11.027 10.7853 10.926L14.7747 8.44093C14.9315 8.34323 15.0099 8.17194 15.0099 8.00065C15.0099 7.82936 14.9315 7.65806 14.7747 7.56036Z" fill="white"/>
<path d="M24.682 7.985C24.682 5.576 25.925 4.113 27.773 4.113C29.643 4.113 30.853 5.554 30.853 7.963V8.315C30.853 10.713 29.61 12.187 27.751 12.187C25.903 12.187 24.682 10.746 24.682 8.337V7.985ZM25.672 7.963V8.315C25.672 10.306 26.508 11.373 27.773 11.373C29.049 11.373 29.874 10.306 29.874 8.337V7.985C29.874 5.994 29.027 4.927 27.751 4.927C26.486 4.927 25.672 5.994 25.672 7.963ZM33.2389 10.801V12H32.0619V10.801H33.2389ZM37.2805 12.187C36.2245 12.187 35.3005 11.791 34.5415 10.889L35.1025 10.24C35.7625 11.01 36.5325 11.384 37.2695 11.384C38.4905 11.384 39.2495 10.559 39.2495 9.525C39.2495 8.425 38.4025 7.798 37.4345 7.798C36.7855 7.798 36.1365 8.073 35.5095 8.601L34.8715 8.502L34.8385 8.447L35.1355 4.3H39.7445V5.103H35.9495L35.7405 7.655C36.2685 7.292 36.9615 7.017 37.6435 7.017C39.0295 7.017 40.2285 7.908 40.2285 9.492C40.2285 10.955 39.1615 12.187 37.2805 12.187ZM41.0852 12L43.1422 9.261L41.2282 6.687H42.3172L43.6922 8.667L45.1002 6.687H46.1232L44.2092 9.25L46.2992 12H45.2212L43.6702 9.811L42.1082 12H41.0852Z" fill="white"/>
</g>
<defs>
<clipPath id="clip0_31886_283712">
<rect width="47" height="16" fill="white"/>
</clipPath>
</defs>
</svg>
