<svg width="16" height="16" viewBox="0 0 16 16" fill="none" xmlns="http://www.w3.org/2000/svg">
<path fill-rule="evenodd" clip-rule="evenodd" d="M13.6213 8.98504C13.8438 8.9294 14 8.7294 14 8.49997V1.49997C14 1.10301 13.5596 0.864348 13.227 1.08104L9.24955 3.67243L2.54973 3.00245C2.17094 2.96457 1.89045 3.34703 2.04041 3.69693L4.37921 9.15414C4.13765 9.47841 3.99998 9.85213 3.99998 10.25C3.99998 11.4926 5.34313 12.5 6.99998 12.5C7.15116 12.5 7.29972 12.4916 7.44489 12.4754C7.58786 12.6738 7.62322 12.8181 7.62491 12.9082C7.62762 13.0523 7.5462 13.2206 7.30944 13.414C7.07702 13.6038 6.7664 13.7559 6.49382 13.8633C6.42173 13.8917 6.3492 13.9186 6.27601 13.9434C6.14666 13.9873 6.06771 14.1218 6.10153 14.2541L6.2234 14.7311C6.25866 14.8691 6.40191 14.9499 6.53743 14.9059C6.64962 14.8696 6.77561 14.8271 6.86052 14.7937C7.17342 14.6703 7.59351 14.4731 7.94198 14.1885C8.28612 13.9074 8.63578 13.4763 8.62473 12.8894C8.62046 12.6622 8.56241 12.4387 8.45442 12.2183C9.37619 11.8344 9.99998 11.0968 9.99998 10.25C9.99998 10.1307 9.98761 10.0136 9.96378 9.89941L13.6213 8.98504ZM7.80383 11.3887C8.08698 11.3064 8.33045 11.1841 8.5213 11.041C8.87477 10.7759 8.99998 10.486 8.99998 10.25C8.99998 10.014 8.87477 9.72408 8.5213 9.45898C8.16753 9.19365 7.63296 8.99997 6.99998 8.99997C6.90338 8.99997 6.80907 9.00448 6.71734 9.01307C6.63643 9.10748 6.55539 9.23629 6.51956 9.39514C6.45736 9.67097 6.48544 10.2797 7.60979 11.2182C7.67766 11.2748 7.74236 11.3316 7.80383 11.3887ZM6.27534 8.06605C5.86848 8.14174 5.4944 8.27971 5.17213 8.46569L3.29332 4.0818L9.32523 4.68499C9.43861 4.69633 9.55245 4.6686 9.64792 4.6064L13 2.42249V8.10958L9.48446 8.98846C8.94493 8.39193 8.03349 7.99997 6.99998 7.99997C6.75793 7.99997 6.52258 8.02147 6.29713 8.06206C6.29192 8.05449 6.29183 8.05455 6.29175 8.05461L6.29109 8.05505L6.28965 8.05603C6.28864 8.05673 6.28752 8.05749 6.2863 8.05834C6.28467 8.05947 6.28286 8.06073 6.28087 8.06213C6.27987 8.06283 6.27883 8.06357 6.27774 8.06434C6.27696 8.06489 6.27616 8.06546 6.27534 8.06605ZM5.50442 9.44002C5.49573 9.4463 5.48715 9.45262 5.47866 9.45898C5.12519 9.72408 4.99998 10.014 4.99998 10.25C4.99998 10.486 5.12519 10.7759 5.47866 11.041C5.71027 11.2147 6.01935 11.3577 6.38281 11.4357C5.70011 10.7038 5.46008 10.0309 5.50442 9.44002Z" fill="white"/>
</svg>
