<svg width="16" height="16" viewBox="0 0 16 16" fill="none" xmlns="http://www.w3.org/2000/svg">
<path d="M8.00003 1C9.93303 1 11.683 1.7835 12.9498 3.05025L13.5733 2.42678C13.7307 2.26929 14 2.38083 14 2.60355V4.75C14 4.88807 13.8881 5 13.75 5H11.6036C11.3809 5 11.2693 4.73071 11.4268 4.57322L12.2427 3.75736C11.1569 2.67157 9.65688 2 8.00003 2C4.77014 2 2.13633 4.55211 2.00515 7.74978C1.99949 7.88773 1.8881 8 1.75003 8H1.25003C1.11196 8 0.999572 7.88758 1.00442 7.7496C1.13627 3.99958 4.21785 1 8.00003 1Z" fill="white"/>
<path d="M2.42681 13.5732L3.05028 12.9497C4.31703 14.2165 6.06703 15 8.00003 15C11.7822 15 14.8638 12.0004 14.9956 8.2504C15.0005 8.11242 14.8881 8 14.75 8H14.25C14.112 8 14.0006 8.11227 13.9949 8.25022C13.8637 11.4479 11.2299 14 8.00003 14C6.34317 14 4.84317 13.3284 3.75739 12.2426L4.57325 11.4268C4.73074 11.2693 4.6192 11 4.39648 11H2.25003C2.11196 11 2.00003 11.1119 2.00003 11.25V13.3964C2.00003 13.6192 2.26931 13.7307 2.42681 13.5732Z" fill="white"/>
<path fill-rule="evenodd" clip-rule="evenodd" d="M7.50003 4.25C7.50003 4.11193 7.61196 4 7.75003 4L8.25003 4C8.3881 4 8.50003 4.11193 8.50003 4.25V5.04148C8.95586 5.11795 9.37683 5.29722 9.7383 5.55463L10.2981 4.9948C10.3958 4.89717 10.5541 4.89717 10.6517 4.9948L11.0052 5.34835C11.1029 5.44598 11.1029 5.60427 11.0052 5.7019L10.4454 6.26173C10.7028 6.6232 10.8821 7.04417 10.9586 7.5H11.75C11.8881 7.5 12 7.61193 12 7.75V8.25C12 8.38807 11.8881 8.5 11.75 8.5H10.9586C10.8821 8.95583 10.7028 9.3768 10.4454 9.73827L11.0052 10.2981C11.1029 10.3957 11.1029 10.554 11.0052 10.6517L10.6517 11.0052C10.554 11.1028 10.3958 11.1028 10.2981 11.0052L9.7383 10.4454C9.37683 10.7028 8.95586 10.882 8.50003 10.9585V11.75C8.50003 11.8881 8.3881 12 8.25003 12H7.75003C7.61196 12 7.50003 11.8881 7.50003 11.75V10.9585C7.0442 10.882 6.62323 10.7028 6.26176 10.4454L5.70193 11.0052C5.6043 11.1028 5.44601 11.1028 5.34838 11.0052L4.99483 10.6517C4.8972 10.554 4.8972 10.3957 4.99483 10.2981L5.55466 9.73827C5.29725 9.3768 5.11798 8.95583 5.04151 8.5H4.25003C4.11196 8.5 4.00003 8.38807 4.00003 8.25L4.00003 7.75C4.00003 7.61193 4.11196 7.5 4.25003 7.5H5.04151C5.11798 7.04417 5.29725 6.6232 5.55466 6.26173L4.99483 5.7019C4.8972 5.60427 4.8972 5.44598 4.99483 5.34835L5.34838 4.9948C5.44601 4.89717 5.6043 4.89717 5.70193 4.9948L6.26176 5.55463C6.62323 5.29722 7.0442 5.11795 7.50003 5.04148V4.25ZM10 8C10 9.10457 9.1046 10 8.00003 10C6.89546 10 6.00003 9.10457 6.00003 8C6.00003 6.89543 6.89546 6 8.00003 6C9.1046 6 10 6.89543 10 8Z" fill="white"/>
</svg>
