<svg width="16" height="16" viewBox="0 0 16 16" fill="none" xmlns="http://www.w3.org/2000/svg">
<path d="M8 14.75C8 14.888 7.88801 15.0004 7.75003 14.9956C6.95457 14.9677 6.19287 14.807 5.4864 14.5351C5.35758 14.4855 5.29871 14.3383 5.35283 14.2113L5.54896 13.7511C5.60311 13.624 5.74985 13.5655 5.87905 13.6143C6.46453 13.8356 7.09369 13.9679 7.75005 13.9948C7.88801 14.0005 8 14.1119 8 14.25V14.75Z" fill="white"/>
<path d="M10.47 13.4696C10.3442 13.5265 10.2819 13.6716 10.3335 13.7996L10.5202 14.2637C10.5717 14.3919 10.7176 14.4543 10.8438 14.3982C11.5566 14.0809 12.2065 13.648 12.7699 13.1233C12.8709 13.0292 12.8706 12.8706 12.773 12.7729L12.4194 12.4194C12.3218 12.3217 12.1638 12.3222 12.0623 12.4157C11.5941 12.8466 11.0572 13.204 10.47 13.4696Z" fill="white"/>
<path d="M3.58429 12.0622C3.6778 12.1638 3.67822 12.3217 3.58058 12.4194L3.22703 12.7729C3.1294 12.8706 2.97075 12.8709 2.87665 12.7698C2.35196 12.2065 1.91906 11.5565 1.60178 10.8438C1.54562 10.7176 1.60809 10.5717 1.73621 10.5202L2.20032 10.3334C2.32838 10.2819 2.47348 10.3442 2.53037 10.4699C2.79598 11.0572 3.15339 11.5941 3.58429 12.0622Z" fill="white"/>
<path d="M2.00512 7.74974C1.99946 7.88769 1.88807 7.99996 1.75 7.99996H1.25C1.11193 7.99996 0.999544 7.88754 1.0044 7.74956C1.13624 3.99954 4.21782 0.999957 8 0.999957C10.5463 0.999957 12.7751 2.35954 14 4.39237V1.24996C14 1.11189 14.1119 0.999957 14.25 0.999957H14.75C14.8881 0.999957 15 1.11189 15 1.24996L15 5.99996L10.25 5.99996C10.1119 5.99996 10 5.88803 10 5.74996V5.24996C10 5.11189 10.1119 4.99996 10.25 4.99996L13.1973 4.99996C12.1599 3.20655 10.2208 1.99996 8 1.99996C4.77011 1.99996 2.1363 4.55207 2.00512 7.74974Z" fill="white"/>
<path d="M13.6141 10.1216C13.5653 10.2508 13.6238 10.3975 13.7508 10.4517L14.211 10.6479C14.338 10.702 14.4853 10.6432 14.5348 10.5144C14.8069 9.80779 14.9676 9.04596 14.9956 8.25036C15.0005 8.11237 14.8881 7.99996 14.75 7.99996H14.25C14.1119 7.99996 14.0005 8.11222 13.9949 8.25018C13.9679 8.90669 13.8355 9.53599 13.6141 10.1216Z" fill="white"/>
</svg>
