<svg width="16" height="16" viewBox="0 0 16 16" xmlns="http://www.w3.org/2000/svg">
<path d="M14 1.25C14 1.11193 14.1119 1 14.25 1L14.75 1C14.8881 1 15 1.11193 15 1.25L15 6L10.25 6C10.1119 6 10 5.88807 10 5.75L10 5.25C10 5.11193 10.1119 5 10.25 5L13.1973 5C12.1599 3.2066 10.2208 2 8 2C4.68629 2 2 4.68629 2 8C2 11.3137 4.68629 14 8 14C11.2299 14 13.8637 11.4479 13.9949 8.25022C14.0005 8.11227 14.1119 8 14.25 8L14.75 8C14.8881 8 15.0005 8.11242 14.9956 8.2504C14.8638 12.0004 11.7822 15 8 15C4.13401 15 1 11.866 1 8C1 4.13401 4.13401 1 8 1C10.5463 1 12.7751 2.35958 14 4.39241L14 1.25Z" fill="white"/>
</svg>
