<svg width="16" height="16" viewBox="0 0 16 16" fill="none" xmlns="http://www.w3.org/2000/svg">
<g clip-path="url(#clip0_29629_205147)">
<path d="M11 2V2.7875C11 2.97644 10.7331 3.07106 10.577 2.93746L9.07258 1.64996C8.97581 1.56714 8.97581 1.43286 9.07258 1.35004L10.577 0.0625396C10.7331 -0.0710583 11 0.0235612 11 0.212497V1H13C14.1046 1 15 1.89543 15 3V5H15.7875C15.9764 5 16.0711 5.26691 15.9375 5.42302L14.65 6.92742C14.5671 7.02419 14.4329 7.02419 14.35 6.92742L13.0625 5.42302C12.9289 5.26691 13.0236 5 13.2125 5H14V3C14 2.44772 13.5523 2 13 2H11Z" fill="white"/>
<path fill-rule="evenodd" clip-rule="evenodd" d="M0 7C0 6.44772 0.447715 6 1 6H9C9.55228 6 10 6.44772 10 7V15C10 15.5523 9.55228 16 9 16H1C0.447716 16 0 15.5523 0 15V7ZM2 7H8V8H9V14H8V15H2V14H1V8H2V7Z" fill="white"/>
</g>
<defs>
<clipPath id="clip0_29629_205147">
<rect width="16" height="16" fill="white"/>
</clipPath>
</defs>
</svg>
