<svg width="16" height="16" viewBox="0 0 16 16" fill="none" xmlns="http://www.w3.org/2000/svg">
<path fill-rule="evenodd" clip-rule="evenodd" d="M9.30885 10.0159C8.53901 10.6318 7.56251 11 6.5 11C4.01472 11 2 8.98528 2 6.5C2 4.01472 4.01472 2 6.5 2C8.98528 2 11 4.01472 11 6.5C11 7.5625 10.6318 8.539 10.016 9.30884L13.9268 13.2197C14.0244 13.3173 14.0244 13.4756 13.9268 13.5732L13.5732 13.9268C13.4756 14.0244 13.3173 14.0244 13.2197 13.9268L9.30885 10.0159ZM10.0312 6.51563C10.0312 8.45725 8.45725 10.0313 6.51562 10.0312C4.574 10.0312 3 8.45725 3 6.51562C3 4.574 4.574 3 6.51562 3C8.45725 3 10.0312 4.574 10.0312 6.51563Z" fill="white"/>
</svg>
