<svg width="480" height="48" viewBox="0 0 480 48" fill="none" xmlns="http://www.w3.org/2000/svg">
<rect width="480" height="48" fill="#313236"/>
<path d="M26.836 23.086C26.836 20.188 24.708 17.962 21.852 17.962C19.038 17.962 16.854 20.216 16.854 23.114C16.854 26.012 18.982 28.238 21.838 28.238C24.666 28.238 26.836 25.984 26.836 23.086ZM18.128 23.086C18.128 20.79 19.71 18.998 21.852 18.998C23.952 18.998 25.562 20.79 25.562 23.114C25.562 25.424 23.98 27.202 21.852 27.202C19.738 27.202 18.128 25.41 18.128 23.086ZM28.7255 28H29.8875V26.642C30.4195 27.552 31.3435 28.168 32.4495 28.168C34.1295 28.168 35.7115 26.768 35.7115 24.598C35.7115 22.414 34.1995 21.07 32.5615 21.07C31.4695 21.07 30.4895 21.644 29.9155 22.582V17.78H28.7255V28ZM29.8595 24.654C29.8595 23.17 31.0075 22.036 32.2535 22.036C33.5275 22.036 34.5215 23.002 34.5215 24.626C34.5215 26.236 33.5135 27.188 32.2115 27.188C30.9795 27.188 29.8595 26.11 29.8595 24.654ZM38.8064 18.312H37.4624V19.586H38.8064V18.312ZM38.7364 28.588V21.238H37.5464V28.602C37.5464 29.652 37.0564 30.016 36.2024 30.016H35.7964V30.94H36.3704C37.9104 30.94 38.7364 30.184 38.7364 28.588ZM44.0718 27.314C42.8538 27.314 41.8178 26.418 41.6778 24.948H47.1798C47.1938 24.836 47.2078 24.682 47.2078 24.486C47.2078 22.316 45.8078 21 43.9738 21C42.0838 21 40.5158 22.54 40.5158 24.612C40.5158 26.768 41.9017 28.238 43.9738 28.238C45.2338 28.238 46.1998 27.776 46.9698 26.894L46.3398 26.25C45.6678 26.992 44.9118 27.314 44.0718 27.314ZM43.9738 21.91C45.0378 21.91 45.9338 22.666 46.0598 24.15H41.6917C41.8738 22.75 42.8538 21.91 43.9738 21.91ZM52.0682 28.238C53.4822 28.238 54.6162 27.524 55.1622 26.39L54.2802 25.9C53.8042 26.796 52.9922 27.258 52.1242 27.258C50.7942 27.258 49.7862 26.124 49.7862 24.64C49.7862 23.142 50.8082 21.966 52.1242 21.966C53.0342 21.966 53.7482 22.386 54.1822 23.394L55.1062 22.862C54.5462 21.63 53.5662 21 52.1522 21C50.1222 21 48.5822 22.61 48.5822 24.626C48.5822 26.838 50.0382 28.238 52.0682 28.238ZM57.4515 25.844C57.4515 27.314 58.1235 28 59.6635 28H60.5875V27.034H59.8455C59.0895 27.034 58.6275 26.67 58.6275 25.746V22.19H60.5875V21.238H58.6275V19.166H57.4515V21.238H56.1355V22.19H57.4515V25.844ZM70.1542 26.096C70.1542 24.864 69.3842 24.22 67.3262 24.01C65.9962 23.884 65.6462 23.506 65.6462 22.96C65.6462 22.442 66.1922 21.952 67.2142 21.952C67.9562 21.952 68.6562 22.204 69.5102 22.778L69.9582 21.91C69.1322 21.336 68.2782 21.042 67.2422 21.042C65.5902 21.042 64.5542 21.98 64.5542 23.002C64.5542 24.206 65.2822 24.85 67.2142 25.046C68.6842 25.2 69.0622 25.564 69.0622 26.138C69.0622 26.768 68.4742 27.286 67.2562 27.286C66.5002 27.286 65.6602 26.992 64.7922 26.418L64.3022 27.258C65.1422 27.874 66.1362 28.196 67.2422 28.196C69.0622 28.196 70.1542 27.23 70.1542 26.096ZM75.0385 27.314C73.8205 27.314 72.7845 26.418 72.6445 24.948H78.1465C78.1605 24.836 78.1745 24.682 78.1745 24.486C78.1745 22.316 76.7745 21 74.9405 21C73.0505 21 71.4825 22.54 71.4825 24.612C71.4825 26.768 72.8685 28.238 74.9405 28.238C76.2005 28.238 77.1665 27.776 77.9365 26.894L77.3065 26.25C76.6345 26.992 75.8785 27.314 75.0385 27.314ZM74.9405 21.91C76.0045 21.91 76.9005 22.666 77.0265 24.15H72.6585C72.8405 22.75 73.8205 21.91 74.9405 21.91ZM81.173 17.78H79.983V28H81.173V17.78ZM86.5093 27.314C85.2913 27.314 84.2553 26.418 84.1153 24.948H89.6173C89.6313 24.836 89.6453 24.682 89.6453 24.486C89.6453 22.316 88.2453 21 86.4113 21C84.5213 21 82.9533 22.54 82.9533 24.612C82.9533 26.768 84.3392 28.238 86.4113 28.238C87.6713 28.238 88.6373 27.776 89.4073 26.894L88.7773 26.25C88.1053 26.992 87.3493 27.314 86.5093 27.314ZM86.4113 21.91C87.4753 21.91 88.3713 22.666 88.4973 24.15H84.1292C84.3113 22.75 85.2913 21.91 86.4113 21.91ZM94.5057 28.238C95.9197 28.238 97.0537 27.524 97.5997 26.39L96.7177 25.9C96.2417 26.796 95.4297 27.258 94.5617 27.258C93.2317 27.258 92.2237 26.124 92.2237 24.64C92.2237 23.142 93.2457 21.966 94.5617 21.966C95.4717 21.966 96.1857 22.386 96.6197 23.394L97.5437 22.862C96.9837 21.63 96.0037 21 94.5897 21C92.5597 21 91.0197 22.61 91.0197 24.626C91.0197 26.838 92.4757 28.238 94.5057 28.238ZM99.889 25.844C99.889 27.314 100.561 28 102.101 28H103.025V27.034H102.283C101.527 27.034 101.065 26.67 101.065 25.746V22.19H103.025V21.238H101.065V19.166H99.889V21.238H98.573V22.19H99.889V25.844ZM105.962 18.312H104.632V19.586H105.962V18.312ZM104.702 21.238V28H105.892V21.238H104.702ZM111.186 28.238C113.216 28.238 114.742 26.642 114.742 24.64C114.742 22.568 113.23 21 111.228 21C109.198 21 107.672 22.596 107.672 24.598C107.672 26.656 109.184 28.238 111.186 28.238ZM111.214 27.258C109.898 27.258 108.876 26.138 108.876 24.612C108.876 23.086 109.884 21.966 111.2 21.966C112.516 21.966 113.538 23.1 113.538 24.626C113.538 26.152 112.53 27.258 111.214 27.258ZM117.606 21.238H116.444V28H117.634V24.696C117.634 23.142 118.488 22.036 119.762 22.036C120.868 22.036 121.47 22.806 121.47 23.94V28H122.66V23.87C122.66 22.232 121.722 21.07 120.098 21.07C118.992 21.07 118.096 21.644 117.606 22.638V21.238Z" fill="#E3E3E5"/>
<rect x="140" y="8" width="1" height="32" fill="#242528"/>
<rect x="153.5" y="8.5" width="31" height="31" fill="#242528"/>
<rect x="164" y="19" width="10" height="10" rx="1" fill="#E3E3E5"/>
<rect x="153.5" y="8.5" width="31" height="31" stroke="#585A62"/>
<g clip-path="url(#clip0_30335_230797)">
<path d="M207 23C207 22.4477 207.448 22 208 22L216 22C216.552 22 217 22.4477 217 23V31C217 31.5523 216.552 32 216 32H208C207.448 32 207 31.5523 207 31V23Z" fill="#E3E3E5"/>
<path d="M201 17C201 16.4477 201.448 16 202 16L210 16C210.552 16 211 16.4477 211 17V25C211 25.5523 210.552 26 210 26H202C201.448 26 201 25.5523 201 25V17Z" fill="#E3E3E5"/>
</g>
<g clip-path="url(#clip1_30335_230797)">
<path d="M247 23C247 22.4477 247.448 22 248 22L256 22C256.552 22 257 22.4477 257 23V31C257 31.5523 256.552 32 256 32H248C247.448 32 247 31.5523 247 31V23Z" fill="#E3E3E5"/>
<path fill-rule="evenodd" clip-rule="evenodd" d="M250 17H242V25H250V17ZM242 16C241.448 16 241 16.4477 241 17V25C241 25.5523 241.448 26 242 26H250C250.552 26 251 25.5523 251 25V17C251 16.4477 250.552 16 250 16L242 16Z" fill="#E3E3E5"/>
</g>
<rect x="281" y="8" width="1" height="32" fill="#242528"/>
<path d="M301.975 27.34C300.952 27.34 300.039 26.999 299.137 26.174L298.62 26.878C299.533 27.747 300.567 28.154 301.964 28.154C303.999 28.154 305.077 26.977 305.077 25.789C305.077 24.535 304.329 23.864 302.008 23.6C300.336 23.424 299.885 23.017 299.885 22.28C299.885 21.609 300.567 20.96 301.898 20.96C302.778 20.96 303.669 21.334 304.373 21.95L304.879 21.235C304.054 20.531 303.13 20.146 301.909 20.146C299.973 20.146 298.928 21.257 298.928 22.335C298.928 23.567 299.643 24.238 301.854 24.491C303.636 24.689 304.12 25.085 304.12 25.844C304.12 26.636 303.416 27.34 301.975 27.34ZM309.376 27.461C308.419 27.461 307.605 26.757 307.495 25.602H311.818C311.829 25.514 311.84 25.393 311.84 25.239C311.84 23.534 310.74 22.5 309.299 22.5C307.814 22.5 306.582 23.71 306.582 25.338C306.582 27.032 307.671 28.187 309.299 28.187C310.289 28.187 311.048 27.824 311.653 27.131L311.158 26.625C310.63 27.208 310.036 27.461 309.376 27.461ZM309.299 23.215C310.135 23.215 310.839 23.809 310.938 24.975H307.506C307.649 23.875 308.419 23.215 309.299 23.215ZM314.369 22.687H313.456V28H314.391V25.404C314.391 24.183 315.062 23.314 316.063 23.314C316.932 23.314 317.405 23.919 317.405 24.81V28H318.34V24.755C318.34 23.468 317.603 22.555 316.327 22.555C315.458 22.555 314.754 23.006 314.369 23.787V22.687ZM324.407 26.504C324.407 25.536 323.802 25.03 322.185 24.865C321.14 24.766 320.865 24.469 320.865 24.04C320.865 23.633 321.294 23.248 322.097 23.248C322.68 23.248 323.23 23.446 323.901 23.897L324.253 23.215C323.604 22.764 322.933 22.533 322.119 22.533C320.821 22.533 320.007 23.27 320.007 24.073C320.007 25.019 320.579 25.525 322.097 25.679C323.252 25.8 323.549 26.086 323.549 26.537C323.549 27.032 323.087 27.439 322.13 27.439C321.536 27.439 320.876 27.208 320.194 26.757L319.809 27.417C320.469 27.901 321.25 28.154 322.119 28.154C323.549 28.154 324.407 27.395 324.407 26.504ZM327.032 20.388H325.987V21.389H327.032V20.388ZM326.042 22.687V28H326.977V22.687H326.042ZM329.418 26.306C329.418 27.461 329.946 28 331.156 28H331.882V27.241H331.299C330.705 27.241 330.342 26.955 330.342 26.229V23.435H331.882V22.687H330.342V21.059H329.418V22.687H328.384V23.435H329.418V26.306ZM334.439 20.388H333.394V21.389H334.439V20.388ZM333.449 22.687V28H334.384V22.687H333.449ZM335.791 22.687L337.936 28.033H339.025L341.148 22.687H340.191L338.486 27.208L336.781 22.687H335.791ZM343.533 20.388H342.488V21.389H343.533V20.388ZM342.543 22.687V28H343.478V22.687H342.543ZM345.919 26.306C345.919 27.461 346.447 28 347.657 28H348.383V27.241H347.8C347.206 27.241 346.843 26.955 346.843 26.229V23.435H348.383V22.687H346.843V21.059H345.919V22.687H344.885V23.435H345.919V26.306ZM349.367 22.687L351.611 28.187L350.632 30.31H351.6L354.724 22.687H353.756L352.062 27.109L350.357 22.687H349.367Z" fill="#E3E3E5"/>
<rect x="363.5" y="12.5" width="71" height="23" rx="1.5" fill="#242528"/>
<path d="M367.418 26.174H371.598V28H372.555V26.174H373.963V25.393H372.555V20.3H371.07L367.418 25.36V26.174ZM371.642 25.426H368.353L371.642 20.872V25.426Z" fill="#E3E3E5"/>
<line x1="411.5" y1="12" x2="411.5" y2="36" stroke="#585A62"/>
<path d="M423 25.2914L419.783 22.0742C419.685 21.9766 419.527 21.9766 419.429 22.0742L419.076 22.4278C418.978 22.5254 418.978 22.6837 419.076 22.7813L422.823 26.5288C422.848 26.5532 422.876 26.5715 422.906 26.5837C422.996 26.6204 423.104 26.6021 423.177 26.5289L426.924 22.7813C427.022 22.6837 427.022 22.5254 426.924 22.4278L426.571 22.0742C426.473 21.9766 426.315 21.9766 426.217 22.0742L423 25.2914Z" fill="#E3E3E5"/>
<rect x="363.5" y="12.5" width="71" height="23" rx="1.5" stroke="#585A62"/>
<rect x="451" y="8" width="1" height="32" fill="#242528"/>
<defs>
<clipPath id="clip0_30335_230797">
<rect width="16" height="16" fill="white" transform="translate(201 16)"/>
</clipPath>
<clipPath id="clip1_30335_230797">
<rect width="16" height="16" fill="white" transform="translate(241 16)"/>
</clipPath>
</defs>
</svg>
