<svg width="16" height="16" viewBox="0 0 16 16" fill="none" xmlns="http://www.w3.org/2000/svg">
<path fill-rule="evenodd" clip-rule="evenodd" d="M2 3C2 2.44772 2.44772 2 3 2H13C13.5523 2 14 2.44772 14 3V13C14 13.5523 13.5523 14 13 14H3C2.44772 14 2 13.5523 2 13V3ZM6.32198 10.8058C6.41785 10.8625 6.54341 10.8496 6.62578 10.7672L11.7523 5.64071C11.8499 5.54308 11.8499 5.38479 11.7523 5.28716L11.3988 4.93361C11.3011 4.83597 11.1428 4.83597 11.0452 4.93361L6.44901 9.5298L4.94641 8.0272C4.84878 7.92957 4.69048 7.92957 4.59285 8.0272L4.2393 8.38075C4.14167 8.47838 4.14167 8.63667 4.2393 8.7343L6.27223 10.7672C6.28749 10.7825 6.30422 10.7954 6.32198 10.8058Z" fill="white"/>
</svg>
