<svg width="324" height="32" viewBox="0 0 324 32" fill="none" xmlns="http://www.w3.org/2000/svg">
<rect x="0.5" y="0.5" width="323" height="31" fill="#242528"/>
<rect x="0.5" y="0.5" width="323" height="31" stroke="#8E9099"/>
<g clip-path="url(#clip0_30077_234335)">
<path d="M16.564 21.196C19 21.196 20.526 19.88 20.526 18.102C20.526 16.842 19.896 16.044 17.474 15.33C15.906 14.868 15.514 14.336 15.514 13.622C15.514 12.782 16.368 12.04 17.978 12.04C18.986 12.04 20.008 12.446 21.058 13.412L21.716 12.502C20.666 11.522 19.448 11.004 18.09 11.004C15.64 11.004 14.31 12.292 14.31 13.79C14.31 14.924 14.94 15.82 17.026 16.45C18.972 17.038 19.308 17.542 19.308 18.284C19.308 19.264 18.384 20.16 16.676 20.16C15.458 20.16 14.268 19.712 13.022 18.536L12.294 19.432C13.526 20.594 14.884 21.196 16.564 21.196ZM23.554 18.144C23.554 18.074 23.554 18.018 23.568 17.948H29.112C29.266 17.5 29.364 16.954 29.364 16.562C29.364 14.966 28.3 14 26.746 14C24.282 14 22.406 16.128 22.406 18.228C22.406 20.076 23.54 21.238 25.43 21.238C26.494 21.238 27.432 20.888 28.188 20.258L27.684 19.53C27.026 20.048 26.298 20.314 25.528 20.314C24.31 20.314 23.554 19.53 23.554 18.144ZM26.634 14.91C27.572 14.91 28.23 15.484 28.23 16.534C28.23 16.772 28.216 16.954 28.174 17.15H23.722C24.156 15.932 25.304 14.91 26.634 14.91ZM34.4735 21H35.5935L36.6855 17.346C36.8395 16.814 36.9095 16.394 36.9095 16.086C36.9095 14.896 35.9435 14.028 34.4035 14.028C33.3395 14.028 32.3455 14.336 31.3795 15.05L31.8275 15.806C32.6955 15.19 33.4515 14.966 34.1935 14.966C35.2015 14.966 35.7615 15.414 35.7615 16.212C35.7615 16.408 35.7335 16.66 35.6075 17.066H33.4515C31.1555 17.066 30.0635 17.962 30.0635 19.334C30.0635 20.44 30.8755 21.168 32.0935 21.168C33.0735 21.168 34.0395 20.762 34.8515 19.74L34.4735 21ZM33.5775 17.85H35.3695C34.9215 19.32 33.7735 20.3 32.3875 20.3C31.6875 20.3 31.2255 19.894 31.2255 19.278C31.2255 18.494 31.7435 17.85 33.5775 17.85ZM40.6484 14.238H39.4864L37.5544 21H38.7444L39.5144 18.312C40.1304 16.128 41.2784 15.33 42.6224 15.33H43.2804L43.6024 14.196H43.0284C41.8524 14.196 40.9144 14.742 40.1864 15.876L40.6484 14.238ZM47.7831 14C45.4311 14 43.6111 16.044 43.6111 18.228C43.6111 20.02 44.7171 21.238 46.5931 21.238C47.8251 21.238 48.6371 20.902 49.4631 20.034L48.7351 19.348C48.0771 20.034 47.4751 20.258 46.7331 20.258C45.5571 20.258 44.8151 19.474 44.8151 18.144C44.8151 16.506 46.1171 14.966 47.6991 14.966C48.5811 14.966 49.1271 15.33 49.5331 16.268L50.5131 15.708C50.0371 14.602 49.1831 14 47.7831 14ZM54.9048 10.78H53.7148L50.7888 21H51.9788L52.9028 17.766C53.3788 16.1 54.5688 15.036 55.6328 15.036C56.4028 15.036 57.0188 15.526 57.0188 16.366C57.0188 16.744 56.9628 17.01 56.7668 17.668L55.8148 21H57.0048L57.9147 17.766C58.1668 16.898 58.2088 16.604 58.2088 16.212C58.2088 14.994 57.3688 14.07 56.0668 14.07C55.1428 14.07 54.2748 14.546 53.5748 15.442L54.9048 10.78ZM62.4735 15.19H63.7755L62.1235 21H63.2995L64.9655 15.19H66.8975L67.1635 14.238H65.2315L65.5255 13.216C65.8615 12.068 66.2955 11.704 67.3875 11.704H67.8775L68.1435 10.78H67.4155C65.5955 10.78 64.8675 11.368 64.3635 13.132L64.0555 14.238H62.7395L62.4735 15.19ZM74.1971 17.122C74.1971 15.288 73.0211 14 71.2431 14C68.9611 14 67.1131 15.932 67.1131 18.116C67.1131 19.95 68.3031 21.238 70.0811 21.238C72.3491 21.238 74.1971 19.306 74.1971 17.122ZM68.3171 18.102C68.3171 16.492 69.5911 14.966 71.0751 14.966C72.1531 14.966 73.0071 15.806 73.0071 17.122C73.0071 18.732 71.7191 20.258 70.2491 20.258C69.1711 20.258 68.3171 19.432 68.3171 18.102ZM78.0136 14.238H76.8516L74.9196 21H76.1096L76.8796 18.312C77.4956 16.128 78.6436 15.33 79.9876 15.33H80.6456L80.9676 14.196H80.3936C79.2176 14.196 78.2796 14.742 77.5516 15.876L78.0136 14.238ZM87.4383 21H88.5583L89.6503 17.346C89.8043 16.814 89.8743 16.394 89.8743 16.086C89.8743 14.896 88.9083 14.028 87.3683 14.028C86.3043 14.028 85.3103 14.336 84.3443 15.05L84.7923 15.806C85.6603 15.19 86.4163 14.966 87.1583 14.966C88.1663 14.966 88.7263 15.414 88.7263 16.212C88.7263 16.408 88.6983 16.66 88.5723 17.066H86.4163C84.1203 17.066 83.0283 17.962 83.0283 19.334C83.0283 20.44 83.8403 21.168 85.0583 21.168C86.0383 21.168 87.0043 20.762 87.8163 19.74L87.4383 21ZM86.5423 17.85H88.3343C87.8863 19.32 86.7383 20.3 85.3523 20.3C84.6523 20.3 84.1903 19.894 84.1903 19.278C84.1903 18.494 84.7083 17.85 86.5423 17.85ZM97.2892 10.78H96.0992L93.1732 21H94.3632L97.2892 10.78ZM100.974 21H102.094L103.186 17.346C103.34 16.814 103.41 16.394 103.41 16.086C103.41 14.896 102.444 14.028 100.904 14.028C99.8395 14.028 98.8455 14.336 97.8795 15.05L98.3275 15.806C99.1955 15.19 99.9515 14.966 100.694 14.966C101.702 14.966 102.262 15.414 102.262 16.212C102.262 16.408 102.234 16.66 102.108 17.066H99.9515C97.6555 17.066 96.5635 17.962 96.5635 19.334C96.5635 20.44 97.3755 21.168 98.5935 21.168C99.5735 21.168 100.54 20.762 101.352 19.74L100.974 21ZM100.078 17.85H101.87C101.422 19.32 100.274 20.3 98.8875 20.3C98.1875 20.3 97.7255 19.894 97.7255 19.278C97.7255 18.494 98.2435 17.85 100.078 17.85ZM112.02 16.884C112.02 15.162 110.9 14.07 109.514 14.07C108.506 14.07 107.596 14.518 106.84 15.428L108.17 10.78H106.98L104.054 21H105.216L105.58 19.67C105.958 20.65 106.826 21.168 107.974 21.168C110.186 21.168 112.02 19.194 112.02 16.884ZM108.982 15.036C110.06 15.036 110.816 15.75 110.816 16.926C110.816 18.858 109.444 20.188 107.876 20.188C106.868 20.188 106.056 19.488 106.056 18.396C106.056 16.59 107.708 15.036 108.982 15.036ZM114.486 18.144C114.486 18.074 114.486 18.018 114.5 17.948H120.044C120.198 17.5 120.296 16.954 120.296 16.562C120.296 14.966 119.232 14 117.678 14C115.214 14 113.338 16.128 113.338 18.228C113.338 20.076 114.472 21.238 116.362 21.238C117.426 21.238 118.364 20.888 119.12 20.258L118.616 19.53C117.958 20.048 117.23 20.314 116.46 20.314C115.242 20.314 114.486 19.53 114.486 18.144ZM117.566 14.91C118.504 14.91 119.162 15.484 119.162 16.534C119.162 16.772 119.148 16.954 119.106 17.15H114.654C115.088 15.932 116.236 14.91 117.566 14.91ZM125.057 10.78H123.867L120.941 21H122.131L125.057 10.78Z" fill="#B7B9BE"/>
</g>
<defs>
<clipPath id="clip0_30077_234335">
<rect width="113" height="16" fill="white" transform="translate(12 8)"/>
</clipPath>
</defs>
</svg>
