<svg width="16" height="16" viewBox="0 0 16 16" fill="none" xmlns="http://www.w3.org/2000/svg">
<path fill-rule="evenodd" clip-rule="evenodd" d="M3.03739 3.7852C4.5254 7.72343 6.33811 12.4724 6.50544 12.7384C6.615 12.9097 6.80722 13.0093 7.01041 12.9993C7.21259 12.9894 7.39387 12.8708 7.4845 12.6896L9.27928 9.27921L12.6886 7.48539C12.8708 7.39375 12.9884 7.21248 12.9993 7.01029C13.0093 6.8071 12.9097 6.61487 12.7384 6.50531C12.4714 6.33798 7.72354 4.52623 3.78538 3.03719C3.57037 2.95442 3.33606 3.0166 3.17583 3.17663C3.0105 3.33301 2.95572 3.57305 3.03739 3.7852ZM11.4069 7.02976C10.8683 6.81535 10.1322 6.52881 9.279 6.2C7.81816 5.63705 6.02182 4.95328 4.30191 4.30187C4.95297 6.02179 5.63673 7.81835 6.19977 9.27928C6.52855 10.1324 6.8151 10.8683 7.02955 11.4068L8.53892 8.53878L11.4069 7.02976Z" fill="white"/>
</svg>
