<svg width="16" height="16" viewBox="0 0 16 16" fill="none" xmlns="http://www.w3.org/2000/svg">
<g clip-path="url(#clip0_29629_205054)">
<path fill-rule="evenodd" clip-rule="evenodd" d="M11 8C11 9.65685 9.65685 11 8 11C6.34315 11 5 9.65685 5 8C5 6.34315 6.34315 5 8 5C9.65685 5 11 6.34315 11 8ZM9.46875 8C9.46875 8.81117 8.81117 9.46875 8 9.46875C7.18883 9.46875 6.53125 8.81117 6.53125 8C6.53125 7.18883 7.18883 6.53125 8 6.53125C8.81117 6.53125 9.46875 7.18883 9.46875 8Z" fill="white"/>
<path fill-rule="evenodd" clip-rule="evenodd" d="M6 13.6586C5.79927 13.5876 5.60345 13.5063 5.41317 13.4153L4.30199 14.5264C3.12292 13.8569 2.14309 12.8771 1.47357 11.698L2.58474 10.5868C2.49368 10.3966 2.41236 10.2007 2.34141 10H0.769616C0.593883 9.36328 0.5 8.69261 0.5 8C0.5 7.3074 0.593883 6.63672 0.769616 6H2.34141C2.41236 5.79927 2.49368 5.60345 2.58474 5.41317L1.47357 4.30199C2.14309 3.12292 3.12292 2.14309 4.30199 1.47357L5.41317 2.58474C5.60345 2.49368 5.79927 2.41236 6 2.34141V0.769616C6.63672 0.593883 7.3074 0.5 8 0.5C8.69261 0.5 9.36328 0.593883 10 0.769616V2.34141C10.2007 2.41236 10.3966 2.49368 10.5868 2.58474L11.698 1.47357C12.8771 2.14309 13.8569 3.12292 14.5264 4.30199L13.4153 5.41317C13.5063 5.60345 13.5876 5.79927 13.6586 6H15.2304C15.4061 6.63672 15.5 7.3074 15.5 8C15.5 8.69261 15.4061 9.36328 15.2304 10H13.6586C13.5876 10.2007 13.5063 10.3966 13.4153 10.5868L14.5264 11.698C13.8569 12.8771 12.8771 13.8569 11.698 14.5264L10.5868 13.4153C10.3966 13.5063 10.2007 13.5876 10 13.6586V15.2304C9.36328 15.4061 8.6926 15.5 8 15.5C7.3074 15.5 6.63672 15.4061 6 15.2304L6 13.6586ZM3.41845 11.8744C3.63418 12.1292 3.87077 12.3658 4.12556 12.5815L5.10313 11.604L6.06068 12.0622C6.20317 12.1304 6.34972 12.1913 6.49987 12.2443L7.5 12.5978L7.5 13.9795C7.66467 13.9931 7.83142 14 8 14C8.16858 14 8.33533 13.9931 8.5 13.9795V12.5978L9.50013 12.2443C9.65028 12.1913 9.79684 12.1304 9.93932 12.0622L10.8969 11.604L11.8744 12.5815C12.1292 12.3658 12.3658 12.1292 12.5815 11.8744L11.604 10.8969L12.0622 9.93932C12.1304 9.79684 12.1913 9.65028 12.2443 9.50013L12.5978 8.5H13.9795C13.9931 8.33533 14 8.16858 14 8C14 7.83142 13.9931 7.66467 13.9795 7.5H12.5978L12.2443 6.49987C12.1913 6.34972 12.1304 6.20316 12.0622 6.06068L11.604 5.10313L12.5815 4.12556C12.3658 3.87078 12.1292 3.63418 11.8744 3.41845L10.8969 4.39603L9.93932 3.93779C9.79684 3.8696 9.65028 3.80874 9.50013 3.75567L8.5 3.40218V2.02046C8.33533 2.00692 8.16858 2 8 2C7.83142 2 7.66467 2.00692 7.5 2.02046V3.40218L6.49987 3.75567C6.34972 3.80874 6.20316 3.8696 6.06068 3.93779L5.10313 4.39603L4.12556 3.41845C3.87078 3.63418 3.63418 3.87078 3.41845 4.12556L4.39603 5.10313L3.93779 6.06068C3.8696 6.20316 3.80874 6.34972 3.75567 6.49987L3.40218 7.5H2.02046C2.00692 7.66467 2 7.83142 2 8C2 8.16858 2.00692 8.33533 2.02046 8.5H3.40218L3.75567 9.50013C3.80874 9.65028 3.8696 9.79684 3.93779 9.93932L4.39603 10.8969L3.41845 11.8744Z" fill="white"/>
</g>
<defs>
<clipPath id="clip0_29629_205054">
<rect width="16" height="16" fill="white"/>
</clipPath>
</defs>
</svg>
