<svg width="16" height="16" viewBox="0 0 16 16" fill="none" xmlns="http://www.w3.org/2000/svg">
<path d="M9.00005 7.75V6L7.25986 6C7.03713 6 6.92559 5.73071 7.08308 5.57322L9.32328 3.08303C9.37209 3.03421 9.43607 3 9.50005 3C9.56403 3 9.62802 3.03421 9.67683 3.08303L11.917 5.57322C12.0745 5.73072 11.963 6 11.7403 6L10.0001 6V7.75C10.0001 7.88807 9.88812 8 9.75005 8H9.25005C9.11198 8 9.00005 7.88807 9.00005 7.75Z" fill="white"/>
<path d="M5.99997 8.25L5.99997 10L4.25978 10C4.03705 10 3.92551 10.2693 4.083 10.4268L6.3232 12.917C6.37201 12.9658 6.43599 13 6.49997 13C6.56396 13 6.62794 12.9658 6.67675 12.917L8.91695 10.4268C9.07444 10.2693 8.9629 10 8.74017 10L6.99997 10L6.99997 8.25C6.99997 8.11193 6.88805 8 6.74997 8L6.24997 8C6.1119 8 5.99997 8.11193 5.99997 8.25Z" fill="white"/>
</svg>
