<svg width="16" height="16" viewBox="0 0 16 16" fill="none" xmlns="http://www.w3.org/2000/svg">
<path d="M6 1C5.44772 1 5 1.44772 5 2V3.75C5 3.88807 5.11193 4 5.25 4H5.75C5.88807 4 6 3.88807 6 3.75V3H7V2H13V3H14V9H13V10H12.25C12.1119 10 12 10.1119 12 10.25V10.75C12 10.8881 12.1119 11 12.25 11H14C14.5523 11 15 10.5523 15 10V2C15 1.44772 14.5523 1 14 1H6Z" fill="white"/>
<path fill-rule="evenodd" clip-rule="evenodd" d="M1 6C1 5.44772 1.44772 5 2 5H10C10.5523 5 11 5.44772 11 6V14C11 14.5523 10.5523 15 10 15H2C1.44772 15 1 14.5523 1 14V6ZM3 7V6H9V7H10V13H9V14H3V13H2V7H3Z" fill="white"/>
</svg>
