<svg width="16" height="16" viewBox="0 0 16 16" fill="none" xmlns="http://www.w3.org/2000/svg">
<path fill-rule="evenodd" clip-rule="evenodd" d="M7 11H3L3 12H13V11H9V10C9 8.63521 9.64658 7.72827 10.1277 7.0534C10.1391 7.03748 10.1503 7.02168 10.1615 7.00601C10.6709 6.29067 11 5.79904 11 5C11 3.34315 9.65685 2 8 2C6.34315 2 5 3.34315 5 5C5 5.79904 5.32912 6.29067 5.83852 7.00601C5.84968 7.02168 5.86094 7.03748 5.8723 7.05341C6.35342 7.72827 7 8.63522 7 10V11ZM10.165 9C10.3485 8.46739 10.6607 8.02896 10.9761 7.58607C11.4839 6.87289 12 6.14815 12 5C12 2.79086 10.2091 1 8 1C5.79086 1 4 2.79086 4 5C4 6.14815 4.51609 6.87289 5.02394 7.58607C5.33933 8.02896 5.65154 8.46739 5.83499 9C5.93766 9.29807 6 9.62564 6 10H2.25C2.11193 10 2 10.1119 2 10.25L2 12.75C2 12.8879 2.11158 12.9997 2.24936 13C2.24958 13 2.24979 13 2.25 13L13.75 13C13.8881 13 14 12.8881 14 12.75V10.25C14 10.1119 13.8881 10 13.75 10H10C10 9.62564 10.0623 9.29807 10.165 9ZM2.24936 14C2.11158 14.0003 2 14.1121 2 14.25V14.75C2 14.8881 2.11193 15 2.25 15L13.75 15C13.8881 15 14 14.8881 14 14.75V14.25C14 14.1119 13.8881 14 13.75 14L2.25 14C2.24979 14 2.24958 14 2.24936 14Z" fill="white"/>
</svg>
