<svg width="92" height="32" viewBox="0 0 92 32" fill="none" xmlns="http://www.w3.org/2000/svg">
<rect width="92" height="32" rx="16" fill="#00C7FD"/>
<path d="M16.62 12.782C16.06 12.782 15.626 12.88 15.318 13.076C15.0193 13.2627 14.87 13.5613 14.87 13.972C14.87 14.2987 14.9773 14.5553 15.192 14.742C15.416 14.9287 15.724 15.078 16.116 15.19L17.572 15.624C18.356 15.8573 18.944 16.1747 19.336 16.576C19.7373 16.968 19.938 17.5047 19.938 18.186C19.938 18.6527 19.8447 19.0727 19.658 19.446C19.4713 19.8193 19.2053 20.1367 18.86 20.398C18.524 20.6593 18.118 20.86 17.642 21C17.1753 21.14 16.6573 21.21 16.088 21.21C15.416 21.21 14.7627 21.1073 14.128 20.902C13.4933 20.6967 12.924 20.384 12.42 19.964L13.302 18.592C13.7127 18.8907 14.142 19.1287 14.59 19.306C15.038 19.474 15.5187 19.558 16.032 19.558C16.5827 19.558 17.0167 19.4553 17.334 19.25C17.6513 19.0447 17.81 18.732 17.81 18.312C17.81 17.9853 17.7027 17.738 17.488 17.57C17.2827 17.402 16.9747 17.2573 16.564 17.136L15.01 16.716C14.3007 16.52 13.7453 16.2027 13.344 15.764C12.9427 15.3253 12.742 14.756 12.742 14.056C12.742 13.5987 12.8307 13.188 13.008 12.824C13.1947 12.46 13.4467 12.152 13.764 11.9C14.0907 11.648 14.478 11.4567 14.926 11.326C15.3833 11.1953 15.8873 11.13 16.438 11.13C17.0727 11.13 17.684 11.2187 18.272 11.396C18.8693 11.5733 19.378 11.83 19.798 12.166L19.014 13.468C18.3233 13.0107 17.5253 12.782 16.62 12.782ZM27.8946 21H26.7606C26.4993 21 26.3126 20.944 26.2006 20.832C26.0886 20.72 26.0326 20.5473 26.0326 20.314V19.922C25.8459 20.342 25.5566 20.6593 25.1646 20.874C24.7819 21.0793 24.3386 21.182 23.8346 21.182C23.0599 21.182 22.4719 20.9533 22.0706 20.496C21.6786 20.0387 21.4826 19.3713 21.4826 18.494V13.93H23.4706V18.368C23.4706 18.8253 23.5593 19.152 23.7366 19.348C23.9139 19.544 24.1753 19.642 24.5206 19.642C24.9779 19.642 25.3233 19.4787 25.5566 19.152C25.7899 18.8253 25.9066 18.382 25.9066 17.822V13.93H27.8946V21ZM29.8511 10.962H31.8391V14.882C32.0631 14.518 32.3758 14.238 32.7771 14.042C33.1784 13.846 33.6311 13.748 34.1351 13.748C35.0124 13.748 35.7031 14.0607 36.2071 14.686C36.7204 15.302 36.9771 16.1747 36.9771 17.304C36.9771 17.8827 36.9071 18.41 36.7671 18.886C36.6364 19.362 36.4404 19.7727 36.1791 20.118C35.9178 20.454 35.6004 20.7153 35.2271 20.902C34.8631 21.0887 34.4478 21.182 33.9811 21.182C33.5518 21.182 33.1224 21.0887 32.6931 20.902C32.2731 20.7153 31.9464 20.3887 31.7131 19.922V20.37C31.7131 20.79 31.4751 21 30.9991 21H29.8511V10.962ZM31.7831 17.556C31.7831 18.2093 31.9138 18.7227 32.1751 19.096C32.4458 19.46 32.8424 19.642 33.3651 19.642C33.8971 19.642 34.2938 19.446 34.5551 19.054C34.8164 18.6527 34.9471 18.1113 34.9471 17.43C34.9471 16.7393 34.8211 16.212 34.5691 15.848C34.3171 15.4747 33.9391 15.288 33.4351 15.288C32.9031 15.288 32.4924 15.4933 32.2031 15.904C31.9231 16.3053 31.7831 16.856 31.7831 17.556ZM44.8604 21H42.8724V16.562C42.8724 15.7407 42.5411 15.33 41.8784 15.33C41.4584 15.33 41.1271 15.4793 40.8844 15.778C40.6511 16.0673 40.5344 16.492 40.5344 17.052V21H38.5464V13.93H39.6804C40.1564 13.93 40.3944 14.1353 40.3944 14.546V15.036C40.5811 14.616 40.8657 14.2987 41.2484 14.084C41.6404 13.86 42.0884 13.748 42.5924 13.748C43.0964 13.748 43.5164 13.86 43.8524 14.084C44.1977 14.2987 44.4497 14.616 44.6084 15.036C44.8137 14.6253 45.1124 14.308 45.5044 14.084C45.8964 13.86 46.3584 13.748 46.8904 13.748C47.6277 13.748 48.1924 13.9767 48.5844 14.434C48.9857 14.882 49.1864 15.5307 49.1864 16.38V21H47.1984V16.562C47.1984 15.7407 46.8671 15.33 46.2044 15.33C45.7844 15.33 45.4531 15.4793 45.2104 15.778C44.9771 16.0673 44.8604 16.492 44.8604 17.052V21ZM53.1125 21H51.1245V13.93H53.1125V21ZM51.1105 11.032H53.1265V12.838H51.1105V11.032ZM58.8977 19.474V20.958C58.7484 20.9953 58.585 21.0233 58.4077 21.042C58.2304 21.0607 58.0204 21.07 57.7777 21.07C56.9377 21.07 56.3217 20.8787 55.9297 20.496C55.5377 20.104 55.3417 19.4693 55.3417 18.592V15.442H54.2917V13.93H55.3417V12.236H57.3297V13.93H58.8977V15.442H57.3297V18.41C57.3297 18.83 57.423 19.1147 57.6097 19.264C57.7964 19.404 58.1324 19.474 58.6177 19.474H58.8977Z" fill="#242528"/>
<path d="M68.1374 19.9264C68.235 20.0241 68.3933 20.0241 68.4909 19.9264L72.2388 16.1785C72.3229 16.0945 72.3346 15.9656 72.274 15.869C72.2639 15.8526 72.2518 15.8371 72.2375 15.8228L68.4906 12.0759C68.393 11.9783 68.2347 11.9783 68.1371 12.0759L67.0765 13.1365C66.9789 13.2341 66.9789 13.3924 67.0765 13.49L69.5877 16.0012L67.0767 18.5122C66.9791 18.6099 66.9791 18.7682 67.0767 18.8658L68.1374 19.9264Z" fill="#242528"/>
<path d="M73.1374 19.9264C73.235 20.0241 73.3933 20.0241 73.4909 19.9264L77.2389 16.1785C77.3229 16.0945 77.3346 15.9656 77.274 15.869C77.2639 15.8526 77.2518 15.8371 77.2375 15.8228L73.4906 12.0759C73.393 11.9783 73.2347 11.9783 73.1371 12.0759L72.0765 13.1365C71.9789 13.2341 71.9789 13.3924 72.0765 13.49L74.5877 16.0012L72.0767 18.5122C71.9791 18.6099 71.9791 18.7682 72.0767 18.8658L73.1374 19.9264Z" fill="#242528"/>
</svg>
