<svg width="341" height="32" viewBox="0 0 341 32" fill="none" xmlns="http://www.w3.org/2000/svg">
<mask id="path-1-inside-1_30335_230775" fill="white">
<path d="M0 2C0 0.895431 0.895431 0 2 0H85C86.1046 0 87 0.895431 87 2V30C87 31.1046 86.1046 32 85 32H2C0.89543 32 0 31.1046 0 30V2Z"/>
</mask>
<path d="M0 2C0 0.895431 0.895431 0 2 0H85C86.1046 0 87 0.895431 87 2V30C87 31.1046 86.1046 32 85 32H2C0.89543 32 0 31.1046 0 30V2Z" fill="#242528"/>
<path d="M9.908 20L10.724 17.972H14.804L15.62 20H17.288L13.784 11.576H11.804L8.288 20H9.908ZM11.204 16.748L12.764 12.884L14.312 16.748H11.204ZM18.8322 11.6V20H24.8322V18.704H20.4162V11.6H18.8322ZM26.5236 11.6V20H32.5236V18.704H28.1076V11.6H26.5236ZM35.8349 12.92H38.8829V20H40.4669V12.92H43.5149V11.6H35.8349V12.92ZM44.9783 20L45.7943 17.972H49.8743L50.6903 20H52.3583L48.8543 11.576H46.8743L43.3583 20H44.9783ZM46.2743 16.748L47.8343 12.884L49.3823 16.748H46.2743ZM57.1451 18.86C56.1251 18.86 55.0331 18.488 54.0371 17.732L53.3411 18.908C54.4331 19.772 55.6211 20.168 57.1211 20.168C59.4251 20.168 60.6491 18.896 60.6491 17.504C60.6491 16.088 59.8691 15.368 57.2051 15.008C55.5611 14.792 55.1891 14.456 55.1891 13.844C55.1891 13.268 55.7891 12.74 57.0611 12.74C57.9491 12.74 58.9331 13.136 59.6891 13.724L60.3851 12.536C59.3891 11.816 58.3931 11.432 57.0851 11.432C54.8651 11.432 53.6771 12.656 53.6771 13.976C53.6771 15.356 54.4331 16.076 57.0011 16.436C58.7291 16.652 59.1371 17 59.1371 17.624C59.1371 18.284 58.5131 18.86 57.1451 18.86ZM64.1975 11.6H62.6135V20H64.1975V16.004L68.2895 20H70.3895V19.976L65.8775 15.668L70.2695 11.624V11.6H68.2535L64.1975 15.512V11.6ZM74.6373 18.86C73.6173 18.86 72.5253 18.488 71.5293 17.732L70.8333 18.908C71.9253 19.772 73.1133 20.168 74.6133 20.168C76.9173 20.168 78.1413 18.896 78.1413 17.504C78.1413 16.088 77.3613 15.368 74.6973 15.008C73.0533 14.792 72.6813 14.456 72.6813 13.844C72.6813 13.268 73.2812 12.74 74.5533 12.74C75.4413 12.74 76.4253 13.136 77.1813 13.724L77.8773 12.536C76.8813 11.816 75.8853 11.432 74.5773 11.432C72.3573 11.432 71.1693 12.656 71.1693 13.976C71.1693 15.356 71.9253 16.076 74.4933 16.436C76.2213 16.652 76.6293 17 76.6293 17.624C76.6293 18.284 76.0053 18.86 74.6373 18.86Z" fill="#00C7FD"/>
<path d="M0 0H87H0ZM87 30C87 32.2091 85.2091 34 83 34H4C1.79086 34 0 32.2091 0 30C0 30 0.895431 30 2 30H85C86.1046 30 87 30 87 30ZM0 32V0V32ZM87 0V32V0Z" fill="#00C7FD" mask="url(#path-1-inside-1_30335_230775)"/>
<g clip-path="url(#clip0_30335_230775)">
<mask id="path-5-inside-2_30335_230775" fill="white">
<path d="M181 2C181 0.895431 181.895 0 183 0H325V32H183C181.895 32 181 31.1046 181 30V2Z"/>
</mask>
<path d="M181 2C181 0.895431 181.895 0 183 0H325V32H183C181.895 32 181 31.1046 181 30V2Z" fill="#313236"/>
<path d="M213.98 18.896C212.444 18.896 211.232 17.684 211.232 15.788C211.232 14.024 212.372 12.704 214.016 12.704C215 12.704 215.768 13.136 216.44 14.18L217.568 13.34C216.824 12.08 215.66 11.396 214.052 11.396C211.508 11.396 209.624 13.352 209.624 15.812C209.624 18.44 211.4 20.204 213.944 20.204C215.6 20.204 216.848 19.436 217.592 18.2L216.5 17.408C215.876 18.404 215.012 18.896 213.98 18.896ZM219.492 11.6V20H225.492V18.704H221.076V11.6H219.492ZM228.084 20L228.9 17.972H232.98L233.796 20H235.464L231.96 11.576H229.98L226.464 20H228.084ZM229.38 16.748L230.94 12.884L232.488 16.748H229.38ZM240.251 18.86C239.231 18.86 238.139 18.488 237.143 17.732L236.447 18.908C237.539 19.772 238.727 20.168 240.227 20.168C242.531 20.168 243.755 18.896 243.755 17.504C243.755 16.088 242.975 15.368 240.311 15.008C238.667 14.792 238.295 14.456 238.295 13.844C238.295 13.268 238.895 12.74 240.167 12.74C241.055 12.74 242.039 13.136 242.795 13.724L243.491 12.536C242.495 11.816 241.499 11.432 240.191 11.432C237.971 11.432 236.783 12.656 236.783 13.976C236.783 15.356 237.539 16.076 240.107 16.436C241.835 16.652 242.243 17 242.243 17.624C242.243 18.284 241.619 18.86 240.251 18.86ZM248.95 18.86C247.93 18.86 246.838 18.488 245.842 17.732L245.146 18.908C246.238 19.772 247.426 20.168 248.926 20.168C251.23 20.168 252.454 18.896 252.454 17.504C252.454 16.088 251.674 15.368 249.01 15.008C247.366 14.792 246.994 14.456 246.994 13.844C246.994 13.268 247.594 12.74 248.866 12.74C249.754 12.74 250.738 13.136 251.494 13.724L252.19 12.536C251.194 11.816 250.198 11.432 248.89 11.432C246.67 11.432 245.482 12.656 245.482 13.976C245.482 15.356 246.238 16.076 248.806 16.436C250.534 16.652 250.942 17 250.942 17.624C250.942 18.284 250.318 18.86 248.95 18.86ZM254.502 11.6V20H256.086V11.6H254.502ZM258.442 11.6V20H260.026V16.616H264.382V15.332H260.026V12.884H264.73V11.6H258.442ZM266.697 11.6V20H268.281V11.6H266.697ZM274.609 18.896C273.073 18.896 271.861 17.684 271.861 15.788C271.861 14.024 273.001 12.704 274.645 12.704C275.629 12.704 276.397 13.136 277.069 14.18L278.197 13.34C277.453 12.08 276.289 11.396 274.681 11.396C272.137 11.396 270.253 13.352 270.253 15.812C270.253 18.44 272.029 20.204 274.573 20.204C276.229 20.204 277.477 19.436 278.221 18.2L277.129 17.408C276.505 18.404 275.641 18.896 274.609 18.896ZM280.904 20L281.72 17.972H285.8L286.616 20H288.284L284.78 11.576H282.8L279.284 20H280.904ZM282.2 16.748L283.76 12.884L285.308 16.748H282.2ZM288.128 12.92H291.176V20H292.76V12.92H295.808V11.6H288.128V12.92ZM297.604 11.6V20H299.188V11.6H297.604ZM309.907 15.788C309.907 13.292 308.071 11.396 305.539 11.396C303.043 11.396 301.159 13.328 301.159 15.812C301.159 18.296 303.007 20.204 305.527 20.204C308.035 20.204 309.907 18.284 309.907 15.788ZM302.767 15.788C302.767 14.048 303.919 12.704 305.527 12.704C307.123 12.704 308.299 14.048 308.299 15.812C308.299 17.564 307.147 18.896 305.539 18.896C303.943 18.896 302.767 17.54 302.767 15.788ZM313.277 20V13.484L317.657 20H319.517V11.6H318.029V18.068L313.661 11.6H311.789V20H313.277Z" fill="#B7B9BE"/>
<path d="M180 2C180 0.343146 181.343 -1 183 -1H325V1H183C182.448 1 182 1.44772 182 2H180ZM325 33H183C181.343 33 180 31.6569 180 30H182C182 30.5523 182.448 31 183 31H325V33ZM183 33C181.343 33 180 31.6569 180 30V2C180 0.343146 181.343 -1 183 -1V1C182.448 1 182 1.44772 182 2V30C182 30.5523 182.448 31 183 31V33ZM325 0V32V0Z" fill="#242528" mask="url(#path-5-inside-2_30335_230775)"/>
<g filter="url(#filter0_i_30335_230775)">
<path d="M339.586 14.5858C340.367 15.3668 340.367 16.6332 339.586 17.4142L325 32L325 -6.99382e-07L339.586 14.5858Z" fill="#313236"/>
</g>
</g>
<g clip-path="url(#clip1_30335_230775)">
<mask id="path-10-inside-3_30335_230775" fill="white">
<path d="M95 2C95 0.895431 95.8954 0 97 0H185V32H97C95.8954 32 95 31.1046 95 30V2Z"/>
</mask>
<path d="M95 2C95 0.895431 95.8954 0 97 0H185V32H97C95.8954 32 95 31.1046 95 30V2Z" fill="#313236"/>
<path d="M104.008 11.6V20H107.056C110.044 20 111.832 18.236 111.832 15.74C111.832 13.304 110.104 11.6 107.26 11.6H104.008ZM107.248 12.92C109.108 12.92 110.236 14.168 110.236 15.764C110.236 17.492 109.108 18.68 107.068 18.68H105.592V12.92H107.248ZM113.715 11.6V20H120.135V18.752H115.263V16.388H119.799V15.128H115.263V12.848H120.135V11.6H113.715ZM121.593 12.92H124.641V20H126.225V12.92H129.273V11.6H121.593V12.92ZM130.985 11.6V20H137.405V18.752H132.533V16.388H137.069V15.128H132.533V12.848H137.405V11.6H130.985ZM143.304 18.896C141.768 18.896 140.556 17.684 140.556 15.788C140.556 14.024 141.696 12.704 143.34 12.704C144.324 12.704 145.092 13.136 145.764 14.18L146.892 13.34C146.148 12.08 144.984 11.396 143.376 11.396C140.832 11.396 138.948 13.352 138.948 15.812C138.948 18.44 140.724 20.204 143.268 20.204C144.924 20.204 146.172 19.436 146.916 18.2L145.824 17.408C145.2 18.404 144.336 18.896 143.304 18.896ZM148.206 12.92H151.254V20H152.838V12.92H155.886V11.6H148.206V12.92ZM157.682 11.6V20H159.266V11.6H157.682ZM169.985 15.788C169.985 13.292 168.149 11.396 165.617 11.396C163.121 11.396 161.237 13.328 161.237 15.812C161.237 18.296 163.085 20.204 165.605 20.204C168.113 20.204 169.985 18.284 169.985 15.788ZM162.845 15.788C162.845 14.048 163.997 12.704 165.605 12.704C167.201 12.704 168.377 14.048 168.377 15.812C168.377 17.564 167.225 18.896 165.617 18.896C164.021 18.896 162.845 17.54 162.845 15.788ZM173.355 20V13.484L177.735 20H179.595V11.6H178.107V18.068L173.739 11.6H171.867V20H173.355Z" fill="#B7B9BE"/>
<path d="M94 2C94 0.343146 95.3431 -1 97 -1H185V1H97C96.4477 1 96 1.44772 96 2H94ZM185 33H97C95.3431 33 94 31.6569 94 30H96C96 30.5523 96.4477 31 97 31H185V33ZM97 33C95.3431 33 94 31.6569 94 30V2C94 0.343146 95.3431 -1 97 -1V1C96.4477 1 96 1.44772 96 2V30C96 30.5523 96.4477 31 97 31V33ZM185 0V32V0Z" fill="#242528" mask="url(#path-10-inside-3_30335_230775)"/>
<g filter="url(#filter1_i_30335_230775)">
<path d="M199.586 14.5858C200.367 15.3668 200.367 16.6332 199.586 17.4142L185 32L185 -6.99382e-07L199.586 14.5858Z" fill="#313236"/>
</g>
</g>
<defs>
<filter id="filter0_i_30335_230775" x="325" y="0" width="15.1716" height="32" filterUnits="userSpaceOnUse" color-interpolation-filters="sRGB">
<feFlood flood-opacity="0" result="BackgroundImageFix"/>
<feBlend mode="normal" in="SourceGraphic" in2="BackgroundImageFix" result="shape"/>
<feColorMatrix in="SourceAlpha" type="matrix" values="0 0 0 0 0 0 0 0 0 0 0 0 0 0 0 0 0 0 127 0" result="hardAlpha"/>
<feOffset dx="-1"/>
<feComposite in2="hardAlpha" operator="arithmetic" k2="-1" k3="1"/>
<feColorMatrix type="matrix" values="0 0 0 0 0.141176 0 0 0 0 0.145098 0 0 0 0 0.156863 0 0 0 1 0"/>
<feBlend mode="normal" in2="shape" result="effect1_innerShadow_30335_230775"/>
</filter>
<filter id="filter1_i_30335_230775" x="185" y="0" width="15.1716" height="32" filterUnits="userSpaceOnUse" color-interpolation-filters="sRGB">
<feFlood flood-opacity="0" result="BackgroundImageFix"/>
<feBlend mode="normal" in="SourceGraphic" in2="BackgroundImageFix" result="shape"/>
<feColorMatrix in="SourceAlpha" type="matrix" values="0 0 0 0 0 0 0 0 0 0 0 0 0 0 0 0 0 0 127 0" result="hardAlpha"/>
<feOffset dx="-1"/>
<feComposite in2="hardAlpha" operator="arithmetic" k2="-1" k3="1"/>
<feColorMatrix type="matrix" values="0 0 0 0 0.141176 0 0 0 0 0.145098 0 0 0 0 0.156863 0 0 0 1 0"/>
<feBlend mode="normal" in2="shape" result="effect1_innerShadow_30335_230775"/>
</filter>
<clipPath id="clip0_30335_230775">
<path d="M181 2C181 0.895431 181.895 0 183 0H339C340.105 0 341 0.895431 341 2V30C341 31.1046 340.105 32 339 32H183C181.895 32 181 31.1046 181 30V2Z" fill="white"/>
</clipPath>
<clipPath id="clip1_30335_230775">
<path d="M95 2C95 0.895431 95.8954 0 97 0H199C200.105 0 201 0.895431 201 2V30C201 31.1046 200.105 32 199 32H97C95.8954 32 95 31.1046 95 30V2Z" fill="white"/>
</clipPath>
</defs>
</svg>
