<svg width="16" height="16" viewBox="0 0 16 16" fill="none" xmlns="http://www.w3.org/2000/svg">
<path d="M7.99997 14.75C7.99997 14.888 8.11196 15.0004 8.24995 14.9956C9.0454 14.9677 9.8071 14.807 10.5136 14.5351C10.6424 14.4855 10.7013 14.3383 10.6471 14.2113L10.451 13.7511C10.3969 13.624 10.2501 13.5655 10.1209 13.6143C9.53544 13.8356 8.90628 13.9679 8.24992 13.9948C8.11197 14.0005 7.99997 14.1119 7.99997 14.25V14.75Z" fill="white"/>
<path d="M5.52998 13.4696C5.65575 13.5265 5.71803 13.6716 5.6665 13.7996L5.47977 14.2637C5.42823 14.3919 5.28234 14.4543 5.15617 14.3982C4.44339 14.0809 3.79342 13.648 3.2301 13.1233C3.12907 13.0292 3.12937 12.8706 3.227 12.7729L3.58055 12.4194C3.67818 12.3217 3.83613 12.3222 3.93772 12.4157C4.40587 12.8466 4.94273 13.204 5.52998 13.4696Z" fill="white"/>
<path d="M12.4157 12.0622C12.3222 12.1638 12.3218 12.3217 12.4194 12.4194L12.7729 12.7729C12.8706 12.8706 13.0292 12.8709 13.1233 12.7698C13.648 12.2065 14.0809 11.5565 14.3982 10.8438C14.4544 10.7176 14.3919 10.5717 14.2638 10.5202L13.7997 10.3334C13.6716 10.2819 13.5265 10.3442 13.4696 10.4699C13.204 11.0572 12.8466 11.5941 12.4157 12.0622Z" fill="white"/>
<path d="M13.9948 7.74974C14.0005 7.88769 14.1119 7.99996 14.25 7.99996H14.75C14.888 7.99996 15.0004 7.88754 14.9956 7.74956C14.8637 3.99954 11.7821 0.999957 7.99997 0.999957C5.45365 0.999957 3.22487 2.35954 1.99997 4.39237V1.24996C1.99997 1.11189 1.88804 0.999957 1.74997 0.999957H1.24997C1.1119 0.999957 0.999972 1.11189 0.999972 1.24996L0.999971 5.99996L5.74997 5.99996C5.88804 5.99996 5.99997 5.88803 5.99997 5.74996L5.99997 5.24996C5.99997 5.11189 5.88804 4.99996 5.74997 4.99996L2.80267 4.99996C3.84009 3.20655 5.77913 1.99996 7.99997 1.99996C11.2299 1.99996 13.8637 4.55207 13.9948 7.74974Z" fill="white"/>
<path d="M2.38587 10.1216C2.43471 10.2508 2.37618 10.3975 2.24913 10.4517L1.78895 10.6479C1.66198 10.702 1.51472 10.6432 1.46513 10.5144C1.19308 9.80779 1.03234 9.04596 1.00437 8.25036C0.999516 8.11237 1.1119 7.99996 1.24997 7.99996H1.74997C1.88804 7.99996 1.99944 8.11222 2.00509 8.25018C2.03203 8.90669 2.16445 9.53599 2.38587 10.1216Z" fill="white"/>
</svg>
