<svg width="16" height="16" viewBox="0 0 16 16" fill="none" xmlns="http://www.w3.org/2000/svg">
<path fill-rule="evenodd" clip-rule="evenodd" d="M10.9999 4C10.9999 5.65685 9.6568 7 7.99995 7C6.34309 7 4.99995 5.65685 4.99995 4C4.99995 2.34315 6.34309 1 7.99995 1C9.6568 1 10.9999 2.34315 10.9999 4ZM9.49995 4C9.49995 4.82843 8.82837 5.5 7.99995 5.5C7.17152 5.5 6.49995 4.82843 6.49995 4C6.49995 3.17157 7.17152 2.5 7.99995 2.5C8.82837 2.5 9.49995 3.17157 9.49995 4Z" fill="white"/>
<path fill-rule="evenodd" clip-rule="evenodd" d="M1.99994 13.75C1.99994 13.75 1.99993 12.0908 1.99995 11.4375C1.99995 11.1875 2.15783 10.9388 2.34725 10.7434L4.63493 8.37135C4.87407 8.12438 5.18778 8 5.50149 8H10.4969C10.8097 8 11.1234 8.12438 11.3617 8.37135L13.6502 10.7434C13.8397 10.9388 13.9999 11.1875 13.9999 11.4375L13.9999 13.75C13.9999 13.8881 13.888 14 13.7499 14H2.24994C2.11187 14 1.99994 13.8881 1.99994 13.75ZM12.4999 12.5L12.4999 11.7115L10.3663 9.5H5.63036L3.49994 11.7089L3.49994 12.5H12.4999ZM2.24994 13.75C3.49995 13.75 3.49995 13.75 3.49995 13.75L2.24994 13.75Z" fill="white"/>
</svg>
