<svg width="16" height="16" viewBox="0 0 16 16" fill="none" xmlns="http://www.w3.org/2000/svg">
<path d="M6 4.25C6 4.11193 6.11193 4 6.25 4H6.75C6.88807 4 7 4.11193 7 4.25L7 6H8.75C8.88807 6 9 6.11193 9 6.25V6.75C9 6.88807 8.88807 7 8.75 7H7V8.75C7 8.88807 6.88807 9 6.75 9H6.25C6.11193 9 6 8.88807 6 8.75V7L4.25 7C4.11193 7 4 6.88807 4 6.75V6.25C4 6.11193 4.11193 6 4.25 6L6 6V4.25Z" fill="white"/>
<path fill-rule="evenodd" clip-rule="evenodd" d="M6.5 11C7.56251 11 8.53901 10.6318 9.30885 10.0159L13.2197 13.9268C13.3173 14.0244 13.4756 14.0244 13.5732 13.9268L13.9268 13.5732C14.0244 13.4756 14.0244 13.3173 13.9268 13.2197L10.016 9.30884C10.6318 8.539 11 7.5625 11 6.5C11 4.01472 8.98528 2 6.5 2C4.01472 2 2 4.01472 2 6.5C2 8.98528 4.01472 11 6.5 11ZM6.51562 10.0312C8.45725 10.0313 10.0312 8.45725 10.0312 6.51563C10.0312 4.574 8.45725 3 6.51562 3C4.574 3 3 4.574 3 6.51562C3 8.45725 4.574 10.0312 6.51562 10.0312Z" fill="white"/>
</svg>
