<svg width="14" height="14" viewBox="0 0 14 14" fill="none" xmlns="http://www.w3.org/2000/svg">
<path fill-rule="evenodd" clip-rule="evenodd" d="M10 7C10 8.65685 8.65685 10 7 10C5.34315 10 4 8.65685 4 7C4 5.34315 5.34315 4 7 4C8.65685 4 10 5.34315 10 7ZM9 7C9 8.10457 8.10457 9 7 9C5.89543 9 5 8.10457 5 7C5 5.89543 5.89543 5 7 5C8.10457 5 9 5.89543 9 7Z" fill="white"/>
<path fill-rule="evenodd" clip-rule="evenodd" d="M7 14C6.46289 14 5.93991 13.9395 5.4375 13.825L5.4375 11.751C5.19839 11.6724 4.96725 11.5763 4.74558 11.4641L3.27932 12.9304C2.38717 12.3695 1.63052 11.6128 1.06961 10.7207L2.53588 9.25441C2.42371 9.03275 2.32758 8.80161 2.24899 8.5625H0.175037C0.0604927 8.06009 0 7.53711 0 7C0 6.46289 0.0604928 5.93991 0.175037 5.4375H2.24899C2.32758 5.19839 2.42372 4.96725 2.53588 4.74558L1.06961 3.27932C1.63052 2.38717 2.38717 1.63052 3.27932 1.06961L4.74559 2.53588C4.96725 2.42372 5.19839 2.32758 5.4375 2.24899L5.4375 0.175037C5.93991 0.0604926 6.46289 0 7 0C7.53711 0 8.06009 0.0604927 8.5625 0.175037V2.24899C8.80161 2.32758 9.03275 2.42371 9.25441 2.53588L10.7207 1.06961C11.6128 1.63052 12.3695 2.38717 12.9304 3.27932L11.4641 4.74558C11.5763 4.96725 11.6724 5.19839 11.751 5.4375H13.825C13.9395 5.93991 14 6.46289 14 7C14 7.53711 13.9395 8.06009 13.825 8.5625H11.751C11.6724 8.80161 11.5763 9.03275 11.4641 9.25441L12.9304 10.7207C12.3695 11.6128 11.6128 12.3695 10.7207 12.9304L9.25442 11.4641C9.03275 11.5763 8.80161 11.6724 8.5625 11.751V13.825C8.06009 13.9395 7.53711 14 7 14ZM4.55071 10.2448L3.17366 11.6218C2.88439 11.382 2.61796 11.1156 2.37816 10.8263L3.75522 9.44929L3.42815 8.80292C3.33851 8.62576 3.26173 8.44114 3.19899 8.25025L2.97293 7.5625H1.02595C1.00879 7.3775 1 7.18988 1 7C1 6.81012 1.00879 6.6225 1.02595 6.4375H2.97293L3.19899 5.74975C3.26173 5.55886 3.33851 5.37424 3.42815 5.19708L3.75522 4.55071L2.37817 3.17366C2.61796 2.88439 2.88439 2.61796 3.17366 2.37816L4.55071 3.75522L5.19708 3.42815C5.37424 3.33851 5.55886 3.26173 5.74975 3.19899L6.4375 2.97293L6.4375 1.02595C6.62251 1.00879 6.81012 1 7 1C7.18988 1 7.3775 1.00879 7.5625 1.02595V2.97293L8.25025 3.19899C8.44114 3.26173 8.62576 3.33851 8.80292 3.42815L9.44929 3.75522L10.8263 2.37816C11.1156 2.61796 11.382 2.88439 11.6218 3.17366L10.2448 4.55071L10.5718 5.19708C10.6615 5.37424 10.7383 5.55886 10.801 5.74975L11.0271 6.4375H12.974C12.9912 6.6225 13 6.81012 13 7C13 7.18988 12.9912 7.3775 12.974 7.5625H11.0271L10.801 8.25025C10.7383 8.44113 10.6615 8.62576 10.5718 8.80292L10.2448 9.44929L11.6218 10.8263C11.382 11.1156 11.1156 11.382 10.8263 11.6218L9.44929 10.2448L8.80292 10.5718C8.62576 10.6615 8.44114 10.7383 8.25025 10.801L7.5625 11.0271V12.974C7.37749 12.9912 7.18988 13 7 13C6.81012 13 6.6225 12.9912 6.4375 12.974L6.4375 11.0271L5.74975 10.801C5.55886 10.7383 5.37424 10.6615 5.19708 10.5718L4.55071 10.2448Z" fill="white"/>
</svg>
