<svg width="48" height="40" viewBox="0 0 48 40" fill="none" xmlns="http://www.w3.org/2000/svg">
<path d="M32 8C29.7909 8 28 9.79086 28 12C28 14.2091 29.7909 16 32 16C34.2091 16 36 14.2091 36 12C36 9.79086 34.2091 8 32 8Z" fill="white"/>
<path d="M18.7071 16.3003C18.3166 15.9097 17.6834 15.9097 17.2929 16.3003L8 25.5932V31.2181L8.01593 31.2341L18 21.25L28.0429 31.2929C28.4334 31.6834 29.0666 31.6834 29.4571 31.2929L30.8713 29.8787C31.2618 29.4882 31.2618 28.855 30.8713 28.4645L28.7659 26.3591L32 23.125L40 31.125V25.4681L32.7071 18.1753C32.3166 17.7847 31.6834 17.7847 31.2929 18.1753L25.9375 23.5307L18.7071 16.3003Z" fill="white"/>
<path fill-rule="evenodd" clip-rule="evenodd" d="M4 0C1.79086 0 0 1.79086 0 4V36C0 38.2091 1.79086 40 4 40H44C46.2091 40 48 38.2091 48 36V4C48 1.79086 46.2091 0 44 0H4ZM4 36V4H44V36H4Z" fill="white"/>
</svg>
