<svg width="295" height="277" viewBox="0 0 295 277" fill="none" xmlns="http://www.w3.org/2000/svg">
<g clip-path="url(#clip0_4938_6544)">
<path opacity="0.04" d="M129.708 148.752C139.321 155.471 146.989 164.791 155.005 173.554C167.932 187.688 182.451 200.865 200.133 207.297C217.816 213.729 239.258 212.373 254.774 199.531C270.29 186.69 276.957 161.046 266.134 144.969C253.929 126.837 227.275 127.411 212.389 111.799C204.18 103.187 200.604 90.7653 196.259 79.2461C189.777 62.0635 180.778 45.658 167.388 34.1764C153.999 22.6948 135.704 16.6869 118.359 21.465C101.013 26.2431 85.7041 43.2601 84.8169 62.2202C84.5021 68.9458 85.7569 76.2035 82.3182 82.0415C77.7545 89.7893 67.6034 90.6041 59.5129 89.0364C51.4246 87.4687 42.9093 84.5277 35.0698 88.0296C1.97912 102.81 39.6224 140.885 55.1099 148.655C66.0602 154.148 75.4473 150.523 86.5428 145.566C102.213 138.564 115.878 139.09 129.705 148.752H129.708Z" fill="white"/>
<path opacity="0.04" d="M187.607 135.449C193.795 135.267 198.586 136.153 204.167 137.451C209.75 138.75 215.247 140.664 221.059 140.657C231.835 140.646 241.907 133.477 245.469 124.497C249.031 115.517 246.592 105.314 240.41 97.7204C234.228 90.1271 224.676 84.9957 214.454 82.2269C204.233 79.4581 193.329 78.8995 182.55 79.1732C155.749 79.8511 128.88 85.6449 104.961 96.7445C81.0414 107.846 60.1537 124.311 45.8154 144.437C41.0998 151.057 36.9632 158.774 38.775 166.283C40.2478 172.384 45.5996 177.332 51.9993 180.004C58.3991 182.675 65.7455 183.291 72.9025 182.943C98.037 181.719 120.763 169.43 142.467 157.846C164.174 146.263 162.486 135.067 187.609 135.449" fill="white"/>
<path opacity="0.07" d="M259.807 238.083C259.699 238.063 258.332 237.895 258.224 237.889C191.18 234.279 132.107 238.608 64.4154 242.071C59.1935 242.338 53.791 242.636 49.104 244.151C44.4192 245.665 40.6349 248.752 41.4538 251.788C42.3146 254.979 47.8976 256.948 53.3485 257.16C58.7994 257.372 64.2239 256.259 69.5823 255.389C99.9519 250.461 131.479 253.124 162.278 254.787C193.079 256.449 225.893 256.851 253.99 248.07C257.09 247.1 260.223 245.961 262.149 244.217C263.785 242.733 264.247 240.739 262.911 239.271C262.129 238.41 260.91 238.286 259.804 238.083H259.807Z" fill="white"/>
<path d="M236.03 138.546L241.127 132.898L235.013 129.604L231.641 131.693C229.052 133.517 224.453 134.727 221.424 133.815C219.521 133.243 215.601 132.446 213.762 131.693C211.534 130.781 207.821 130.71 206.376 132.614C204.038 135.689 210.308 136.076 213.34 136.356C219.546 136.932 227.447 141.22 236.033 138.549" fill="#DD9F76"/>
<path d="M164.042 220.483C159.782 220.483 155.489 219.094 152.209 216.551L152.733 215.873C156.832 219.052 162.596 220.342 167.771 219.24C171.738 218.396 174.847 216.213 176.524 213.093C180.886 204.976 181.39 195.02 181.531 185.517C181.546 184.517 181.557 183.448 181.568 182.324C181.665 172.446 181.799 158.917 185.053 151.07C187.838 144.351 190.271 140.697 193.45 138.456C196.835 136.067 201.232 135.312 207.702 136.007L207.612 136.859C201.362 136.188 197.146 136.897 193.943 139.158C190.909 141.298 188.562 144.846 185.843 151.401C182.653 159.094 182.521 172.527 182.422 182.335C182.411 183.459 182.4 184.532 182.385 185.533C182.242 195.142 181.731 205.215 177.277 213.501C175.479 216.846 172.168 219.183 167.95 220.081C166.671 220.353 165.358 220.485 164.042 220.485V220.483Z" fill="#D2F9FF"/>
<path d="M124.745 64.0374L127.799 63.428C129.397 63.1101 130.775 64.5784 130.361 66.1571L127.999 76.0511C127.754 76.9851 128.943 77.6034 129.564 76.8659L139.416 64.3244C141.461 61.8956 141.107 58.0162 137.08 57.4973L132.479 57.1264C131.988 57.0226 131.68 56.5368 131.783 56.0444C132.334 53.4523 133.994 45.3047 134.41 41.8249C134.5 41.0786 133.012 41.061 132.582 41.6792C130.051 45.3246 125.168 52.1186 121.022 59.4624C119.706 61.7963 122.002 64.5408 124.745 64.0374Z" fill="#FF5662"/>
<path d="M104.98 82.6929L105.945 82.5008C106.449 82.3993 106.885 82.863 106.755 83.3642L106.009 86.4907C105.932 86.7866 106.306 86.9809 106.504 86.7468L109.617 82.7857C110.262 82.0173 110.152 80.7919 108.879 80.6285L107.426 80.5114C107.272 80.4783 107.173 80.326 107.206 80.1692C107.38 79.35 107.904 76.7777 108.036 75.6781C108.065 75.4419 107.594 75.4375 107.459 75.6318C106.66 76.7843 105.117 78.9305 103.807 81.2489C103.391 81.9864 104.118 82.8541 104.983 82.6952L104.98 82.6929Z" fill="#0095CA"/>
<path d="M151.077 82.6929L152.041 82.5008C152.546 82.3993 152.981 82.863 152.852 83.3642L152.105 86.4907C152.028 86.7866 152.402 86.9809 152.601 86.7468L155.714 82.7857C156.359 82.0173 156.248 80.7919 154.976 80.6285L153.523 80.5114C153.369 80.4783 153.27 80.326 153.303 80.1692C153.477 79.35 154.001 76.7777 154.133 75.6781C154.161 75.4419 153.69 75.4375 153.556 75.6318C152.757 76.7843 151.214 78.9305 149.904 81.2489C149.488 81.9864 150.214 82.8541 151.079 82.6952L151.077 82.6929Z" fill="#0095CA"/>
<mask id="mask0_4938_6544" style="mask-type:luminance" maskUnits="userSpaceOnUse" x="82" y="92" width="94" height="125">
<path d="M175.298 135.334C173.504 112.662 155.044 94.3842 132.42 92.8496C105.707 91.0368 83.4475 111.993 82.9808 138.284H82.9609L82.9808 138.334C82.9763 138.597 82.9609 138.858 82.9609 139.12C82.9609 148.551 85.7722 157.321 90.5957 164.641C94.7367 170.924 98.444 177.484 101.209 184.486L113.755 216.253H144.409L156.242 186.29C159.265 178.639 163.329 171.481 167.844 164.61C173.288 156.323 176.155 146.184 175.296 135.336L175.298 135.334Z" fill="white"/>
</mask>
<g mask="url(#mask0_4938_6544)">
<path d="M130.658 112.806C72.6357 124.181 99.4653 187.189 65.6548 187.189C18.1906 187.189 -20.2871 154.866 -20.2871 114.994C-20.2871 75.1216 18.9061 51.0301 65.6548 42.7965C155.088 27.0446 177.429 103.634 130.658 112.803V112.806Z" fill="#00C7FD"/>
</g>
<path d="M236.385 89.0653C236.942 88.1778 236.775 87.0676 236.011 86.5854C235.248 86.1033 234.177 86.4318 233.62 87.3192C233.063 88.2066 233.23 89.3169 233.994 89.7991C234.757 90.2812 235.828 89.9527 236.385 89.0653Z" fill="#E6E6E6"/>
<path d="M237.515 95.9695L243.118 105.259L238.217 107.802L233.462 97.8154L237.515 95.9695Z" fill="#FFC599"/>
<path d="M239.182 88.4733C236.311 83.7172 230.466 81.995 226.129 84.6269C222.67 86.7245 221.746 89.7694 223.344 93.9447C223.749 95.0045 224.317 96.135 225.046 97.3428C227.916 102.099 231.811 106.926 234.134 102.408C238.517 93.8829 242.052 93.2293 239.182 88.4733Z" fill="#FFC599"/>
<path d="M224.18 93.0527L223.966 98.6036C223.949 99.0673 224.367 99.4272 224.821 99.3389L226.355 99.0408L224.18 93.0549V93.0527Z" fill="#FFC599"/>
<path d="M240.41 96.8703C240.691 94.8831 242.871 94.7241 243.238 92.7524C243.555 91.0567 242.276 91.0302 243.298 88.0494C243.597 87.1772 243.412 86.2101 242.884 85.455C242.743 85.254 242.642 85.1083 242.631 85.0951C241.697 84.0198 242.058 82.3858 241.891 80.9705C241.669 79.1158 240.359 77.4333 238.62 76.7687C236.905 76.1151 235.337 76.2763 233.53 76.5943C231.54 76.9431 230.575 76.8592 228.585 77.2081C227.297 77.4333 225.908 77.7137 225.037 78.6896C223.861 80.0056 223.949 82.2467 222.505 83.258C221.853 83.7128 221.01 83.7018 220.308 84.1589C220.303 84.1611 220.299 84.1633 220.295 84.1655C216.642 86.5479 218.859 90.2176 221.4 90.5466C221.904 90.5996 222.39 90.423 223.372 90.5466C228.625 91.2156 231.093 83.6179 231.707 89.9747C232.205 95.1348 237.678 99.1843 238.699 98.756C238.961 98.6456 239.287 98.9922 239.366 99.0297C239.987 99.3278 240.337 97.4245 240.416 96.8703H240.41Z" fill="#005B85"/>
<path d="M235.234 91.2841C235.85 92.7591 234.578 94.6403 233.637 95.0377C232.697 95.4329 232.281 93.8012 231.828 92.7171C231.374 91.633 231.768 90.4318 232.708 90.0366C233.649 89.6414 234.778 90.2 235.231 91.2841H235.234Z" fill="#FFC599"/>
<path d="M258.603 234.886H254.233L249.894 223.616H255.413L258.603 234.886Z" fill="#DD9F76"/>
<path d="M239.067 238.65C239.688 238.079 241.96 237.831 242.997 237.637C243.73 237.498 244.538 237.281 245.225 236.99C246.75 236.339 251.281 234.491 251.281 234.491C252.137 234.025 253.15 233.952 254.066 234.285C254.414 234.411 254.742 234.526 254.94 234.586C256.516 235.056 257.445 234.692 258.85 233.833C259.211 233.612 259.671 233.879 259.66 234.303L260.052 238.935C260.122 239.757 259.501 240.313 258.649 240.454C254.724 241.099 243.723 241.163 239.809 240.454C238.825 240.276 238.376 239.289 239.067 238.653V238.65Z" fill="#005B85"/>
<path d="M232.87 163.11C234.34 167.436 235.305 171.918 235.751 176.467C237.356 192.834 239.118 206.866 244.584 223.259C245.143 224.934 245.83 226.743 247.437 227.67C249.277 228.732 251.723 228.355 253.848 227.962C254.753 227.794 257.403 227.288 257.403 227.288C259.985 226.683 261.445 224.155 260.551 221.834C257.346 213.501 252.85 205.078 250.759 196.453C250.028 193.444 249.449 190.626 249.346 188.597C249.2 185.773 249.225 181.726 249.39 174.85C249.581 166.886 252.095 156.274 249.72 148.617C249.15 146.78 249.412 146.409 247.902 145.102C245.086 142.662 239.085 149.467 235.272 150.01C233.59 150.249 231.705 150.604 230.785 151.927C230.118 152.883 230.144 154.102 230.193 155.239L232.87 163.11Z" fill="#E96115"/>
<path d="M223.9 237.206H219.53L220.677 225.937H226.833L223.9 237.206Z" fill="#FFC599"/>
<path d="M203.649 240.719C204.318 240.101 206.768 239.838 207.884 239.626C208.675 239.476 209.547 239.244 210.286 238.929C211.931 238.227 216.816 236.233 216.816 236.233C217.738 235.732 218.83 235.652 219.817 236.01C220.191 236.147 220.545 236.27 220.759 236.334C222.458 236.84 223.46 236.449 224.972 235.524C225.362 235.286 225.857 235.575 225.846 236.032L226.269 241.026C226.344 241.912 225.675 242.512 224.759 242.662C220.528 243.358 208.668 243.426 204.45 242.662C203.389 242.47 202.907 241.406 203.649 240.719Z" fill="#0095CA"/>
<path d="M232.121 149.697C222.496 174.618 216.744 199.69 215.43 226.186C215.388 227.021 215.357 227.886 215.689 228.661C216.588 230.757 219.498 231.15 221.893 231.223C225.079 231.32 228.911 231.097 230.486 228.48C231.569 226.681 231.098 224.451 230.849 222.395C230.204 217.061 231.294 211.689 232.379 206.416C233.623 200.375 234.184 195.758 235.426 189.717C236.108 186.398 237.812 177.621 239.281 174.537C240.932 171.068 243.109 166.63 245.423 163.521C250.543 156.643 250.132 153.848 250.546 150.28C250.984 146.495 249.381 148.191 246.827 145.25C243.342 141.236 239.954 143.835 234.455 143.7" fill="#FF8F51"/>
<path d="M233.929 120.134C234.869 131.649 230.585 136.451 229.592 145.144L227.938 150.732C227.938 154.309 231.078 152.205 234.88 152.042C242.825 151.702 252.892 159.997 254.213 151.867C254.861 147.893 252.153 143.514 252.065 140.079C251.981 136.826 251.734 131.872 251.816 129.514C251.816 129.514 250.979 119.959 250.246 115.281C249.429 110.07 249.002 107.785 245.995 105.451C245.995 105.451 244.37 104.338 242.983 104.338C233.059 104.338 233.927 120.134 233.927 120.134H233.929Z" fill="#0095CA"/>
<path d="M213.008 134.537H208.933C208.75 134.537 208.603 134.685 208.603 134.868V134.965C208.603 135.148 208.75 135.296 208.933 135.296H213.008C213.19 135.296 213.338 135.148 213.338 134.965V134.868C213.338 134.685 213.19 134.537 213.008 134.537Z" fill="#FEC91B"/>
<path d="M213.008 137.308H208.933C208.75 137.308 208.603 137.456 208.603 137.639V137.736C208.603 137.919 208.75 138.067 208.933 138.067H213.008C213.19 138.067 213.338 137.919 213.338 137.736V137.639C213.338 137.456 213.19 137.308 213.008 137.308Z" fill="#FEC91B"/>
<path d="M205.956 133.45H209.825C210.287 133.45 210.661 133.826 210.661 134.289V138.418C210.661 138.882 210.287 139.257 209.825 139.257H205.956C204.358 139.257 203.062 137.957 203.062 136.354C203.062 134.751 204.358 133.45 205.956 133.45Z" fill="#0095CA"/>
<mask id="mask1_4938_6544" style="mask-type:luminance" maskUnits="userSpaceOnUse" x="203" y="133" width="8" height="7">
<path d="M205.956 133.45H209.825C210.287 133.45 210.661 133.826 210.661 134.289V138.418C210.661 138.882 210.287 139.257 209.825 139.257H205.956C204.358 139.257 203.062 137.957 203.062 136.354C203.062 134.751 204.358 133.45 205.956 133.45Z" fill="white"/>
</mask>
<g mask="url(#mask1_4938_6544)">
<path d="M212.385 144.782C214.232 144.782 215.729 141.158 215.729 136.687C215.729 132.217 214.232 128.593 212.385 128.593C210.538 128.593 209.041 132.217 209.041 136.687C209.041 141.158 210.538 144.782 212.385 144.782Z" fill="#FFE17A"/>
</g>
<path d="M246.177 242.124C238.424 242.124 231.92 239.679 228.255 235.365C221.344 227.233 221.179 220.43 221.725 210.194C222.152 202.188 225.82 190.205 231.535 178.138C235.989 168.734 233.624 155.822 232.059 147.279C231.511 144.285 231.077 141.914 231.018 140.247L229.611 134.327C228.878 132.77 227.621 132.088 226.236 132.503C224.074 133.15 222.254 136.224 222.956 140.847C223.013 141.227 222.753 141.58 222.375 141.64C221.996 141.697 221.644 141.437 221.584 141.057C220.761 135.649 223.101 131.991 225.838 131.172C227.9 130.553 229.886 131.589 230.897 133.81L230.925 133.872L232.396 140.063V140.134C232.442 141.697 232.896 144.168 233.42 147.027C235.016 155.747 237.431 168.924 232.783 178.734C227.143 190.644 223.524 202.433 223.106 210.269C222.577 220.161 222.731 226.725 229.307 234.464C232.768 238.538 239.348 240.878 246.899 240.726C255.393 240.554 264.318 237.348 272.029 231.695C272.338 231.468 272.771 231.536 272.998 231.845C273.225 232.155 273.157 232.59 272.848 232.817C264.908 238.637 255.703 241.938 246.928 242.117C246.675 242.121 246.424 242.124 246.175 242.124H246.177Z" fill="url(#paint0_linear_4938_6544)"/>
<path d="M225.336 142.92V145.566C225.336 146.029 224.962 146.405 224.499 146.405H220.383C219.92 146.405 219.546 146.029 219.546 145.566V142.92C219.546 141.317 220.843 140.017 222.441 140.017C224.039 140.017 225.336 141.317 225.336 142.92Z" fill="#0095CA"/>
<path d="M225.336 142.92V145.566C225.336 146.029 224.962 146.405 224.499 146.405H220.383C219.92 146.405 219.546 146.029 219.546 145.566V142.92C219.546 141.317 220.843 140.017 222.441 140.017C224.039 140.017 225.336 141.317 225.336 142.92Z" fill="#0095CA"/>
<path d="M175.298 135.334C173.504 112.662 155.044 94.3842 132.42 92.8496C105.707 91.0368 83.4475 111.993 82.9808 138.284H82.9609L82.9808 138.334C82.9763 138.597 82.9609 138.858 82.9609 139.12C82.9609 148.551 85.7722 157.321 90.5957 164.641C94.7367 170.924 98.444 177.484 101.209 184.486L113.755 216.253H144.409L156.242 186.29C159.265 178.639 163.329 171.481 167.844 164.61C173.288 156.323 176.155 146.184 175.296 135.336L175.298 135.334Z" fill="#0095CA"/>
<path d="M136.396 198.659H135.735V162.658H122.671V198.659H122.011V162.658H116.052C112.401 162.658 109.432 159.679 109.432 156.018C109.432 152.357 112.401 149.379 116.052 149.379C119.702 149.379 122.671 152.357 122.671 156.018V161.995H135.735V156.018C135.735 152.357 138.705 149.379 142.355 149.379C146.005 149.379 148.975 152.357 148.975 156.018C148.975 159.679 146.005 162.658 142.355 162.658H136.396V198.659ZM136.396 161.995H142.355C145.642 161.995 148.314 159.315 148.314 156.018C148.314 152.722 145.64 150.041 142.355 150.041C139.07 150.041 136.396 152.722 136.396 156.018V161.995ZM116.052 150.039C112.765 150.039 110.092 152.72 110.092 156.016C110.092 159.313 112.765 161.993 116.052 161.993H122.011V156.016C122.011 152.72 119.336 150.039 116.052 150.039Z" fill="#FFE17A"/>
<path d="M131.398 106.4C129.936 106.873 129.996 108.95 131.458 109.421C144.493 113.607 153.977 125.802 154.089 140.277C154.089 140.293 154.089 140.308 154.089 140.324C154.1 141.896 156.075 142.519 156.979 141.236C159.353 137.875 160.847 133.861 161.105 129.542C161.891 116.347 151.52 105.437 138.615 105.309V105.298L138.59 105.309C138.461 105.309 138.333 105.301 138.205 105.303C135.83 105.32 133.545 105.705 131.398 106.4Z" fill="#A0EBFF"/>
<path d="M111.169 221.051H146.362V237.637C146.362 240.483 144.057 242.795 141.219 242.795H116.312C113.474 242.795 111.169 240.483 111.169 237.637V221.051Z" fill="#1A1A1A"/>
<path d="M107.208 198.659H150.322C152.176 198.659 153.681 200.169 153.681 202.029V226.343C153.681 230.373 150.419 233.645 146.401 233.645H111.131C107.113 233.645 103.851 230.373 103.851 226.343V202.029C103.851 200.169 105.356 198.659 107.21 198.659H107.208Z" fill="#005B85"/>
<path d="M153.48 203.757H103.849C102.527 203.757 101.456 204.832 101.456 206.156C101.456 207.481 102.527 208.555 103.849 208.555H153.48C154.801 208.555 155.873 207.481 155.873 206.156C155.873 204.832 154.801 203.757 153.48 203.757Z" fill="#00C7FD"/>
<path d="M153.48 213.252H103.849C102.527 213.252 101.456 214.326 101.456 215.651C101.456 216.976 102.527 218.05 103.849 218.05H153.48C154.801 218.05 155.873 216.976 155.873 215.651C155.873 214.326 154.801 213.252 153.48 213.252Z" fill="#00C7FD"/>
<path d="M153.48 223.25H103.849C102.527 223.25 101.456 224.324 101.456 225.649C101.456 226.974 102.527 228.048 103.849 228.048H153.48C154.801 228.048 155.873 226.974 155.873 225.649C155.873 224.324 154.801 223.25 153.48 223.25Z" fill="#00C7FD"/>
<path d="M92.5463 212.285C101.889 185.341 85.3408 167.758 82.2829 196.65C79.7512 159.167 47.07 162.176 65.8818 198.9C64.4926 197.12 62.6632 195.102 60.6576 193.713C56.2833 190.686 50.5484 194.226 51.2925 199.503C52.369 207.136 60.2482 215.769 65.0562 220.141C58.5068 212.484 45.6435 215.767 52.9568 226.553C72.2199 252.958 104.223 251.841 109.925 215.65C111.468 205.855 104.133 201.722 98.7082 205.641C96.0114 207.591 95.5227 208.538 92.5463 212.283V212.285Z" fill="#FFE17A"/>
<path d="M84.8519 245.001C84.8321 245.001 84.8123 245.001 84.7925 244.994C84.645 244.961 84.5503 244.815 84.5833 244.665C87.06 233.278 82.7759 218.33 78.745 207.796C74.3684 196.361 69.338 187.513 69.2873 187.425C69.2125 187.292 69.2565 187.125 69.3886 187.047C69.5207 186.972 69.688 187.016 69.7651 187.149C69.8157 187.237 74.8637 196.116 79.2557 207.588C83.3153 218.196 87.628 233.256 85.1227 244.78C85.0941 244.908 84.9796 244.996 84.8541 244.996L84.8519 245.001Z" fill="#333333"/>
<path d="M77.321 232.693C73.4661 232.693 67.9184 231.585 61.9854 226.771C61.8665 226.677 61.8489 226.502 61.9435 226.383C62.0382 226.264 62.2121 226.246 62.331 226.341C68.5744 231.406 74.3643 232.28 78.1267 232.124C82.2039 231.954 84.8413 230.565 84.8677 230.552C85.002 230.481 85.1693 230.532 85.2397 230.664C85.3124 230.799 85.2617 230.967 85.1274 231.037C85.0174 231.097 82.3734 232.49 78.1795 232.673C77.9043 232.685 77.6182 232.691 77.321 232.691V232.693Z" fill="#333333"/>
<path d="M80.5615 211.821C80.4294 211.821 80.3105 211.724 80.2907 211.589C80.2665 211.439 80.3677 211.298 80.5196 211.274C80.7134 211.24 85.178 210.41 84.8258 202.828C84.8192 202.676 84.9358 202.548 85.0877 202.539C85.2396 202.53 85.3673 202.649 85.3761 202.801C85.5721 207.008 84.282 209.231 83.1658 210.355C81.9374 211.594 80.6605 211.81 80.6077 211.819C80.5923 211.821 80.5791 211.823 80.5637 211.823L80.5615 211.821Z" fill="#333333"/>
<path d="M126.916 229.52C128.248 226.933 128.948 223.157 125.926 221.845C124.539 221.243 122.918 221.499 121.688 222.38C119.277 224.102 117.17 226.219 115.414 228.6C117.056 223.537 118.08 218.273 118.423 212.96C118.471 212.201 118.247 211.421 117.719 210.874C116.332 209.439 114.399 210.691 113.199 211.96C109.064 216.336 106.35 224.601 105.291 230.529C105.291 230.529 105.348 224.19 105.034 222.219C104.838 220.995 104.347 219.794 103.264 219.196C100.743 217.803 98.7021 220.633 98.0834 223.071C96.9915 227.385 97.5661 232.073 99.4307 236.151C99.1732 236.151 98.9156 236.142 98.658 236.16C96.855 236.272 95.0388 236.827 93.9072 237.88C91.851 239.79 92.7184 242.817 95.085 244.515C97.4516 246.215 100.873 246.827 104.151 246.988C105.331 247.045 107.689 247.017 110.837 246.69C111.554 246.615 113.368 246.657 114.09 246.672C116.072 246.712 117.562 246.544 121.069 245.842C122.324 245.59 123.497 244.928 124.246 243.886C126.414 240.87 123.253 238.021 120.288 238.037C122.991 235.634 125.261 232.74 126.916 229.52Z" fill="#FF5662"/>
<path d="M108.199 247.041C108.061 247.041 107.942 246.937 107.926 246.796C106.385 233.19 112.715 222.035 112.778 221.923C112.855 221.79 113.023 221.746 113.155 221.821C113.287 221.898 113.331 222.066 113.256 222.199C113.192 222.309 106.953 233.314 108.474 246.732C108.492 246.884 108.382 247.021 108.232 247.037C108.221 247.037 108.21 247.037 108.201 247.037L108.199 247.041Z" fill="#333333"/>
<path d="M107.774 240.755C107.259 240.755 105.326 240.66 103.915 239.308C102.916 238.352 102.409 236.99 102.409 235.255C102.409 235.102 102.532 234.979 102.684 234.979C102.836 234.979 102.96 235.102 102.96 235.255C102.96 236.829 103.409 238.059 104.291 238.904C105.727 240.28 107.856 240.2 107.878 240.198C108.034 240.192 108.157 240.309 108.166 240.461C108.175 240.613 108.056 240.741 107.904 240.75C107.893 240.75 107.847 240.752 107.776 240.752L107.774 240.755Z" fill="#333333"/>
<path d="M109.861 237.059C109.196 237.059 108.74 236.968 108.696 236.959C108.547 236.928 108.452 236.783 108.481 236.635C108.509 236.487 108.657 236.389 108.804 236.418C108.829 236.423 111.18 236.88 113.009 235.599C114.136 234.811 114.845 233.524 115.116 231.775C115.14 231.625 115.281 231.521 115.431 231.545C115.58 231.569 115.684 231.709 115.66 231.861C115.365 233.766 114.579 235.18 113.32 236.058C112.135 236.884 110.792 237.061 109.861 237.061V237.059Z" fill="#333333"/>
<path d="M212.809 132.898C211.935 131.649 210.658 131.501 208.952 131.395C208.813 131.386 208.666 131.379 208.54 131.437C208.362 131.518 208.263 131.708 208.177 131.887C207.644 132.989 207.112 134.243 207.129 135.422C207.14 136.261 207.772 136.416 208.389 135.848C208.818 135.453 209.159 134.965 209.375 134.424C209.489 134.139 209.575 133.828 209.793 133.612C210.502 132.909 212.488 133.846 212.811 132.901" fill="#DD9F76"/>
<path d="M226.21 135.742L225.681 136.31C225.001 137.043 224.871 138.096 225.362 138.924L226.855 141.448C226.991 141.68 227.231 141.839 227.509 141.883L229.318 142.165C229.785 142.238 230.263 142.055 230.555 141.688L231.636 140.377C233.056 140.593 233.902 139.781 234.346 139.116C234.668 138.635 235.19 138.328 235.769 138.326L241.442 138.301C246.327 138.138 252.887 137.14 257.711 136.213C259.529 135.864 262.398 135.636 263.463 134.117C264.714 132.331 263.195 129.048 262.316 127.052C260.608 123.177 257.158 119.107 253.451 117.078C252.269 116.383 252.696 116.506 251.148 115.923C249.094 115.148 246.107 116.239 246.831 119.204C247.053 120.112 247.604 120.911 248.299 121.532C250.611 123.589 251.685 124.651 253.686 126.46C254.42 127.122 255.324 127.886 256.247 129.639C256.374 129.88 254.911 130.706 253.484 130.887C248.286 131.554 242.598 132.267 238.307 133.34C237.646 133.506 236.973 133.62 236.295 133.702L235.172 133.839C235.172 133.839 234.21 133.936 232.035 133.801C230.767 133.724 229.496 134.002 228.372 134.599L226.212 135.744L226.21 135.742Z" fill="#FFC599"/>
<path d="M253.394 116.948C253.405 116.974 253.427 117.021 253.451 117.077C253.422 117.012 253.405 116.97 253.394 116.948Z" fill="#FFC599"/>
<path d="M251.265 111.439C250.585 110.564 249.772 109.655 248.854 108.893C248.619 108.659 248.379 108.429 248.123 108.217C246.074 106.515 243.117 105.605 240.594 108.184C240.141 108.648 239.766 109.191 239.502 109.783C238.65 111.688 239.108 113.115 240.257 114.775C241.466 116.522 242.305 117.208 244.641 119.575C245.699 120.721 246.758 121.869 247.82 123.015C248.249 123.479 248.951 123.563 249.475 123.21C250.239 122.693 251.02 122.061 251.595 121.32C252.326 120.379 252.482 119.081 253.213 118.14C254.03 117.087 255.289 116.166 255.641 114.91C255.782 114.406 255.373 113.912 254.851 113.932C254.305 113.951 253.739 113.792 253.257 113.523C253.039 113.402 252.839 113.258 252.645 113.104C252.106 112.476 251.637 111.913 251.269 111.439H251.265Z" fill="#00C7FD"/>
</g>
<defs>
<linearGradient id="paint0_linear_4938_6544" x1="221.419" y1="186.559" x2="273.135" y2="186.559" gradientUnits="userSpaceOnUse">
<stop stop-color="white"/>
<stop offset="1" stop-color="white" stop-opacity="0"/>
</linearGradient>
<clipPath id="clip0_4938_6544">
<rect width="295" height="276" fill="white" transform="translate(0 0.5)"/>
</clipPath>
</defs>
</svg>
