<svg width="64" height="65" viewBox="0 0 64 65" fill="none" xmlns="http://www.w3.org/2000/svg">
<path d="M43 8.5H21C20.4477 8.5 20 8.94772 20 9.5V11.5C20 12.0523 20.4477 12.5 21 12.5H43C43.5523 12.5 44 12.0523 44 11.5V9.5C44 8.94772 43.5523 8.5 43 8.5Z" fill="white"/>
<path d="M58.4938 17.3738L55.3675 20.5H56V52.5H23.3675L19.3675 56.5H56C58.2088 56.5 60 54.7088 60 52.5V20.5C60 19.2338 59.4113 18.1063 58.4938 17.3738Z" fill="white"/>
<path d="M32 44.5C31.795 44.5 31.5938 44.49 31.3925 44.475L28.0375 47.83C29.2775 48.2638 30.6112 48.5 32 48.5C38.6275 48.5 44 43.1275 44 36.5C44 35.1112 43.7638 33.7787 43.33 32.5375L39.975 35.8925C39.99 36.0925 40 36.295 40 36.5C40 40.9113 36.4113 44.5 32 44.5Z" fill="white"/>
<path d="M22.95 44.3787C22.9588 44.3887 22.9662 44.3988 22.975 44.4075L25.815 41.5675C25.8075 41.5575 25.7987 41.5475 25.7913 41.5375L37.0375 30.2913C37.0475 30.2988 37.0575 30.3063 37.0675 30.315L39.9075 27.475C39.8975 27.4663 39.8875 27.4588 39.8787 27.45L46.8288 20.5H46.8825L50.8825 16.5H50.8288L55.7075 11.6213C56.0975 11.2313 56.0975 10.5975 55.7075 10.2075L54.2938 8.79375C53.9038 8.40375 53.27 8.40375 52.88 8.79375L45.1725 16.5012H8C5.79125 16.5012 4 18.2925 4 20.5012V52.5013C4 53.905 4.72375 55.14 5.81875 55.8537L4.355 57.3175C3.965 57.7075 3.965 58.3413 4.355 58.7313L5.76875 60.145C6.15875 60.535 6.7925 60.535 7.1825 60.145L10.8275 56.5H10.8813L14.8813 52.5H14.8275L22.9487 44.3787H22.95ZM24.075 37.5962C24.0263 37.2375 24 36.8725 24 36.5C24 32.0887 27.5887 28.5 32 28.5C32.3713 28.5 32.7375 28.5263 33.0962 28.575L24.075 37.5962ZM8 52.5V20.5H41.1712L36.355 25.3162C35.005 24.79 33.5362 24.5 32 24.5C25.3725 24.5 20 29.8725 20 36.5C20 38.0362 20.29 39.505 20.8162 40.855L9.17125 52.5H8Z" fill="white"/>
</svg>
