<svg width="16" height="17" viewBox="0 0 16 17" fill="none" xmlns="http://www.w3.org/2000/svg">
<path d="M8.74992 2.42065H8.24992C8.11185 2.42065 7.99992 2.53258 7.99992 2.67065V4.17065C7.99992 4.30873 8.11185 4.42065 8.24992 4.42065H8.74992C8.88799 4.42065 8.99992 4.30873 8.99992 4.17065V2.67065C8.99992 2.53258 8.88799 2.42065 8.74992 2.42065Z" fill="white"/>
<path d="M8.74992 11.4207H8.24992C8.11185 11.4207 7.99992 11.5326 7.99992 11.6707V13.1707C7.99992 13.3087 8.11185 13.4207 8.24992 13.4207H8.74992C8.88799 13.4207 8.99992 13.3087 8.99992 13.1707V11.6707C8.99992 11.5326 8.88799 11.4207 8.74992 11.4207Z" fill="white"/>
<path d="M13.9999 8.17065V7.67065C13.9999 7.53258 13.888 7.42065 13.7499 7.42065H12.2499C12.1119 7.42065 11.9999 7.53258 11.9999 7.67065V8.17065C11.9999 8.30873 12.1119 8.42065 12.2499 8.42065H13.7499C13.888 8.42065 13.9999 8.30873 13.9999 8.17065Z" fill="white"/>
<path d="M4.99992 8.17065V7.67065C4.99992 7.53258 4.88799 7.42065 4.74992 7.42065H3.24992C3.11185 7.42065 2.99992 7.53258 2.99992 7.67065V8.17065C2.99992 8.30873 3.11185 8.42065 3.24992 8.42065H4.74992C4.88799 8.42065 4.99992 8.30873 4.99992 8.17065Z" fill="white"/>
<path d="M12.2123 11.9866L12.5659 11.6331C12.6635 11.5355 12.6635 11.3772 12.5659 11.2795L11.5052 10.2189C11.4076 10.1212 11.2493 10.1212 11.1517 10.2189L10.7981 10.5724C10.7005 10.6701 10.7005 10.8284 10.7981 10.926L11.8588 11.9866C11.9564 12.0843 12.1147 12.0843 12.2123 11.9866Z" fill="white"/>
<path d="M5.84827 5.62258L6.20182 5.26903C6.29945 5.1714 6.29945 5.01311 6.20182 4.91548L5.14116 3.85482C5.04353 3.75718 4.88524 3.75718 4.78761 3.85482L4.43406 4.20837C4.33643 4.306 4.33643 4.46429 4.43406 4.56192L5.49472 5.62258C5.59235 5.72021 5.75064 5.72021 5.84827 5.62258Z" fill="white"/>
<path d="M12.5658 4.20841L12.2122 3.85485C12.1146 3.75722 11.9563 3.75722 11.8587 3.85485L10.798 4.91551C10.7004 5.01315 10.7004 5.17144 10.798 5.26907L11.1515 5.62262C11.2492 5.72025 11.4075 5.72025 11.5051 5.62262L12.5658 4.56196C12.6634 4.46433 12.6634 4.30604 12.5658 4.20841Z" fill="white"/>
<path d="M7.70711 10.1278L6.29305 8.71347L8.11617 6.89034C8.21367 6.79284 8.37211 6.79284 8.46961 6.89034L9.53023 7.95097C9.62773 8.04847 9.62773 8.2069 9.53023 8.3044L7.70711 10.1275V10.1278Z" fill="white"/>
<path d="M2.53023 14.951L1.46961 13.8903C1.37211 13.7928 1.37211 13.6344 1.46961 13.5369L5.79273 9.21378L7.2068 10.6278L2.88367 14.951C2.78617 15.0485 2.62773 15.0485 2.53023 14.951Z" fill="white"/>
</svg>
