<svg width="32" height="32" viewBox="0 0 32 32" fill="none" xmlns="http://www.w3.org/2000/svg">
<path d="M8.2551 13.268C7.9471 13.268 7.65743 13.3193 7.3861 13.422C7.1221 13.5247 6.88743 13.6897 6.6821 13.917C6.4841 14.137 6.32276 14.4303 6.1981 14.797C6.07343 15.1563 6.00376 15.6 5.9891 16.128C6.17243 15.798 6.44743 15.5487 6.8141 15.38C7.18076 15.204 7.59876 15.116 8.0681 15.116C8.77943 15.116 9.3441 15.325 9.7621 15.743C10.1874 16.1537 10.4001 16.7257 10.4001 17.459C10.4001 17.8477 10.3414 18.207 10.2241 18.537C10.1068 18.867 9.9381 19.153 9.7181 19.395C9.4981 19.6297 9.22676 19.813 8.9041 19.945C8.58143 20.077 8.21843 20.143 7.8151 20.143C6.92043 20.143 6.22743 19.8277 5.7361 19.197C5.24476 18.559 4.9991 17.646 4.9991 16.458C4.9991 15.798 5.0761 15.2187 5.2301 14.72C5.3841 14.214 5.60043 13.7923 5.8791 13.455C6.1651 13.1103 6.5061 12.85 6.9021 12.674C7.30543 12.498 7.75643 12.41 8.2551 12.41C8.57776 12.41 8.9041 12.454 9.2341 12.542C9.57143 12.6227 9.86843 12.7693 10.1251 12.982L9.7291 13.675C9.51643 13.5283 9.2781 13.4257 9.0141 13.367C8.7501 13.301 8.4971 13.268 8.2551 13.268ZM9.3881 17.547C9.3881 16.9897 9.24143 16.5863 8.9481 16.337C8.6621 16.0877 8.29543 15.963 7.8481 15.963C7.31276 15.963 6.88743 16.106 6.5721 16.392C6.25676 16.678 6.0991 17.074 6.0991 17.58C6.0991 17.8293 6.13943 18.0603 6.2201 18.273C6.30076 18.4783 6.41443 18.658 6.5611 18.812C6.70776 18.966 6.88743 19.087 7.1001 19.175C7.31276 19.2557 7.54743 19.296 7.8041 19.296C8.2881 19.296 8.6731 19.1457 8.9591 18.845C9.2451 18.537 9.3881 18.1043 9.3881 17.547ZM14.9623 20V18.339H11.3763V17.558L14.9403 12.553H15.9193V17.492H16.9863V18.339H15.9193V20H14.9623ZM14.9623 17.492V13.983L12.4873 17.492H14.9623ZM21.1526 20H20.1846L23.8256 12.553H24.7826L21.1526 20ZM26.2676 17.866C26.2676 16.854 25.9596 16.348 25.3436 16.348C24.7276 16.348 24.4196 16.854 24.4196 17.866C24.4196 18.8707 24.7276 19.373 25.3436 19.373C25.9596 19.373 26.2676 18.8707 26.2676 17.866ZM23.4956 17.866C23.4956 17.1473 23.6606 16.5937 23.9906 16.205C24.3279 15.809 24.7789 15.611 25.3436 15.611C25.9083 15.611 26.3556 15.809 26.6856 16.205C27.0229 16.5937 27.1916 17.1473 27.1916 17.866C27.1916 18.5847 27.0229 19.1383 26.6856 19.527C26.3556 19.9157 25.9083 20.11 25.3436 20.11C24.7789 20.11 24.3279 19.9157 23.9906 19.527C23.6606 19.1383 23.4956 18.5847 23.4956 17.866ZM20.6466 14.698C20.6466 13.686 20.3386 13.18 19.7226 13.18C19.1066 13.18 18.7986 13.686 18.7986 14.698C18.7986 15.7027 19.1066 16.205 19.7226 16.205C20.3386 16.205 20.6466 15.7027 20.6466 14.698ZM17.8746 14.698C17.8746 13.9793 18.0396 13.4257 18.3696 13.037C18.7069 12.641 19.1579 12.443 19.7226 12.443C20.2873 12.443 20.7346 12.641 21.0646 13.037C21.4019 13.4257 21.5706 13.9793 21.5706 14.698C21.5706 15.4167 21.4019 15.9703 21.0646 16.359C20.7346 16.7477 20.2873 16.942 19.7226 16.942C19.1579 16.942 18.7069 16.7477 18.3696 16.359C18.0396 15.9703 17.8746 15.4167 17.8746 14.698Z" fill="#494B51"/>
<rect x="4" y="26" width="24" height="2" rx="1" fill="#C9CACE"/>
<path d="M4 27C4 26.4477 4.44772 26 5 26H18C18.5523 26 19 26.4477 19 27C19 27.5523 18.5523 28 18 28H5C4.44772 28 4 27.5523 4 27Z" fill="#EDB200"/>
</svg>
