<svg width="14" height="13" viewBox="0 0 14 13" fill="none" xmlns="http://www.w3.org/2000/svg">
<path d="M0 1V11C0 11.264 0.102322 11.5042 0.269475 11.6829C0.451969 11.878 0.711741 12 1 12H6.75778C6.45697 11.5506 6.23495 11.044 6.11151 10.5H1.5V1.5L5.42953 1.50283L6.43757 3.24876C6.53166 3.41171 6.70326 3.50207 6.87891 3.5H12.5V5.46776C13.083 5.7575 13.5943 6.16996 14 6.67134V3C14 2.73598 13.8977 2.49585 13.7305 2.31711C13.548 2.12197 13.2883 2 13 2H7.44645L6.43686 0.251393C6.34357 0.0898267 6.17408 -0.000489859 6 1.99847e-06H1C0.716205 1.99847e-06 0.460022 0.11822 0.278008 0.308098C0.105811 0.487736 0 0.731513 0 1Z" fill="black"/>
<path fill-rule="evenodd" clip-rule="evenodd" d="M14 9.5C14 11.433 12.433 13 10.5 13C8.567 13 7 11.433 7 9.5C7 7.567 8.567 6 10.5 6C12.433 6 14 7.567 14 9.5ZM10 7.25C10 7.11193 10.1119 7 10.25 7H10.75C10.8881 7 11 7.11193 11 7.25V9H12.75C12.8881 9 13 9.11193 13 9.25V9.75C13 9.88807 12.8881 10 12.75 10H11V11.75C11 11.8881 10.8881 12 10.75 12H10.25C10.1119 12 10 11.8881 10 11.75V10H8.25C8.11193 10 8 9.88807 8 9.75V9.25C8 9.11193 8.11193 9 8.25 9H10V7.25Z" fill="black"/>
</svg>
