<svg width="16" height="16" viewBox="0 0 16 16" fill="none" xmlns="http://www.w3.org/2000/svg">
<path d="M7.33333 9L6.5 6.5L5.66667 9H7.33333Z" fill="#494B51"/>
<path fill-rule="evenodd" clip-rule="evenodd" d="M3 2C2.44772 2 2 2.44772 2 3V13C2 13.5523 2.44772 14 3 14H13C13.5523 14 14 13.5523 14 13V3C14 2.44772 13.5523 2 13 2H3ZM5.94302 5.17094C5.97705 5.06886 6.07258 5 6.18019 5H6.81981C6.92742 5 7.02295 5.06886 7.05698 5.17094L8.89031 10.6709C8.94427 10.8328 8.82378 11 8.65314 11H8.18019C8.07258 11 7.97705 10.9311 7.94302 10.8291L7.66667 10H5.33333L5.05698 10.8291C5.02295 10.9311 4.92742 11 4.81981 11H4.34686C4.17622 11 4.05572 10.8328 4.10969 10.6709L5.94302 5.17094ZM10 5.25C10 5.11193 10.1119 5 10.25 5H10.75C10.8881 5 11 5.11193 11 5.25V10.75C11 10.8881 10.8881 11 10.75 11H10.25C10.1119 11 10 10.8881 10 10.75V5.25Z" fill="#494B51"/>
</svg>
