<svg width="32" height="32" viewBox="0 0 32 32" fill="none" xmlns="http://www.w3.org/2000/svg">
<path d="M0.5 0.5H30C30.8284 0.5 31.5 1.17157 31.5 2V30C31.5 30.8284 30.8284 31.5 30 31.5H0.5V0.5Z" fill="#E9EAEB"/>
<path d="M13.75 9C13.8881 9 14 9.11193 14 9.25V10H12V9.25C12 9.11193 12.1119 9 12.25 9H13.75Z" fill="#494B51"/>
<path d="M15.3333 17L14.5 14.5L13.6667 17H15.3333Z" fill="#494B51"/>
<path fill-rule="evenodd" clip-rule="evenodd" d="M12 11C11.4477 11 11 11.4477 11 12V20C11 20.5523 11.4477 21 12 21H20C20.5523 21 21 20.5523 21 20V12C21 11.4477 20.5523 11 20 11H12ZM13.943 13.1709C13.977 13.0689 14.0726 13 14.1802 13H14.8198C14.9274 13 15.023 13.0689 15.057 13.1709L16.8903 18.6709C16.9443 18.8328 16.8238 19 16.6531 19H16.1802C16.0726 19 15.977 18.9311 15.943 18.8291L15.6667 18H13.3333L13.057 18.8291C13.023 18.9311 12.9274 19 12.8198 19H12.3469C12.1762 19 12.0557 18.8328 12.1097 18.6709L13.943 13.1709ZM18 13.25C18 13.1119 18.1119 13 18.25 13H18.75C18.8881 13 19 13.1119 19 13.25V18.75C19 18.8881 18.8881 19 18.75 19H18.25C18.1119 19 18 18.8881 18 18.75V13.25Z" fill="#494B51"/>
<path d="M22 14V12H22.75C22.8881 12 23 12.1119 23 12.25V13.75C23 13.8881 22.8881 14 22.75 14H22Z" fill="#494B51"/>
<path d="M22 15V17H22.75C22.8881 17 23 16.8881 23 16.75V15.25C23 15.1119 22.8881 15 22.75 15H22Z" fill="#494B51"/>
<path d="M22 20V18H22.75C22.8881 18 23 18.1119 23 18.25V19.75C23 19.8881 22.8881 20 22.75 20H22Z" fill="#494B51"/>
<path d="M20 22.75V22H18V22.75C18 22.8881 18.1119 23 18.25 23H19.75C19.8881 23 20 22.8881 20 22.75Z" fill="#494B51"/>
<path d="M15 22H17V22.75C17 22.8881 16.8881 23 16.75 23H15.25C15.1119 23 15 22.8881 15 22.75V22Z" fill="#494B51"/>
<path d="M14 22H12V22.75C12 22.8881 12.1119 23 12.25 23H13.75C13.8881 23 14 22.8881 14 22.75V22Z" fill="#494B51"/>
<path d="M10 18L10 20H9.25C9.11193 20 9 19.8881 9 19.75V18.25C9 18.1119 9.11193 18 9.25 18H10Z" fill="#494B51"/>
<path d="M10 17L10 15H9.25C9.11193 15 9 15.1119 9 15.25V16.75C9 16.8881 9.11193 17 9.25 17H10Z" fill="#494B51"/>
<path d="M10 12L10 14H9.25C9.11193 14 9 13.8881 9 13.75V12.25C9 12.1119 9.11193 12 9.25 12H10Z" fill="#494B51"/>
<path d="M15 10V9.25C15 9.11193 15.1119 9 15.25 9L16.75 9C16.8881 9 17 9.11193 17 9.25V10H15Z" fill="#494B51"/>
<path d="M20 10H18V9.25C18 9.11193 18.1119 9 18.25 9L19.75 9C19.8881 9 20 9.11193 20 9.25V10Z" fill="#494B51"/>
<path d="M0.5 0.5H30C30.8284 0.5 31.5 1.17157 31.5 2V30C31.5 30.8284 30.8284 31.5 30 31.5H0.5V0.5Z" stroke="#E2E2E4"/>
</svg>
