<svg width="10" height="10" viewBox="0 0 10 10" fill="none" xmlns="http://www.w3.org/2000/svg">
<path fill-rule="evenodd" clip-rule="evenodd" d="M5 9C7.20914 9 9 7.20914 9 5C9 2.79086 7.20914 1 5 1C2.79086 1 1 2.79086 1 5C1 7.20914 2.79086 9 5 9ZM5 10C7.76142 10 10 7.76142 10 5C10 2.23858 7.76142 0 5 0C2.23858 0 0 2.23858 0 5C0 7.76142 2.23858 10 5 10Z" fill="black"/>
<path fill-rule="evenodd" clip-rule="evenodd" d="M4.5 2.23438C4.5 2.0963 4.61193 1.98438 4.75 1.98438H5.25C5.38807 1.98438 5.5 2.0963 5.5 2.23438V4.79302L6.84033 6.13446C6.93792 6.23213 6.93785 6.39042 6.84018 6.48801L6.48648 6.84142C6.38881 6.93901 6.23052 6.93894 6.13293 6.84127L4.57315 5.2802C4.52631 5.23332 4.5 5.16976 4.5 5.10349V2.23438Z" fill="black"/>
</svg>
