<svg width="32" height="32" viewBox="0 0 32 32" fill="none" xmlns="http://www.w3.org/2000/svg">
<path fill-rule="evenodd" clip-rule="evenodd" d="M17.5206 12.2992C17.8195 11.9497 18 11.4959 18 11C18 9.89543 17.1046 9 16 9C14.8954 9 14 9.89543 14 11C14 11.4959 14.1805 11.9497 14.4794 12.2992C13.0244 12.8976 12 14.3292 12 16V19C12 19.5523 12.4477 20 13 20H13.25C13.3881 20 13.5 19.8881 13.5 19.75V19.25C13.5 19.1119 13.3881 19 13.25 19H13V16C13 14.3431 14.3431 13 16 13C17.6569 13 19 14.3431 19 16V19H18.75C18.6119 19 18.5 19.1119 18.5 19.25V19.75C18.5 19.8881 18.6119 20 18.75 20H19C19.5523 20 20 19.5523 20 19V16C20 14.3292 18.9756 12.8976 17.5206 12.2992ZM16 12C16.5523 12 17 11.5523 17 11C17 10.4477 16.5523 10 16 10C15.4477 10 15 10.4477 15 11C15 11.5523 15.4477 12 16 12Z" fill="#494B51"/>
<path d="M14 16.5C14 16.2239 14.2239 16 14.5 16C14.7761 16 15 16.2239 15 16.5V22H17V16.5C17 16.2239 17.2239 16 17.5 16C17.7761 16 18 16.2239 18 16.5V22C18 22.5523 17.5523 23 17 23H15C14.4477 23 14 22.5523 14 22V16.5Z" fill="#494B51"/>
<path d="M0.5 2C0.5 1.17157 1.17157 0.5 2 0.5H31.5V31.5H2C1.17157 31.5 0.5 30.8284 0.5 30V2Z" stroke="#E2E2E4"/>
</svg>
