<svg width="12" height="10" viewBox="0 0 12 10" fill="none" xmlns="http://www.w3.org/2000/svg">
<path fill-rule="evenodd" clip-rule="evenodd" d="M0 0.5C0 0.223858 0.223858 0 0.5 0H11.5C11.7761 0 12 0.223858 12 0.5V9.5C12 9.77614 11.7761 10 11.5 10H0.5C0.223858 10 0 9.77614 0 9.5V0.5ZM1 1V9H11V1H1Z" fill="black"/>
<path d="M8.85001 5C8.75654 4.90839 8.63088 4.85707 8.5 4.85707C8.36912 4.85707 8.24346 4.90839 8.14999 5L6.95001 6.2L4.85001 4.11C4.80512 4.06217 4.7509 4.02405 4.6907 3.99799C4.63051 3.97193 4.5656 3.95848 4.5 3.95848C4.4344 3.95848 4.36949 3.97193 4.3093 3.99799C4.2491 4.02405 4.19488 4.06217 4.14999 4.11L2 6.28999V7.71001L4.5 5.21001L7.5 8.21001L8.20999 7.5L7.64999 6.95L8.5 6.10001L10 7.60001V6.19L8.85001 5Z" fill="black"/>
<path fill-rule="evenodd" clip-rule="evenodd" d="M7 3C7 2.44772 7.44772 2 8 2C8.55228 2 9 2.44772 9 3C9 3.55228 8.55228 4 8 4C7.44772 4 7 3.55228 7 3Z" fill="black"/>
</svg>
