<svg width="284" height="124" viewBox="0 0 284 124" fill="none" xmlns="http://www.w3.org/2000/svg">
<rect y="1" width="284" height="40" fill="#F9F9F9"/>
<rect y="41" width="284" height="1" fill="#E9EAEB"/>
<path d="M35.927 24.34C36.5797 24.34 37.1003 24.2043 37.489 23.933C37.8777 23.6543 38.072 23.2913 38.072 22.844C38.072 22.4333 37.8997 22.129 37.555 21.931C37.2177 21.733 36.6347 21.5863 35.806 21.491C34.7647 21.3737 34.0167 21.15 33.562 20.82C33.1073 20.49 32.88 19.995 32.88 19.335C32.88 18.7263 33.1587 18.2093 33.716 17.784C34.2733 17.3587 34.9883 17.146 35.861 17.146C36.4403 17.146 36.9683 17.234 37.445 17.41C37.929 17.586 38.391 17.861 38.831 18.235L38.325 18.95C37.9657 18.6347 37.5697 18.3927 37.137 18.224C36.7117 18.048 36.2827 17.96 35.85 17.96C35.2487 17.96 34.761 18.0847 34.387 18.334C34.0203 18.5833 33.837 18.8987 33.837 19.28C33.837 19.6833 33.9983 19.984 34.321 20.182C34.651 20.38 35.1973 20.5193 35.96 20.6C37.0527 20.7247 37.8373 20.9557 38.314 21.293C38.7907 21.623 39.029 22.1217 39.029 22.789C39.029 23.4563 38.7393 24.0173 38.16 24.472C37.588 24.9267 36.84 25.154 35.916 25.154C35.2267 25.154 34.6107 25.0513 34.068 24.846C33.5327 24.6407 33.034 24.318 32.572 23.878L33.089 23.174C33.5217 23.57 33.969 23.8633 34.431 24.054C34.893 24.2447 35.3917 24.34 35.927 24.34ZM43.3279 24.461C43.6725 24.461 43.9915 24.3913 44.2849 24.252C44.5782 24.1127 44.8532 23.9037 45.1099 23.625L45.6049 24.131C45.2969 24.4903 44.9485 24.758 44.5599 24.934C44.1712 25.1027 43.7349 25.187 43.2509 25.187C42.4369 25.187 41.7805 24.9267 41.2819 24.406C40.7832 23.878 40.5339 23.1887 40.5339 22.338C40.5339 21.5387 40.7979 20.8677 41.3259 20.325C41.8539 19.775 42.4955 19.5 43.2509 19.5C43.9989 19.5 44.6075 19.753 45.0769 20.259C45.5535 20.7577 45.7919 21.4177 45.7919 22.239C45.7919 22.305 45.7882 22.3673 45.7809 22.426C45.7809 22.4847 45.7772 22.5433 45.7699 22.602H41.4469C41.4982 23.1593 41.6999 23.6103 42.0519 23.955C42.4039 24.2923 42.8292 24.461 43.3279 24.461ZM43.2509 20.215C42.7889 20.215 42.3892 20.3763 42.0519 20.699C41.7219 21.0217 41.5239 21.447 41.4579 21.975H44.8899C44.8459 21.4323 44.6735 21.0033 44.3729 20.688C44.0795 20.3727 43.7055 20.215 43.2509 20.215ZM47.4628 16.97H48.3978V25H47.4628V16.97ZM52.8406 24.461C53.1852 24.461 53.5042 24.3913 53.7976 24.252C54.0909 24.1127 54.3659 23.9037 54.6226 23.625L55.1176 24.131C54.8096 24.4903 54.4612 24.758 54.0726 24.934C53.6839 25.1027 53.2476 25.187 52.7636 25.187C51.9496 25.187 51.2932 24.9267 50.7946 24.406C50.2959 23.878 50.0466 23.1887 50.0466 22.338C50.0466 21.5387 50.3106 20.8677 50.8386 20.325C51.3666 19.775 52.0082 19.5 52.7636 19.5C53.5116 19.5 54.1202 19.753 54.5896 20.259C55.0662 20.7577 55.3046 21.4177 55.3046 22.239C55.3046 22.305 55.3009 22.3673 55.2936 22.426C55.2936 22.4847 55.2899 22.5433 55.2826 22.602H50.9596C51.0109 23.1593 51.2126 23.6103 51.5646 23.955C51.9166 24.2923 52.3419 24.461 52.8406 24.461ZM52.7636 20.215C52.3016 20.215 51.9019 20.3763 51.5646 20.699C51.2346 21.0217 51.0366 21.447 50.9706 21.975H54.4026C54.3586 21.4323 54.1862 21.0033 53.8856 20.688C53.5922 20.3727 53.2182 20.215 52.7636 20.215ZM59.3734 25.187C58.5594 25.187 57.8994 24.9267 57.3934 24.406C56.8874 23.8853 56.6344 23.1997 56.6344 22.349C56.6344 21.5497 56.9021 20.875 57.4374 20.325C57.9801 19.775 58.6474 19.5 59.4394 19.5C59.9894 19.5 60.4588 19.6247 60.8474 19.874C61.2361 20.116 61.5404 20.479 61.7604 20.963L61.0344 21.381C60.8731 21.007 60.6568 20.7283 60.3854 20.545C60.1214 20.3543 59.7988 20.259 59.4174 20.259C58.9041 20.259 58.4678 20.4643 58.1084 20.875C57.7564 21.2783 57.5804 21.7733 57.5804 22.36C57.5804 22.9467 57.7564 23.438 58.1084 23.834C58.4604 24.2227 58.8968 24.417 59.4174 24.417C59.7694 24.417 60.0921 24.3253 60.3854 24.142C60.6861 23.9513 60.9281 23.6873 61.1114 23.35L61.8044 23.735C61.5844 24.1897 61.2581 24.5453 60.8254 24.802C60.4001 25.0587 59.9161 25.187 59.3734 25.187ZM63.8532 23.306V20.435H62.8192V19.687H63.8532V18.059H64.7772V19.687H66.3172V20.435H64.7772V23.229C64.7772 23.5663 64.8542 23.8193 65.0082 23.988C65.1695 24.1567 65.4115 24.241 65.7342 24.241H66.3172V25H65.5912C64.9899 25 64.5499 24.8643 64.2712 24.593C63.9925 24.3217 63.8532 23.8927 63.8532 23.306ZM70.1649 16.97H71.0999V25H70.1649V16.97ZM77.4567 25H76.5767V23.79C76.3567 24.2153 76.056 24.5453 75.6747 24.78C75.3007 25.0147 74.879 25.132 74.4097 25.132C73.8817 25.132 73.449 24.9853 73.1117 24.692C72.7744 24.3987 72.6057 24.021 72.6057 23.559C72.6057 23.0383 72.8037 22.635 73.1997 22.349C73.603 22.0557 74.1677 21.909 74.8937 21.909H76.5547V21.832C76.5547 21.326 76.43 20.9373 76.1807 20.666C75.9387 20.3947 75.5904 20.259 75.1357 20.259C74.8717 20.259 74.5967 20.3213 74.3107 20.446C74.0247 20.5633 73.7424 20.7357 73.4637 20.963L73.0567 20.358C73.3794 20.072 73.7204 19.863 74.0797 19.731C74.439 19.5917 74.8314 19.522 75.2567 19.522C75.9534 19.522 76.4924 19.7273 76.8737 20.138C77.2624 20.5487 77.4567 21.1243 77.4567 21.865V25ZM76.5547 22.525H74.9267C74.4647 22.525 74.1127 22.613 73.8707 22.789C73.6287 22.9577 73.5077 23.2033 73.5077 23.526C73.5077 23.7973 73.6104 24.021 73.8157 24.197C74.021 24.3657 74.2924 24.45 74.6297 24.45C75.1357 24.45 75.5757 24.2667 75.9497 23.9C76.3237 23.5333 76.5254 23.075 76.5547 22.525ZM80.1381 25H79.2251V16.97H80.1601V20.743C80.3875 20.369 80.6845 20.0793 81.0511 19.874C81.4178 19.6613 81.8138 19.555 82.2391 19.555C82.9358 19.555 83.5225 19.8153 83.9991 20.336C84.4758 20.8567 84.7141 21.5203 84.7141 22.327C84.7141 23.1263 84.4648 23.7937 83.9661 24.329C83.4675 24.8643 82.8625 25.132 82.1511 25.132C81.7331 25.132 81.3481 25.0257 80.9961 24.813C80.6441 24.6003 80.3581 24.307 80.1381 23.933V25ZM81.9971 20.314C81.4911 20.314 81.0511 20.5157 80.6771 20.919C80.3031 21.3223 80.1161 21.8063 80.1161 22.371C80.1161 22.921 80.2958 23.3903 80.6551 23.779C81.0218 24.1677 81.4581 24.362 81.9641 24.362C82.4995 24.362 82.9358 24.1787 83.2731 23.812C83.6105 23.4453 83.7791 22.9577 83.7791 22.349C83.7791 21.7403 83.6141 21.249 83.2841 20.875C82.9541 20.501 82.5251 20.314 81.9971 20.314ZM88.8259 24.461C89.1706 24.461 89.4896 24.3913 89.7829 24.252C90.0762 24.1127 90.3512 23.9037 90.6079 23.625L91.1029 24.131C90.7949 24.4903 90.4466 24.758 90.0579 24.934C89.6692 25.1027 89.2329 25.187 88.7489 25.187C87.9349 25.187 87.2786 24.9267 86.7799 24.406C86.2812 23.878 86.0319 23.1887 86.0319 22.338C86.0319 21.5387 86.2959 20.8677 86.8239 20.325C87.3519 19.775 87.9936 19.5 88.7489 19.5C89.4969 19.5 90.1056 19.753 90.5749 20.259C91.0516 20.7577 91.2899 21.4177 91.2899 22.239C91.2899 22.305 91.2862 22.3673 91.2789 22.426C91.2789 22.4847 91.2752 22.5433 91.2679 22.602H86.9449C86.9962 23.1593 87.1979 23.6103 87.5499 23.955C87.9019 24.2923 88.3272 24.461 88.8259 24.461ZM88.7489 20.215C88.2869 20.215 87.8872 20.3763 87.5499 20.699C87.2199 21.0217 87.0219 21.447 86.9559 21.975H90.3879C90.3439 21.4323 90.1716 21.0033 89.8709 20.688C89.5776 20.3727 89.2036 20.215 88.7489 20.215ZM92.9608 16.97H93.8958V25H92.9608V16.97Z" fill="#494B51"/>
<path d="M267.998 22.2905L264.78 19.0732C264.683 18.9756 264.524 18.9756 264.427 19.0732L264.073 19.4268C263.976 19.5244 263.976 19.6827 264.073 19.7803L267.821 23.5279C267.845 23.5522 267.873 23.5705 267.903 23.5827C267.994 23.6194 268.101 23.6012 268.174 23.5279L271.922 19.7803C272.02 19.6827 272.02 19.5244 271.922 19.4268L271.568 19.0732C271.471 18.9756 271.312 18.9756 271.215 19.0732L267.998 22.2905Z" fill="#494B51"/>
<path fill-rule="evenodd" clip-rule="evenodd" d="M21 16H11L11 26H21V16ZM11 15C10.4477 15 10 15.4477 10 16V26C10 26.5523 10.4477 27 11 27H21C21.5523 27 22 26.5523 22 26V16C22 15.4477 21.5523 15 21 15H11Z" fill="#494B51"/>
<rect width="284" height="1" fill="#E9EAEB"/>
<rect y="42" width="284" height="40" fill="#F9F9F9"/>
<rect y="82" width="284" height="1" fill="#E9EAEB"/>
<path d="M35.927 65.34C36.5797 65.34 37.1003 65.2043 37.489 64.933C37.8777 64.6543 38.072 64.2913 38.072 63.844C38.072 63.4333 37.8997 63.129 37.555 62.931C37.2177 62.733 36.6347 62.5863 35.806 62.491C34.7647 62.3737 34.0167 62.15 33.562 61.82C33.1073 61.49 32.88 60.995 32.88 60.335C32.88 59.7263 33.1587 59.2093 33.716 58.784C34.2733 58.3587 34.9883 58.146 35.861 58.146C36.4403 58.146 36.9683 58.234 37.445 58.41C37.929 58.586 38.391 58.861 38.831 59.235L38.325 59.95C37.9657 59.6347 37.5697 59.3927 37.137 59.224C36.7117 59.048 36.2827 58.96 35.85 58.96C35.2487 58.96 34.761 59.0847 34.387 59.334C34.0203 59.5833 33.837 59.8987 33.837 60.28C33.837 60.6833 33.9983 60.984 34.321 61.182C34.651 61.38 35.1973 61.5193 35.96 61.6C37.0527 61.7247 37.8373 61.9557 38.314 62.293C38.7907 62.623 39.029 63.1217 39.029 63.789C39.029 64.4563 38.7393 65.0173 38.16 65.472C37.588 65.9267 36.84 66.154 35.916 66.154C35.2267 66.154 34.6107 66.0513 34.068 65.846C33.5327 65.6407 33.034 65.318 32.572 64.878L33.089 64.174C33.5217 64.57 33.969 64.8633 34.431 65.054C34.893 65.2447 35.3917 65.34 35.927 65.34ZM43.3279 65.461C43.6725 65.461 43.9915 65.3913 44.2849 65.252C44.5782 65.1127 44.8532 64.9037 45.1099 64.625L45.6049 65.131C45.2969 65.4903 44.9485 65.758 44.5599 65.934C44.1712 66.1027 43.7349 66.187 43.2509 66.187C42.4369 66.187 41.7805 65.9267 41.2819 65.406C40.7832 64.878 40.5339 64.1887 40.5339 63.338C40.5339 62.5387 40.7979 61.8677 41.3259 61.325C41.8539 60.775 42.4955 60.5 43.2509 60.5C43.9989 60.5 44.6075 60.753 45.0769 61.259C45.5535 61.7577 45.7919 62.4177 45.7919 63.239C45.7919 63.305 45.7882 63.3673 45.7809 63.426C45.7809 63.4847 45.7772 63.5433 45.7699 63.602H41.4469C41.4982 64.1593 41.6999 64.6103 42.0519 64.955C42.4039 65.2923 42.8292 65.461 43.3279 65.461ZM43.2509 61.215C42.7889 61.215 42.3892 61.3763 42.0519 61.699C41.7219 62.0217 41.5239 62.447 41.4579 62.975H44.8899C44.8459 62.4323 44.6735 62.0033 44.3729 61.688C44.0795 61.3727 43.7055 61.215 43.2509 61.215ZM47.4628 57.97H48.3978V66H47.4628V57.97ZM52.8406 65.461C53.1852 65.461 53.5042 65.3913 53.7976 65.252C54.0909 65.1127 54.3659 64.9037 54.6226 64.625L55.1176 65.131C54.8096 65.4903 54.4612 65.758 54.0726 65.934C53.6839 66.1027 53.2476 66.187 52.7636 66.187C51.9496 66.187 51.2932 65.9267 50.7946 65.406C50.2959 64.878 50.0466 64.1887 50.0466 63.338C50.0466 62.5387 50.3106 61.8677 50.8386 61.325C51.3666 60.775 52.0082 60.5 52.7636 60.5C53.5116 60.5 54.1202 60.753 54.5896 61.259C55.0662 61.7577 55.3046 62.4177 55.3046 63.239C55.3046 63.305 55.3009 63.3673 55.2936 63.426C55.2936 63.4847 55.2899 63.5433 55.2826 63.602H50.9596C51.0109 64.1593 51.2126 64.6103 51.5646 64.955C51.9166 65.2923 52.3419 65.461 52.8406 65.461ZM52.7636 61.215C52.3016 61.215 51.9019 61.3763 51.5646 61.699C51.2346 62.0217 51.0366 62.447 50.9706 62.975H54.4026C54.3586 62.4323 54.1862 62.0033 53.8856 61.688C53.5922 61.3727 53.2182 61.215 52.7636 61.215ZM59.3734 66.187C58.5594 66.187 57.8994 65.9267 57.3934 65.406C56.8874 64.8853 56.6344 64.1997 56.6344 63.349C56.6344 62.5497 56.9021 61.875 57.4374 61.325C57.9801 60.775 58.6474 60.5 59.4394 60.5C59.9894 60.5 60.4588 60.6247 60.8474 60.874C61.2361 61.116 61.5404 61.479 61.7604 61.963L61.0344 62.381C60.8731 62.007 60.6568 61.7283 60.3854 61.545C60.1214 61.3543 59.7988 61.259 59.4174 61.259C58.9041 61.259 58.4678 61.4643 58.1084 61.875C57.7564 62.2783 57.5804 62.7733 57.5804 63.36C57.5804 63.9467 57.7564 64.438 58.1084 64.834C58.4604 65.2227 58.8968 65.417 59.4174 65.417C59.7694 65.417 60.0921 65.3253 60.3854 65.142C60.6861 64.9513 60.9281 64.6873 61.1114 64.35L61.8044 64.735C61.5844 65.1897 61.2581 65.5453 60.8254 65.802C60.4001 66.0587 59.9161 66.187 59.3734 66.187ZM63.8532 64.306V61.435H62.8192V60.687H63.8532V59.059H64.7772V60.687H66.3172V61.435H64.7772V64.229C64.7772 64.5663 64.8542 64.8193 65.0082 64.988C65.1695 65.1567 65.4115 65.241 65.7342 65.241H66.3172V66H65.5912C64.9899 66 64.5499 65.8643 64.2712 65.593C63.9925 65.3217 63.8532 64.8927 63.8532 64.306ZM70.1649 57.97H71.0999V66H70.1649V57.97ZM77.4567 66H76.5767V64.79C76.3567 65.2153 76.056 65.5453 75.6747 65.78C75.3007 66.0147 74.879 66.132 74.4097 66.132C73.8817 66.132 73.449 65.9853 73.1117 65.692C72.7744 65.3987 72.6057 65.021 72.6057 64.559C72.6057 64.0383 72.8037 63.635 73.1997 63.349C73.603 63.0557 74.1677 62.909 74.8937 62.909H76.5547V62.832C76.5547 62.326 76.43 61.9373 76.1807 61.666C75.9387 61.3947 75.5904 61.259 75.1357 61.259C74.8717 61.259 74.5967 61.3213 74.3107 61.446C74.0247 61.5633 73.7424 61.7357 73.4637 61.963L73.0567 61.358C73.3794 61.072 73.7204 60.863 74.0797 60.731C74.439 60.5917 74.8314 60.522 75.2567 60.522C75.9534 60.522 76.4924 60.7273 76.8737 61.138C77.2624 61.5487 77.4567 62.1243 77.4567 62.865V66ZM76.5547 63.525H74.9267C74.4647 63.525 74.1127 63.613 73.8707 63.789C73.6287 63.9577 73.5077 64.2033 73.5077 64.526C73.5077 64.7973 73.6104 65.021 73.8157 65.197C74.021 65.3657 74.2924 65.45 74.6297 65.45C75.1357 65.45 75.5757 65.2667 75.9497 64.9C76.3237 64.5333 76.5254 64.075 76.5547 63.525ZM80.1381 66H79.2251V57.97H80.1601V61.743C80.3875 61.369 80.6845 61.0793 81.0511 60.874C81.4178 60.6613 81.8138 60.555 82.2391 60.555C82.9358 60.555 83.5225 60.8153 83.9991 61.336C84.4758 61.8567 84.7141 62.5203 84.7141 63.327C84.7141 64.1263 84.4648 64.7937 83.9661 65.329C83.4675 65.8643 82.8625 66.132 82.1511 66.132C81.7331 66.132 81.3481 66.0257 80.9961 65.813C80.6441 65.6003 80.3581 65.307 80.1381 64.933V66ZM81.9971 61.314C81.4911 61.314 81.0511 61.5157 80.6771 61.919C80.3031 62.3223 80.1161 62.8063 80.1161 63.371C80.1161 63.921 80.2958 64.3903 80.6551 64.779C81.0218 65.1677 81.4581 65.362 81.9641 65.362C82.4995 65.362 82.9358 65.1787 83.2731 64.812C83.6105 64.4453 83.7791 63.9577 83.7791 63.349C83.7791 62.7403 83.6141 62.249 83.2841 61.875C82.9541 61.501 82.5251 61.314 81.9971 61.314ZM88.8259 65.461C89.1706 65.461 89.4896 65.3913 89.7829 65.252C90.0762 65.1127 90.3512 64.9037 90.6079 64.625L91.1029 65.131C90.7949 65.4903 90.4466 65.758 90.0579 65.934C89.6692 66.1027 89.2329 66.187 88.7489 66.187C87.9349 66.187 87.2786 65.9267 86.7799 65.406C86.2812 64.878 86.0319 64.1887 86.0319 63.338C86.0319 62.5387 86.2959 61.8677 86.8239 61.325C87.3519 60.775 87.9936 60.5 88.7489 60.5C89.4969 60.5 90.1056 60.753 90.5749 61.259C91.0516 61.7577 91.2899 62.4177 91.2899 63.239C91.2899 63.305 91.2862 63.3673 91.2789 63.426C91.2789 63.4847 91.2752 63.5433 91.2679 63.602H86.9449C86.9962 64.1593 87.1979 64.6103 87.5499 64.955C87.9019 65.2923 88.3272 65.461 88.8259 65.461ZM88.7489 61.215C88.2869 61.215 87.8872 61.3763 87.5499 61.699C87.2199 62.0217 87.0219 62.447 86.9559 62.975H90.3879C90.3439 62.4323 90.1716 62.0033 89.8709 61.688C89.5776 61.3727 89.2036 61.215 88.7489 61.215ZM92.9608 57.97H93.8958V66H92.9608V57.97Z" fill="#494B51"/>
<path d="M267.998 63.2905L264.78 60.0732C264.683 59.9756 264.524 59.9756 264.427 60.0732L264.073 60.4268C263.976 60.5244 263.976 60.6827 264.073 60.7803L267.821 64.5279C267.845 64.5522 267.873 64.5705 267.903 64.5827C267.994 64.6194 268.101 64.6012 268.174 64.5279L271.922 60.7803C272.02 60.6827 272.02 60.5244 271.922 60.4268L271.568 60.0732C271.471 59.9756 271.312 59.9756 271.215 60.0732L267.998 63.2905Z" fill="#494B51"/>
<path fill-rule="evenodd" clip-rule="evenodd" d="M21 57H11L11 67H21V57ZM11 56C10.4477 56 10 56.4477 10 57V67C10 67.5523 10.4477 68 11 68H21C21.5523 68 22 67.5523 22 67V57C22 56.4477 21.5523 56 21 56H11Z" fill="#494B51"/>
<rect y="41" width="284" height="1" fill="#E9EAEB"/>
<rect y="83" width="284" height="40" fill="#F9F9F9"/>
<rect y="123" width="284" height="1" fill="#E9EAEB"/>
<path d="M35.927 106.34C36.5797 106.34 37.1003 106.204 37.489 105.933C37.8777 105.654 38.072 105.291 38.072 104.844C38.072 104.433 37.8997 104.129 37.555 103.931C37.2177 103.733 36.6347 103.586 35.806 103.491C34.7647 103.374 34.0167 103.15 33.562 102.82C33.1073 102.49 32.88 101.995 32.88 101.335C32.88 100.726 33.1587 100.209 33.716 99.784C34.2733 99.3587 34.9883 99.146 35.861 99.146C36.4403 99.146 36.9683 99.234 37.445 99.41C37.929 99.586 38.391 99.861 38.831 100.235L38.325 100.95C37.9657 100.635 37.5697 100.393 37.137 100.224C36.7117 100.048 36.2827 99.96 35.85 99.96C35.2487 99.96 34.761 100.085 34.387 100.334C34.0203 100.583 33.837 100.899 33.837 101.28C33.837 101.683 33.9983 101.984 34.321 102.182C34.651 102.38 35.1973 102.519 35.96 102.6C37.0527 102.725 37.8373 102.956 38.314 103.293C38.7907 103.623 39.029 104.122 39.029 104.789C39.029 105.456 38.7393 106.017 38.16 106.472C37.588 106.927 36.84 107.154 35.916 107.154C35.2267 107.154 34.6107 107.051 34.068 106.846C33.5327 106.641 33.034 106.318 32.572 105.878L33.089 105.174C33.5217 105.57 33.969 105.863 34.431 106.054C34.893 106.245 35.3917 106.34 35.927 106.34ZM43.3279 106.461C43.6725 106.461 43.9915 106.391 44.2849 106.252C44.5782 106.113 44.8532 105.904 45.1099 105.625L45.6049 106.131C45.2969 106.49 44.9485 106.758 44.5599 106.934C44.1712 107.103 43.7349 107.187 43.2509 107.187C42.4369 107.187 41.7805 106.927 41.2819 106.406C40.7832 105.878 40.5339 105.189 40.5339 104.338C40.5339 103.539 40.7979 102.868 41.3259 102.325C41.8539 101.775 42.4955 101.5 43.2509 101.5C43.9989 101.5 44.6075 101.753 45.0769 102.259C45.5535 102.758 45.7919 103.418 45.7919 104.239C45.7919 104.305 45.7882 104.367 45.7809 104.426C45.7809 104.485 45.7772 104.543 45.7699 104.602H41.4469C41.4982 105.159 41.6999 105.61 42.0519 105.955C42.4039 106.292 42.8292 106.461 43.3279 106.461ZM43.2509 102.215C42.7889 102.215 42.3892 102.376 42.0519 102.699C41.7219 103.022 41.5239 103.447 41.4579 103.975H44.8899C44.8459 103.432 44.6735 103.003 44.3729 102.688C44.0795 102.373 43.7055 102.215 43.2509 102.215ZM47.4628 98.97H48.3978V107H47.4628V98.97ZM52.8406 106.461C53.1852 106.461 53.5042 106.391 53.7976 106.252C54.0909 106.113 54.3659 105.904 54.6226 105.625L55.1176 106.131C54.8096 106.49 54.4612 106.758 54.0726 106.934C53.6839 107.103 53.2476 107.187 52.7636 107.187C51.9496 107.187 51.2932 106.927 50.7946 106.406C50.2959 105.878 50.0466 105.189 50.0466 104.338C50.0466 103.539 50.3106 102.868 50.8386 102.325C51.3666 101.775 52.0082 101.5 52.7636 101.5C53.5116 101.5 54.1202 101.753 54.5896 102.259C55.0662 102.758 55.3046 103.418 55.3046 104.239C55.3046 104.305 55.3009 104.367 55.2936 104.426C55.2936 104.485 55.2899 104.543 55.2826 104.602H50.9596C51.0109 105.159 51.2126 105.61 51.5646 105.955C51.9166 106.292 52.3419 106.461 52.8406 106.461ZM52.7636 102.215C52.3016 102.215 51.9019 102.376 51.5646 102.699C51.2346 103.022 51.0366 103.447 50.9706 103.975H54.4026C54.3586 103.432 54.1862 103.003 53.8856 102.688C53.5922 102.373 53.2182 102.215 52.7636 102.215ZM59.3734 107.187C58.5594 107.187 57.8994 106.927 57.3934 106.406C56.8874 105.885 56.6344 105.2 56.6344 104.349C56.6344 103.55 56.9021 102.875 57.4374 102.325C57.9801 101.775 58.6474 101.5 59.4394 101.5C59.9894 101.5 60.4588 101.625 60.8474 101.874C61.2361 102.116 61.5404 102.479 61.7604 102.963L61.0344 103.381C60.8731 103.007 60.6568 102.728 60.3854 102.545C60.1214 102.354 59.7988 102.259 59.4174 102.259C58.9041 102.259 58.4678 102.464 58.1084 102.875C57.7564 103.278 57.5804 103.773 57.5804 104.36C57.5804 104.947 57.7564 105.438 58.1084 105.834C58.4604 106.223 58.8968 106.417 59.4174 106.417C59.7694 106.417 60.0921 106.325 60.3854 106.142C60.6861 105.951 60.9281 105.687 61.1114 105.35L61.8044 105.735C61.5844 106.19 61.2581 106.545 60.8254 106.802C60.4001 107.059 59.9161 107.187 59.3734 107.187ZM63.8532 105.306V102.435H62.8192V101.687H63.8532V100.059H64.7772V101.687H66.3172V102.435H64.7772V105.229C64.7772 105.566 64.8542 105.819 65.0082 105.988C65.1695 106.157 65.4115 106.241 65.7342 106.241H66.3172V107H65.5912C64.9899 107 64.5499 106.864 64.2712 106.593C63.9925 106.322 63.8532 105.893 63.8532 105.306ZM70.1649 98.97H71.0999V107H70.1649V98.97ZM77.4567 107H76.5767V105.79C76.3567 106.215 76.056 106.545 75.6747 106.78C75.3007 107.015 74.879 107.132 74.4097 107.132C73.8817 107.132 73.449 106.985 73.1117 106.692C72.7744 106.399 72.6057 106.021 72.6057 105.559C72.6057 105.038 72.8037 104.635 73.1997 104.349C73.603 104.056 74.1677 103.909 74.8937 103.909H76.5547V103.832C76.5547 103.326 76.43 102.937 76.1807 102.666C75.9387 102.395 75.5904 102.259 75.1357 102.259C74.8717 102.259 74.5967 102.321 74.3107 102.446C74.0247 102.563 73.7424 102.736 73.4637 102.963L73.0567 102.358C73.3794 102.072 73.7204 101.863 74.0797 101.731C74.439 101.592 74.8314 101.522 75.2567 101.522C75.9534 101.522 76.4924 101.727 76.8737 102.138C77.2624 102.549 77.4567 103.124 77.4567 103.865V107ZM76.5547 104.525H74.9267C74.4647 104.525 74.1127 104.613 73.8707 104.789C73.6287 104.958 73.5077 105.203 73.5077 105.526C73.5077 105.797 73.6104 106.021 73.8157 106.197C74.021 106.366 74.2924 106.45 74.6297 106.45C75.1357 106.45 75.5757 106.267 75.9497 105.9C76.3237 105.533 76.5254 105.075 76.5547 104.525ZM80.1381 107H79.2251V98.97H80.1601V102.743C80.3875 102.369 80.6845 102.079 81.0511 101.874C81.4178 101.661 81.8138 101.555 82.2391 101.555C82.9358 101.555 83.5225 101.815 83.9991 102.336C84.4758 102.857 84.7141 103.52 84.7141 104.327C84.7141 105.126 84.4648 105.794 83.9661 106.329C83.4675 106.864 82.8625 107.132 82.1511 107.132C81.7331 107.132 81.3481 107.026 80.9961 106.813C80.6441 106.6 80.3581 106.307 80.1381 105.933V107ZM81.9971 102.314C81.4911 102.314 81.0511 102.516 80.6771 102.919C80.3031 103.322 80.1161 103.806 80.1161 104.371C80.1161 104.921 80.2958 105.39 80.6551 105.779C81.0218 106.168 81.4581 106.362 81.9641 106.362C82.4995 106.362 82.9358 106.179 83.2731 105.812C83.6105 105.445 83.7791 104.958 83.7791 104.349C83.7791 103.74 83.6141 103.249 83.2841 102.875C82.9541 102.501 82.5251 102.314 81.9971 102.314ZM88.8259 106.461C89.1706 106.461 89.4896 106.391 89.7829 106.252C90.0762 106.113 90.3512 105.904 90.6079 105.625L91.1029 106.131C90.7949 106.49 90.4466 106.758 90.0579 106.934C89.6692 107.103 89.2329 107.187 88.7489 107.187C87.9349 107.187 87.2786 106.927 86.7799 106.406C86.2812 105.878 86.0319 105.189 86.0319 104.338C86.0319 103.539 86.2959 102.868 86.8239 102.325C87.3519 101.775 87.9936 101.5 88.7489 101.5C89.4969 101.5 90.1056 101.753 90.5749 102.259C91.0516 102.758 91.2899 103.418 91.2899 104.239C91.2899 104.305 91.2862 104.367 91.2789 104.426C91.2789 104.485 91.2752 104.543 91.2679 104.602H86.9449C86.9962 105.159 87.1979 105.61 87.5499 105.955C87.9019 106.292 88.3272 106.461 88.8259 106.461ZM88.7489 102.215C88.2869 102.215 87.8872 102.376 87.5499 102.699C87.2199 103.022 87.0219 103.447 86.9559 103.975H90.3879C90.3439 103.432 90.1716 103.003 89.8709 102.688C89.5776 102.373 89.2036 102.215 88.7489 102.215ZM92.9608 98.97H93.8958V107H92.9608V98.97Z" fill="#494B51"/>
<path d="M267.998 104.29L264.78 101.073C264.683 100.976 264.524 100.976 264.427 101.073L264.073 101.427C263.976 101.524 263.976 101.683 264.073 101.78L267.821 105.528C267.845 105.552 267.873 105.571 267.903 105.583C267.994 105.619 268.101 105.601 268.174 105.528L271.922 101.78C272.02 101.683 272.02 101.524 271.922 101.427L271.568 101.073C271.471 100.976 271.312 100.976 271.215 101.073L267.998 104.29Z" fill="#494B51"/>
<path fill-rule="evenodd" clip-rule="evenodd" d="M21 98H11L11 108H21V98ZM11 97C10.4477 97 10 97.4477 10 98V108C10 108.552 10.4477 109 11 109H21C21.5523 109 22 108.552 22 108V98C22 97.4477 21.5523 97 21 97H11Z" fill="#494B51"/>
<rect y="82" width="284" height="1" fill="#E9EAEB"/>
</svg>
