<svg width="168" height="32" viewBox="0 0 168 32" fill="none" xmlns="http://www.w3.org/2000/svg">
<path d="M10.724 18.972L9.908 21H8.288L11.804 12.576H13.784L17.288 21H15.62L14.804 18.972H10.724ZM12.764 13.884L11.204 17.748H14.312L12.764 13.884ZM18.6282 15.072H20.0442V16.152C20.2762 15.76 20.5722 15.46 20.9322 15.252C21.2922 15.036 21.6922 14.928 22.1322 14.928C22.8042 14.928 23.3362 15.148 23.7282 15.588C24.1282 16.028 24.3282 16.616 24.3282 17.352V21H22.8522V17.484C22.8522 17.068 22.7402 16.74 22.5162 16.5C22.3002 16.252 22.0002 16.128 21.6162 16.128C21.1682 16.128 20.8042 16.308 20.5242 16.668C20.2442 17.02 20.1042 17.476 20.1042 18.036V21H18.6282V15.072ZM26.1204 15.072H27.5364V16.152C27.7684 15.76 28.0644 15.46 28.4244 15.252C28.7844 15.036 29.1844 14.928 29.6244 14.928C30.2964 14.928 30.8284 15.148 31.2204 15.588C31.6204 16.028 31.8204 16.616 31.8204 17.352V21H30.3444V17.484C30.3444 17.068 30.2324 16.74 30.0084 16.5C29.7924 16.252 29.4924 16.128 29.1084 16.128C28.6604 16.128 28.2964 16.308 28.0164 16.668C27.7364 17.02 27.5964 17.476 27.5964 18.036V21H26.1204V15.072ZM39.6726 18.036C39.6726 18.924 39.3646 19.676 38.7486 20.292C38.1326 20.9 37.3726 21.204 36.4686 21.204C35.5646 21.204 34.8086 20.9 34.2006 20.292C33.6006 19.684 33.3006 18.928 33.3006 18.024C33.3006 17.144 33.6086 16.4 34.2246 15.792C34.8406 15.176 35.6006 14.868 36.5046 14.868C37.4086 14.868 38.1606 15.172 38.7606 15.78C39.3686 16.388 39.6726 17.14 39.6726 18.036ZM34.8006 18.024C34.8006 18.6 34.9606 19.072 35.2806 19.44C35.6006 19.808 36.0046 19.992 36.4926 19.992C36.9886 19.992 37.3926 19.812 37.7046 19.452C38.0166 19.084 38.1726 18.612 38.1726 18.036C38.1726 17.46 38.0126 16.988 37.6926 16.62C37.3726 16.252 36.9686 16.068 36.4806 16.068C35.9926 16.068 35.5886 16.252 35.2686 16.62C34.9566 16.98 34.8006 17.448 34.8006 18.024ZM41.7154 18.888V16.248H40.6354V15.072H41.7394V13.392H43.1794V15.072H44.8114V16.248H43.1914V18.756C43.1914 19.124 43.2714 19.396 43.4314 19.572C43.5914 19.74 43.8434 19.824 44.1874 19.824H44.8114V21H43.9354C43.1594 21 42.5954 20.832 42.2434 20.496C41.8914 20.16 41.7154 19.624 41.7154 18.888ZM51.5544 21H50.1984V19.86C49.9344 20.292 49.6144 20.616 49.2384 20.832C48.8624 21.04 48.4224 21.144 47.9184 21.144C47.3344 21.144 46.8544 20.976 46.4784 20.64C46.1104 20.304 45.9264 19.872 45.9264 19.344C45.9264 18.76 46.1504 18.312 46.5984 18C47.0544 17.68 47.7024 17.52 48.5424 17.52H50.1504V17.4C50.1504 16.96 50.0344 16.62 49.8024 16.38C49.5704 16.14 49.2424 16.02 48.8184 16.02C48.5464 16.02 48.2544 16.08 47.9424 16.2C47.6304 16.312 47.3064 16.484 46.9704 16.716L46.4544 15.744C46.8304 15.456 47.2304 15.244 47.6544 15.108C48.0784 14.964 48.5264 14.892 48.9984 14.892C49.8144 14.892 50.4424 15.116 50.8824 15.564C51.3304 16.012 51.5544 16.652 51.5544 17.484V21ZM50.1504 18.372H48.6144C48.1904 18.372 47.8704 18.452 47.6544 18.612C47.4384 18.764 47.3304 18.988 47.3304 19.284C47.3304 19.54 47.4224 19.748 47.6064 19.908C47.7984 20.06 48.0544 20.136 48.3744 20.136C48.8544 20.136 49.2704 19.968 49.6224 19.632C49.9744 19.288 50.1504 18.868 50.1504 18.372ZM53.7935 18.888V16.248H52.7135V15.072H53.8175V13.392H55.2575V15.072H56.8895V16.248H55.2695V18.756C55.2695 19.124 55.3495 19.396 55.5095 19.572C55.6695 19.74 55.9215 19.824 56.2655 19.824H56.8895V21H56.0135C55.2375 21 54.6735 20.832 54.3215 20.496C53.9695 20.16 53.7935 19.624 53.7935 18.888ZM58.3899 12.456H59.9859V13.908H58.3899V12.456ZM58.4499 21V15.072H59.9259V21H58.4499ZM67.8992 18.036C67.8992 18.924 67.5912 19.676 66.9752 20.292C66.3592 20.9 65.5992 21.204 64.6952 21.204C63.7912 21.204 63.0352 20.9 62.4272 20.292C61.8272 19.684 61.5272 18.928 61.5272 18.024C61.5272 17.144 61.8352 16.4 62.4512 15.792C63.0672 15.176 63.8272 14.868 64.7312 14.868C65.6352 14.868 66.3872 15.172 66.9872 15.78C67.5952 16.388 67.8992 17.14 67.8992 18.036ZM63.0272 18.024C63.0272 18.6 63.1872 19.072 63.5072 19.44C63.8272 19.808 64.2312 19.992 64.7192 19.992C65.2152 19.992 65.6192 19.812 65.9312 19.452C66.2432 19.084 66.3992 18.612 66.3992 18.036C66.3992 17.46 66.2392 16.988 65.9192 16.62C65.5992 16.252 65.1952 16.068 64.7072 16.068C64.2192 16.068 63.8152 16.252 63.4952 16.62C63.1832 16.98 63.0272 17.448 63.0272 18.024ZM69.4485 15.072H70.8645V16.152C71.0965 15.76 71.3925 15.46 71.7525 15.252C72.1125 15.036 72.5125 14.928 72.9525 14.928C73.6245 14.928 74.1565 15.148 74.5485 15.588C74.9485 16.028 75.1485 16.616 75.1485 17.352V21H73.6725V17.484C73.6725 17.068 73.5605 16.74 73.3365 16.5C73.1205 16.252 72.8205 16.128 72.4365 16.128C71.9885 16.128 71.6245 16.308 71.3445 16.668C71.0645 17.02 70.9245 17.476 70.9245 18.036V21H69.4485V15.072ZM79.3167 17.352C80.2047 17.472 80.8327 17.676 81.2007 17.964C81.5767 18.244 81.7647 18.672 81.7647 19.248C81.7647 19.808 81.5247 20.268 81.0447 20.628C80.5647 20.988 79.9367 21.168 79.1607 21.168C78.6727 21.168 78.2087 21.108 77.7687 20.988C77.3367 20.868 76.9247 20.684 76.5327 20.436L77.0127 19.404C77.3967 19.62 77.7727 19.788 78.1407 19.908C78.5167 20.02 78.8687 20.076 79.1967 20.076C79.6047 20.076 79.9207 20.012 80.1447 19.884C80.3687 19.748 80.4807 19.564 80.4807 19.332C80.4807 19.116 80.3767 18.956 80.1687 18.852C79.9607 18.74 79.6127 18.652 79.1247 18.588C78.2687 18.468 77.6607 18.272 77.3007 18C76.9407 17.72 76.7607 17.296 76.7607 16.728C76.7607 16.2 76.9887 15.764 77.4447 15.42C77.9007 15.076 78.4927 14.904 79.2207 14.904C79.6527 14.904 80.0647 14.96 80.4567 15.072C80.8487 15.184 81.2207 15.352 81.5727 15.576L81.1407 16.596C80.7887 16.396 80.4487 16.248 80.1207 16.152C79.7927 16.048 79.4807 15.996 79.1847 15.996C78.8327 15.996 78.5527 16.056 78.3447 16.176C78.1447 16.296 78.0447 16.452 78.0447 16.644C78.0447 16.844 78.1407 16.996 78.3327 17.1C78.5327 17.204 78.8607 17.288 79.3167 17.352ZM85.7259 15.072H87.1419V16.5C87.3419 16.02 87.6179 15.656 87.9699 15.408C88.3219 15.16 88.7419 15.036 89.2299 15.036H89.6979V16.428H89.1339C88.4779 16.428 87.9899 16.588 87.6699 16.908C87.3579 17.228 87.2019 17.716 87.2019 18.372V21H85.7259V15.072ZM93.6974 20.1C94.0334 20.1 94.3534 20.036 94.6574 19.908C94.9614 19.772 95.2374 19.58 95.4854 19.332L96.1694 20.136C95.8174 20.496 95.4254 20.764 94.9934 20.94C94.5614 21.116 94.0854 21.204 93.5654 21.204C92.6214 21.204 91.8614 20.916 91.2854 20.34C90.7174 19.756 90.4334 18.988 90.4334 18.036C90.4334 17.148 90.7334 16.4 91.3334 15.792C91.9414 15.176 92.6774 14.868 93.5414 14.868C94.3974 14.868 95.0894 15.148 95.6174 15.708C96.1454 16.26 96.4094 16.984 96.4094 17.88C96.4094 17.976 96.4054 18.072 96.3974 18.168C96.3894 18.256 96.3774 18.344 96.3614 18.432H91.8494C91.9214 18.936 92.1254 19.34 92.4614 19.644C92.8054 19.948 93.2174 20.1 93.6974 20.1ZM93.5294 15.948C93.1054 15.948 92.7414 16.096 92.4374 16.392C92.1334 16.68 91.9414 17.072 91.8614 17.568H95.0054C94.9574 17.056 94.8014 16.66 94.5374 16.38C94.2814 16.092 93.9454 15.948 93.5294 15.948ZM102.587 15.072H104.015V23.52H102.539V20.064C102.291 20.408 101.983 20.676 101.615 20.868C101.247 21.052 100.847 21.144 100.415 21.144C99.6632 21.144 99.0192 20.852 98.4832 20.268C97.9552 19.684 97.6912 18.948 97.6912 18.06C97.6912 17.172 97.9672 16.428 98.5192 15.828C99.0712 15.228 99.7392 14.928 100.523 14.928C100.963 14.928 101.359 15.032 101.711 15.24C102.071 15.44 102.363 15.732 102.587 16.116V15.072ZM100.835 19.932C101.307 19.932 101.715 19.744 102.059 19.368C102.403 18.992 102.575 18.54 102.575 18.012C102.575 17.492 102.407 17.048 102.071 16.68C101.735 16.312 101.331 16.128 100.859 16.128C100.363 16.128 99.9592 16.304 99.6472 16.656C99.3432 17 99.1912 17.46 99.1912 18.036C99.1912 18.604 99.3432 19.064 99.6472 19.416C99.9512 19.76 100.347 19.932 100.835 19.932ZM111.522 21H110.094V19.92C109.862 20.312 109.566 20.616 109.206 20.832C108.846 21.04 108.446 21.144 108.006 21.144C107.334 21.144 106.798 20.924 106.398 20.484C106.006 20.036 105.81 19.448 105.81 18.72V15.072H107.298V18.588C107.298 19.004 107.406 19.332 107.622 19.572C107.838 19.812 108.138 19.932 108.522 19.932C108.97 19.932 109.334 19.756 109.614 19.404C109.902 19.052 110.046 18.596 110.046 18.036V15.072H111.522V21ZM113.363 12.456H114.959V13.908H113.363V12.456ZM113.423 21V15.072H114.899V21H113.423ZM116.812 15.072H118.228V16.5C118.428 16.02 118.704 15.656 119.056 15.408C119.408 15.16 119.828 15.036 120.316 15.036H120.784V16.428H120.22C119.564 16.428 119.076 16.588 118.756 16.908C118.444 17.228 118.288 17.716 118.288 18.372V21H116.812V15.072ZM124.783 20.1C125.119 20.1 125.439 20.036 125.743 19.908C126.047 19.772 126.323 19.58 126.571 19.332L127.255 20.136C126.903 20.496 126.511 20.764 126.079 20.94C125.647 21.116 125.171 21.204 124.651 21.204C123.707 21.204 122.947 20.916 122.371 20.34C121.803 19.756 121.519 18.988 121.519 18.036C121.519 17.148 121.819 16.4 122.419 15.792C123.027 15.176 123.763 14.868 124.627 14.868C125.483 14.868 126.175 15.148 126.703 15.708C127.231 16.26 127.495 16.984 127.495 17.88C127.495 17.976 127.491 18.072 127.483 18.168C127.475 18.256 127.463 18.344 127.447 18.432H122.935C123.007 18.936 123.211 19.34 123.547 19.644C123.891 19.948 124.303 20.1 124.783 20.1ZM124.615 15.948C124.191 15.948 123.827 16.096 123.523 16.392C123.219 16.68 123.027 17.072 122.947 17.568H126.091C126.043 17.056 125.887 16.66 125.623 16.38C125.367 16.092 125.031 15.948 124.615 15.948ZM135.101 21H133.673V19.992C133.417 20.368 133.101 20.656 132.725 20.856C132.357 21.048 131.949 21.144 131.501 21.144C130.749 21.144 130.105 20.852 129.569 20.268C129.041 19.684 128.777 18.948 128.777 18.06C128.777 17.172 129.053 16.428 129.605 15.828C130.157 15.228 130.825 14.928 131.609 14.928C132.033 14.928 132.417 15.024 132.761 15.216C133.113 15.408 133.401 15.68 133.625 16.032V12.24H135.101V21ZM131.921 19.932C132.393 19.932 132.801 19.744 133.145 19.368C133.489 18.992 133.661 18.54 133.661 18.012C133.661 17.492 133.493 17.048 133.157 16.68C132.821 16.312 132.417 16.128 131.945 16.128C131.449 16.128 131.045 16.304 130.733 16.656C130.429 17 130.277 17.46 130.277 18.036C130.277 18.604 130.429 19.064 130.733 19.416C131.037 19.76 131.433 19.932 131.921 19.932ZM136.932 15.072H138.66V16.836H136.932V15.072ZM136.932 19.236H138.66V21H136.932V19.236Z" fill="#494B51"/>
<rect x="144" y="7" width="16" height="16" rx="2" fill="#0068B5"/>
<path d="M155.194 16.204C155.194 17.092 154.882 17.816 154.258 18.376C153.642 18.928 152.822 19.204 151.798 19.204C151.198 19.204 150.638 19.1 150.118 18.892C149.598 18.684 149.142 18.38 148.75 17.98L149.494 16.9C149.83 17.236 150.19 17.496 150.574 17.68C150.958 17.856 151.342 17.944 151.726 17.944C152.294 17.944 152.754 17.788 153.106 17.476C153.458 17.164 153.634 16.76 153.634 16.264C153.634 15.8 153.478 15.432 153.166 15.16C152.862 14.88 152.462 14.74 151.966 14.74C151.654 14.74 151.334 14.804 151.006 14.932C150.686 15.052 150.382 15.224 150.094 15.448L149.11 15.256L149.074 15.196L149.374 10.6H154.654V11.872H150.646L150.478 14.116C150.766 13.94 151.082 13.8 151.426 13.696C151.77 13.592 152.102 13.54 152.422 13.54C153.238 13.54 153.902 13.784 154.414 14.272C154.934 14.76 155.194 15.404 155.194 16.204Z" fill="white"/>
</svg>
