<svg width="16" height="16" viewBox="0 0 16 16" fill="none" xmlns="http://www.w3.org/2000/svg">
<path fill-rule="evenodd" clip-rule="evenodd" d="M3 11C3 10.9425 3.00243 10.8856 3.00718 10.8293C3.03648 10.4827 3.15415 10.1613 3.33759 9.8877C3.01494 9.77448 2.73011 9.58088 2.50711 9.33093C2.1917 8.97738 2 8.51108 2 8C2 7.48892 2.1917 7.02262 2.50711 6.66907C2.73011 6.41912 3.01494 6.22552 3.33759 6.1123C3.15415 5.83869 3.03647 5.51728 3.00718 5.17069C3.00243 5.11443 3 5.0575 3 5C3 3.89543 3.89543 3 5 3C5 1.89543 5.89543 1 7 1C7.74028 1 8.38663 1.4022 8.73244 2H9.13378C9.30669 1.7011 9.62986 1.5 10 1.5C10.5523 1.5 11 1.94772 11 2.5C11 3.05228 10.5523 3.5 10 3.5C9.62986 3.5 9.30669 3.2989 9.13378 3H9V5H10.7411C10.7743 5 10.8061 4.98683 10.8295 4.96339L11.0339 4.75902C11.0118 4.67641 11 4.58958 11 4.5C11 3.94771 11.4477 3.5 12 3.5C12.5523 3.5 13 3.94771 13 4.5C13 5.05228 12.5523 5.5 12 5.5C11.9104 5.5 11.8236 5.48822 11.741 5.46613L11.2437 5.96339C11.2203 5.98683 11.1885 6 11.1553 6H9V7.5H11.6338C11.8067 7.2011 12.1299 7 12.5 7C13.0523 7 13.5 7.44772 13.5 8C13.5 8.55229 13.0523 9 12.5 9C12.1299 9 11.8067 8.7989 11.6338 8.5H9V10H11.1553C11.1885 10 11.2203 10.0132 11.2437 10.0366L11.741 10.5339C11.8236 10.5118 11.9104 10.5 12 10.5C12.5523 10.5 13 10.9477 13 11.5C13 12.0523 12.5523 12.5 12 12.5C11.4477 12.5 11 12.0523 11 11.5C11 11.4104 11.0118 11.3236 11.0339 11.241L10.8295 11.0366C10.8061 11.0132 10.7743 11 10.7411 11H9V13H9.13378C9.30669 12.7011 9.62986 12.5 10 12.5C10.5523 12.5 11 12.9477 11 13.5C11 14.0523 10.5523 14.5 10 14.5C9.62986 14.5 9.30669 14.2989 9.13378 14H8.73244C8.38663 14.5978 7.74028 15 7 15C5.89543 15 5 14.1046 5 13C3.89543 13 3 12.1046 3 11ZM8 13V3C8 2.44772 7.55228 2 7 2C6.44772 2 6 2.44772 6 3C6 3.46125 6.69749 3.84956 6.92744 3.96504C6.97148 3.98716 7 4.03172 7 4.08099V4.82316C7 4.90945 6.915 4.96901 6.83488 4.93698C6.61768 4.85017 6.236 4.68355 6 4.5C5.83037 4.36806 5.62194 4.13866 5.53784 4.0434C5.51362 4.01597 5.47893 4 5.44235 4H5C4.44772 4 4 4.44772 4 5C4 5.56376 4.42016 5.93426 4.87533 5.99207C4.94381 6.00077 5 6.05596 5 6.125V6.86978C5 6.94082 4.94095 6.99771 4.86993 6.99581C4.58006 6.98802 3.88924 6.97851 3.66869 7.0559C3.27786 7.19304 3 7.56536 3 8C3 8.43464 3.27786 8.80696 3.66869 8.9441C3.88924 9.02149 4.58006 9.01198 4.86993 9.00419C4.94095 9.00229 5 9.05918 5 9.13022V9.875C5 9.94404 4.94381 9.99923 4.87533 10.0079C4.42016 10.0657 4 10.4362 4 11C4 11.5523 4.44772 12 5 12H5.44235C5.47893 12 5.51362 11.984 5.53784 11.9566C5.62194 11.8613 5.83037 11.6319 6 11.5C6.236 11.3164 6.61768 11.1498 6.83488 11.063C6.915 11.031 7 11.0905 7 11.1768V11.919C7 11.9683 6.97148 12.0128 6.92744 12.035C6.69749 12.1504 6 12.5388 6 13C6 13.5523 6.44772 14 7 14C7.55228 14 8 13.5523 8 13Z" fill="black"/>
</svg>
