<svg width="32" height="32" viewBox="0 0 32 32" fill="none" xmlns="http://www.w3.org/2000/svg">
<path d="M8.79289 16.717C8.40237 16.3265 8.40237 15.6933 8.79289 15.3028L15.295 8.80071C15.6855 8.41018 16.3187 8.41018 16.7092 8.80071L17.4163 9.50781C17.8068 9.89834 17.8068 10.5315 17.4163 10.922L13.8385 14.4999H22.492C23.0443 14.4999 23.492 14.9476 23.492 15.4999V16.4999C23.492 17.0522 23.0443 17.4999 22.492 17.4999H13.8184L17.3851 21.0666C17.7756 21.4571 17.7756 22.0902 17.3851 22.4808L16.678 23.1879C16.2874 23.5784 15.6543 23.5784 15.2637 23.1879L8.79289 16.717Z" fill="#494B51"/>
</svg>
