<svg width="16" height="16" viewBox="0 0 16 16" fill="none" xmlns="http://www.w3.org/2000/svg">
<path d="M7.25 2C7.11193 2 7 2.11193 7 2.25V4.75C7 4.88807 7.11193 5 7.25 5H7.75C7.88807 5 8 4.88807 8 4.75V4L14.75 4C14.8881 4 15 3.88807 15 3.75V3.25C15 3.11193 14.8881 3 14.75 3L8 3V2.25C8 2.11193 7.88807 2 7.75 2H7.25Z" fill="#494B51"/>
<path d="M6 3.00001L1.25 3C1.11193 3 1 3.11193 1 3.25L1 3.75C1 3.88807 1.11193 4 1.25 4L6 4V3.00001Z" fill="#494B51"/>
<path d="M14.75 8C14.8881 8 15 7.88807 15 7.75L15 7.25C15 7.11193 14.8881 7 14.75 7H13V6.25C13 6.11193 12.8881 6 12.75 6H12.25C12.1119 6 12 6.11193 12 6.25L12 8.75C12 8.88807 12.1119 9 12.25 9H12.75C12.8881 9 13 8.88807 13 8.75V8L14.75 8Z" fill="#494B51"/>
<path d="M11 7.00001L11 8.00001L1.25 8C1.11193 8 1 7.88807 1 7.75V7.25C1 7.11193 1.11193 7 1.25 7L11 7.00001Z" fill="#494B51"/>
<path d="M15 11.75C15 11.8881 14.8881 12 14.75 12L6 12V12.75C6 12.8881 5.88807 13 5.75 13H5.25C5.11193 13 5 12.8881 5 12.75L5 10.25C5 10.1119 5.11193 10 5.25 10H5.75C5.88807 10 6 10.1119 6 10.25L6 11L14.75 11C14.8881 11 15 11.1119 15 11.25V11.75Z" fill="#494B51"/>
<path d="M4 12V11L1.25 11C1.11193 11 1 11.1119 1 11.25L1 11.75C1 11.8881 1.11193 12 1.25 12H4Z" fill="#494B51"/>
</svg>
