<svg width="32" height="32" viewBox="0 0 32 32" fill="none" xmlns="http://www.w3.org/2000/svg">
<path fill-rule="evenodd" clip-rule="evenodd" d="M10 10C9.44772 10 9 10.4477 9 11V19C9.00002 19.5523 9.44773 20 10 20L15.0017 20.0001V21H13.25C13.1119 21 13 21.1119 13 21.25V21.75C13 21.8881 13.1119 22 13.25 22H18.75C18.8881 22 19 21.8881 19 21.75V21.25C19 21.1119 18.8881 21 18.75 21H17V20L22.0017 20C22.5532 19.9991 23 19.5517 23 19V11C23 10.4483 22.5532 10.0009 22.0016 10H10ZM22 19V11H10.0016L10.0017 19H22Z" fill="#494B51"/>
<rect x="14" y="12" width="3" height="1" rx="0.125" fill="#494B51"/>
<rect x="18" y="12" width="3" height="1" rx="0.125" fill="#494B51"/>
<path d="M28.5408 24.0793L24.0793 28.5408C23.9099 28.7103 24.0299 29 24.2695 29H28.731C28.8796 29 29 28.8796 29 28.731V24.2695C29 24.0299 28.7103 23.9099 28.5408 24.0793Z" fill="#494B51"/>
</svg>
