<svg width="32" height="32" viewBox="0 0 32 32" fill="none" xmlns="http://www.w3.org/2000/svg">
<path d="M15.25 20C15.1119 20 15 19.8881 15 19.75V13.25C15 13.1119 15.1119 13 15.25 13H15.75C15.8881 13 16 13.1119 16 13.25V19.75C16 19.8881 15.8881 20 15.75 20H15.25Z" fill="#494B51"/>
<path d="M13 19.75C13 19.8881 13.1119 20 13.25 20H13.75C13.8881 20 14 19.8881 14 19.75V13.25C14 13.1119 13.8881 13 13.75 13H13.25C13.1119 13 13 13.1119 13 13.25V19.75Z" fill="#494B51"/>
<path d="M17.25 20C17.1119 20 17 19.8881 17 19.75V13.25C17 13.1119 17.1119 13 17.25 13H17.75C17.8881 13 18 13.1119 18 13.25V19.75C18 19.8881 17.8881 20 17.75 20H17.25Z" fill="#494B51"/>
<path fill-rule="evenodd" clip-rule="evenodd" d="M13 10.25C13 10.1119 13.1119 10 13.25 10L17.75 10C17.8881 10 18 10.1119 18 10.25V11L20.75 11C20.8881 11 21 11.1119 21 11.25V11.75C21 11.8881 20.8881 12 20.75 12H20V21C20 21.5523 19.5523 22 19 22H12C11.4477 22 11 21.5523 11 21V12L10.25 12C10.1119 12 10 11.8881 10 11.75V11.25C10 11.1119 10.1119 11 10.25 11L13 11V10.25ZM12 12H19V21H12V12Z" fill="#494B51"/>
</svg>
