<svg width="2" height="10" viewBox="0 0 2 10" fill="none" xmlns="http://www.w3.org/2000/svg">
<path fill="#2B2C30" d="M0 1C-6.78525e-08 1.55228 0.447715 2 0.999999 2C1.55228 2 2 1.55228 2 1C2 0.447715 1.55228 0 1 0C0.447715 -6.78525e-08 0 0.447715 0 1Z"/>
<path fill="#2B2C30" d="M0 5C-6.78525e-08 5.55228 0.447715 6 0.999999 6C1.55228 6 2 5.55228 2 5C2 4.44772 1.55228 4 1 4C0.447715 4 0 4.44772 0 5Z"/>
<path fill="#2B2C30" d="M0.999999 10C0.447715 10 -6.78525e-08 9.55229 0 9C0 8.44771 0.447715 8 1 8C1.55228 8 2 8.44772 2 9C2 9.55229 1.55228 10 0.999999 10Z"/>
</svg>
