<svg width="13" height="14" viewBox="0 0 13 14" fill="none" xmlns="http://www.w3.org/2000/svg">
<path d="M3.75975 6.00488H5.99995L5.99995 0.254883C5.99995 0.116812 6.11188 0.00488281 6.24995 0.00488281L6.74995 0.00488281C6.88802 0.00488281 6.99995 0.116812 6.99995 0.254883L6.99995 6.00488L9.24014 6.00488C9.46287 6.00488 9.57441 6.27417 9.41692 6.43166L6.67672 8.92676C6.57909 9.02439 6.4208 9.02439 6.32317 8.92676L3.58297 6.43166C3.42548 6.27417 3.53702 6.00488 3.75975 6.00488Z" fill="black"/>
<path d="M2.89645 8C2.96275 8 3.02634 8.02634 3.07322 8.07322L3.57322 8.57322C3.73072 8.73071 3.61917 9 3.39645 9H1L1 13L12 13V9H9.60355C9.38083 9 9.26929 8.73071 9.42678 8.57322L9.92678 8.07322C9.97366 8.02634 10.0372 8 10.1036 8H12C12.5523 8 13 8.44772 13 9V13C13 13.5523 12.5523 14 12 14L1 14C0.447715 14 0 13.5523 0 13L0 9C0 8.44772 0.447715 8 1 8H2.89645Z" fill="black"/>
</svg>
