<svg width="32" height="32" viewBox="0 0 32 32" fill="none" xmlns="http://www.w3.org/2000/svg">
<path fill-rule="evenodd" clip-rule="evenodd" d="M14 11H11.25C11.1119 11 11 11.1119 11 11.25V17.75C11 17.8881 11.1119 18 11.25 18H20.75C20.8881 18 21 17.8881 21 17.75V14H19.5V16.5H12.5V12.5H14V11ZM10 18.75C10 18.6119 10.1119 18.5 10.25 18.5H21.75C21.8881 18.5 22 18.6119 22 18.75V19.75C22 19.8881 21.8881 20 21.75 20H10.25C10.1119 20 10 19.8881 10 19.75V18.75Z" fill="#2B2C30"/>
<path d="M18.75 11V7.25C18.75 7.11193 18.6381 7 18.5 7H17.5C17.3619 7 17.25 7.11193 17.25 7.25V11L15.2505 11C15.0278 11 14.9162 11.2693 15.0737 11.4268L17.8232 13.917C17.872 13.9658 17.936 14 18 14C18.064 14 18.128 13.9658 18.1768 13.917L20.9258 11.4268C21.0833 11.2693 20.9717 11 20.749 11H18.75Z" fill="#2B2C30"/>
</svg>
