<svg width="14" height="13" viewBox="0 0 14 13" fill="none" xmlns="http://www.w3.org/2000/svg">
<path d="M4.85734 4.57702C4.68709 4.12734 5.12727 3.68716 5.57696 3.85741L13.4068 6.82181C13.859 6.99302 13.8943 7.61913 13.4642 7.84016L10.4098 9.40988L8.84009 12.4643C8.61905 12.8944 7.99294 12.8591 7.82173 12.4069L4.85734 4.57702Z" fill="black"/>
<path d="M4 0.5C4 0.223858 4.22386 0 4.5 0C4.77614 0 5 0.223858 5 0.5C5 0.776142 4.77614 1 4.5 1C4.22386 1 4 0.776142 4 0.5Z" fill="black"/>
<path d="M6 0.5C6 0.223862 6.22385 0 6.49999 0C6.77613 0 6.99998 0.223862 6.99998 0.5C6.99998 0.776138 6.77613 1 6.49999 1C6.22385 1 6 0.776138 6 0.5Z" fill="black"/>
<path d="M6 2.5C6 2.77614 6.22385 3 6.49999 3C6.77613 3 6.99998 2.77614 6.99998 2.5C6.99998 2.22386 6.77613 2 6.49999 2C6.22385 2 6 2.22386 6 2.5Z" fill="black"/>
<path d="M2.5 3C2.22386 3 2 2.77614 2 2.5C2 2.22386 2.22386 2 2.5 2C2.77614 2 3 2.22386 3 2.5C3 2.77614 2.77614 3 2.5 3Z" fill="black"/>
<path d="M0 4.5C0 4.77614 0.223858 5 0.500001 5C0.776144 5 1 4.77614 1 4.5C1 4.22386 0.776144 4 0.500001 4C0.223858 4 0 4.22386 0 4.5Z" fill="black"/>
<path d="M0.500001 7C0.223858 7 0 6.77614 0 6.5C0 6.22386 0.223858 6 0.500001 6C0.776143 6 1 6.22386 1 6.5C1 6.77614 0.776143 7 0.500001 7Z" fill="black"/>
<path d="M0 8.5C0 8.77614 0.223858 9 0.500001 9C0.776143 9 1 8.77614 1 8.5C1 8.22386 0.776143 8 0.500001 8C0.223858 8 0 8.22386 0 8.5Z" fill="black"/>
<path d="M2.5 11C2.22386 11 2 10.7761 2 10.5C2 10.2239 2.22386 10 2.5 10C2.77614 10 3 10.2239 3 10.5C3 10.7761 2.77614 11 2.5 11Z" fill="black"/>
<path d="M4 10.5C4 10.7761 4.22386 11 4.5 11C4.77614 11 5 10.7761 5 10.5C5 10.2239 4.77614 10 4.5 10C4.22386 10 4 10.2239 4 10.5Z" fill="black"/>
</svg>
