<svg width="12" height="11" viewBox="0 0 12 11" fill="none" xmlns="http://www.w3.org/2000/svg">
<path d="M2.5 1C2.22386 1 2 0.776142 2 0.5C2 0.223858 2.22386 0 2.5 0C2.77614 0 3 0.223858 3 0.5C3 0.776142 2.77614 1 2.5 1Z" fill="black"/>
<path d="M6 0.5C6 0.223858 6.22386 0 6.5 0C6.77614 0 7 0.223858 7 0.5C7 0.776142 6.77614 1 6.5 1C6.22386 1 6 0.776142 6 0.5Z" fill="black"/>
<path d="M4 0.5C4 0.223858 4.22386 1.62921e-07 4.5 1.62921e-07C4.77614 1.62921e-07 5 0.223858 5 0.5C5 0.776142 4.77614 1 4.5 1C4.22386 1 4 0.776142 4 0.5Z" fill="black"/>
<path d="M9 0.5C9 0.223858 8.77614 0 8.5 0C8.22386 0 8 0.223858 8 0.5C8 0.776142 8.22386 1 8.5 1C8.77614 1 9 0.776142 9 0.5Z" fill="black"/>
<path d="M0.5 2C0.223858 2 0 2.22386 0 2.5C0 2.77614 0.223858 3 0.5 3C0.776142 3 1 2.77614 1 2.5C1 2.22386 0.776142 2 0.5 2Z" fill="black"/>
<path d="M10.5 3C10.2239 3 10 2.77614 10 2.5C10 2.22386 10.2239 2 10.5 2C10.7761 2 11 2.22386 11 2.5C11 2.77614 10.7761 3 10.5 3Z" fill="black"/>
<path d="M0.5 4C0.223858 4 3.15259e-07 4.22386 3.2733e-07 4.5C3.394e-07 4.77614 0.223858 5 0.5 5C0.776143 5 1 4.77614 1 4.5C1 4.22386 0.776143 4 0.5 4Z" fill="black"/>
<path d="M0.5 7C0.223858 7 3.394e-07 6.77614 3.2733e-07 6.5C3.15259e-07 6.22386 0.223858 6 0.5 6C0.776143 6 1 6.22386 1 6.5C1 6.77614 0.776143 7 0.5 7Z" fill="black"/>
<path d="M0.5 8C0.223858 8 3.15259e-07 8.22386 3.2733e-07 8.5C3.394e-07 8.77614 0.223858 9 0.5 9C0.776143 9 1 8.77614 1 8.5C1 8.22386 0.776143 8 0.5 8Z" fill="black"/>
<path d="M2.5 11C2.22386 11 2 10.7761 2 10.5C2 10.2239 2.22386 10 2.5 10C2.77614 10 3 10.2239 3 10.5C3 10.7761 2.77614 11 2.5 11Z" fill="black"/>
<path d="M4.5 10C4.22386 10 4 10.2239 4 10.5C4 10.7761 4.22386 11 4.5 11C4.77614 11 5 10.7761 5 10.5C5 10.2239 4.77614 10 4.5 10Z" fill="black"/>
<path fill-rule="evenodd" clip-rule="evenodd" d="M9 11C10.6569 11 12 9.65685 12 8C12 6.34315 10.6569 5 9 5C7.34315 5 6 6.34315 6 8C6 9.65685 7.34315 11 9 11Z" fill="black"/>
</svg>
