<svg width="32" height="32" viewBox="0 0 32 32" fill="none" xmlns="http://www.w3.org/2000/svg">
<path fill-rule="evenodd" clip-rule="evenodd" d="M10.4644 10H21.5325L17 16.4731V21.7508L15 20.9019V16.4775L10.4644 10ZM17.2987 22.964C17.4638 23.0341 17.6454 23.0087 17.7822 22.9128C17.9137 22.8227 18 22.6714 18 22.5V16.7884L22.8829 9.81491C22.9527 9.72894 22.9945 9.61935 22.9945 9.5C22.9945 9.38065 22.9527 9.27106 22.8829 9.18509C22.7912 9.07217 22.6513 9 22.4945 9H9.50489C9.35973 9 9.22902 9.06186 9.13768 9.16065C9.05545 9.24958 9.00513 9.36844 9.00489 9.49905C9.00435 9.59908 9.0337 9.70025 9.09544 9.78842L14 16.7928V21.2266C14 21.3312 14.0301 21.4292 14.0848 21.511C14.138 21.5906 14.2144 21.6548 14.3089 21.6949L17.2987 22.964Z" fill="#494B51"/>
</svg>
