<svg width="120" height="20" viewBox="0 0 120 20" fill="none" xmlns="http://www.w3.org/2000/svg">
<rect width="120" height="20" rx="10" fill="#B7B9BE"/>
<path d="M20.2844 7.268C19.9397 7.268 19.6134 7.323 19.3054 7.433C19.0047 7.543 18.7371 7.69333 18.5024 7.884L18.0184 7.213C18.3264 6.971 18.6637 6.77667 19.0304 6.63C19.4044 6.48333 19.8334 6.41 20.3174 6.41C21.0507 6.41 21.6264 6.58233 22.0444 6.927C22.4697 7.27167 22.6824 7.763 22.6824 8.401C22.6824 8.65767 22.6457 8.896 22.5724 9.116C22.5064 9.32867 22.4074 9.53033 22.2754 9.721C22.1507 9.90433 22.0004 10.0803 21.8244 10.249C21.6484 10.4103 21.4577 10.5717 21.2524 10.733L19.9544 11.723C19.6757 11.9357 19.4447 12.1557 19.2614 12.383C19.0854 12.603 18.9717 12.8413 18.9204 13.098H22.6054V14H17.9084V13.439C17.9084 12.955 18.0404 12.526 18.3044 12.152C18.5684 11.7707 18.9094 11.4187 19.3274 11.096L20.6254 10.106C21.0214 9.798 21.2927 9.512 21.4394 9.248C21.5861 8.984 21.6594 8.71633 21.6594 8.445C21.6594 8.05633 21.5421 7.763 21.3074 7.565C21.0727 7.367 20.7317 7.268 20.2844 7.268ZM29.0266 8.368C29.0266 8.77867 28.935 9.138 28.7516 9.446C28.5683 9.74667 28.3226 9.98133 28.0146 10.15C28.902 10.4067 29.3456 10.997 29.3456 11.921C29.3456 12.273 29.2796 12.5883 29.1476 12.867C29.023 13.1383 28.8433 13.3693 28.6086 13.56C28.374 13.7507 28.088 13.8973 27.7506 14C27.4206 14.0953 27.054 14.143 26.6506 14.143C26.1813 14.143 25.7413 14.0733 25.3306 13.934C24.9273 13.7947 24.5716 13.5893 24.2636 13.318L24.7586 12.603C25.0593 12.8377 25.3563 13.01 25.6496 13.12C25.9503 13.23 26.284 13.285 26.6506 13.285C27.1786 13.285 27.5893 13.1713 27.8826 12.944C28.1833 12.7093 28.3336 12.3573 28.3336 11.888C28.3336 11.448 28.1943 11.1327 27.9156 10.942C27.6443 10.744 27.241 10.645 26.7056 10.645H25.5946V9.798H26.6726C26.9 9.798 27.098 9.765 27.2666 9.699C27.4353 9.62567 27.5746 9.53033 27.6846 9.413C27.7946 9.28833 27.8753 9.149 27.9266 8.995C27.9853 8.83367 28.0146 8.66133 28.0146 8.478C28.0146 8.05267 27.8753 7.74467 27.5966 7.554C27.3253 7.36333 26.988 7.268 26.5846 7.268C26.284 7.268 25.9796 7.31567 25.6716 7.411C25.371 7.50633 25.1033 7.63833 24.8686 7.807L24.4286 7.136C24.7293 6.90133 25.074 6.72167 25.4626 6.597C25.8513 6.47233 26.2546 6.41 26.6726 6.41C27.406 6.41 27.9816 6.58967 28.3996 6.949C28.8176 7.301 29.0266 7.774 29.0266 8.368ZM34.3149 14V12.339H30.7289V11.558L34.2929 6.553H35.2719V11.492H36.3389V12.339H35.2719V14H34.3149ZM34.3149 11.492V7.983L31.8399 11.492H34.3149ZM40.8257 6.553H44.7637V7.4H41.6507L41.4417 9.71C41.6177 9.58533 41.8267 9.48633 42.0687 9.413C42.318 9.33967 42.5894 9.303 42.8827 9.303C43.616 9.303 44.1844 9.50833 44.5877 9.919C44.9984 10.3223 45.2037 10.8907 45.2037 11.624C45.2037 11.998 45.1414 12.3427 45.0167 12.658C44.892 12.966 44.7124 13.23 44.4777 13.45C44.2504 13.67 43.9644 13.8423 43.6197 13.967C43.2824 14.0843 42.901 14.143 42.4757 14.143C41.5664 14.143 40.7854 13.868 40.1327 13.318L40.6167 12.603C40.888 12.823 41.1777 12.9917 41.4857 13.109C41.801 13.2263 42.1237 13.285 42.4537 13.285C42.989 13.285 43.4107 13.1457 43.7187 12.867C44.034 12.581 44.1917 12.174 44.1917 11.646C44.1917 11.1473 44.056 10.7733 43.7847 10.524C43.5134 10.2747 43.1284 10.15 42.6297 10.15C42.3217 10.15 42.0467 10.1977 41.8047 10.293C41.5627 10.3883 41.3427 10.5203 41.1447 10.689L40.4957 10.381L40.8257 6.553ZM49.0949 7.268C48.7503 7.268 48.4239 7.323 48.1159 7.433C47.8153 7.543 47.5476 7.69333 47.3129 7.884L46.8289 7.213C47.1369 6.971 47.4743 6.77667 47.8409 6.63C48.2149 6.48333 48.6439 6.41 49.1279 6.41C49.8613 6.41 50.4369 6.58233 50.8549 6.927C51.2803 7.27167 51.4929 7.763 51.4929 8.401C51.4929 8.65767 51.4563 8.896 51.3829 9.116C51.3169 9.32867 51.2179 9.53033 51.0859 9.721C50.9613 9.90433 50.8109 10.0803 50.6349 10.249C50.4589 10.4103 50.2683 10.5717 50.0629 10.733L48.7649 11.723C48.4863 11.9357 48.2553 12.1557 48.0719 12.383C47.8959 12.603 47.7823 12.8413 47.7309 13.098H51.4159V14H46.7189V13.439C46.7189 12.955 46.8509 12.526 47.1149 12.152C47.3789 11.7707 47.7199 11.4187 48.1379 11.096L49.4359 10.106C49.8319 9.798 50.1033 9.512 50.2499 9.248C50.3966 8.984 50.4699 8.71633 50.4699 8.445C50.4699 8.05633 50.3526 7.763 50.1179 7.565C49.8833 7.367 49.5423 7.268 49.0949 7.268ZM55.8352 14V7.675L53.8552 8.632L53.4262 7.84L56.0772 6.553H56.8362V14H55.8352ZM69.606 14V10.568C69.606 10.106 69.5253 9.765 69.364 9.545C69.2026 9.31767 68.9276 9.204 68.539 9.204C68.0916 9.204 67.736 9.36533 67.472 9.688C67.208 10.0107 67.076 10.458 67.076 11.03V14H66.097V10.568C66.097 10.106 66.0163 9.765 65.855 9.545C65.6936 9.31767 65.4186 9.204 65.03 9.204C64.5826 9.204 64.227 9.36533 63.963 9.688C63.699 10.0107 63.567 10.458 63.567 11.03V14H62.588V8.5H63.094C63.3946 8.5 63.545 8.632 63.545 8.896V9.248C63.7136 8.96933 63.9373 8.753 64.216 8.599C64.502 8.43767 64.8283 8.357 65.195 8.357C65.591 8.357 65.9283 8.445 66.207 8.621C66.493 8.78967 66.7093 9.039 66.856 9.369C67.0246 9.039 67.2703 8.78967 67.593 8.621C67.9156 8.445 68.286 8.357 68.704 8.357C69.298 8.357 69.76 8.544 70.09 8.918C70.42 9.292 70.585 9.81267 70.585 10.48V14H69.606ZM76.3144 14.033C76.0211 14.033 75.8048 13.9597 75.6654 13.813C75.5334 13.659 75.4601 13.4427 75.4454 13.164C75.2914 13.4647 75.0568 13.6993 74.7414 13.868C74.4334 14.0367 74.0704 14.121 73.6524 14.121C73.3664 14.121 73.1098 14.0807 72.8824 14C72.6624 13.912 72.4754 13.7947 72.3214 13.648C72.1674 13.494 72.0501 13.3143 71.9694 13.109C71.8961 12.9037 71.8594 12.6837 71.8594 12.449C71.8594 12.141 71.9218 11.877 72.0464 11.657C72.1711 11.437 72.3361 11.261 72.5414 11.129C72.7541 10.9897 72.9961 10.887 73.2674 10.821C73.5388 10.755 73.8211 10.722 74.1144 10.722H75.3244V10.392C75.3244 10.0107 75.2291 9.71367 75.0384 9.501C74.8478 9.281 74.5068 9.171 74.0154 9.171C73.7221 9.171 73.4398 9.215 73.1684 9.303C72.9044 9.391 72.6514 9.51933 72.4094 9.688L72.0134 9.028C72.2994 8.808 72.6184 8.643 72.9704 8.533C73.3298 8.41567 73.7074 8.357 74.1034 8.357C74.3968 8.357 74.6718 8.39 74.9284 8.456C75.1924 8.522 75.4198 8.63567 75.6104 8.797C75.8084 8.95833 75.9624 9.171 76.0724 9.435C76.1898 9.69167 76.2484 10.018 76.2484 10.414V12.867C76.2484 13.0283 76.2741 13.1383 76.3254 13.197C76.3841 13.2557 76.5014 13.285 76.6774 13.285H76.7984V13.967C76.7398 13.9817 76.6664 13.9963 76.5784 14.011C76.4904 14.0257 76.4024 14.033 76.3144 14.033ZM74.1364 11.437C73.7038 11.437 73.3738 11.5177 73.1464 11.679C72.9191 11.833 72.8054 12.075 72.8054 12.405C72.8054 12.6837 72.8898 12.9037 73.0584 13.065C73.2271 13.2263 73.4874 13.307 73.8394 13.307C74.0814 13.307 74.2941 13.2667 74.4774 13.186C74.6608 13.1053 74.8148 12.9953 74.9394 12.856C75.0714 12.7167 75.1668 12.5517 75.2254 12.361C75.2914 12.163 75.3244 11.954 75.3244 11.734V11.437H74.1364ZM80.6545 13.989C80.5592 14.0037 80.4639 14.0147 80.3685 14.022C80.2732 14.0367 80.1669 14.044 80.0495 14.044C79.4335 14.044 78.9862 13.8973 78.7075 13.604C78.4362 13.3107 78.3005 12.8267 78.3005 12.152V9.292H77.3655V8.5H78.3005V7.114H79.2795V8.5H80.6545V9.292H79.2795V12.262C79.2795 12.636 79.3602 12.8927 79.5215 13.032C79.6902 13.164 79.9762 13.23 80.3795 13.23H80.6545V13.989ZM82.5095 11.239C82.5095 11.899 82.6708 12.4087 82.9935 12.768C83.3235 13.12 83.7782 13.296 84.3575 13.296C84.5702 13.296 84.7865 13.2667 85.0065 13.208C85.2338 13.1493 85.4392 13.054 85.6225 12.922L86.0075 13.604C85.5602 13.9633 84.9808 14.143 84.2695 14.143C83.8002 14.143 83.3895 14.0697 83.0375 13.923C82.6928 13.7763 82.4032 13.5783 82.1685 13.329C81.9412 13.0723 81.7688 12.7717 81.6515 12.427C81.5415 12.075 81.4865 11.6937 81.4865 11.283C81.4865 10.843 81.5488 10.4433 81.6735 10.084C81.8055 9.71733 81.9925 9.40933 82.2345 9.16C82.4765 8.90333 82.7698 8.70533 83.1145 8.566C83.4665 8.42667 83.8625 8.357 84.3025 8.357C84.9845 8.357 85.5455 8.533 85.9855 8.885L85.5895 9.567C85.4575 9.47167 85.2888 9.38733 85.0835 9.314C84.8782 9.24067 84.6362 9.204 84.3575 9.204C83.7855 9.204 83.3345 9.37633 83.0045 9.721C82.6745 10.0657 82.5095 10.5717 82.5095 11.239ZM88.1344 6.113V9.292C88.303 9.006 88.545 8.77867 88.8604 8.61C89.1757 8.44133 89.5534 8.357 89.9934 8.357C90.624 8.357 91.1044 8.53667 91.4344 8.896C91.7717 9.25533 91.9404 9.78333 91.9404 10.48V14H90.9614V10.579C90.9614 10.1097 90.8624 9.765 90.6644 9.545C90.4737 9.31767 90.1694 9.204 89.7514 9.204C89.2674 9.204 88.875 9.36533 88.5744 9.688C88.281 10.0107 88.1344 10.469 88.1344 11.063V14H87.1554V6.113H88.1344ZM94.2819 11.481C94.3186 12.075 94.4946 12.526 94.8099 12.834C95.1326 13.142 95.5909 13.296 96.1849 13.296C96.7569 13.296 97.2226 13.1493 97.5819 12.856L97.9999 13.505C97.7506 13.725 97.4646 13.8863 97.1419 13.989C96.8266 14.0917 96.4782 14.143 96.0969 14.143C95.6716 14.143 95.2866 14.0807 94.9419 13.956C94.5972 13.824 94.3039 13.6333 94.0619 13.384C93.8199 13.1347 93.6329 12.8267 93.5009 12.46C93.3689 12.0933 93.3029 11.6717 93.3029 11.195C93.3029 10.7477 93.3689 10.348 93.5009 9.996C93.6329 9.644 93.8162 9.347 94.0509 9.105C94.2929 8.863 94.5716 8.67967 94.8869 8.555C95.2096 8.423 95.5579 8.357 95.9319 8.357C96.3059 8.357 96.6322 8.41933 96.9109 8.544C97.1969 8.66133 97.4352 8.83 97.6259 9.05C97.8166 9.27 97.9596 9.534 98.0549 9.842C98.1502 10.1427 98.1979 10.4727 98.1979 10.832C98.1979 11.0593 98.1796 11.2757 98.1429 11.481H94.2819ZM95.9539 9.171C95.4992 9.171 95.1252 9.31033 94.8319 9.589C94.5386 9.86767 94.3626 10.249 94.3039 10.733H97.2739V10.645C97.2739 10.1757 97.1602 9.81267 96.9329 9.556C96.7056 9.29933 96.3792 9.171 95.9539 9.171ZM101.323 9.171C101.022 9.171 100.769 9.22967 100.564 9.347C100.358 9.46433 100.256 9.65867 100.256 9.93C100.256 10.0547 100.296 10.183 100.377 10.315C100.465 10.4397 100.655 10.546 100.949 10.634L101.961 10.942C102.445 11.0887 102.797 11.283 103.017 11.525C103.237 11.7597 103.347 12.064 103.347 12.438C103.347 12.944 103.163 13.3547 102.797 13.67C102.437 13.9853 101.917 14.143 101.235 14.143C100.795 14.143 100.395 14.0807 100.036 13.956C99.6836 13.824 99.3719 13.6407 99.1006 13.406L99.5516 12.724C99.7863 12.9073 100.043 13.054 100.322 13.164C100.608 13.2667 100.916 13.318 101.246 13.318C101.583 13.318 101.854 13.2483 102.06 13.109C102.272 12.9697 102.379 12.7533 102.379 12.46C102.379 12.2767 102.324 12.13 102.214 12.02C102.111 11.91 101.931 11.8147 101.675 11.734L100.63 11.426C100.175 11.294 99.8376 11.107 99.6176 10.865C99.3976 10.623 99.2876 10.315 99.2876 9.941C99.2876 9.677 99.3389 9.446 99.4416 9.248C99.5443 9.05 99.6873 8.885 99.8706 8.753C100.054 8.621 100.267 8.522 100.509 8.456C100.758 8.39 101.026 8.357 101.312 8.357C101.656 8.357 101.997 8.40467 102.335 8.5C102.679 8.588 102.973 8.72733 103.215 8.918L102.852 9.6C102.646 9.47533 102.415 9.37267 102.159 9.292C101.909 9.21133 101.631 9.171 101.323 9.171Z" fill="#2E2F32"/>
</svg>
