<svg width="32" height="32" viewBox="0 0 32 32" fill="none" xmlns="http://www.w3.org/2000/svg">
<path d="M13 16.0005V17.7495C13 17.9722 12.7307 18.0837 12.5732 17.9263L10.083 15.6773C10.0342 15.6284 10 15.5645 10 15.5005C10 15.4365 10.0342 15.3725 10.083 15.3237L12.5732 13.0742C12.7307 12.9167 13 13.0283 13 13.251L13 15.0005L19 15.0005L19 13.251C19 13.0283 19.2693 12.9167 19.4268 13.0742L21.917 15.3237C21.9658 15.3725 22 15.4365 22 15.5005C22 15.5645 21.9658 15.6284 21.917 15.6773L19.4268 17.9263C19.2693 18.0837 19 17.9722 19 17.7495V16.0005L13 16.0005Z" fill="#494B51"/>
<path d="M8 11.25C8 11.1119 8.11193 11 8.25 11H8.75C8.88807 11 9 11.1119 9 11.25V19.75C9 19.8881 8.88807 20 8.75 20H8.25C8.11193 20 8 19.8881 8 19.75V11.25Z" fill="#494B51"/>
<path d="M23 11.25C23 11.1119 23.1119 11 23.25 11H23.75C23.8881 11 24 11.1119 24 11.25V19.75C24 19.8881 23.8881 20 23.75 20H23.25C23.1119 20 23 19.8881 23 19.75V11.25Z" fill="#494B51"/>
</svg>
