<svg width="32" height="32" viewBox="0 0 32 32" fill="none" xmlns="http://www.w3.org/2000/svg">
<path d="M16.0019 11.8691C14.5489 11.8691 13.3708 13.0458 13.3684 14.4981L13.3684 14.5026L13.3684 14.5039L13.3684 14.5081C13.3714 14.8599 13.6575 15.1442 14.01 15.1442C14.3625 15.1442 14.6486 14.8599 14.6516 14.5081L14.6516 14.5025C14.6516 13.7568 15.2561 13.1523 16.0018 13.1523C16.7475 13.1523 17.352 13.7568 17.352 14.5025C17.352 15.063 17.0105 15.5437 16.5243 15.748L15.7607 16.0668C15.526 16.1622 15.3606 16.3925 15.3606 16.6614C15.3606 16.8407 15.4342 17.0028 15.5527 17.1192C15.7691 17.3317 16.0377 17.3267 16.3015 17.229L17.0125 16.9351C17.9653 16.5388 18.6353 15.599 18.6353 14.5026C18.6353 13.0482 17.4563 11.8691 16.0019 11.8691Z" fill="#2B2C30"/>
<path d="M16.75 19C16.75 19.2022 16.6699 19.3858 16.5398 19.5207C16.4034 19.6621 16.212 19.75 16 19.75C15.78 19.75 15.5822 19.6553 15.445 19.5045C15.3239 19.3713 15.25 19.1943 15.25 19C15.25 18.7978 15.33 18.6142 15.4602 18.4793C15.5966 18.3379 15.788 18.25 16 18.25C16.212 18.25 16.4034 18.3379 16.5398 18.4793C16.6699 18.6142 16.75 18.7978 16.75 19Z" fill="#2B2C30"/>
<path fill-rule="evenodd" clip-rule="evenodd" d="M23.5 16C23.5 18.3264 22.4408 20.4054 20.7784 21.781C19.4808 22.8547 17.8158 23.5 16 23.5C14.1842 23.5 12.5192 22.8547 11.2216 21.781C9.55919 20.4054 8.5 18.3264 8.5 16C8.5 13.6736 9.55919 11.5946 11.2216 10.219C12.5192 9.14526 14.1842 8.5 16 8.5C17.8158 8.5 19.4808 9.14526 20.7784 10.219C22.4408 11.5946 23.5 13.6736 23.5 16ZM22 16C22 17.9069 21.1104 19.6061 19.7236 20.7051C18.7005 21.5159 17.4068 22 16 22C14.5932 22 13.2995 21.5159 12.2764 20.7051C10.8896 19.6061 10 17.9069 10 16C10 14.0931 10.8896 12.3939 12.2764 11.2949C13.2995 10.4841 14.5932 10 16 10C17.4068 10 18.7005 10.4841 19.7236 11.2949C21.1104 12.3939 22 14.0931 22 16Z" fill="#2B2C30"/>
</svg>
