<svg width="32" height="32" viewBox="0 0 32 32" fill="none" xmlns="http://www.w3.org/2000/svg">
<path d="M16 18C17.1046 18 18 17.1046 18 16C18 14.8954 17.1046 14 16 14C14.8954 14 14 14.8954 14 16C14 17.1046 14.8954 18 16 18Z" fill="#494B51"/>
<path fill-rule="evenodd" clip-rule="evenodd" d="M16.0004 20H16C13.3387 20 10.9482 18.8409 9.30566 17C9.27497 16.9656 9.24433 16.932 9.21411 16.8988C8.9683 16.6291 8.75 16.3896 8.75 16C8.75 15.6193 8.99177 15.3499 9.25295 15.0589C9.27045 15.0393 9.28805 15.0197 9.30566 15C10.9482 13.1591 13.3387 12 16 12C18.6613 12 21.0518 13.1591 22.6943 15C22.9747 15.3143 23.2177 15.5938 23.2177 16C23.2177 16.4063 22.9705 16.6912 22.6875 17.0077C21.0453 18.844 18.6578 19.9999 16.0004 20ZM9.85201 16.1129C9.80818 16.063 9.78156 16.0296 9.76439 16.0055C9.78388 15.9761 9.8139 15.9365 9.86246 15.8794C9.90195 15.8329 9.94085 15.7896 9.98965 15.7352C10.0087 15.714 10.0292 15.6911 10.0518 15.6658C10.7917 14.8366 11.7013 14.1635 12.7262 13.7011C12.2686 14.3515 12 15.1444 12 16C12 16.8556 12.2686 17.6485 12.7262 18.2989C11.7013 17.8365 10.7917 17.1634 10.0518 16.3342C10.0173 16.2956 9.98284 16.2577 9.9529 16.2249L9.94052 16.2113C9.90621 16.1736 9.87796 16.1425 9.85201 16.1129ZM19.2738 13.7011C20.2987 14.1635 21.2083 14.8366 21.9482 15.6658C22.0195 15.7457 22.0723 15.8055 22.1176 15.8614C22.1618 15.9159 22.1876 15.9532 22.2033 15.9794C22.2083 15.9878 22.2119 15.9944 22.2145 15.9994C22.2117 16.0049 22.2076 16.0124 22.2018 16.0221C22.1853 16.0496 22.1584 16.0881 22.1134 16.1435C22.0674 16.2002 22.0137 16.2609 21.9421 16.341C21.2033 17.1671 20.2959 17.8377 19.2738 18.2989C19.7314 17.6485 20 16.8556 20 16C20 15.1444 19.7314 14.3515 19.2738 13.7011ZM16 19C17.6569 19 19 17.6569 19 16C19 14.3431 17.6569 13 16 13C14.3431 13 13 14.3431 13 16C13 17.6569 14.3431 19 16 19Z" fill="#494B51"/>
</svg>
