<svg width="32" height="32" viewBox="0 0 32 32" fill="none" xmlns="http://www.w3.org/2000/svg">
<path d="M22 13V20H10V13H22ZM22 12H10C9.73478 12 9.48043 12.1054 9.29289 12.2929C9.10536 12.4804 9 12.7348 9 13V20C9 20.2652 9.10536 20.5196 9.29289 20.7071C9.48043 20.8946 9.73478 21 10 21H22C22.2652 21 22.5196 20.8946 22.7071 20.7071C22.8946 20.5196 23 20.2652 23 20V13C23 12.7348 22.8946 12.4804 22.7071 12.2929C22.5196 12.1054 22.2652 12 22 12Z" fill="#494B51"/>
<path d="M14.875 14H14.125C14.056 14 14 14.056 14 14.125V14.875C14 14.944 14.056 15 14.125 15H14.875C14.944 15 15 14.944 15 14.875V14.125C15 14.056 14.944 14 14.875 14Z" fill="#494B51"/>
<path d="M16.875 14H16.125C16.056 14 16 14.056 16 14.125V14.875C16 14.944 16.056 15 16.125 15H16.875C16.944 15 17 14.944 17 14.875V14.125C17 14.056 16.944 14 16.875 14Z" fill="#494B51"/>
<path d="M18.875 14H18.125C18.056 14 18 14.056 18 14.125V14.875C18 14.944 18.056 15 18.125 15H18.875C18.944 15 19 14.944 19 14.875V14.125C19 14.056 18.944 14 18.875 14Z" fill="#494B51"/>
<path d="M17.875 16H17.125C17.056 16 17 16.056 17 16.125V16.875C17 16.944 17.056 17 17.125 17H17.875C17.944 17 18 16.944 18 16.875V16.125C18 16.056 17.944 16 17.875 16Z" fill="#494B51"/>
<path d="M15.875 16H15.125C15.056 16 15 16.056 15 16.125V16.875C15 16.944 15.056 17 15.125 17H15.875C15.944 17 16 16.944 16 16.875V16.125C16 16.056 15.944 16 15.875 16Z" fill="#494B51"/>
<path d="M13.875 16H13.125C13.056 16 13 16.056 13 16.125V16.875C13 16.944 13.056 17 13.125 17H13.875C13.944 17 14 16.944 14 16.875V16.125C14 16.056 13.944 16 13.875 16Z" fill="#494B51"/>
<path d="M11.875 16H11.125C11.056 16 11 16.056 11 16.125V16.875C11 16.944 11.056 17 11.125 17H11.875C11.944 17 12 16.944 12 16.875V16.125C12 16.056 11.944 16 11.875 16Z" fill="#494B51"/>
<path d="M11.875 18H11.125C11.056 18 11 18.056 11 18.125V18.875C11 18.944 11.056 19 11.125 19H11.875C11.944 19 12 18.944 12 18.875V18.125C12 18.056 11.944 18 11.875 18Z" fill="#494B51"/>
<path d="M18.875 18H13.125C13.056 18 13 18.056 13 18.125V18.875C13 18.944 13.056 19 13.125 19H18.875C18.944 19 19 18.944 19 18.875V18.125C19 18.056 18.944 18 18.875 18Z" fill="#494B51"/>
<path d="M20.875 18H20.125C20.056 18 20 18.056 20 18.125V18.875C20 18.944 20.056 19 20.125 19H20.875C20.944 19 21 18.944 21 18.875V18.125C21 18.056 20.944 18 20.875 18Z" fill="#494B51"/>
<path d="M12.8639 14H11.1367C11.0677 14 11.0117 14.056 11.0117 14.125V14.875C11.0117 14.944 11.0677 15 11.1367 15H12.8639C12.9329 15 12.9889 14.944 12.9889 14.875V14.125C12.9889 14.056 12.9329 14 12.8639 14Z" fill="#494B51"/>
<path d="M20 14.125V15.875C20 15.9082 19.9868 15.9399 19.9634 15.9634C19.9399 15.9868 19.9082 16 19.875 16H19.125C19.0918 16 19.0601 16.0132 19.0366 16.0366C19.0132 16.0601 19 16.0918 19 16.125V16.875C19 16.9082 19.0132 16.9399 19.0366 16.9634C19.0601 16.9868 19.0918 17 19.125 17H20.875C20.9082 17 20.9399 16.9868 20.9634 16.9634C20.9868 16.9399 21 16.9082 21 16.875V14.125C21 14.0918 20.9868 14.0601 20.9634 14.0366C20.9399 14.0132 20.9082 14 20.875 14H20.125C20.0918 14 20.0601 14.0132 20.0366 14.0366C20.0132 14.0601 20 14.0918 20 14.125Z" fill="#494B51"/>
</svg>
