<svg width="16" height="16" viewBox="0 0 16 16" xmlns="http://www.w3.org/2000/svg">
<path fill-rule="evenodd" clip-rule="evenodd" d="M9.52062 4.29917C9.8195 3.94968 10 3.49592 10 3C10 1.89543 9.10457 1 8 1C6.89543 1 6 1.89543 6 3C6 3.49592 6.1805 3.94968 6.47938 4.29917C5.0244 4.89765 4 6.32919 4 8V11C4 11.5523 4.44772 12 5 12H5.25C5.38807 12 5.5 11.8881 5.5 11.75V11.25C5.5 11.1119 5.38807 11 5.25 11H5V8C5 6.34315 6.34315 5 8 5C9.65685 5 11 6.34315 11 8V11H10.75C10.6119 11 10.5 11.1119 10.5 11.25V11.75C10.5 11.8881 10.6119 12 10.75 12H11C11.5523 12 12 11.5523 12 11V8C12 6.32919 10.9756 4.89765 9.52062 4.29917ZM8 4C8.55228 4 9 3.55228 9 3C9 2.44772 8.55228 2 8 2C7.44772 2 7 2.44772 7 3C7 3.55228 7.44772 4 8 4Z"/>
<path d="M6 8.5C6 8.22386 6.22386 8 6.5 8C6.77614 8 7 8.22386 7 8.5V14H9V8.5C9 8.22386 9.22386 8 9.5 8C9.77614 8 10 8.22386 10 8.5V14C10 14.5523 9.55228 15 9 15H7C6.44772 15 6 14.5523 6 14V8.5Z"/>
</svg>
