<svg width="15" height="29" viewBox="0 0 15 29" fill="none" xmlns="http://www.w3.org/2000/svg">
<g clip-path="url(#clip0_18114_9050)">
<rect x="6.75" width="1" height="29" fill="black"/>
<path d="M10.7189 3.41087C10.6484 3.35869 10.5586 3.3676 10.4884 3.41087C10.4232 3.45107 10.375 3.52091 10.375 3.59899V8.39892C10.375 8.47844 10.4179 8.54689 10.4785 8.58704C10.5481 8.63319 10.6411 8.64193 10.7189 8.58704L14.3983 6.1871C14.4644 6.14355 14.5 6.07423 14.5 6.00197C14.5 5.92955 14.4641 5.85419 14.3983 5.81086L10.7189 3.41087Z" fill="black"/>
<path d="M3.78111 8.58913C3.85156 8.64131 3.9414 8.6324 4.01158 8.58913C4.07677 8.54893 4.125 8.47909 4.125 8.40101L4.125 3.60108C4.125 3.52156 4.08207 3.45311 4.02151 3.41296C3.95187 3.36681 3.85892 3.35807 3.78111 3.41296L0.101741 5.8129C0.0356114 5.85645 -4.64121e-05 5.92577 2.29657e-07 5.99803C4.69709e-05 6.07045 0.0359387 6.14581 0.101741 6.18914L3.78111 8.58913Z" fill="black"/>
</g>
<defs>
<clipPath id="clip0_18114_9050">
<rect width="14.5" height="29" fill="white"/>
</clipPath>
</defs>
</svg>
