<svg width="16" height="16" viewBox="0 0 16 16" fill="none" xmlns="http://www.w3.org/2000/svg">
<path fill-rule="evenodd" clip-rule="evenodd" d="M12.7325 2.8643C12.6349 2.76667 12.4766 2.76667 12.379 2.8643L10.7981 4.44513C9.91766 4.15627 8.97708 4.00002 8 4.00002C5.33873 4.00002 2.94819 5.15912 1.30566 7.00003C1.02527 7.31428 0.75 7.59378 0.75 8.00003C0.75 8.43753 1.02527 8.68577 1.30566 9.00003C2.09099 9.8802 3.04731 10.6045 4.12247 11.1208L2.83303 12.4102C2.7354 12.5079 2.7354 12.6662 2.83303 12.7638L3.18658 13.1174C3.28421 13.215 3.4425 13.215 3.54013 13.1174L6.95305 9.70444C7.25758 9.8919 7.61616 10 8 10C9.10457 10 10 9.1046 10 8.00003C10 7.61619 9.89187 7.2576 9.70441 6.95307L13.0861 3.57141C13.1837 3.47378 13.1837 3.31548 13.0861 3.21785L12.7325 2.8643ZM8.98453 6.25874L9.70912 5.53415C9.22417 5.1974 8.63513 5.00002 8 5.00002C6.34315 5.00002 5 6.34317 5 8.00003C5 8.63516 5.19737 9.2242 5.53413 9.70914L6.25871 8.98456C6.09402 8.69391 6 8.35795 6 8.00003C6 6.89546 6.89543 6.00002 8 6.00002C8.35792 6.00002 8.69388 6.09405 8.98453 6.25874ZM1.76439 8.00554C1.84847 8.12328 1.95558 8.2264 2.05183 8.33427C2.79167 9.16346 3.70133 9.83651 4.72618 10.2989C4.26864 9.64851 4 8.85564 4 8.00003C4 7.14441 4.26864 6.35154 4.72618 5.70116C3.70133 6.16354 2.79167 6.83659 2.05183 7.66578C1.95348 7.77601 1.84616 7.88226 1.76439 8.00554Z" fill="black"/>
<path d="M7.16255 10.8816C7.42834 10.9587 7.70934 11 8 11C9.65685 11 11 9.65688 11 8.00003C11 7.70937 10.9587 7.42837 10.8816 7.16257L11.6601 6.384C11.8786 6.87819 12 7.42493 12 8.00003C12 8.85564 11.7314 9.64851 11.2738 10.2989C12.2959 9.83778 13.2033 9.16714 13.9421 8.34107C14.0362 8.23585 14.1504 8.12738 14.2145 7.99938C14.1513 7.87459 14.04 7.76876 13.9482 7.66578C13.3832 7.03258 12.7192 6.49044 11.9805 6.06362L12.7095 5.33458C13.4495 5.79203 14.118 6.35405 14.6943 7.00003C14.9747 7.31428 15.2177 7.59378 15.2177 8.00003C15.2177 8.40628 14.9705 8.69119 14.6875 9.00768C13.0452 10.8441 10.6576 12 8 12C7.39077 12 6.79573 11.9393 6.22061 11.8235L7.16255 10.8816Z" fill="black"/>
</svg>
