<svg width="32" height="32" viewBox="0 0 32 32" fill="none" xmlns="http://www.w3.org/2000/svg">
<path fill-rule="evenodd" clip-rule="evenodd" d="M20.7311 22.6823C20.8979 22.5036 21 22.2637 21 22V12L18 9H10.25C10.1119 9 10 9.11193 10 9.25V22C10 22.2637 10.1021 22.5036 10.2689 22.6823C10.4515 22.8778 10.7115 23 11 23H20C20.2885 23 20.5485 22.8778 20.7311 22.6823ZM17 12V10.5H11.5V21.5H19.5V13H18C17.7239 13 17.4739 12.8881 17.2929 12.7071C17.1119 12.5261 17 12.2761 17 12Z" fill="#2B2C30"/>
<path d="M15 18.25C15 18.1119 15.1119 18 15.25 18H17.75C17.8881 18 18 18.1119 18 18.25V18.75C18 18.8881 17.8881 19 17.75 19H15.25C15.1119 19 15 18.8881 15 18.75V18.25Z" fill="#2B2C30"/>
<path d="M13 18.25C13 18.1119 13.1119 18 13.25 18H13.75C13.8881 18 14 18.1119 14 18.25V18.75C14 18.8881 13.8881 19 13.75 19H13.25C13.1119 19 13 18.8881 13 18.75V18.25Z" fill="#2B2C30"/>
<path d="M15 16.25C15 16.1119 15.1119 16 15.25 16H17.75C17.8881 16 18 16.1119 18 16.25V16.75C18 16.8881 17.8881 17 17.75 17H15.25C15.1119 17 15 16.8881 15 16.75V16.25Z" fill="#2B2C30"/>
<path d="M13 16.25C13 16.1119 13.1119 16 13.25 16H13.75C13.8881 16 14 16.1119 14 16.25V16.75C14 16.8881 13.8881 17 13.75 17H13.25C13.1119 17 13 16.8881 13 16.75V16.25Z" fill="#2B2C30"/>
<path d="M15 14.25C15 14.1119 15.1119 14 15.25 14H17.75C17.8881 14 18 14.1119 18 14.25V14.75C18 14.8881 17.8881 15 17.75 15H15.25C15.1119 15 15 14.8881 15 14.75V14.25Z" fill="#2B2C30"/>
<path d="M13 14.25C13 14.1119 13.1119 14 13.25 14H13.75C13.8881 14 14 14.1119 14 14.25V14.75C14 14.8881 13.8881 15 13.75 15H13.25C13.1119 15 13 14.8881 13 14.75V14.25Z" fill="#2B2C30"/>
</svg>
