<svg width="16" height="16" viewBox="0 0 16 16" fill="none" xmlns="http://www.w3.org/2000/svg">
<path d="M6.00001 5C6.00001 4.71977 5.88475 4.46647 5.69905 4.28491C5.51876 4.10864 5.27207 4 5.00001 4C4.72388 4 4.47388 4.11192 4.29291 4.29288C4.11195 4.47385 4.00001 4.72385 4.00001 5C4.00001 5.27614 4.11195 5.52615 4.29291 5.70711C4.47388 5.88807 4.72388 6 5.00001 6C5.27615 6 5.52615 5.88807 5.70711 5.70711C5.88808 5.52615 6.00001 5.27614 6.00001 5Z" fill="black"/>
<path d="M10.4482 8.20408C10.5459 8.30171 10.7042 8.30171 10.8018 8.20408L11.1553 7.85053C11.253 7.7529 11.253 7.59461 11.1553 7.49697L8.51866 4.86029C8.42103 4.76266 8.26274 4.76266 8.16511 4.86029L7.81155 5.21385C7.71392 5.31148 7.71392 5.46977 7.81155 5.5674L10.4482 8.20408Z" fill="black"/>
<path d="M9.31933 9.67287C9.2217 9.7705 9.0634 9.7705 8.96577 9.67287L6.33104 7.03814C6.23341 6.94051 6.23341 6.78222 6.33104 6.68459L6.6846 6.33103C6.78223 6.2334 6.94052 6.2334 7.03815 6.33103L9.67288 8.96576C9.77051 9.06339 9.77051 9.22168 9.67288 9.31931L9.31933 9.67287Z" fill="black"/>
<path d="M7.82906 11.1631C7.73143 11.2608 7.57314 11.2608 7.47551 11.1631L4.84078 8.52841C4.74315 8.43078 4.74315 8.27249 4.84078 8.17486L5.19433 7.8213C5.29196 7.72367 5.45025 7.72367 5.54788 7.8213L8.18261 10.456C8.28024 10.5537 8.28024 10.712 8.18261 10.8096L7.82906 11.1631Z" fill="black"/>
<path fill-rule="evenodd" clip-rule="evenodd" d="M2.00073 8.19631C2.00073 8.59413 2.15877 8.97566 2.44007 9.25697L6.74697 13.5639C7.33276 14.1496 8.2825 14.1496 8.86829 13.5639L13.5644 8.8678C14.1501 8.28201 14.1501 7.33227 13.5644 6.74648L9.25746 2.43958C8.97615 2.15828 8.59462 2.00024 8.19679 2.00024L4.00073 2.00024C2.89616 2.00024 2.00073 2.89567 2.00073 4.00024L2.00073 8.19631ZM12.8572 7.45359L8.55035 3.14669C8.45658 3.05292 8.3294 3.00024 8.1968 3.00024L4.00073 3.00024C3.44845 3.00024 3.00073 3.44796 3.00073 4.00024L3.00073 8.19631C3.00073 8.32891 3.05341 8.45609 3.14718 8.54986L7.45408 12.8568C7.64934 13.052 7.96592 13.052 8.16118 12.8568L12.8572 8.16069C13.0525 7.96543 13.0525 7.64885 12.8572 7.45359Z" fill="black"/>
</svg>
