<svg width="14" height="14" viewBox="0 0 14 14" fill="none" xmlns="http://www.w3.org/2000/svg">
<path d="M6.75 2.00391C6.61193 2.00391 6.5 2.11584 6.5 2.25391L6.5 7.10156C6.5 7.11315 6.50079 7.12456 6.50231 7.13574C6.50873 7.18946 6.53254 7.24149 6.57377 7.28272L9.21777 9.92672C9.3154 10.0244 9.4737 10.0244 9.57133 9.92672L9.92488 9.57317C10.0225 9.47554 10.0225 9.31725 9.92488 9.21962L7.5 6.79473L7.5 2.25391C7.5 2.11583 7.38807 2.00391 7.25 2.00391L6.75 2.00391Z" fill="black"/>
<path fill-rule="evenodd" clip-rule="evenodd" d="M11.9576 11.9419C13.2197 10.6758 14 8.92902 14 7C14 5.07098 13.2197 3.32421 11.9576 2.05808C10.6902 0.786729 8.93698 0 7 0C5.06303 0 3.3098 0.786729 2.04244 2.05808C0.780281 3.32421 0 5.07098 0 7C0 8.92902 0.780281 10.6758 2.04244 11.9419C3.3098 13.2133 5.06303 14 7 14C8.93698 14 10.6902 13.2133 11.9576 11.9419ZM11.2426 11.2426C12.3284 10.1569 13 8.65685 13 7C13 5.34315 12.3284 3.84315 11.2426 2.75736C10.1569 1.67157 8.65686 1 7 1C5.34315 1 3.84315 1.67157 2.75736 2.75736C1.67157 3.84315 1 5.34315 1 7C1 8.65685 1.67157 10.1569 2.75736 11.2426C3.84315 12.3284 5.34315 13 7 13C8.65686 13 10.1569 12.3284 11.2426 11.2426Z" fill="black"/>
</svg>
