<svg width="12" height="5" viewBox="0 0 12 5" fill="none" xmlns="http://www.w3.org/2000/svg">
<path d="M2.99976 3.00024L2.99976 4.74925C2.99976 4.97197 2.73047 5.08351 2.57298 4.92602L0.0827837 2.67702C0.0339684 2.6282 -0.000243184 2.56422 -0.000244141 2.50024C-0.000245097 2.43626 0.0339665 2.37228 0.0827827 2.32346L2.57298 0.0739687C2.73047 -0.0835224 2.99976 0.0280192 2.99976 0.250745L2.99976 2.00024L8.99976 2.00024L8.99975 0.250745C8.99975 0.0280191 9.26904 -0.0835225 9.42653 0.0739686L11.9167 2.32346C11.9655 2.37228 11.9998 2.43626 11.9998 2.50024C11.9998 2.56422 11.9655 2.6282 11.9167 2.67702L9.42653 4.92602C9.26904 5.08351 8.99976 4.97197 8.99976 4.74925V3.00024L2.99976 3.00024Z" fill="black"/>
</svg>
