<svg width="8" height="9" viewBox="0 0 8 9" fill="none" xmlns="http://www.w3.org/2000/svg">
<path d="M2.56959 4.07244C2.74997 3.91797 3.00041 4.02704 2.99997 4.24988L2.99997 6L6.99997 6L6.99997 0.250004C6.99997 0.111933 7.1119 3.73706e-06 7.24997 3.74913e-06L7.74997 3.79284e-06C7.88804 3.80491e-06 7.99997 0.111933 7.99997 0.250004L7.99997 6C7.99997 6.55229 7.55225 7 6.99997 7L2.99997 7L2.99997 8.75C2.99953 8.97261 2.72684 9.0821 2.56959 8.92454L0.0777447 6.67527C-0.0197904 6.57754 -0.019635 6.41925 0.0780919 6.32171L2.56959 4.07244Z" fill="black"/>
</svg>
