<svg width="32" height="32" viewBox="0 0 32 32" fill="none" xmlns="http://www.w3.org/2000/svg">
<path d="M16.935 10.0724C16.6304 10.0247 16.3181 10 16 10C12.6863 10 10 12.6863 10 16C10 18.2299 11.2165 20.1757 13.022 21.2099C13.0206 21.1957 13.0192 21.1814 13.0179 21.1672C12.9976 20.9307 12.9946 20.6931 13.0087 20.4563C13.0244 20.2018 13.0642 19.9493 13.1276 19.7022C13.1938 19.4424 13.2895 19.1909 13.4128 18.9522C13.4445 18.8922 13.4762 18.8322 13.5133 18.7737C13.5246 18.756 13.5358 18.7382 13.5469 18.7205C13.5725 18.6799 13.598 18.6394 13.6242 18.5994C13.6537 18.5545 13.6874 18.5105 13.7208 18.4669C13.7302 18.4547 13.7396 18.4425 13.7488 18.4303C13.782 18.3865 13.8189 18.3443 13.8555 18.3024C13.8654 18.2911 13.8753 18.2798 13.8851 18.2684C14.0695 18.0631 14.2799 17.882 14.5111 17.7294C14.716 17.595 14.9336 17.4805 15.1608 17.3872C15.35 17.3099 15.5431 17.242 15.7392 17.1838C15.845 17.1519 15.9447 17.1235 16.0376 17.097C16.0997 17.0792 16.1588 17.0624 16.2146 17.0459C16.3538 17.005 16.4723 16.9678 16.5633 16.9325C16.6335 16.9064 16.7017 16.8751 16.7671 16.8388C16.8124 16.8149 16.853 16.7831 16.8869 16.745C16.9064 16.7237 16.9237 16.7006 16.9385 16.6759C16.954 16.6501 16.9675 16.6232 16.9788 16.5953C17.005 16.5212 17.0188 16.4434 17.0197 16.365C17.0207 16.255 17.0101 16.1453 16.988 16.0375C16.9417 15.7934 16.8482 15.515 16.7344 15.225C16.6589 15.0324 16.5744 14.8337 16.4873 14.6291C16.4433 14.5256 16.3986 14.4206 16.3541 14.3141C16.211 13.9828 16.0858 13.6443 15.9788 13.3C15.9223 13.1139 15.8773 12.9246 15.8441 12.7331C15.8264 12.635 15.8143 12.5331 15.8048 12.4309C15.7953 12.3287 15.7915 12.2231 15.7944 12.1163C15.7974 11.8985 15.8282 11.682 15.886 11.4719C15.9453 11.2611 16.0342 11.0594 16.15 10.8728C16.263 10.6916 16.3991 10.5254 16.5547 10.3781C16.6724 10.2656 16.7996 10.1633 16.935 10.0724Z" fill="#494B51"/>
<path d="M16.4793 21.9811C19.5689 21.7369 22 19.1524 22 16C22 13.45 20.4093 11.2716 18.166 10.4029C17.9638 10.5085 17.7733 10.6349 17.5978 10.7803C17.3983 10.9437 17.2414 11.1518 17.1401 11.3872C17.0529 11.6016 17.0272 11.8356 17.066 12.0634C17.0739 12.1225 17.0878 12.1834 17.1021 12.2444C17.1164 12.3053 17.1338 12.3675 17.1576 12.4319C17.2025 12.563 17.2555 12.6914 17.316 12.8162C17.4512 13.0912 17.6007 13.359 17.7639 13.6187C17.8165 13.705 17.8703 13.7919 17.9249 13.8802C18.0449 14.074 18.1686 14.274 18.2919 14.4853C18.4713 14.7928 18.6485 15.1241 18.7933 15.5166C18.8704 15.726 18.9274 15.9422 18.9635 16.1622C19.0051 16.414 19.0112 16.6703 18.9816 16.9237C18.9644 17.0596 18.9367 17.1939 18.8989 17.3256C18.8602 17.4583 18.8104 17.5876 18.7499 17.7122C18.6269 17.9686 18.4614 18.2029 18.2602 18.4056C18.075 18.59 17.8674 18.7511 17.6422 18.8853C17.4577 18.9947 17.2672 19.094 17.0717 19.1828C16.9947 19.2187 16.9209 19.2522 16.8507 19.2842C16.7625 19.3243 16.6798 19.3619 16.6032 19.3984C16.4834 19.4542 16.367 19.5168 16.2546 19.5859C16.1763 19.6333 16.1041 19.6898 16.0397 19.7544C15.9979 19.7973 15.9635 19.8466 15.9376 19.9003C15.935 19.9073 15.9319 19.9137 15.9287 19.9202C15.9261 19.9255 15.9235 19.9309 15.9211 19.9366C15.9172 19.9497 15.9123 19.9625 15.9066 19.975C15.903 19.9894 15.8987 20.0036 15.8936 20.0175C15.8912 20.0241 15.8895 20.0317 15.8878 20.0393C15.886 20.0472 15.8843 20.055 15.8818 20.0616C15.8676 20.1251 15.8599 20.1899 15.859 20.255C15.8575 20.3334 15.8622 20.4117 15.873 20.4894C15.8864 20.5842 15.9056 20.6781 15.9307 20.7706C15.9934 20.9952 16.0764 21.2137 16.1785 21.4237C16.2704 21.6139 16.3707 21.7999 16.4793 21.9811Z" fill="#494B51"/>
</svg>
