<svg width="32" height="32" viewBox="0 0 32 32" fill="none" xmlns="http://www.w3.org/2000/svg">
<path d="M10.25 10C10.1119 10 10 10.1119 10 10.25V10.75C10 10.8881 10.1119 11 10.25 11H10.75C10.8881 11 11 10.8881 11 10.75V10.25C11 10.1119 10.8881 10 10.75 10H10.25Z" fill="#494B51"/>
<path d="M12.25 12C12.1119 12 12 12.1119 12 12.25V18.75C12 18.8881 12.1119 19 12.25 19H16.1533L14.8573 15.577C14.6871 15.1273 15.1273 14.6871 15.577 14.8573L19 16.1533V12.25C19 12.1119 18.8881 12 18.75 12H12.25Z" fill="#494B51"/>
<path d="M12 10.25C12 10.1119 12.1119 10 12.25 10H12.75C12.8881 10 13 10.1119 13 10.25V10.75C13 10.8881 12.8881 11 12.75 11H12.25C12.1119 11 12 10.8881 12 10.75V10.25Z" fill="#494B51"/>
<path d="M14.25 10C14.1119 10 14 10.1119 14 10.25V10.75C14 10.8881 14.1119 11 14.25 11H14.75C14.8881 11 15 10.8881 15 10.75V10.25C15 10.1119 14.8881 10 14.75 10H14.25Z" fill="#494B51"/>
<path d="M16 10.25C16 10.1119 16.1119 10 16.25 10H16.75C16.8881 10 17 10.1119 17 10.25V10.75C17 10.8881 16.8881 11 16.75 11H16.25C16.1119 11 16 10.8881 16 10.75V10.25Z" fill="#494B51"/>
<path d="M18.25 10C18.1119 10 18 10.1119 18 10.25V10.75C18 10.8881 18.1119 11 18.25 11H18.75C18.8881 11 19 10.8881 19 10.75V10.25C19 10.1119 18.8881 10 18.75 10H18.25Z" fill="#494B51"/>
<path d="M20 10.25C20 10.1119 20.1119 10 20.25 10H20.75C20.8881 10 21 10.1119 21 10.25V10.75C21 10.8881 20.8881 11 20.75 11H20.25C20.1119 11 20 10.8881 20 10.75V10.25Z" fill="#494B51"/>
<path d="M10.25 20C10.1119 20 10 20.1119 10 20.25V20.75C10 20.8881 10.1119 21 10.25 21H10.75C10.8881 21 11 20.8881 11 20.75V20.25C11 20.1119 10.8881 20 10.75 20H10.25Z" fill="#494B51"/>
<path d="M12 20.25C12 20.1119 12.1119 20 12.25 20H12.75C12.8881 20 13 20.1119 13 20.25V20.75C13 20.8881 12.8881 21 12.75 21H12.25C12.1119 21 12 20.8881 12 20.75V20.25Z" fill="#494B51"/>
<path d="M14.25 20C14.1119 20 14 20.1119 14 20.25V20.75C14 20.8881 14.1119 21 14.25 21H14.75C14.8881 21 15 20.8881 15 20.75V20.25C15 20.1119 14.8881 20 14.75 20H14.25Z" fill="#494B51"/>
<path d="M10.25 19C10.1119 19 10 18.8881 10 18.75V18.25C10 18.1119 10.1119 18 10.25 18H10.75C10.8881 18 11 18.1119 11 18.25L11 18.75C11 18.8881 10.8881 19 10.75 19H10.25Z" fill="#494B51"/>
<path d="M10 16.75C10 16.8881 10.1119 17 10.25 17H10.75C10.8881 17 11 16.8881 11 16.75L11 16.25C11 16.1119 10.8881 16 10.75 16H10.25C10.1119 16 10 16.1119 10 16.25V16.75Z" fill="#494B51"/>
<path d="M10.25 15C10.1119 15 10 14.8881 10 14.75V14.25C10 14.1119 10.1119 14 10.25 14H10.75C10.8881 14 11 14.1119 11 14.25L11 14.75C11 14.8881 10.8881 15 10.75 15H10.25Z" fill="#494B51"/>
<path d="M20 14.75C20 14.8881 20.1119 15 20.25 15H20.75C20.8881 15 21 14.8881 21 14.75V14.25C21 14.1119 20.8881 14 20.75 14H20.25C20.1119 14 20 14.1119 20 14.25V14.75Z" fill="#494B51"/>
<path d="M10.25 13C10.1119 13 10 12.8881 10 12.75V12.25C10 12.1119 10.1119 12 10.25 12H10.75C10.8881 12 11 12.1119 11 12.25L11 12.75C11 12.8881 10.8881 13 10.75 13H10.25Z" fill="#494B51"/>
<path d="M20 12.75C20 12.8881 20.1119 13 20.25 13H20.75C20.8881 13 21 12.8881 21 12.75V12.25C21 12.1119 20.8881 12 20.75 12H20.25C20.1119 12 20 12.1119 20 12.25V12.75Z" fill="#494B51"/>
<path d="M22.1231 18.405L19.6672 19.6672L18.405 22.1231L16.1397 16.1397L22.1231 18.405Z" fill="#494B51"/>
</svg>
