<svg width="32" height="32" viewBox="0 0 32 32" fill="none" xmlns="http://www.w3.org/2000/svg">
<path fill-rule="evenodd" clip-rule="evenodd" d="M21.6215 16.9852C21.8441 16.9295 22.0002 16.7295 22.0002 16.5001V9.50009C22.0002 9.10313 21.5599 8.86447 21.2273 9.08116L17.2498 11.6726L10.55 11.0026C10.1712 10.9647 9.8907 11.3472 10.0407 11.6971L12.3795 17.1543C12.1379 17.4785 12.0002 17.8523 12.0002 18.2501C12.0002 19.4927 13.3434 20.5001 15.0002 20.5001C15.1514 20.5001 15.3 20.4917 15.4451 20.4755C15.5881 20.6739 15.6235 20.8183 15.6252 20.9084C15.6279 21.0524 15.5464 21.2207 15.3097 21.4141C15.0773 21.6039 14.7666 21.756 14.4941 21.8635C14.422 21.8919 14.3494 21.9187 14.2763 21.9435C14.1469 21.9875 14.068 22.1219 14.1018 22.2543L14.2236 22.7312C14.2589 22.8693 14.4022 22.95 14.5377 22.9061C14.6499 22.8697 14.7759 22.8273 14.8608 22.7938C15.1737 22.6705 15.5938 22.4732 15.9422 22.1886C16.2864 21.9076 16.636 21.4764 16.625 20.8896C16.6207 20.6623 16.5627 20.4388 16.4547 20.2185C17.3764 19.8345 18.0002 19.0969 18.0002 18.2501C18.0002 18.1308 17.9879 18.0138 17.964 17.8995L21.6215 16.9852ZM15.8041 19.3888C16.0872 19.3065 16.3307 19.1842 16.5215 19.0411C16.875 18.776 17.0002 18.4861 17.0002 18.2501C17.0002 18.0141 16.875 17.7242 16.5215 17.4591C16.1678 17.1938 15.6332 17.0001 15.0002 17.0001C14.9036 17.0001 14.8093 17.0046 14.7176 17.0132C14.6367 17.1076 14.5556 17.2364 14.5198 17.3953C14.4576 17.6711 14.4857 18.2799 15.61 19.2183C15.6779 19.2749 15.7426 19.3318 15.8041 19.3888ZM14.2756 16.0662C13.8687 16.1419 13.4946 16.2798 13.1724 16.4658L11.2936 12.0819L17.3255 12.6851C17.4389 12.6964 17.5527 12.6687 17.6482 12.6065L21.0002 10.4226V16.1097L17.4847 16.9886C16.9452 16.3921 16.0337 16.0001 15.0002 16.0001C14.7582 16.0001 14.5228 16.0216 14.2974 16.0622C14.2922 16.0546 14.2921 16.0547 14.292 16.0547L14.2913 16.0552L14.2899 16.0562C14.2889 16.0568 14.2878 16.0576 14.2865 16.0585C14.2849 16.0596 14.2831 16.0608 14.2811 16.0622C14.2801 16.063 14.2791 16.0637 14.278 16.0645C14.2772 16.065 14.2764 16.0656 14.2756 16.0662ZM13.5047 17.4401C13.496 17.4464 13.4874 17.4527 13.4789 17.4591C13.1254 17.7242 13.0002 18.0141 13.0002 18.2501C13.0002 18.4861 13.1254 18.776 13.4789 19.0411C13.7105 19.2148 14.0196 19.3578 14.3831 19.4358C13.7004 18.704 13.4603 18.0311 13.5047 17.4401Z" fill="#494B51"/>
</svg>
