<svg width="32" height="32" viewBox="0 0 32 32" fill="none" xmlns="http://www.w3.org/2000/svg">
<path fill-rule="evenodd" clip-rule="evenodd" d="M21.621 16.9852C21.8436 16.9295 21.9997 16.7295 21.9997 16.5001V9.50009C21.9997 9.10313 21.5594 8.86447 21.2268 9.08116L17.2493 11.6726L10.5495 11.0026C10.1707 10.9647 9.89021 11.3472 10.0402 11.6971L12.379 17.1543C12.1374 17.4785 11.9997 17.8523 11.9997 18.2501C11.9997 19.4927 13.3429 20.5001 14.9997 20.5001C15.1509 20.5001 15.2995 20.4917 15.4446 20.4755C15.5876 20.6739 15.623 20.8183 15.6247 20.9084C15.6274 21.0524 15.546 21.2207 15.3092 21.4141C15.0768 21.6039 14.7662 21.756 14.4936 21.8635C14.4215 21.8919 14.349 21.9187 14.2758 21.9435C14.1464 21.9875 14.0675 22.1219 14.1013 22.2543L14.2232 22.7312C14.2584 22.8693 14.4017 22.95 14.5372 22.9061C14.6494 22.8697 14.7754 22.8273 14.8603 22.7938C15.1732 22.6705 15.5933 22.4732 15.9417 22.1886C16.2859 21.9076 16.6355 21.4764 16.6245 20.8896C16.6202 20.6623 16.5622 20.4388 16.4542 20.2185C17.3759 19.8345 17.9997 19.0969 17.9997 18.2501C17.9997 18.1308 17.9874 18.0138 17.9635 17.8995L21.621 16.9852ZM15.8036 19.3888C16.0867 19.3065 16.3302 19.1842 16.5211 19.0411C16.8745 18.776 16.9997 18.4861 16.9997 18.2501C16.9997 18.0141 16.8745 17.7242 16.5211 17.4591C16.1673 17.1938 15.6327 17.0001 14.9997 17.0001C14.9031 17.0001 14.8088 17.0046 14.7171 17.0132C14.6362 17.1076 14.5551 17.2364 14.5193 17.3953C14.4571 17.6711 14.4852 18.2799 15.6095 19.2183C15.6774 19.2749 15.7421 19.3318 15.8036 19.3888ZM14.2751 16.0662C13.8682 16.1419 13.4942 16.2798 13.1719 16.4658L11.2931 12.0819L17.325 12.6851C17.4384 12.6964 17.5522 12.6687 17.6477 12.6065L20.9997 10.4226V16.1097L17.4842 16.9886C16.9447 16.3921 16.0332 16.0001 14.9997 16.0001C14.7577 16.0001 14.5223 16.0216 14.2969 16.0622C14.2917 16.0546 14.2916 16.0547 14.2915 16.0547L14.2908 16.0552L14.2894 16.0562C14.2884 16.0568 14.2873 16.0576 14.2861 16.0585C14.2844 16.0596 14.2826 16.0608 14.2806 16.0622C14.2796 16.063 14.2786 16.0637 14.2775 16.0645C14.2767 16.065 14.2759 16.0656 14.2751 16.0662ZM13.5042 17.4401C13.4955 17.4464 13.4869 17.4527 13.4784 17.4591C13.1249 17.7242 12.9997 18.0141 12.9997 18.2501C12.9997 18.4861 13.1249 18.776 13.4784 19.0411C13.71 19.2148 14.0191 19.3578 14.3826 19.4358C13.6999 18.704 13.4598 18.0311 13.5042 17.4401Z" fill="#494B51"/>
</svg>
