<svg width="16" height="16" viewBox="0 0 16 16" fill="none" xmlns="http://www.w3.org/2000/svg">
<path fill-rule="evenodd" clip-rule="evenodd" d="M2 2C2 1.44772 2.44772 1 3 1H9C9.55228 1 10 1.44772 10 2V4H6C5.44772 4 5 4.44772 5 5V8H3.25C3.11193 8 3 8.11193 3 8.25V8.75C3 8.88807 3.11193 9 3.25 9H5V10H3C2.44772 10 2 9.55229 2 9V2ZM4 2H3V3H4V2ZM4 4H3V5H4V4ZM3 6H4V7H3V6ZM9 2H8V3H9V2Z" fill="black"/>
<path fill-rule="evenodd" clip-rule="evenodd" d="M7 5C6.44772 5 6 5.44772 6 6V8H8L8 6.2505C8 6.02778 8.26928 5.91623 8.42678 6.07372L10.917 8.32322C10.9658 8.37204 11 8.43602 11 8.5C11 8.56398 10.9658 8.62796 10.917 8.67677L8.42678 10.9258C8.26929 11.0833 8 10.9717 8 10.749V9H6V13C6 13.5523 6.44772 14 7 14H13C13.5523 14 14 13.5523 14 13V6C14 5.44772 13.5523 5 13 5H7ZM12 6H13V7H12V6ZM12 8H13V9H12V8ZM13 10H12V11H13V10ZM12 12H13V13H12V12ZM8 12H7V13H8V12Z" fill="black"/>
</svg>
