<svg width="14" height="14" viewBox="0 0 14 14" fill="none" xmlns="http://www.w3.org/2000/svg">
<path d="M7 0C8.93299 0 10.683 0.783502 11.9497 2.05025L12.5732 1.42678C12.7307 1.26929 13 1.38083 13 1.60355V3.75C13 3.88807 12.8881 4 12.75 4H10.6036C10.3808 4 10.2693 3.73071 10.4268 3.57322L11.2426 2.75736C10.1569 1.67157 8.65685 1 7 1C3.77011 1 1.1363 3.55211 1.00512 6.74978C0.999462 6.88773 0.888069 7 0.749998 7H0.249998C0.111927 7 -0.000458129 6.88758 0.00439334 6.7496C0.136241 2.99958 3.21782 0 7 0Z" fill="black"/>
<path d="M1.42677 12.5732L2.05025 11.9497C3.317 13.2165 5.067 14 7 14C10.7822 14 13.8638 11.0004 13.9956 7.2504C14.0005 7.11242 13.8881 7 13.75 7H13.25C13.1119 7 13.0005 7.11227 12.9949 7.25022C12.8637 10.4479 10.2299 13 7 13C5.34314 13 3.84314 12.3284 2.75736 11.2426L3.57322 10.4268C3.73071 10.2693 3.61917 10 3.39644 10H1.25C1.11193 10 0.999998 10.1119 0.999998 10.25L0.999998 12.3964C0.999998 12.6192 1.26928 12.7307 1.42677 12.5732Z" fill="black"/>
<path fill-rule="evenodd" clip-rule="evenodd" d="M6.5 3.25C6.5 3.11193 6.61193 3 6.75 3L7.25 3C7.38807 3 7.5 3.11193 7.5 3.25V4.04148C7.95583 4.11795 8.3768 4.29722 8.73827 4.55463L9.2981 3.9948C9.39573 3.89717 9.55402 3.89717 9.65165 3.9948L10.0052 4.34835C10.1028 4.44598 10.1028 4.60427 10.0052 4.7019L9.44537 5.26173C9.70278 5.6232 9.88205 6.04417 9.95852 6.5H10.75C10.8881 6.5 11 6.61193 11 6.75V7.25C11 7.38807 10.8881 7.5 10.75 7.5H9.95852C9.88205 7.95583 9.70278 8.3768 9.44537 8.73827L10.0052 9.2981C10.1028 9.39573 10.1028 9.55402 10.0052 9.65165L9.65165 10.0052C9.55402 10.1028 9.39573 10.1028 9.2981 10.0052L8.73827 9.44537C8.3768 9.70278 7.95583 9.88205 7.5 9.95852V10.75C7.5 10.8881 7.38807 11 7.25 11H6.75C6.61193 11 6.5 10.8881 6.5 10.75V9.95852C6.04417 9.88205 5.6232 9.70278 5.26173 9.44537L4.7019 10.0052C4.60427 10.1028 4.44598 10.1028 4.34835 10.0052L3.9948 9.65165C3.89717 9.55402 3.89717 9.39573 3.9948 9.2981L4.55463 8.73827C4.29722 8.3768 4.11795 7.95583 4.04148 7.5H3.25C3.11193 7.5 3 7.38807 3 7.25L3 6.75C3 6.61193 3.11193 6.5 3.25 6.5H4.04148C4.11795 6.04417 4.29722 5.6232 4.55463 5.26173L3.9948 4.7019C3.89717 4.60427 3.89717 4.44598 3.9948 4.34835L4.34835 3.9948C4.44598 3.89717 4.60427 3.89717 4.7019 3.9948L5.26173 4.55463C5.6232 4.29722 6.04417 4.11795 6.5 4.04148V3.25ZM9 7C9 8.10457 8.10457 9 7 9C5.89543 9 5 8.10457 5 7C5 5.89543 5.89543 5 7 5C8.10457 5 9 5.89543 9 7Z" fill="black"/>
</svg>
