<svg width="32" height="32" viewBox="0 0 32 32" fill="none" xmlns="http://www.w3.org/2000/svg">
<path d="M16.0002 9.24992C16.0002 9.11185 15.8882 8.99946 15.7502 9.0043C14.9547 9.03222 14.193 9.19287 13.4865 9.46477C13.3577 9.51435 13.2989 9.6616 13.353 9.78857L13.5491 10.2488C13.6033 10.3758 13.75 10.4344 13.8792 10.3856C14.4647 10.1643 15.0938 10.0319 15.7502 10.005C15.8882 9.99938 16.0002 9.88799 16.0002 9.74992V9.24992Z" fill="#494B51"/>
<path d="M18.4701 10.5303C18.3444 10.4734 18.2821 10.3283 18.3336 10.2002L18.5203 9.73613C18.5719 9.60801 18.7178 9.54554 18.8439 9.6017C19.5567 9.91898 20.2067 10.3519 20.77 10.8766C20.8711 10.9707 20.8708 11.1293 20.7731 11.227L20.4196 11.5805C20.3219 11.6781 20.164 11.6777 20.0624 11.5842C19.5943 11.1533 19.0574 10.7959 18.4701 10.5303Z" fill="#494B51"/>
<path d="M11.5844 11.9377C11.6779 11.8361 11.6784 11.6781 11.5807 11.5805L11.2272 11.2269C11.1295 11.1293 10.9709 11.129 10.8768 11.23C10.3521 11.7934 9.91921 12.4433 9.60193 13.1561C9.54577 13.2823 9.60824 13.4282 9.73636 13.4797L10.2005 13.6665C10.3285 13.718 10.4736 13.6557 10.5305 13.5299C10.7961 12.9427 11.1535 12.4058 11.5844 11.9377Z" fill="#494B51"/>
<path d="M10.0053 16.2501C9.99961 16.1122 9.88822 15.9999 9.75015 15.9999H9.25015C9.11208 15.9999 8.99969 16.1123 9.00455 16.2503C9.13639 20.0003 12.218 22.9999 16.0002 22.9999C18.5465 22.9999 20.7753 21.6403 22.0001 19.6075V22.7499C22.0001 22.888 22.1121 22.9999 22.2501 22.9999H22.7501C22.8882 22.9999 23.0001 22.888 23.0001 22.7499L23.0002 17.9999H18.2501C18.1121 17.9999 18.0001 18.1118 18.0001 18.2499V18.7499C18.0001 18.888 18.1121 18.9999 18.2501 18.9999H21.1975C20.16 20.7933 18.221 21.9999 16.0002 21.9999C12.7703 21.9999 10.1365 19.4478 10.0053 16.2501Z" fill="#494B51"/>
<path d="M21.6143 13.8783C21.5654 13.7491 21.6239 13.6023 21.751 13.5482L22.2112 13.352C22.3381 13.2979 22.4854 13.3567 22.535 13.4855C22.807 14.1921 22.9678 14.9539 22.9958 15.7495C23.0006 15.8875 22.8882 15.9999 22.7501 15.9999H22.2501C22.1121 15.9999 22.0007 15.8877 21.995 15.7497C21.9681 15.0932 21.8357 14.4639 21.6143 13.8783Z" fill="#494B51"/>
</svg>
