<svg width="32" height="32" viewBox="0 0 32 32" fill="none" xmlns="http://www.w3.org/2000/svg">
<path fill-rule="evenodd" clip-rule="evenodd" d="M23 16C23 19.866 19.866 23 16 23C12.134 23 9 19.866 9 16C9 12.134 12.134 9 16 9C19.866 9 23 12.134 23 16ZM21 16C21 18.7614 18.7614 21 16 21C14.9772 21 14.0262 20.6929 13.2341 20.1659L20.1659 13.2341C20.6929 14.0262 21 14.9772 21 16ZM18.7488 11.8227C17.9601 11.3027 17.0154 11 16 11C13.2386 11 11 13.2386 11 16C11 17.0154 11.3027 17.9601 11.8227 18.7488L18.7488 11.8227Z" fill="#494B51"/>
</svg>
