<svg width="11" height="12" viewBox="0 0 11 12" fill="none" xmlns="http://www.w3.org/2000/svg">
<path d="M5.25 10C5.11193 10 5 9.88807 5 9.75V3.25C5 3.11193 5.11193 3 5.25 3H5.75C5.88808 3 6 3.11193 6 3.25V9.75C6 9.88807 5.88808 10 5.75 10H5.25Z" fill="black"/>
<path d="M3 9.75C3 9.88807 3.11193 10 3.25 10H3.75C3.88808 10 4 9.88807 4 9.75V3.25C4 3.11193 3.88808 3 3.75 3H3.25C3.11193 3 3 3.11193 3 3.25V9.75Z" fill="black"/>
<path d="M7.25 10C7.11193 10 7 9.88807 7 9.75V3.25C7 3.11193 7.11193 3 7.25 3H7.75C7.88808 3 8 3.11193 8 3.25V9.75C8 9.88807 7.88808 10 7.75 10H7.25Z" fill="black"/>
<path fill-rule="evenodd" clip-rule="evenodd" d="M3 0.25C3 0.111929 3.11193 0 3.25 0L7.75 1.78814e-07C7.88808 1.84849e-07 8 0.111929 8 0.25V1L10.75 1C10.8881 1 11 1.11193 11 1.25V1.75C11 1.88807 10.8881 2 10.75 2H10V11C10 11.5523 9.55229 12 9 12H2C1.44772 12 1 11.5523 1 11V2L0.250004 2C0.111933 2 3.8147e-06 1.88807 3.8147e-06 1.75V1.25C3.8147e-06 1.11193 0.111932 1 0.250004 1L3 1V0.25ZM2 2H9V11H2V2Z" fill="black"/>
</svg>
