<svg width="15" height="16" viewBox="0 0 15 16" fill="none" xmlns="http://www.w3.org/2000/svg">
<path d="M13.2197 2.07322L13.5732 2.42678L13.2197 2.07322L12.938 2.35494C12.1535 1.66881 11.23 1.14952 10.2229 0.836999C8.67826 0.357632 7.02 0.390439 5.49549 0.930529C3.97099 1.47062 2.66191 2.48905 1.76351 3.83393C0.865111 5.17881 0.425526 6.77807 0.510318 8.3932C0.595109 10.0083 1.19973 11.5528 2.23402 12.7962C3.2683 14.0396 4.67681 14.9154 6.24949 15.2929C7.82217 15.6703 9.47475 15.5293 10.9607 14.8909C12.2827 14.3229 13.4098 13.3883 14.2119 12.2027C14.542 11.7147 14.3491 11.0883 13.8804 10.8177C13.3946 10.5372 12.8112 10.7192 12.521 11.1373C11.9351 11.9817 11.1223 12.6479 10.1724 13.056C9.08206 13.5245 7.86952 13.6279 6.71561 13.3509C5.5617 13.074 4.52823 12.4314 3.76935 11.5191C3.01048 10.6068 2.56685 9.47356 2.50463 8.2885C2.44242 7.10344 2.76496 5.93002 3.42413 4.94325C4.08331 3.95648 5.04381 3.20923 6.16238 2.81295C7.28095 2.41668 8.49765 2.3926 9.63102 2.74433C10.3269 2.96027 10.9684 3.31078 11.5215 3.77137L11.0732 4.21967C10.6007 4.69214 10.9354 5.5 11.6036 5.5H13.75C14.1642 5.5 14.5 5.16421 14.5 4.75V2.60355C14.5 1.93537 13.6921 1.60075 13.2197 2.07322Z" fill="black" stroke="white"/>
</svg>
