<svg width="32" height="32" viewBox="0 0 32 32" fill="none" xmlns="http://www.w3.org/2000/svg">
<path fill-rule="evenodd" clip-rule="evenodd" d="M17.3089 18.0159C16.539 18.6318 15.5625 19 14.5 19C12.0147 19 10 16.9853 10 14.5C10 12.0147 12.0147 10 14.5 10C16.9853 10 19 12.0147 19 14.5C19 15.5625 18.6318 16.539 18.016 17.3088L21.9268 21.2197C22.0244 21.3173 22.0244 21.4756 21.9268 21.5732L21.5732 21.9268C21.4756 22.0244 21.3173 22.0244 21.2197 21.9268L17.3089 18.0159ZM18.0312 14.5156C18.0312 16.4573 16.4573 18.0312 14.5156 18.0312C12.574 18.0312 11 16.4573 11 14.5156C11 12.574 12.574 11 14.5156 11C16.4573 11 18.0312 12.574 18.0312 14.5156Z" fill="#494B51"/>
</svg>
