<svg width="440" height="48" viewBox="0 0 440 48" fill="none" xmlns="http://www.w3.org/2000/svg">
<rect width="440" height="48" fill="#F4F5F5"/>
<path d="M21.852 18.962C23.2707 18.962 24.456 19.452 25.408 20.432C26.36 21.412 26.836 22.63 26.836 24.086C26.836 25.542 26.3553 26.7647 25.394 27.754C24.4327 28.7433 23.2473 29.238 21.838 29.238C20.4193 29.238 19.234 28.748 18.282 27.768C17.33 26.788 16.854 25.57 16.854 24.114C16.854 22.6673 17.3347 21.4493 18.296 20.46C19.2573 19.4613 20.4427 18.962 21.852 18.962ZM21.852 19.998C20.788 19.998 19.9013 20.39 19.192 21.174C18.4827 21.958 18.128 22.9287 18.128 24.086C18.128 25.2527 18.4827 26.2327 19.192 27.026C19.9107 27.81 20.7973 28.202 21.852 28.202C22.9067 28.202 23.7887 27.81 24.498 27.026C25.2073 26.242 25.562 25.2713 25.562 24.114C25.562 22.9473 25.2027 21.972 24.484 21.188C23.7747 20.3947 22.8973 19.998 21.852 19.998ZM29.8875 29H28.7255V18.78H29.9155V23.582C30.2048 23.106 30.5828 22.7373 31.0495 22.476C31.5161 22.2053 32.0201 22.07 32.5615 22.07C33.4481 22.07 34.1948 22.4013 34.8015 23.064C35.4081 23.7267 35.7115 24.5713 35.7115 25.598C35.7115 26.6153 35.3941 27.4647 34.7595 28.146C34.1248 28.8273 33.3548 29.168 32.4495 29.168C31.9175 29.168 31.4275 29.0327 30.9795 28.762C30.5315 28.4913 30.1675 28.118 29.8875 27.642V29ZM32.2535 23.036C31.6095 23.036 31.0495 23.2927 30.5735 23.806C30.0975 24.3193 29.8595 24.9353 29.8595 25.654C29.8595 26.354 30.0881 26.9513 30.5455 27.446C31.0121 27.9407 31.5675 28.188 32.2115 28.188C32.8928 28.188 33.4481 27.9547 33.8775 27.488C34.3068 27.0213 34.5215 26.4007 34.5215 25.626C34.5215 24.8513 34.3115 24.226 33.8915 23.75C33.4715 23.274 32.9255 23.036 32.2535 23.036ZM37.4624 19.312H38.8064V20.586H37.4624V19.312ZM38.7364 22.238V29.588C38.7364 30.372 38.5358 30.96 38.1344 31.352C37.7424 31.744 37.1544 31.94 36.3704 31.94H35.7964V31.016H36.2024C36.6691 31.016 37.0098 30.8993 37.2244 30.666C37.4391 30.442 37.5464 30.0873 37.5464 29.602V22.238H38.7364ZM44.0718 28.314C44.5104 28.314 44.9164 28.2253 45.2898 28.048C45.6631 27.8707 46.0131 27.6047 46.3398 27.25L46.9698 27.894C46.5778 28.3513 46.1344 28.692 45.6398 28.916C45.1451 29.1307 44.5898 29.238 43.9738 29.238C42.9378 29.238 42.1024 28.9067 41.4678 28.244C40.8331 27.572 40.5158 26.6947 40.5158 25.612C40.5158 24.5947 40.8518 23.7407 41.5238 23.05C42.1958 22.35 43.0124 22 43.9738 22C44.9258 22 45.7004 22.322 46.2978 22.966C46.9044 23.6007 47.2078 24.4407 47.2078 25.486C47.2078 25.57 47.2031 25.6493 47.1938 25.724C47.1938 25.7987 47.1891 25.8733 47.1798 25.948H41.6778C41.7431 26.6573 41.9998 27.2313 42.4478 27.67C42.8958 28.0993 43.4371 28.314 44.0718 28.314ZM43.9738 22.91C43.3858 22.91 42.8771 23.1153 42.4478 23.526C42.0278 23.9367 41.7758 24.478 41.6917 25.15H46.0598C46.0038 24.4593 45.7844 23.9133 45.4018 23.512C45.0284 23.1107 44.5524 22.91 43.9738 22.91ZM52.0682 29.238C51.0322 29.238 50.1922 28.9067 49.5482 28.244C48.9042 27.5813 48.5822 26.7087 48.5822 25.626C48.5822 24.6087 48.9228 23.75 49.6042 23.05C50.2948 22.35 51.1442 22 52.1522 22C52.8522 22 53.4495 22.1587 53.9442 22.476C54.4388 22.784 54.8262 23.246 55.1062 23.862L54.1822 24.394C53.9768 23.918 53.7015 23.5633 53.3562 23.33C53.0202 23.0873 52.6095 22.966 52.1242 22.966C51.4708 22.966 50.9155 23.2273 50.4582 23.75C50.0102 24.2633 49.7862 24.8933 49.7862 25.64C49.7862 26.3867 50.0102 27.012 50.4582 27.516C50.9062 28.0107 51.4615 28.258 52.1242 28.258C52.5722 28.258 52.9828 28.1413 53.3562 27.908C53.7388 27.6653 54.0468 27.3293 54.2802 26.9L55.1622 27.39C54.8822 27.9687 54.4668 28.4213 53.9162 28.748C53.3748 29.0747 52.7588 29.238 52.0682 29.238ZM57.4515 26.844V23.19H56.1355V22.238H57.4515V20.166H58.6275V22.238H60.5875V23.19H58.6275V26.746C58.6275 27.1753 58.7255 27.4973 58.9215 27.712C59.1268 27.9267 59.4348 28.034 59.8455 28.034H60.5875V29H59.6635C58.8982 29 58.3382 28.8273 57.9835 28.482C57.6288 28.1367 57.4515 27.5907 57.4515 26.844ZM67.3262 25.01C68.3249 25.1127 69.0435 25.3273 69.4822 25.654C69.9302 25.9807 70.1542 26.4613 70.1542 27.096C70.1542 27.7027 69.8835 28.2067 69.3422 28.608C68.8009 29 68.1009 29.196 67.2422 29.196C66.6915 29.196 66.1689 29.1167 65.6742 28.958C65.1795 28.7993 64.7222 28.566 64.3022 28.258L64.7922 27.418C65.2215 27.7073 65.6415 27.9267 66.0522 28.076C66.4722 28.216 66.8735 28.286 67.2562 28.286C67.8162 28.286 68.2549 28.1833 68.5722 27.978C68.8989 27.7633 69.0622 27.4833 69.0622 27.138C69.0622 26.8113 68.9175 26.564 68.6282 26.396C68.3389 26.228 67.8675 26.1113 67.2142 26.046C66.2809 25.9527 65.6042 25.7473 65.1842 25.43C64.7642 25.1033 64.5542 24.6273 64.5542 24.002C64.5542 23.4513 64.8062 22.9893 65.3102 22.616C65.8235 22.2333 66.4675 22.042 67.2422 22.042C67.7462 22.042 68.2175 22.112 68.6562 22.252C69.0949 22.392 69.5289 22.6113 69.9582 22.91L69.5102 23.778C69.0809 23.4887 68.6842 23.2787 68.3202 23.148C67.9562 23.0173 67.5875 22.952 67.2142 22.952C66.7475 22.952 66.3695 23.05 66.0802 23.246C65.7909 23.4327 65.6462 23.6707 65.6462 23.96C65.6462 24.2773 65.7769 24.52 66.0382 24.688C66.3089 24.8467 66.7382 24.954 67.3262 25.01ZM75.0385 28.314C75.4772 28.314 75.8832 28.2253 76.2565 28.048C76.6299 27.8707 76.9799 27.6047 77.3065 27.25L77.9365 27.894C77.5445 28.3513 77.1012 28.692 76.6065 28.916C76.1119 29.1307 75.5565 29.238 74.9405 29.238C73.9045 29.238 73.0692 28.9067 72.4345 28.244C71.7999 27.572 71.4825 26.6947 71.4825 25.612C71.4825 24.5947 71.8185 23.7407 72.4905 23.05C73.1625 22.35 73.9792 22 74.9405 22C75.8925 22 76.6672 22.322 77.2645 22.966C77.8712 23.6007 78.1745 24.4407 78.1745 25.486C78.1745 25.57 78.1699 25.6493 78.1605 25.724C78.1605 25.7987 78.1559 25.8733 78.1465 25.948H72.6445C72.7099 26.6573 72.9665 27.2313 73.4145 27.67C73.8625 28.0993 74.4039 28.314 75.0385 28.314ZM74.9405 22.91C74.3525 22.91 73.8439 23.1153 73.4145 23.526C72.9945 23.9367 72.7425 24.478 72.6585 25.15H77.0265C76.9705 24.4593 76.7512 23.9133 76.3685 23.512C75.9952 23.1107 75.5192 22.91 74.9405 22.91ZM79.983 18.78H81.173V29H79.983V18.78ZM86.5093 28.314C86.9479 28.314 87.3539 28.2253 87.7273 28.048C88.1006 27.8707 88.4506 27.6047 88.7773 27.25L89.4073 27.894C89.0153 28.3513 88.5719 28.692 88.0773 28.916C87.5826 29.1307 87.0273 29.238 86.4113 29.238C85.3753 29.238 84.5399 28.9067 83.9053 28.244C83.2706 27.572 82.9533 26.6947 82.9533 25.612C82.9533 24.5947 83.2893 23.7407 83.9613 23.05C84.6333 22.35 85.4499 22 86.4113 22C87.3633 22 88.1379 22.322 88.7353 22.966C89.3419 23.6007 89.6453 24.4407 89.6453 25.486C89.6453 25.57 89.6406 25.6493 89.6313 25.724C89.6313 25.7987 89.6266 25.8733 89.6173 25.948H84.1153C84.1806 26.6573 84.4373 27.2313 84.8853 27.67C85.3333 28.0993 85.8746 28.314 86.5093 28.314ZM86.4113 22.91C85.8233 22.91 85.3146 23.1153 84.8853 23.526C84.4653 23.9367 84.2133 24.478 84.1292 25.15H88.4973C88.4413 24.4593 88.2219 23.9133 87.8393 23.512C87.4659 23.1107 86.9899 22.91 86.4113 22.91ZM94.5057 29.238C93.4697 29.238 92.6297 28.9067 91.9857 28.244C91.3417 27.5813 91.0197 26.7087 91.0197 25.626C91.0197 24.6087 91.3603 23.75 92.0417 23.05C92.7323 22.35 93.5817 22 94.5897 22C95.2897 22 95.887 22.1587 96.3817 22.476C96.8763 22.784 97.2637 23.246 97.5437 23.862L96.6197 24.394C96.4143 23.918 96.139 23.5633 95.7937 23.33C95.4577 23.0873 95.047 22.966 94.5617 22.966C93.9083 22.966 93.353 23.2273 92.8957 23.75C92.4477 24.2633 92.2237 24.8933 92.2237 25.64C92.2237 26.3867 92.4477 27.012 92.8957 27.516C93.3437 28.0107 93.899 28.258 94.5617 28.258C95.0097 28.258 95.4203 28.1413 95.7937 27.908C96.1763 27.6653 96.4843 27.3293 96.7177 26.9L97.5997 27.39C97.3197 27.9687 96.9043 28.4213 96.3537 28.748C95.8123 29.0747 95.1963 29.238 94.5057 29.238ZM99.889 26.844V23.19H98.573V22.238H99.889V20.166H101.065V22.238H103.025V23.19H101.065V26.746C101.065 27.1753 101.163 27.4973 101.359 27.712C101.564 27.9267 101.872 28.034 102.283 28.034H103.025V29H102.101C101.336 29 100.776 28.8273 100.421 28.482C100.066 28.1367 99.889 27.5907 99.889 26.844ZM104.632 19.312H105.962V20.586H104.632V19.312ZM104.702 29V22.238H105.892V29H104.702ZM114.742 25.64C114.742 26.648 114.401 27.502 113.72 28.202C113.039 28.8927 112.194 29.238 111.186 29.238C110.187 29.238 109.352 28.8927 108.68 28.202C108.008 27.502 107.672 26.634 107.672 25.598C107.672 24.59 108.013 23.7407 108.694 23.05C109.375 22.35 110.22 22 111.228 22C112.227 22 113.062 22.35 113.734 23.05C114.406 23.7407 114.742 24.604 114.742 25.64ZM108.876 25.612C108.876 26.368 109.1 26.998 109.548 27.502C109.996 28.006 110.551 28.258 111.214 28.258C111.877 28.258 112.427 28.0107 112.866 27.516C113.314 27.012 113.538 26.382 113.538 25.626C113.538 24.87 113.314 24.24 112.866 23.736C112.418 23.2227 111.863 22.966 111.2 22.966C110.537 22.966 109.982 23.218 109.534 23.722C109.095 24.226 108.876 24.856 108.876 25.612ZM116.444 22.238H117.606V23.638C117.849 23.134 118.185 22.7467 118.614 22.476C119.053 22.2053 119.548 22.07 120.098 22.07C120.882 22.07 121.503 22.3267 121.96 22.84C122.427 23.344 122.66 24.0207 122.66 24.87V29H121.47V24.94C121.47 24.352 121.316 23.89 121.008 23.554C120.71 23.2087 120.294 23.036 119.762 23.036C119.128 23.036 118.614 23.2833 118.222 23.778C117.83 24.2727 117.634 24.912 117.634 25.696V29H116.444V22.238Z" fill="#494B51"/>
<line x1="140.5" y1="8" x2="140.5" y2="40" stroke="white"/>
<rect x="339.5" y="14.5" width="55" height="19" rx="1.5" fill="white"/>
<path d="M348.598 26.174H344.418V25.36L348.07 20.3H349.555V25.393H350.963V26.174H349.555V28H348.598V26.174ZM345.353 25.426H348.642V20.872L345.353 25.426Z" fill="#494B51"/>
<path d="M384.998 25.2905L381.78 22.0732C381.683 21.9756 381.524 21.9756 381.427 22.0732L381.073 22.4268C380.976 22.5244 380.976 22.6827 381.073 22.7803L384.821 26.5279C384.845 26.5522 384.873 26.5705 384.903 26.5827C384.994 26.6194 385.101 26.6012 385.174 26.5279L388.922 22.7803C389.02 22.6827 389.02 22.5244 388.922 22.4268L388.568 22.0732C388.471 21.9756 388.312 21.9756 388.215 22.0732L384.998 25.2905Z" fill="#494B51"/>
<line x1="375.5" y1="14" x2="375.5" y2="34" stroke="#C9CACE"/>
<rect x="339.5" y="14.5" width="55" height="19" rx="1.5" stroke="#C9CACE"/>
<path d="M277.927 27.34C278.58 27.34 279.1 27.2043 279.489 26.933C279.878 26.6543 280.072 26.2913 280.072 25.844C280.072 25.4333 279.9 25.129 279.555 24.931C279.218 24.733 278.635 24.5863 277.806 24.491C276.765 24.3737 276.017 24.15 275.562 23.82C275.107 23.49 274.88 22.995 274.88 22.335C274.88 21.7263 275.159 21.2093 275.716 20.784C276.273 20.3587 276.988 20.146 277.861 20.146C278.44 20.146 278.968 20.234 279.445 20.41C279.929 20.586 280.391 20.861 280.831 21.235L280.325 21.95C279.966 21.6347 279.57 21.3927 279.137 21.224C278.712 21.048 278.283 20.96 277.85 20.96C277.249 20.96 276.761 21.0847 276.387 21.334C276.02 21.5833 275.837 21.8987 275.837 22.28C275.837 22.6833 275.998 22.984 276.321 23.182C276.651 23.38 277.197 23.5193 277.96 23.6C279.053 23.7247 279.837 23.9557 280.314 24.293C280.791 24.623 281.029 25.1217 281.029 25.789C281.029 26.4563 280.739 27.0173 280.16 27.472C279.588 27.9267 278.84 28.154 277.916 28.154C277.227 28.154 276.611 28.0513 276.068 27.846C275.533 27.6407 275.034 27.318 274.572 26.878L275.089 26.174C275.522 26.57 275.969 26.8633 276.431 27.054C276.893 27.2447 277.392 27.34 277.927 27.34ZM285.328 27.461C285.673 27.461 285.992 27.3913 286.285 27.252C286.578 27.1127 286.853 26.9037 287.11 26.625L287.605 27.131C287.297 27.4903 286.949 27.758 286.56 27.934C286.171 28.1027 285.735 28.187 285.251 28.187C284.437 28.187 283.781 27.9267 283.282 27.406C282.783 26.878 282.534 26.1887 282.534 25.338C282.534 24.5387 282.798 23.8677 283.326 23.325C283.854 22.775 284.496 22.5 285.251 22.5C285.999 22.5 286.608 22.753 287.077 23.259C287.554 23.7577 287.792 24.4177 287.792 25.239C287.792 25.305 287.788 25.3673 287.781 25.426C287.781 25.4847 287.777 25.5433 287.77 25.602H283.447C283.498 26.1593 283.7 26.6103 284.052 26.955C284.404 27.2923 284.829 27.461 285.328 27.461ZM285.251 23.215C284.789 23.215 284.389 23.3763 284.052 23.699C283.722 24.0217 283.524 24.447 283.458 24.975H286.89C286.846 24.4323 286.674 24.0033 286.373 23.688C286.08 23.3727 285.706 23.215 285.251 23.215ZM289.408 22.687H290.321V23.787C290.511 23.391 290.775 23.0867 291.113 22.874C291.457 22.6613 291.846 22.555 292.279 22.555C292.895 22.555 293.382 22.7567 293.742 23.16C294.108 23.556 294.292 24.0877 294.292 24.755V28H293.357V24.81C293.357 24.348 293.236 23.985 292.994 23.721C292.759 23.4497 292.433 23.314 292.015 23.314C291.516 23.314 291.113 23.5083 290.805 23.897C290.497 24.2857 290.343 24.788 290.343 25.404V28H289.408V22.687ZM298.137 24.865C298.922 24.9457 299.487 25.1143 299.831 25.371C300.183 25.6277 300.359 26.0053 300.359 26.504C300.359 26.9807 300.147 27.3767 299.721 27.692C299.296 28 298.746 28.154 298.071 28.154C297.639 28.154 297.228 28.0917 296.839 27.967C296.451 27.8423 296.091 27.659 295.761 27.417L296.146 26.757C296.484 26.9843 296.814 27.1567 297.136 27.274C297.466 27.384 297.782 27.439 298.082 27.439C298.522 27.439 298.867 27.3583 299.116 27.197C299.373 27.0283 299.501 26.8083 299.501 26.537C299.501 26.2803 299.388 26.086 299.16 25.954C298.933 25.822 298.563 25.7303 298.049 25.679C297.316 25.6057 296.784 25.4443 296.454 25.195C296.124 24.9383 295.959 24.5643 295.959 24.073C295.959 23.6403 296.157 23.2773 296.553 22.984C296.957 22.6833 297.463 22.533 298.071 22.533C298.467 22.533 298.838 22.588 299.182 22.698C299.527 22.808 299.868 22.9803 300.205 23.215L299.853 23.897C299.516 23.6697 299.204 23.5047 298.918 23.402C298.632 23.2993 298.343 23.248 298.049 23.248C297.683 23.248 297.386 23.325 297.158 23.479C296.931 23.6257 296.817 23.8127 296.817 24.04C296.817 24.2893 296.92 24.48 297.125 24.612C297.338 24.7367 297.675 24.821 298.137 24.865ZM301.939 20.388H302.984V21.389H301.939V20.388ZM301.994 28V22.687H302.929V28H301.994ZM305.37 26.306V23.435H304.336V22.687H305.37V21.059H306.294V22.687H307.834V23.435H306.294V26.229C306.294 26.5663 306.371 26.8193 306.525 26.988C306.686 27.1567 306.928 27.241 307.251 27.241H307.834V28H307.108C306.506 28 306.066 27.8643 305.788 27.593C305.509 27.3217 305.37 26.8927 305.37 26.306ZM309.346 20.388H310.391V21.389H309.346V20.388ZM309.401 28V22.687H310.336V28H309.401ZM313.888 28.033L311.743 22.687H312.733L314.438 27.208L316.143 22.687H317.1L314.977 28.033H313.888ZM318.44 20.388H319.485V21.389H318.44V20.388ZM318.495 28V22.687H319.43V28H318.495ZM321.871 26.306V23.435H320.837V22.687H321.871V21.059H322.795V22.687H324.335V23.435H322.795V26.229C322.795 26.5663 322.872 26.8193 323.026 26.988C323.187 27.1567 323.429 27.241 323.752 27.241H324.335V28H323.609C323.007 28 322.567 27.8643 322.289 27.593C322.01 27.3217 321.871 26.8927 321.871 26.306ZM327.563 28.187L325.319 22.687H326.309L328.014 27.109L329.708 22.687H330.676L327.552 30.31H326.584L327.563 28.187ZM332.016 22.687H333.193V23.886H332.016V22.687ZM332.016 26.801H333.193V28H332.016V26.801Z" fill="#494B51"/>
<line x1="261.5" y1="8" x2="261.5" y2="40" stroke="white"/>
<line x1="407.5" y1="8" x2="407.5" y2="40" stroke="white"/>
<rect x="149.5" y="8.5" width="31" height="31" rx="1.5" fill="white"/>
<rect x="160" y="19" width="10" height="10" fill="#494B51"/>
<rect x="149.5" y="8.5" width="31" height="31" rx="1.5" stroke="#C9CACE"/>
<rect x="199" y="22" width="10" height="10" fill="#494B51"/>
<rect x="193" y="16" width="10" height="10" fill="#494B51"/>
<rect x="235" y="22" width="10" height="10" fill="#494B51"/>
<rect x="229.5" y="16.5" width="9" height="9" fill="#F4F5F5" stroke="#494B51"/>
</svg>
