<svg width="160" height="24" viewBox="0 0 160 24" fill="none" xmlns="http://www.w3.org/2000/svg">
<rect x="1" y="1" width="158" height="22" rx="1" fill="white"/>
<path d="M4.792 14.504C5.1 14.7753 5.42633 14.9733 5.771 15.098C6.11567 15.2227 6.50433 15.285 6.937 15.285C7.17167 15.285 7.39533 15.2593 7.608 15.208C7.82067 15.1493 8.00767 15.065 8.169 14.955C8.33033 14.845 8.45867 14.7057 8.554 14.537C8.64933 14.361 8.697 14.152 8.697 13.91C8.697 13.624 8.61267 13.3893 8.444 13.206C8.28267 13.0227 8.059 12.876 7.773 12.766L6.486 12.26C6.08267 12.0987 5.76 11.8677 5.518 11.567C5.276 11.2663 5.155 10.918 5.155 10.522C5.155 10.148 5.22833 9.818 5.375 9.532C5.529 9.246 5.73067 9.00767 5.98 8.817C6.23667 8.62633 6.53367 8.48333 6.871 8.388C7.20833 8.29267 7.564 8.245 7.938 8.245C8.378 8.245 8.78867 8.30367 9.17 8.421C9.55133 8.53833 9.91067 8.729 10.248 8.993L9.808 9.686C9.51467 9.48067 9.22133 9.33767 8.928 9.257C8.63467 9.169 8.29 9.125 7.894 9.125C7.65933 9.125 7.43933 9.15067 7.234 9.202C7.02867 9.246 6.84533 9.323 6.684 9.433C6.52267 9.53567 6.39433 9.66767 6.299 9.829C6.211 9.99033 6.167 10.1847 6.167 10.412C6.167 10.6687 6.24767 10.8887 6.409 11.072C6.57767 11.248 6.79767 11.3873 7.069 11.49L8.334 11.985C8.75933 12.1537 9.09667 12.392 9.346 12.7C9.59533 13.008 9.72 13.3673 9.72 13.778C9.72 14.1667 9.64667 14.5113 9.5 14.812C9.35333 15.1053 9.15167 15.3547 8.895 15.56C8.64567 15.758 8.34867 15.9083 8.004 16.011C7.65933 16.1137 7.29267 16.165 6.904 16.165C6.39067 16.165 5.91767 16.088 5.485 15.934C5.05233 15.7727 4.649 15.527 4.275 15.197L4.792 14.504ZM13.2977 16.143C12.5277 16.143 11.919 15.9303 11.4717 15.505C11.0317 15.0723 10.8117 14.4783 10.8117 13.723C10.8117 13.2757 10.8777 12.8503 11.0097 12.447C11.1417 12.0363 11.3287 11.677 11.5707 11.369C11.82 11.061 12.1207 10.8153 12.4727 10.632C12.832 10.4487 13.2353 10.357 13.6827 10.357C14.306 10.357 14.7937 10.5367 15.1457 10.896C15.505 11.248 15.6847 11.7283 15.6847 12.337C15.6847 12.733 15.6223 13.1143 15.4977 13.481H11.7577V13.679C11.7577 14.229 11.908 14.6397 12.2087 14.911C12.5093 15.1823 12.9273 15.318 13.4627 15.318C13.9467 15.318 14.3903 15.1713 14.7937 14.878L15.1897 15.527C14.9257 15.725 14.6323 15.879 14.3097 15.989C13.9943 16.0917 13.657 16.143 13.2977 16.143ZM13.6277 11.16C13.393 11.16 13.1803 11.2003 12.9897 11.281C12.8063 11.3617 12.6413 11.4753 12.4947 11.622C12.348 11.7613 12.2233 11.93 12.1207 12.128C12.018 12.3187 11.941 12.524 11.8897 12.744H14.7387C14.7827 12.5827 14.8047 12.4213 14.8047 12.26C14.8047 11.9007 14.6983 11.6293 14.4857 11.446C14.273 11.2553 13.987 11.16 13.6277 11.16ZM18.7907 8.113L17.6687 14.504C17.6467 14.636 17.6357 14.7423 17.6357 14.823C17.6357 14.9917 17.687 15.1053 17.7897 15.164C17.8997 15.2227 18.072 15.252 18.3067 15.252H18.3837L18.2517 16C18.105 16.0367 17.9657 16.055 17.8337 16.055C17.4597 16.055 17.17 15.9707 16.9647 15.802C16.7667 15.626 16.6677 15.3547 16.6677 14.988C16.6677 14.8413 16.6824 14.6837 16.7117 14.515L17.8337 8.113H18.7907ZM21.9774 16.143C21.2074 16.143 20.5987 15.9303 20.1514 15.505C19.7114 15.0723 19.4914 14.4783 19.4914 13.723C19.4914 13.2757 19.5574 12.8503 19.6894 12.447C19.8214 12.0363 20.0084 11.677 20.2504 11.369C20.4997 11.061 20.8004 10.8153 21.1524 10.632C21.5117 10.4487 21.915 10.357 22.3624 10.357C22.9857 10.357 23.4734 10.5367 23.8254 10.896C24.1847 11.248 24.3644 11.7283 24.3644 12.337C24.3644 12.733 24.302 13.1143 24.1774 13.481H20.4374V13.679C20.4374 14.229 20.5877 14.6397 20.8884 14.911C21.189 15.1823 21.607 15.318 22.1424 15.318C22.6264 15.318 23.07 15.1713 23.4734 14.878L23.8694 15.527C23.6054 15.725 23.312 15.879 22.9894 15.989C22.674 16.0917 22.3367 16.143 21.9774 16.143ZM22.3074 11.16C22.0727 11.16 21.86 11.2003 21.6694 11.281C21.486 11.3617 21.321 11.4753 21.1744 11.622C21.0277 11.7613 20.903 11.93 20.8004 12.128C20.6977 12.3187 20.6207 12.524 20.5694 12.744H23.4184C23.4624 12.5827 23.4844 12.4213 23.4844 12.26C23.4844 11.9007 23.378 11.6293 23.1654 11.446C22.9527 11.2553 22.6667 11.16 22.3074 11.16ZM29.4174 15.615C28.9187 15.967 28.3504 16.143 27.7124 16.143C27.3384 16.143 27.0011 16.088 26.7004 15.978C26.4071 15.868 26.1541 15.7103 25.9414 15.505C25.7287 15.2997 25.5637 15.0503 25.4464 14.757C25.3364 14.4637 25.2814 14.1337 25.2814 13.767C25.2814 13.2903 25.3547 12.8467 25.5014 12.436C25.6481 12.018 25.8534 11.655 26.1174 11.347C26.3887 11.039 26.7151 10.797 27.0964 10.621C27.4777 10.445 27.9031 10.357 28.3724 10.357C28.6731 10.357 28.9517 10.401 29.2084 10.489C29.4651 10.5697 29.7107 10.7053 29.9454 10.896L29.5164 11.545C29.3331 11.4203 29.1424 11.3287 28.9444 11.27C28.7537 11.2113 28.5484 11.182 28.3284 11.182C27.9984 11.182 27.7051 11.2517 27.4484 11.391C27.1917 11.5303 26.9754 11.7173 26.7994 11.952C26.6307 12.1867 26.5024 12.4543 26.4144 12.755C26.3264 13.0557 26.2824 13.371 26.2824 13.701C26.2824 14.229 26.4181 14.6323 26.6894 14.911C26.9607 15.1823 27.3604 15.318 27.8884 15.318C28.1011 15.318 28.3027 15.285 28.4934 15.219C28.6914 15.153 28.8784 15.0613 29.0544 14.944L29.4174 15.615ZM32.5243 11.281L32.0183 14.174C31.989 14.3427 31.9743 14.4893 31.9743 14.614C31.9743 14.7533 31.9963 14.8633 32.0403 14.944C32.0916 15.0247 32.1613 15.087 32.2493 15.131C32.3373 15.175 32.44 15.2043 32.5573 15.219C32.682 15.2337 32.8213 15.241 32.9753 15.241H33.2503L33.1183 15.978C33.045 16 32.9533 16.0147 32.8433 16.022C32.7333 16.0367 32.627 16.044 32.5243 16.044C32.0183 16.044 31.637 15.9487 31.3803 15.758C31.1236 15.5673 30.9953 15.241 30.9953 14.779C30.9953 14.6837 31.0026 14.581 31.0173 14.471C31.032 14.3537 31.0466 14.251 31.0613 14.163L31.5673 11.281H30.6543L30.7973 10.5H31.7103L31.9523 9.114H32.9093L32.6673 10.5H33.9983L33.8553 11.281H32.5243ZM39.2761 8.113L38.1541 14.504C38.1321 14.636 38.1211 14.7423 38.1211 14.823C38.1211 14.9917 38.1724 15.1053 38.2751 15.164C38.3851 15.2227 38.5574 15.252 38.7921 15.252H38.8691L38.7371 16C38.5904 16.0367 38.4511 16.055 38.3191 16.055C37.9451 16.055 37.6554 15.9707 37.4501 15.802C37.2521 15.626 37.1531 15.3547 37.1531 14.988C37.1531 14.8413 37.1677 14.6837 37.1971 14.515L38.3191 8.113H39.2761ZM42.6937 10.357C43.1264 10.357 43.493 10.445 43.7937 10.621C44.1017 10.7897 44.329 11.05 44.4757 11.402L44.5637 10.896C44.5857 10.764 44.6334 10.665 44.7067 10.599C44.7874 10.533 44.9047 10.5 45.0587 10.5H45.5647L44.5967 16H44.1017C43.955 16 43.8524 15.967 43.7937 15.901C43.735 15.8277 43.7167 15.7287 43.7387 15.604L43.8157 15.142C43.603 15.45 43.3317 15.6957 43.0017 15.879C42.679 16.055 42.3234 16.143 41.9347 16.143C41.612 16.143 41.326 16.088 41.0767 15.978C40.8274 15.8607 40.6184 15.703 40.4497 15.505C40.2884 15.2997 40.1637 15.0613 40.0757 14.79C39.995 14.5187 39.9547 14.2253 39.9547 13.91C39.9547 13.4627 40.0134 13.0263 40.1307 12.601C40.248 12.1757 40.4204 11.798 40.6477 11.468C40.8824 11.1307 41.1684 10.863 41.5057 10.665C41.8504 10.4597 42.2464 10.357 42.6937 10.357ZM42.8697 11.182C42.5397 11.182 42.2537 11.259 42.0117 11.413C41.7697 11.567 41.5717 11.7687 41.4177 12.018C41.2637 12.26 41.1464 12.5387 41.0657 12.854C40.9924 13.1693 40.9557 13.4883 40.9557 13.811C40.9557 14.273 41.0657 14.6397 41.2857 14.911C41.513 15.1823 41.8504 15.318 42.2977 15.318C42.6057 15.318 42.8807 15.241 43.1227 15.087C43.3647 14.9257 43.5664 14.7203 43.7277 14.471C43.889 14.2143 44.01 13.932 44.0907 13.624C44.1787 13.3087 44.2227 12.997 44.2227 12.689C44.2227 12.2123 44.109 11.842 43.8817 11.578C43.6617 11.314 43.3244 11.182 42.8697 11.182ZM49.1825 16.143C48.7205 16.143 48.3392 16.0513 48.0385 15.868C47.7378 15.6847 47.5215 15.4243 47.3895 15.087L47.3015 15.604C47.2575 15.868 47.0852 16 46.7845 16H46.3115L47.7085 8.113H48.6655L48.1045 11.292C48.3172 11.006 48.5812 10.7787 48.8965 10.61C49.2192 10.4413 49.5675 10.357 49.9415 10.357C50.2642 10.357 50.5502 10.4157 50.7995 10.533C51.0488 10.643 51.2578 10.8007 51.4265 11.006C51.5952 11.204 51.7198 11.4387 51.8005 11.71C51.8885 11.9813 51.9325 12.2747 51.9325 12.59C51.9325 13.0373 51.8738 13.4737 51.7565 13.899C51.6392 14.3243 51.4632 14.7057 51.2285 15.043C51.0012 15.373 50.7152 15.6407 50.3705 15.846C50.0258 16.044 49.6298 16.143 49.1825 16.143ZM49.0065 15.318C49.3365 15.318 49.6225 15.2447 49.8645 15.098C50.1065 14.944 50.3045 14.7423 50.4585 14.493C50.6198 14.2437 50.7372 13.9613 50.8105 13.646C50.8912 13.3307 50.9315 13.0117 50.9315 12.689C50.9315 12.227 50.8178 11.8603 50.5905 11.589C50.3632 11.3177 50.0258 11.182 49.5785 11.182C49.2705 11.182 48.9955 11.2627 48.7535 11.424C48.5188 11.578 48.3172 11.7833 48.1485 12.04C47.9872 12.2893 47.8625 12.5717 47.7745 12.887C47.6938 13.195 47.6535 13.503 47.6535 13.811C47.6535 14.2877 47.7635 14.658 47.9835 14.922C48.2108 15.186 48.5518 15.318 49.0065 15.318ZM55.407 16.143C54.637 16.143 54.0284 15.9303 53.581 15.505C53.141 15.0723 52.921 14.4783 52.921 13.723C52.921 13.2757 52.987 12.8503 53.119 12.447C53.251 12.0363 53.438 11.677 53.68 11.369C53.9294 11.061 54.23 10.8153 54.582 10.632C54.9414 10.4487 55.3447 10.357 55.792 10.357C56.4154 10.357 56.903 10.5367 57.255 10.896C57.6144 11.248 57.794 11.7283 57.794 12.337C57.794 12.733 57.7317 13.1143 57.607 13.481H53.867V13.679C53.867 14.229 54.0174 14.6397 54.318 14.911C54.6187 15.1823 55.0367 15.318 55.572 15.318C56.056 15.318 56.4997 15.1713 56.903 14.878L57.299 15.527C57.035 15.725 56.7417 15.879 56.419 15.989C56.1037 16.0917 55.7664 16.143 55.407 16.143ZM55.737 11.16C55.5024 11.16 55.2897 11.2003 55.099 11.281C54.9157 11.3617 54.7507 11.4753 54.604 11.622C54.4574 11.7613 54.3327 11.93 54.23 12.128C54.1274 12.3187 54.0504 12.524 53.999 12.744H56.848C56.892 12.5827 56.914 12.4213 56.914 12.26C56.914 11.9007 56.8077 11.6293 56.595 11.446C56.3824 11.2553 56.0964 11.16 55.737 11.16ZM60.9001 8.113L59.7781 14.504C59.7561 14.636 59.7451 14.7423 59.7451 14.823C59.7451 14.9917 59.7964 15.1053 59.8991 15.164C60.0091 15.2227 60.1814 15.252 60.4161 15.252H60.4931L60.3611 16C60.2144 16.0367 60.0751 16.055 59.9431 16.055C59.5691 16.055 59.2794 15.9707 59.0741 15.802C58.8761 15.626 58.7771 15.3547 58.7771 14.988C58.7771 14.8413 58.7917 14.6837 58.8211 14.515L59.9431 8.113H60.9001Z" fill="#B2B3B9"/>
<line x1="3.5" y1="5" x2="3.5" y2="19" stroke="#494B51"/>
<rect x="1" y="1" width="158" height="22" rx="1" stroke="#0068B5" stroke-width="2"/>
</svg>
