<svg width="32" height="32" viewBox="0 0 32 32" fill="none" xmlns="http://www.w3.org/2000/svg">
<path d="M14.6258 18.7672C14.5434 18.8496 14.4178 18.8625 14.322 18.8058C14.3042 18.7954 14.2875 18.7825 14.2722 18.7672L13.9187 18.4137L13.9184 18.4135L12.2393 16.7343C12.1416 16.6367 12.1416 16.4784 12.2393 16.3807L12.5928 16.0272C12.6905 15.9296 12.8488 15.9296 12.9464 16.0272L14.449 17.5298L19.0452 12.9336C19.1428 12.836 19.3011 12.836 19.3987 12.9336L19.7523 13.2872C19.8499 13.3848 19.8499 13.5431 19.7523 13.6407L14.6258 18.7672Z" fill="#494B51"/>
<path fill-rule="evenodd" clip-rule="evenodd" d="M10 11C10 10.4477 10.4477 10 11 10H21C21.5523 10 22 10.4477 22 11V21C22 21.5523 21.5523 22 21 22H11C10.4477 22 10 21.5523 10 21V11ZM11 11H21V21H11L11 11Z" fill="#494B51"/>
</svg>
