<svg width="32" height="32" viewBox="0 0 32 32" fill="none" xmlns="http://www.w3.org/2000/svg">
<path fill-rule="evenodd" clip-rule="evenodd" d="M11.0374 11.7852C12.5254 15.7234 14.3381 20.4724 14.5054 20.7384C14.615 20.9097 14.8072 21.0093 15.0104 20.9993C15.2126 20.9894 15.3939 20.8708 15.4845 20.6896L17.2793 17.2792L20.6886 15.4854C20.8708 15.3938 20.9884 15.2125 20.9993 15.0103C21.0093 14.8071 20.9097 14.6149 20.7384 14.5053C20.4714 14.338 15.7235 12.5262 11.7854 11.0372C11.5704 10.9544 11.3361 11.0166 11.1758 11.1766C11.0105 11.333 10.9557 11.573 11.0374 11.7852ZM19.4069 15.0298C18.8683 14.8153 18.1322 14.5288 17.279 14.2C15.8182 13.637 14.0218 12.9533 12.3019 12.3019C12.953 14.0218 13.6367 15.8183 14.1998 17.2793C14.5285 18.1324 14.8151 18.8683 15.0296 19.4068L16.5389 16.5388L19.4069 15.0298Z" fill="#494B51"/>
</svg>
