<svg width="10" height="10" viewBox="0 0 10 10" fill="none" xmlns="http://www.w3.org/2000/svg">
<path fill-rule="evenodd" clip-rule="evenodd" d="M0.0373878 0.785199C1.5254 4.72343 3.33811 9.47243 3.50544 9.73836C3.615 9.90968 3.80722 10.0093 4.01041 9.99932C4.21259 9.98936 4.39387 9.87083 4.4845 9.68956L6.27928 6.27921L9.68857 4.48539C9.87083 4.39376 9.98836 4.21248 9.99932 4.01029C10.0093 3.8071 9.90968 3.61487 9.73837 3.50531C9.47144 3.33798 4.72354 1.52623 0.785379 0.0371942C0.570367 -0.0455818 0.336063 0.0166035 0.175831 0.176635C0.0104959 0.333009 -0.0442837 0.573049 0.0373878 0.785199ZM8.40692 4.02976C7.86826 3.81535 7.13223 3.52881 6.279 3.2C4.81816 2.63705 3.02182 1.95328 1.30191 1.30187C1.95297 3.02179 2.63673 4.81835 3.19977 6.27928C3.52855 7.13236 3.8151 7.86826 4.02955 8.4068L5.53892 5.53878L8.40692 4.02976Z" fill="black"/>
</svg>
