<svg width="14" height="14" viewBox="0 0 14 14" fill="none" xmlns="http://www.w3.org/2000/svg">
<path fill-rule="evenodd" clip-rule="evenodd" d="M7 10C8.65686 10 10 8.65685 10 7C10 5.34314 8.65686 4 7 4C5.34315 4 4 5.34314 4 7C4 8.65685 5.34315 10 7 10ZM7 8.5C7.82843 8.5 8.5 7.82843 8.5 7C8.5 6.17157 7.82843 5.5 7 5.5C6.17158 5.5 5.5 6.17157 5.5 7C5.5 7.82843 6.17158 8.5 7 8.5Z" fill="black"/>
<path fill-rule="evenodd" clip-rule="evenodd" d="M6.5 0C6.36193 0 6.25 0.111929 6.25 0.25V1.04642C5.15447 1.18303 4.15066 1.61499 3.32077 2.26011L2.75736 1.6967C2.65973 1.59907 2.50144 1.59907 2.40381 1.6967L1.6967 2.40381C1.59907 2.50144 1.59907 2.65973 1.6967 2.75736L2.26011 3.32077C1.61499 4.15066 1.18303 5.15447 1.04642 6.25H0.25C0.111929 6.25 5.96047e-08 6.36193 5.96047e-08 6.5L0 7.5C0 7.63807 0.111929 7.75 0.25 7.75H1.04642C1.18303 8.84553 1.61499 9.84934 2.26011 10.6792L1.6967 11.2426C1.59907 11.3403 1.59907 11.4986 1.6967 11.5962L2.40381 12.3033C2.50144 12.4009 2.65973 12.4009 2.75736 12.3033L3.32077 11.7399C4.15066 12.385 5.15447 12.817 6.25 12.9536V13.75C6.25 13.8881 6.36193 14 6.5 14H7.5C7.63807 14 7.75 13.8881 7.75 13.75V12.9536C8.84553 12.817 9.84934 12.385 10.6792 11.7399L11.2426 12.3033C11.3403 12.4009 11.4986 12.4009 11.5962 12.3033L12.3033 11.5962C12.4009 11.4986 12.4009 11.3403 12.3033 11.2426L11.7399 10.6792C12.385 9.84934 12.817 8.84553 12.9536 7.75H13.75C13.8881 7.75 14 7.63807 14 7.5V6.5C14 6.36193 13.8881 6.25 13.75 6.25H12.9536C12.817 5.15447 12.385 4.15066 11.7399 3.32077L12.3033 2.75736C12.4009 2.65973 12.4009 2.50144 12.3033 2.40381L11.5962 1.6967C11.4986 1.59907 11.3403 1.59907 11.2426 1.6967L10.6792 2.26011C9.84934 1.61499 8.84553 1.18303 7.75 1.04642V0.25C7.75 0.111929 7.63807 0 7.5 0H6.5ZM7 11.5C9.48528 11.5 11.5 9.48528 11.5 7C11.5 4.51472 9.48528 2.5 7 2.5C4.51472 2.5 2.5 4.51472 2.5 7C2.5 9.48528 4.51472 11.5 7 11.5Z" fill="black"/>
</svg>
