<svg width="32" height="32" viewBox="0 0 32 32" fill="none" xmlns="http://www.w3.org/2000/svg">
<path d="M17.0001 15.75V14L15.2599 14C15.0371 14 14.9256 13.7307 15.0831 13.5732L17.3233 11.083C17.3721 11.0342 17.4361 11 17.5001 11C17.564 11 17.628 11.0342 17.6768 11.083L19.917 13.5732C20.0745 13.7307 19.963 14 19.7403 14L18.0001 14V15.75C18.0001 15.8881 17.8881 16 17.7501 16H17.2501C17.112 16 17.0001 15.8881 17.0001 15.75Z" fill="#494B51"/>
<path d="M14 16.25L14 18L12.2598 18C12.0371 18 11.9255 18.2693 12.083 18.4268L14.3232 20.917C14.372 20.9658 14.436 21 14.5 21C14.564 21 14.6279 20.9658 14.6768 20.917L16.917 18.4268C17.0744 18.2693 16.9629 18 16.7402 18L15 18L15 16.25C15 16.1119 14.888 16 14.75 16L14.25 16C14.1119 16 14 16.1119 14 16.25Z" fill="#494B51"/>
</svg>
