<svg width="14" height="14" viewBox="0 0 14 14" fill="none" xmlns="http://www.w3.org/2000/svg">
<path d="M5 0C4.44772 0 4 0.447716 4 1V2.75C4 2.88807 4.11193 3 4.25 3H4.75C4.88807 3 5 2.88807 5 2.75V2H6V1H12V2H13V8H12V9H11.25C11.1119 9 11 9.11193 11 9.25V9.75C11 9.88807 11.1119 10 11.25 10H13C13.5523 10 14 9.55228 14 9V1C14 0.447715 13.5523 0 13 0H5Z" fill="black"/>
<path fill-rule="evenodd" clip-rule="evenodd" d="M0 5C0 4.44772 0.447715 4 1 4H9C9.55228 4 10 4.44772 10 5V13C10 13.5523 9.55228 14 9 14H1C0.447716 14 0 13.5523 0 13V5ZM2 6V5H8V6H9V12H8V13H2V12H1V6H2Z" fill="black"/>
</svg>
