<svg width="336" height="32" viewBox="0 0 336 32" fill="none" xmlns="http://www.w3.org/2000/svg">
<rect x="0.5" y="0.5" width="86" height="31" rx="1.5" fill="#F9F9F9"/>
<path d="M10.724 18.972L9.908 21H8.288L11.804 12.576H13.784L17.288 21H15.62L14.804 18.972H10.724ZM12.764 13.884L11.204 17.748H14.312L12.764 13.884ZM18.8322 21V12.6H20.4162V19.704H24.8322V21H18.8322ZM26.5236 21V12.6H28.1076V19.704H32.5236V21H26.5236ZM38.8829 13.92H35.8349V12.6H43.5149V13.92H40.4669V21H38.8829V13.92ZM45.7943 18.972L44.9783 21H43.3583L46.8743 12.576H48.8543L52.3583 21H50.6903L49.8743 18.972H45.7943ZM47.8343 13.884L46.2743 17.748H49.3823L47.8343 13.884ZM57.1451 19.86C57.7611 19.86 58.2451 19.748 58.5971 19.524C58.9571 19.3 59.1371 19 59.1371 18.624C59.1371 18.272 58.9771 18.012 58.6571 17.844C58.3371 17.668 57.7851 17.532 57.0011 17.436C55.7931 17.268 54.9371 17 54.4331 16.632C53.9291 16.264 53.6771 15.712 53.6771 14.976C53.6771 14.24 53.9891 13.632 54.6131 13.152C55.2451 12.672 56.0691 12.432 57.0851 12.432C57.7011 12.432 58.2691 12.52 58.7891 12.696C59.3171 12.872 59.8491 13.152 60.3851 13.536L59.6891 14.724C59.2971 14.42 58.8651 14.18 58.3931 14.004C57.9291 13.828 57.4851 13.74 57.0611 13.74C56.4851 13.74 56.0291 13.844 55.6931 14.052C55.3571 14.252 55.1891 14.516 55.1891 14.844C55.1891 15.188 55.3371 15.444 55.6331 15.612C55.9371 15.78 56.4611 15.912 57.2051 16.008C58.4611 16.176 59.3491 16.448 59.8691 16.824C60.3891 17.192 60.6491 17.752 60.6491 18.504C60.6491 19.272 60.3251 19.908 59.6771 20.412C59.0291 20.916 58.1771 21.168 57.1211 21.168C56.3691 21.168 55.6851 21.068 55.0691 20.868C54.4611 20.66 53.8851 20.34 53.3411 19.908L54.0371 18.732C54.5171 19.1 55.0211 19.38 55.5491 19.572C56.0851 19.764 56.6171 19.86 57.1451 19.86ZM62.6135 12.6H64.1975V16.512L68.2535 12.6H70.2695V12.624L65.8775 16.668L70.3895 20.976V21H68.2895L64.2215 17.028H64.1975V21H62.6135V12.6ZM74.6373 19.86C75.2533 19.86 75.7373 19.748 76.0893 19.524C76.4493 19.3 76.6293 19 76.6293 18.624C76.6293 18.272 76.4693 18.012 76.1493 17.844C75.8293 17.668 75.2773 17.532 74.4933 17.436C73.2853 17.268 72.4293 17 71.9253 16.632C71.4213 16.264 71.1693 15.712 71.1693 14.976C71.1693 14.24 71.4813 13.632 72.1053 13.152C72.7373 12.672 73.5613 12.432 74.5773 12.432C75.1933 12.432 75.7613 12.52 76.2812 12.696C76.8093 12.872 77.3413 13.152 77.8773 13.536L77.1813 14.724C76.7893 14.42 76.3573 14.18 75.8853 14.004C75.4213 13.828 74.9773 13.74 74.5533 13.74C73.9773 13.74 73.5213 13.844 73.1853 14.052C72.8493 14.252 72.6813 14.516 72.6813 14.844C72.6813 15.188 72.8293 15.444 73.1253 15.612C73.4293 15.78 73.9533 15.912 74.6973 16.008C75.9533 16.176 76.8413 16.448 77.3613 16.824C77.8813 17.192 78.1413 17.752 78.1413 18.504C78.1413 19.272 77.8173 19.908 77.1693 20.412C76.5213 20.916 75.6693 21.168 74.6133 21.168C73.8613 21.168 73.1773 21.068 72.5613 20.868C71.9533 20.66 71.3773 20.34 70.8333 19.908L71.5293 18.732C72.0093 19.1 72.5133 19.38 73.0413 19.572C73.5773 19.764 74.1093 19.86 74.6373 19.86Z" fill="#494B51"/>
<rect x="0.5" y="0.5" width="86" height="31" rx="1.5" stroke="#E2E2E4"/>
<g clip-path="url(#clip0_5651_7543)">
<path d="M213.356 19.86C213.972 19.86 214.456 19.748 214.808 19.524C215.168 19.3 215.348 19 215.348 18.624C215.348 18.272 215.188 18.012 214.868 17.844C214.548 17.668 213.996 17.532 213.212 17.436C212.004 17.268 211.148 17 210.644 16.632C210.14 16.264 209.888 15.712 209.888 14.976C209.888 14.24 210.2 13.632 210.824 13.152C211.456 12.672 212.28 12.432 213.296 12.432C213.912 12.432 214.48 12.52 215 12.696C215.528 12.872 216.06 13.152 216.596 13.536L215.9 14.724C215.508 14.42 215.076 14.18 214.604 14.004C214.14 13.828 213.696 13.74 213.272 13.74C212.696 13.74 212.24 13.844 211.904 14.052C211.568 14.252 211.4 14.516 211.4 14.844C211.4 15.188 211.548 15.444 211.844 15.612C212.148 15.78 212.672 15.912 213.416 16.008C214.672 16.176 215.56 16.448 216.08 16.824C216.6 17.192 216.86 17.752 216.86 18.504C216.86 19.272 216.536 19.908 215.888 20.412C215.24 20.916 214.388 21.168 213.332 21.168C212.58 21.168 211.896 21.068 211.28 20.868C210.672 20.66 210.096 20.34 209.552 19.908L210.248 18.732C210.728 19.1 211.232 19.38 211.76 19.572C212.296 19.764 212.828 19.86 213.356 19.86ZM218.824 21V12.6H225.244V13.848H220.372V16.128H224.908V17.388H220.372V19.752H225.244V21H218.824ZM231.324 13.704C230.476 13.704 229.776 13.996 229.224 14.58C228.672 15.164 228.396 15.9 228.396 16.788C228.396 17.7 228.664 18.448 229.2 19.032C229.744 19.616 230.424 19.908 231.24 19.908C231.968 19.908 232.556 19.712 233.004 19.32C233.46 18.92 233.736 18.356 233.832 17.628H230.952V16.452H235.284C235.3 16.564 235.312 16.672 235.32 16.776C235.328 16.88 235.332 16.968 235.332 17.04C235.332 18.304 234.952 19.316 234.192 20.076C233.44 20.828 232.432 21.204 231.168 21.204C229.896 21.204 228.848 20.792 228.024 19.968C227.2 19.144 226.788 18.092 226.788 16.812C226.788 15.556 227.212 14.508 228.06 13.668C228.916 12.82 229.984 12.396 231.264 12.396C232.032 12.396 232.716 12.544 233.316 12.84C233.916 13.128 234.408 13.552 234.792 14.112L233.796 15.06C233.476 14.612 233.108 14.276 232.692 14.052C232.284 13.82 231.828 13.704 231.324 13.704ZM244.19 12.6H246.578V21H245.066V13.776L242.63 18.984H241.202L238.766 13.8V21H237.254V12.6H239.726L241.958 17.424L244.19 12.6ZM248.848 21V12.6H255.268V13.848H250.396V16.128H254.932V17.388H250.396V19.752H255.268V21H248.848ZM258.766 14.484V21H257.278V12.6H259.15L263.518 19.068V12.6H265.006V21H263.146L258.766 14.484ZM269.762 13.92H266.714V12.6H274.394V13.92H271.346V21H269.762V13.92ZM276.673 18.972L275.857 21H274.237L277.753 12.576H279.733L283.237 21H281.569L280.753 18.972H276.673ZM278.713 13.884L277.153 17.748H280.261L278.713 13.884ZM286.129 13.92H283.081V12.6H290.761V13.92H287.713V21H286.129V13.92ZM292.557 21V12.6H294.141V21H292.557ZM300.492 12.396C301.748 12.396 302.788 12.816 303.612 13.656C304.444 14.488 304.86 15.532 304.86 16.788C304.86 18.044 304.44 19.096 303.6 19.944C302.768 20.784 301.728 21.204 300.48 21.204C299.232 21.204 298.192 20.784 297.36 19.944C296.528 19.104 296.112 18.06 296.112 16.812C296.112 15.564 296.532 14.516 297.372 13.668C298.212 12.82 299.252 12.396 300.492 12.396ZM300.48 13.704C299.688 13.704 299.028 14 298.5 14.592C297.98 15.176 297.72 15.908 297.72 16.788C297.72 17.668 297.984 18.408 298.512 19.008C299.04 19.6 299.7 19.896 300.492 19.896C301.292 19.896 301.952 19.604 302.472 19.02C302.992 18.436 303.252 17.7 303.252 16.812C303.252 15.924 302.988 15.184 302.46 14.592C301.932 14 301.272 13.704 300.48 13.704ZM308.23 14.484V21H306.742V12.6H308.614L312.982 19.068V12.6H314.47V21H312.61L308.23 14.484Z" fill="#494B51"/>
</g>
<path d="M181.5 2C181.5 1.17157 182.172 0.5 183 0.5H319.793L334.232 14.9393C334.818 15.5251 334.818 16.4749 334.232 17.0607L319.793 31.5H183C182.172 31.5 181.5 30.8284 181.5 30V2Z" stroke="#E2E2E4"/>
<g clip-path="url(#clip1_5651_7543)">
<path d="M95 2C95 0.895431 95.8954 0 97 0H185V32H97C95.8954 32 95 31.1046 95 30V2Z" fill="#E9EAEB"/>
<path d="M104.008 21V12.6H107.26C108.652 12.6 109.76 12.98 110.584 13.74C111.416 14.492 111.832 15.492 111.832 16.74C111.832 18.028 111.4 19.06 110.536 19.836C109.672 20.612 108.512 21 107.056 21H104.008ZM110.236 16.764C110.236 15.932 109.96 15.252 109.408 14.724C108.856 14.188 108.136 13.92 107.248 13.92H105.592V19.68H107.068C108.052 19.68 108.824 19.42 109.384 18.9C109.952 18.372 110.236 17.66 110.236 16.764ZM113.715 21V12.6H120.135V13.848H115.263V16.128H119.799V17.388H115.263V19.752H120.135V21H113.715ZM124.641 13.92H121.593V12.6H129.273V13.92H126.225V21H124.641V13.92ZM130.985 21V12.6H137.405V13.848H132.533V16.128H137.069V17.388H132.533V19.752H137.405V21H130.985ZM140.556 16.788C140.556 17.7 140.812 18.448 141.324 19.032C141.844 19.608 142.504 19.896 143.304 19.896C143.824 19.896 144.296 19.772 144.72 19.524C145.152 19.268 145.52 18.896 145.824 18.408L146.916 19.2C146.524 19.848 146.016 20.344 145.392 20.688C144.768 21.032 144.06 21.204 143.268 21.204C141.988 21.204 140.948 20.8 140.148 19.992C139.348 19.176 138.948 18.116 138.948 16.812C138.948 15.564 139.372 14.516 140.22 13.668C141.068 12.82 142.12 12.396 143.376 12.396C144.16 12.396 144.844 12.56 145.428 12.888C146.02 13.208 146.508 13.692 146.892 14.34L145.764 15.18C145.436 14.676 145.076 14.304 144.684 14.064C144.292 13.824 143.844 13.704 143.34 13.704C142.532 13.704 141.864 13.996 141.336 14.58C140.816 15.156 140.556 15.892 140.556 16.788ZM151.254 13.92H148.206V12.6H155.886V13.92H152.838V21H151.254V13.92ZM157.682 21V12.6H159.266V21H157.682ZM165.617 12.396C166.873 12.396 167.913 12.816 168.737 13.656C169.569 14.488 169.985 15.532 169.985 16.788C169.985 18.044 169.565 19.096 168.725 19.944C167.893 20.784 166.853 21.204 165.605 21.204C164.357 21.204 163.317 20.784 162.485 19.944C161.653 19.104 161.237 18.06 161.237 16.812C161.237 15.564 161.657 14.516 162.497 13.668C163.337 12.82 164.377 12.396 165.617 12.396ZM165.605 13.704C164.813 13.704 164.153 14 163.625 14.592C163.105 15.176 162.845 15.908 162.845 16.788C162.845 17.668 163.109 18.408 163.637 19.008C164.165 19.6 164.825 19.896 165.617 19.896C166.417 19.896 167.077 19.604 167.597 19.02C168.117 18.436 168.377 17.7 168.377 16.812C168.377 15.924 168.113 15.184 167.585 14.592C167.057 14 166.397 13.704 165.605 13.704ZM173.355 14.484V21H171.867V12.6H173.739L178.107 19.068V12.6H179.595V21H177.735L173.355 14.484Z" fill="#2B2C30"/>
<path d="M198.172 13.1716C199.734 14.7337 199.734 17.2663 198.172 18.8284L185 32L185 -6.99382e-07L198.172 13.1716Z" fill="#E9EAEB"/>
</g>
<path d="M95.5 2C95.5 1.17157 96.1716 0.5 97 0.5H184.793L199.232 14.9393C199.818 15.5251 199.818 16.4749 199.232 17.0607L184.793 31.5H97C96.1716 31.5 95.5 30.8284 95.5 30V2Z" stroke="#E2E2E4"/>
<defs>
<clipPath id="clip0_5651_7543">
<rect width="155" height="32" fill="white" transform="translate(181)"/>
</clipPath>
<clipPath id="clip1_5651_7543">
<rect width="106" height="32" fill="white" transform="translate(95)"/>
</clipPath>
</defs>
</svg>
