<svg width="32" height="32" viewBox="0 0 32 32" fill="none" xmlns="http://www.w3.org/2000/svg">
<path d="M16 9.25017C16 9.11209 16.112 8.9997 16.25 9.00455C17.0454 9.03247 17.8071 9.19311 18.5136 9.46501C18.6424 9.51459 18.7013 9.66184 18.6472 9.78882L18.451 10.249C18.3969 10.3761 18.2501 10.4346 18.121 10.3858C17.5355 10.1645 16.9063 10.0322 16.2499 10.0053C16.112 9.99962 16 9.88824 16 9.75017V9.25017Z" fill="#494B51"/>
<path d="M13.53 10.5305C13.6558 10.4736 13.7181 10.3285 13.6665 10.2005L13.4798 9.73637C13.4283 9.60825 13.2824 9.54578 13.1562 9.60194C12.4434 9.91923 11.7935 10.3521 11.2301 10.8768C11.1291 10.9709 11.1294 11.1296 11.227 11.2272L11.5806 11.5807C11.6782 11.6784 11.8362 11.678 11.9377 11.5845C12.4059 11.1536 12.9428 10.7961 13.53 10.5305Z" fill="#494B51"/>
<path d="M20.4157 11.9379C20.3222 11.8363 20.3218 11.6784 20.4194 11.5807L20.773 11.2272C20.8706 11.1296 21.0292 11.1293 21.1234 11.2303C21.648 11.7936 22.0809 12.4436 22.3982 13.1564C22.4544 13.2825 22.3919 13.4284 22.2638 13.48L21.7997 13.6667C21.6716 13.7182 21.5265 13.6559 21.4696 13.5302C21.204 12.9429 20.8466 12.4061 20.4157 11.9379Z" fill="#494B51"/>
<path d="M21.9949 16.2504C22.0005 16.1124 22.1119 16.0002 22.25 16.0002H22.75C22.8881 16.0002 23.0005 16.1126 22.9956 16.2506C22.8638 20.0006 19.7822 23.0002 16 23.0002C13.4537 23.0002 11.2249 21.6406 10 19.6078V22.7502C10 22.8882 9.88807 23.0002 9.75 23.0002H9.25C9.11193 23.0002 9 22.8882 9 22.7502L9 18.0002H13.75C13.8881 18.0002 14 18.1121 14 18.2502V18.7502C14 18.8882 13.8881 19.0002 13.75 19.0002H10.8027C11.8401 20.7936 13.7792 22.0002 16 22.0002C19.2299 22.0002 21.8637 19.4481 21.9949 16.2504Z" fill="#494B51"/>
<path d="M10.3859 13.8785C10.4347 13.7493 10.3762 13.6026 10.2492 13.5484L9.78897 13.3522C9.66201 13.2981 9.51475 13.357 9.46515 13.4858C9.19311 14.1923 9.03237 14.9542 9.0044 15.7498C8.99954 15.8877 9.11193 16.0002 9.25 16.0002H9.75C9.88807 16.0002 9.99946 15.8879 10.0051 15.7499C10.0321 15.0934 10.1645 14.4641 10.3859 13.8785Z" fill="#494B51"/>
</svg>
