<svg width="32" height="32" viewBox="0 0 32 32" fill="none" xmlns="http://www.w3.org/2000/svg">
<path fill-rule="evenodd" clip-rule="evenodd" d="M19 12C19 13.6569 17.6569 15 16 15C14.3432 15 13 13.6569 13 12C13 10.3431 14.3432 9 16 9C17.6569 9 19 10.3431 19 12ZM17.5 12C17.5 12.8284 16.8284 13.5 16 13.5C15.1716 13.5 14.5 12.8284 14.5 12C14.5 11.1716 15.1716 10.5 16 10.5C16.8284 10.5 17.5 11.1716 17.5 12Z" fill="#2B2C30"/>
<path fill-rule="evenodd" clip-rule="evenodd" d="M10 21.75C10 21.75 9.99999 20.0908 10 19.4375C10 19.1875 10.1579 18.9388 10.3473 18.7434L12.635 16.3713C12.8741 16.1244 13.1878 16 13.5016 16H18.4969C18.8098 16 19.1235 16.1244 19.3618 16.3713L21.6503 18.7434C21.8397 18.9388 22 19.1875 22 19.4375L22 21.75C22 21.8881 21.8881 22 21.75 22H10.25C10.1119 22 10 21.8881 10 21.75ZM20.5 20.5L20.5 19.7115L18.3664 17.5H13.6304L11.5 19.7089L11.5 20.5H20.5ZM10.25 21.75C11.5 21.75 11.5 21.75 11.5 21.75L10.25 21.75Z" fill="#2B2C30"/>
</svg>
