<svg width="32" height="32" viewBox="0 0 32 32" fill="none" xmlns="http://www.w3.org/2000/svg">
<path d="M16.75 14C16.8881 14 17 14.1119 17 14.25V14.75C17 14.8881 16.8881 15 16.75 15C14.0325 15 14.6955 15 12.25 15C12.1119 15 12 14.8881 12 14.75V14.25C12 14.1119 12.1119 14 12.25 14C14.964 14 14.3045 14 16.75 14Z" fill="#494B51"/>
<path fill-rule="evenodd" clip-rule="evenodd" d="M14.5 19C15.5625 19 16.539 18.6318 17.3089 18.0159L21.2197 21.9268C21.3173 22.0244 21.4756 22.0244 21.5732 21.9268L21.9268 21.5732C22.0244 21.4756 22.0244 21.3173 21.9268 21.2197L18.016 17.3088C18.6318 16.539 19 15.5625 19 14.5C19 12.0147 16.9853 10 14.5 10C12.0147 10 10 12.0147 10 14.5C10 16.9853 12.0147 19 14.5 19ZM14.5156 18.0312C16.4573 18.0312 18.0312 16.4573 18.0312 14.5156C18.0312 12.574 16.4573 11 14.5156 11C12.574 11 11 12.574 11 14.5156C11 16.4573 12.574 18.0312 14.5156 18.0312Z" fill="#494B51"/>
</svg>
