<svg width="1008" height="475" viewBox="0 0 1008 475" fill="none" xmlns="http://www.w3.org/2000/svg">
<path d="M478.25 19.96C471.722 19.96 466.586 25.144 466.586 32.152C466.586 39.496 471.674 44.44 478.01 44.44C483.818 44.44 487.61 41.32 488.426 35.8H476.954V30.76H494.234C494.33 31.48 494.426 32.44 494.426 33.16C494.426 43.144 487.994 49.768 477.77 49.768C467.738 49.768 460.394 42.376 460.394 32.248C460.394 22.024 468.266 14.632 478.298 14.632C484.73 14.632 489.866 17.656 492.602 22.12L488.282 25.528C485.738 21.736 482.33 19.96 478.25 19.96ZM510.432 45.064C512.928 45.064 515.424 44.008 517.488 41.704L520.512 44.968C517.968 47.992 514.32 49.768 509.904 49.768C502.416 49.768 497.232 44.728 497.232 37.192C497.232 30.088 502.512 24.616 509.616 24.616C516.672 24.616 521.376 29.56 521.376 36.952C521.376 37.768 521.28 38.536 521.184 39.112H503.136C503.808 42.952 506.784 45.064 510.432 45.064ZM509.616 29.224C506.496 29.224 503.856 31.24 503.136 35.08H515.664C515.136 31.384 512.784 29.224 509.616 29.224ZM526.119 41.512V30.328H522.951V25.288H526.119V18.568H531.879V25.288H537.159V30.328H531.879V40.936C531.879 43.192 532.887 43.96 534.663 43.96H537.159V49H533.703C528.423 49 526.119 46.84 526.119 41.512ZM546.807 15.4V21.208H540.663V15.4H546.807ZM540.855 25.288H546.615V49H540.855V25.288Z" fill="white"/>
<path d="M255.492 97.2749C255.445 97.2749 255.398 97.2749 255.351 97.2749L251.188 89.6959C251.281 89.5556 251.281 89.4152 251.281 89.2281C251.281 88.6667 250.813 88.2456 250.299 88.2456C250.018 88.2456 249.737 88.386 249.597 88.5731L241.363 86.8889C241.316 86.3743 240.895 86 240.381 86C239.819 86 239.398 86.4678 239.398 86.9825C239.398 87.1696 239.445 87.3099 239.492 87.4503L233.082 96.6667C232.989 96.6667 232.895 96.6199 232.802 96.6199C232.24 96.6199 231.819 97.0877 231.819 97.6023C231.819 98.1637 232.287 98.5848 232.802 98.5848H232.849L236.311 107.146C236.264 107.287 236.217 107.427 236.217 107.567C236.217 108.129 236.685 108.55 237.199 108.55C237.48 108.55 237.761 108.409 237.901 108.222L248.287 109.251C248.381 109.673 248.802 110 249.27 110C249.831 110 250.252 109.532 250.252 109.018C250.252 108.784 250.159 108.55 250.018 108.363L255.258 99.2398C255.305 99.2398 255.351 99.2398 255.445 99.2398C256.006 99.2398 256.428 98.7719 256.428 98.2573C256.474 97.7427 256.053 97.2749 255.492 97.2749ZM249.504 89.8363C249.644 89.9766 249.784 90.117 249.971 90.1637L248.381 102.047C248.287 102.047 248.194 102.094 248.1 102.14L239.445 94.655C239.445 94.5614 239.492 94.4678 239.492 94.3743C239.492 94.3275 239.492 94.2339 239.492 94.1871L249.504 89.8363ZM254.509 98.5848L249.176 102.234C249.129 102.187 249.082 102.187 249.036 102.14L250.673 90.1637L254.743 97.6491C254.603 97.8363 254.509 98.0702 254.509 98.3041C254.463 98.3977 254.509 98.4912 254.509 98.5848ZM238.369 93.3918C237.901 93.4854 237.527 93.8596 237.527 94.3743V94.4211L233.971 96.5263L239.492 88.6199L238.369 93.3918ZM238.743 95.3567C238.884 95.3099 239.024 95.2632 239.118 95.2164L247.679 102.655C247.632 102.749 247.632 102.889 247.632 103.029V103.076L238.042 107.006C237.901 106.819 237.667 106.632 237.433 106.585L238.743 95.3567ZM247.866 103.684C248.006 103.825 248.194 103.918 248.381 103.965L248.849 108.129C248.661 108.222 248.474 108.409 248.381 108.596L238.322 107.614L247.866 103.684ZM249.082 103.918C249.41 103.778 249.644 103.404 249.644 103.029C249.644 102.936 249.644 102.842 249.597 102.795L254.463 99.4737L249.55 107.988L249.082 103.918ZM249.316 89.1813L239.164 93.6257C239.118 93.5789 239.071 93.5789 239.071 93.5322L240.381 88.0117H240.428C240.802 88.0117 241.082 87.8246 241.27 87.5439L249.316 89.1813ZM233.831 97.6023C233.831 97.5556 233.831 97.462 233.831 97.4152L237.854 95.0292C237.948 95.1228 238.042 95.1696 238.135 95.2164L236.825 106.444L233.55 98.3509C233.691 98.1637 233.831 97.9298 233.831 97.6023Z" fill="white"/>
<path d="M267.749 101.953V94.7953C267.749 91.3333 270.369 90.0234 273.784 90.0234C277.153 90.0234 279.819 91.3333 279.819 94.7953V101.953C279.819 105.415 277.153 106.725 273.784 106.725C270.369 106.725 267.749 105.415 267.749 101.953ZM278.322 94.7953C278.322 92.269 276.638 91.1462 273.784 91.1462C270.93 91.1462 269.246 92.3158 269.246 94.7953V101.953C269.246 104.48 270.93 105.602 273.784 105.602C276.638 105.602 278.322 104.433 278.322 101.953V94.7953Z" fill="white"/>
<path d="M294.65 105.743L285.854 92.7368V106.07C285.854 106.398 285.48 106.585 285.106 106.585C284.732 106.585 284.357 106.444 284.357 106.07V90.538C284.357 90.1637 284.732 90.0702 285.106 90.0702C285.667 90.0702 286.042 90.6316 286.322 91.0058L294.977 103.918V90.538C294.977 90.2105 295.351 90.0702 295.726 90.0702C296.1 90.0702 296.474 90.2105 296.474 90.538V106.07C296.474 106.398 296.1 106.585 295.726 106.585C295.258 106.585 294.93 106.117 294.65 105.743Z" fill="white"/>
<path d="M311.492 105.743L302.697 92.7368V106.07C302.697 106.398 302.322 106.585 301.948 106.585C301.574 106.585 301.199 106.444 301.199 106.07V90.538C301.199 90.1637 301.574 90.0702 301.948 90.0702C302.509 90.0702 302.884 90.6316 303.164 91.0058L311.819 103.918V90.538C311.819 90.2105 312.194 90.0702 312.568 90.0702C312.942 90.0702 313.316 90.2105 313.316 90.538V106.07C313.316 106.398 312.942 106.585 312.568 106.585C312.147 106.585 311.773 106.117 311.492 105.743Z" fill="white"/>
<path d="M322.626 99.3801L318.182 105.836C317.995 106.164 317.714 106.585 317.293 106.585C316.919 106.585 316.451 106.351 316.451 106.023C316.451 105.93 316.498 105.836 316.591 105.743L321.737 98.3041L316.685 90.9123C316.544 90.7719 316.498 90.6316 316.498 90.4912C316.498 90.2105 316.872 90.0234 317.34 90.0234C317.761 90.0234 318.042 90.4444 318.275 90.8187L322.626 97.2281L326.977 90.8187C327.211 90.4912 327.492 90.0234 327.913 90.0234C328.381 90.0234 328.755 90.2105 328.755 90.4912C328.755 90.6316 328.708 90.7719 328.568 90.9123L323.468 98.3041L328.661 105.743C328.708 105.836 328.802 105.93 328.802 106.023C328.802 106.351 328.381 106.585 327.96 106.585C327.492 106.585 327.258 106.117 327.071 105.836L322.626 99.3801Z" fill="white"/>
<path d="M336.802 98L346.802 103.774L346.802 92.2265L336.802 98ZM464.802 98L464.802 97L345.802 97L345.802 98L345.802 99L464.802 99L464.802 98Z" fill="white"/>
<line x1="485.215" y1="83.7192" x2="504.215" y2="111.719" stroke="#9A9A9A"/>
<line x1="485.025" y1="83.5528" x2="513.025" y2="97.5528" stroke="#9A9A9A"/>
<line x1="523.215" y1="84.2808" x2="504.215" y2="112.281" stroke="#9A9A9A"/>
<line x1="523.025" y1="84.4472" x2="495.025" y2="98.4472" stroke="#9A9A9A"/>
<line x1="522.802" y1="84.5" x2="484.802" y2="84.5" stroke="#9A9A9A"/>
<line x1="512.802" y1="98.5" x2="494.802" y2="98.5" stroke="#9A9A9A"/>
<line x1="504.222" y1="84.2704" x2="495.222" y2="98.2704" stroke="#9A9A9A"/>
<line x1="504.222" y1="83.7296" x2="513.222" y2="97.7296" stroke="#9A9A9A"/>
<circle cx="484.802" cy="84" r="3.5" fill="#242528" stroke="#9A9A9A"/>
<circle cx="494.802" cy="98" r="3.5" fill="#242528" stroke="#9A9A9A"/>
<circle cx="512.802" cy="98" r="3.5" fill="#242528" stroke="#9A9A9A"/>
<circle cx="503.802" cy="84" r="3.5" fill="#242528" stroke="#9A9A9A"/>
<circle cx="503.802" cy="112" r="3.5" fill="#242528" stroke="#9A9A9A"/>
<circle cx="522.802" cy="84" r="3.5" fill="#242528" stroke="#9A9A9A"/>
<path d="M670.802 98L660.802 92.2265L660.802 103.773L670.802 98ZM542.802 98L542.802 99L661.802 99L661.802 98L661.802 97L542.802 97L542.802 98Z" fill="white"/>
<path d="M691.291 91.4754L689.972 92.7943C692.131 94.9525 692.131 98.4296 689.972 100.548C687.814 102.706 684.337 102.706 682.219 100.548C680.061 98.3896 680.061 94.9125 682.219 92.7943L686.116 88.8976V86.3197L680.96 91.4754C678.082 94.353 678.082 98.9891 680.96 101.867C683.838 104.744 688.474 104.744 691.291 101.867C694.169 98.9692 694.169 94.353 691.291 91.4754Z" fill="white"/>
<path d="M689.673 90.1965C689.673 90.7262 689.243 91.1557 688.713 91.1557C688.184 91.1557 687.754 90.7262 687.754 90.1965C687.754 89.6667 688.184 89.2373 688.713 89.2373C689.243 89.2373 689.673 89.6667 689.673 90.1965Z" fill="white"/>
<path d="M704.62 98.0699H702.402V103.765H700.723V87.5587H704.8C709.056 87.5587 711.095 89.657 711.095 92.5945C711.155 96.2115 708.637 98.0699 704.62 98.0699ZM704.8 89.1774C704.62 89.1774 702.462 89.1774 702.462 89.1774V96.6311L704.74 96.5712C707.798 96.5112 709.476 95.3122 709.476 92.7943C709.476 90.4363 707.798 89.1774 704.8 89.1774Z" fill="white"/>
<path d="M718.609 103.705L717.649 106.283C716.57 109.161 715.431 110 713.813 110C712.913 110 712.254 109.76 711.534 109.46L712.014 107.962C712.554 108.261 713.153 108.501 713.813 108.501C714.712 108.501 715.371 108.022 716.27 105.744L717.05 103.645L712.434 91.9351H714.172L717.889 101.727L721.546 91.9351H723.225L718.609 103.705Z" fill="white"/>
<path d="M728.7 89.1774V103.825H727.022V89.1774H721.326V87.6187H734.355V89.1774C734.335 89.1774 728.7 89.1774 728.7 89.1774Z" fill="white"/>
<path d="M739.091 104.125C735.794 104.125 733.396 101.667 733.396 97.8901C733.396 94.1132 735.914 91.5953 739.271 91.5953C742.628 91.5953 744.967 94.0533 744.967 97.8301C744.907 101.607 742.389 104.125 739.091 104.125ZM739.151 93.0941C736.633 93.0941 735.015 95.0724 735.015 97.8901C735.015 100.768 736.693 102.746 739.211 102.746C741.729 102.746 743.348 100.768 743.348 97.95C743.348 95.0125 741.669 93.0941 739.151 93.0941Z" fill="white"/>
<path d="M748.983 103.825H747.365V91.9351L748.983 91.5754V94.0933C749.763 92.5945 750.902 91.5754 752.46 91.5754C753.24 91.5754 753.959 91.8152 754.559 92.1149L754.139 93.6137C753.599 93.3139 753 93.0741 752.34 93.0741C751.081 93.0741 749.942 94.0333 748.983 96.1316V103.825Z" fill="white"/>
<path d="M760.873 104.125C757.276 104.125 755.058 101.547 755.058 97.8901C755.058 94.1732 757.516 91.5953 760.873 91.5953C762.312 91.5953 763.571 91.955 764.59 92.6145L764.171 94.0533C763.271 93.4538 762.132 93.0941 760.873 93.0941C758.295 93.0941 756.737 95.0125 756.737 97.8301C756.737 100.708 758.415 102.626 760.933 102.626C762.132 102.626 763.331 102.266 764.23 101.667L764.59 103.166C763.511 103.765 762.252 104.125 760.873 104.125Z" fill="white"/>
<path d="M774.502 96.1316C774.502 94.0333 773.663 93.1341 771.984 93.1341C770.605 93.1341 769.286 93.8535 768.327 94.8127V103.825H766.708V86.3597L768.327 86V93.5137C769.586 92.2548 771.145 91.6553 772.464 91.6553C774.742 91.6553 776.181 93.154 776.181 95.7319V103.845H774.502V96.1316Z" fill="white"/>
<path d="M504 156L509.774 146L498.226 146L504 156ZM504 132L503 132L503 147L504 147L505 147L505 132L504 132Z" fill="white"/>
<g clip-path="url(#clip0_9210_36044)">
<path d="M436.616 168.263C440.299 168.263 443.375 169.496 445.845 171.962C448.316 174.429 449.551 177.488 449.551 181.142C449.551 184.796 448.316 187.855 445.845 190.322C443.375 192.788 440.299 194.021 436.616 194.021C432.934 194.021 429.863 192.794 427.404 190.339C424.945 187.884 423.716 184.819 423.716 181.142C423.716 177.488 424.94 174.429 427.387 171.962C429.834 169.496 432.911 168.263 436.616 168.263ZM427.661 181.142C427.661 183.699 428.531 185.869 430.269 187.65C432.007 189.431 434.123 190.322 436.616 190.322C439.132 190.322 441.259 189.443 442.998 187.684C444.736 185.926 445.605 183.745 445.605 181.142C445.605 178.585 444.736 176.415 442.998 174.634C441.259 172.853 439.132 171.962 436.616 171.962C434.1 171.962 431.979 172.847 430.252 174.617C428.525 176.387 427.661 178.562 427.661 181.142Z" fill="white"/>
<path d="M451.487 176.758H455.295V179.532C456.485 177.386 458.383 176.312 460.991 176.312C463.301 176.312 465.188 177.123 466.652 178.744C468.115 180.366 468.847 182.466 468.847 185.047C468.847 187.627 468.104 189.751 466.617 191.418C465.13 193.085 463.22 193.918 460.888 193.918C458.966 193.918 457.668 193.576 456.993 192.891C456.319 192.205 455.902 191.749 455.741 191.521C455.581 191.292 455.433 191.052 455.295 190.801V199.809L451.487 199.844V176.758ZM455.192 185.081C455.192 186.725 455.655 188.067 456.582 189.106C457.508 190.145 458.715 190.664 460.201 190.664C461.619 190.664 462.786 190.15 463.701 189.123C464.616 188.095 465.073 186.771 465.073 185.15C465.073 183.528 464.616 182.204 463.701 181.176C462.786 180.149 461.619 179.635 460.201 179.635C458.692 179.635 457.48 180.137 456.565 181.142C455.65 182.147 455.192 183.46 455.192 185.081Z" fill="white"/>
<path d="M475.269 186.486C475.497 187.855 476.041 188.94 476.898 189.739C477.756 190.539 478.825 190.938 480.106 190.938C481.044 190.938 481.942 190.67 482.799 190.133C483.657 189.597 484.383 188.849 484.978 187.89L487.997 189.774C486.991 191.212 485.859 192.268 484.6 192.942C483.343 193.616 481.844 193.952 480.106 193.952C477.521 193.952 475.417 193.153 473.793 191.555C472.169 189.956 471.357 187.855 471.357 185.252C471.357 182.649 472.175 180.508 473.81 178.83C475.446 177.151 477.521 176.312 480.037 176.312C482.531 176.312 484.56 177.14 486.127 178.796C487.694 180.451 488.477 182.592 488.477 185.218L488.409 186.486H475.269ZM475.269 183.711H484.463C484.463 182.364 484.046 181.285 483.211 180.474C482.376 179.664 481.307 179.258 480.003 179.258C478.768 179.258 477.733 179.646 476.898 180.423C476.063 181.199 475.52 182.295 475.269 183.711Z" fill="white"/>
<path d="M491.252 176.826H495.06V179.395C496.318 177.34 498.102 176.312 500.412 176.312C501.259 176.312 502.059 176.472 502.814 176.792C503.569 177.112 504.204 177.557 504.718 178.128C505.233 178.699 505.582 179.321 505.765 179.995C505.948 180.668 506.039 181.644 506.039 182.923V193.473H502.231V183.882C502.231 183.152 502.185 182.495 502.094 181.913C502.002 181.33 501.653 180.805 501.047 180.337C500.441 179.869 499.738 179.635 498.937 179.635C497.725 179.635 496.776 180.057 496.09 180.902C495.404 181.747 495.06 182.912 495.06 184.396V193.473H491.252V176.826Z" fill="white"/>
<path d="M510.293 168.777L516.023 185.252C516.343 186.257 516.572 187.501 516.709 188.986C516.847 187.364 517.087 186.12 517.43 185.252L523.125 168.777H527.413L518.322 193.473H515.131L506.039 168.777H510.293Z" fill="white"/>
<path d="M528.76 168.777H532.739V193.473H528.76V168.777Z" fill="white"/>
<path d="M535.903 168.777H539.287L551.762 185.355C552.278 186.04 552.815 187.113 553.374 188.575C553.223 187.776 553.094 187.005 552.987 186.263C552.88 185.521 552.826 185.024 552.826 184.773V168.777H556.565V193.473H553.277L540.641 176.757C540.104 176.073 539.578 175.057 539.062 173.709L539.223 174.497L539.352 175.353C539.545 176.495 539.642 177.146 539.642 177.306V193.473H535.903V168.777Z" fill="white"/>
<path d="M571.398 168.195C575.081 168.195 578.157 169.428 580.628 171.894C583.098 174.36 584.333 177.42 584.333 181.074C584.333 184.727 583.098 187.787 580.628 190.253C578.157 192.719 575.081 193.952 571.398 193.952C567.716 193.952 564.645 192.725 562.186 190.27C559.728 187.816 558.498 184.75 558.498 181.074C558.498 177.42 559.722 174.36 562.169 171.894C564.617 169.428 567.693 168.195 571.398 168.195ZM562.444 181.074C562.444 183.631 563.313 185.801 565.051 187.582C566.79 189.363 568.905 190.253 571.398 190.253C573.914 190.253 576.042 189.374 577.78 187.616C579.518 185.858 580.387 183.677 580.387 181.074C580.387 178.516 579.518 176.347 577.78 174.566C576.042 172.784 573.914 171.894 571.398 171.894C568.882 171.894 566.761 172.779 565.034 174.549C563.307 176.318 562.444 178.493 562.444 181.074Z" fill="white"/>
<path fill-rule="evenodd" clip-rule="evenodd" d="M576.655 179.385C576.875 179.978 576.996 180.621 576.996 181.29C576.996 184.318 574.534 186.776 571.501 186.776C568.469 186.776 566.007 184.318 566.007 181.29C566.007 178.263 568.469 175.805 571.501 175.805C572.172 175.805 572.815 175.925 573.41 176.145C572.727 176.559 572.27 177.309 572.27 178.164C572.27 179.466 573.329 180.523 574.633 180.523C575.49 180.523 576.24 180.067 576.655 179.385Z" fill="white"/>
<path fill-rule="evenodd" clip-rule="evenodd" d="M441.418 179.385C441.639 179.978 441.759 180.621 441.759 181.29C441.759 184.318 439.297 186.776 436.264 186.776C433.232 186.776 430.77 184.318 430.77 181.29C430.77 178.263 433.232 175.805 436.264 175.805C436.935 175.805 437.579 175.925 438.173 176.145C437.49 176.559 437.033 177.309 437.033 178.164C437.033 179.466 438.092 180.523 439.396 180.523C440.253 180.523 441.003 180.067 441.418 179.385Z" fill="white"/>
</g>
<rect width="900" height="48" transform="translate(54 231.56)" fill="url(#paint0_linear_9210_36044)"/>
<g clip-path="url(#clip1_9210_36044)">
<path d="M228.252 261.56H226.556L223.132 257.032H220.396V261.56H218.972V250.36H223.868C226.508 250.36 227.948 251.672 227.948 253.544C227.948 255.16 226.892 256.472 224.588 256.824L228.252 261.56ZM223.836 251.512H220.396V255.896H223.292C225.388 255.896 226.508 254.952 226.508 253.672C226.508 252.36 225.58 251.512 223.836 251.512ZM235.975 261.56V259.976C235.415 261.096 234.391 261.752 233.127 261.752C231.271 261.752 230.199 260.424 230.199 258.552V253.832H231.559V258.472C231.559 259.768 232.247 260.648 233.511 260.648C234.967 260.648 235.943 259.384 235.943 257.608V253.832H237.303V261.56H235.975ZM240.996 253.832V255.432C241.556 254.296 242.58 253.64 243.844 253.64C245.7 253.64 246.772 254.968 246.772 256.84V261.56H245.412V256.92C245.412 255.624 244.724 254.744 243.46 254.744C242.004 254.744 241.028 256.008 241.028 257.784V261.56H239.668V253.832H240.996ZM263.979 250.36V261.56H262.587V251.496L258.811 258.696H257.499L253.723 251.512V261.56H252.331V250.36H254.571L258.203 257.32L261.819 250.36H263.979ZM270.253 261.832C267.965 261.832 266.237 260.024 266.237 257.672C266.237 255.384 267.981 253.56 270.301 253.56C272.589 253.56 274.317 255.352 274.317 257.72C274.317 260.008 272.573 261.832 270.253 261.832ZM270.285 260.712C271.789 260.712 272.941 259.448 272.941 257.704C272.941 255.96 271.773 254.664 270.269 254.664C268.765 254.664 267.613 255.944 267.613 257.688C267.613 259.432 268.781 260.712 270.285 260.712ZM282.518 261.56V259.96C281.862 261.064 280.742 261.752 279.462 261.752C277.574 261.752 275.846 260.2 275.846 257.736C275.846 255.24 277.67 253.64 279.59 253.64C280.838 253.64 281.878 254.312 282.486 255.336V249.88H283.846V261.56H282.518ZM282.534 257.656C282.534 255.992 281.27 254.744 279.862 254.744C278.374 254.744 277.222 255.848 277.222 257.704C277.222 259.528 278.342 260.632 279.814 260.632C281.222 260.632 282.534 259.352 282.534 257.656ZM289.863 260.776C290.823 260.776 291.687 260.408 292.455 259.56L293.175 260.296C292.295 261.304 291.191 261.832 289.751 261.832C287.383 261.832 285.799 260.152 285.799 257.688C285.799 255.32 287.591 253.56 289.751 253.56C291.847 253.56 293.447 255.064 293.447 257.544C293.447 257.768 293.431 257.944 293.415 258.072H287.127C287.287 259.752 288.471 260.776 289.863 260.776ZM289.751 254.6C288.471 254.6 287.351 255.56 287.143 257.16H292.135C291.991 255.464 290.967 254.6 289.751 254.6ZM296.874 249.88V261.56H295.514V249.88H296.874ZM314.438 261.56H312.614L309.382 251.848L306.15 261.56H304.342L301.67 250.36H303.158L305.35 260.152L308.582 250.36H310.246L313.478 260.216L315.654 250.36H317.126L314.438 261.56ZM320.157 250.488V251.944H318.637V250.488H320.157ZM318.717 253.832H320.077V261.56H318.717V253.832ZM323.264 259.096V254.92H321.76V253.832H323.264V251.464H324.608V253.832H326.848V254.92H324.608V258.984C324.608 260.04 325.136 260.456 326 260.456H326.848V261.56H325.792C324.032 261.56 323.264 260.776 323.264 259.096ZM330.044 249.88V255.352C330.62 254.264 331.628 253.64 332.844 253.64C334.716 253.64 335.788 254.984 335.788 256.872V261.56H334.428V256.952C334.428 255.64 333.74 254.744 332.476 254.744C331.02 254.744 330.044 256.008 330.044 257.784V261.56H328.684V249.88H330.044ZM352.259 255.944C352.259 259.256 349.779 261.832 346.547 261.832C343.283 261.832 340.851 259.288 340.851 255.976C340.851 252.664 343.347 250.088 346.563 250.088C349.827 250.088 352.259 252.632 352.259 255.944ZM342.307 255.944C342.307 258.6 344.147 260.648 346.563 260.648C348.995 260.648 350.803 258.616 350.803 255.976C350.803 253.32 348.963 251.272 346.563 251.272C344.115 251.272 342.307 253.32 342.307 255.944ZM358.674 261.752C357.426 261.752 356.386 261.064 355.778 260.04V264.92H354.418V253.832H355.746V255.416C356.402 254.312 357.538 253.64 358.802 253.64C360.674 253.64 362.402 255.176 362.402 257.656C362.402 260.152 360.594 261.752 358.674 261.752ZM355.714 257.736C355.714 259.384 356.994 260.632 358.402 260.632C359.89 260.632 361.042 259.544 361.042 257.688C361.042 255.848 359.906 254.744 358.45 254.744C357.026 254.744 355.714 256.04 355.714 257.736ZM365.029 259.096V254.92H363.525V253.832H365.029V251.464H366.373V253.832H368.613V254.92H366.373V258.984C366.373 260.04 366.901 260.456 367.765 260.456H368.613V261.56H367.557C365.797 261.56 365.029 260.776 365.029 259.096ZM371.97 250.488V251.944H370.45V250.488H371.97ZM370.53 253.832H371.89V261.56H370.53V253.832ZM375.668 253.832V255.4C376.212 254.28 377.204 253.64 378.388 253.64C379.764 253.64 380.676 254.36 381.076 255.496C381.62 254.296 382.676 253.64 383.972 253.64C385.86 253.64 386.884 254.984 386.884 256.872V261.56H385.524V256.952C385.524 255.64 384.884 254.744 383.604 254.744C382.228 254.744 381.284 256.008 381.284 257.784V261.56H379.94V256.952C379.94 255.64 379.284 254.744 378.02 254.744C376.628 254.744 375.7 256.008 375.7 257.784V261.56H374.34V253.832H375.668ZM394.352 261.56V259.8C393.712 261.048 392.56 261.752 391.2 261.752C389.696 261.752 388.576 260.824 388.576 259.464C388.576 258.008 389.728 257.064 391.904 257.064H394.32V256.952C394.32 255.448 393.536 254.664 392.256 254.664C391.472 254.664 390.624 255.032 389.824 255.688L389.232 254.808C390.096 254.04 391.104 253.592 392.432 253.592C394.384 253.592 395.632 254.776 395.632 257V261.56H394.352ZM391.952 257.96C390.48 257.96 389.888 258.568 389.888 259.416C389.888 260.168 390.496 260.76 391.52 260.76C392.912 260.76 394.24 259.64 394.32 257.96H391.952ZM399.28 249.88V261.56H397.92V249.88H399.28ZM404.972 250.36H409.82C412.364 250.36 413.852 251.736 413.852 253.784C413.852 255.896 412.156 257.288 409.564 257.288H406.412V261.56H404.972V250.36ZM409.772 251.56H406.412V256.088H409.66C411.388 256.088 412.396 255.144 412.396 253.816C412.396 252.44 411.468 251.56 409.772 251.56ZM419.051 260.776C420.011 260.776 420.875 260.408 421.643 259.56L422.363 260.296C421.483 261.304 420.379 261.832 418.939 261.832C416.571 261.832 414.987 260.152 414.987 257.688C414.987 255.32 416.779 253.56 418.939 253.56C421.035 253.56 422.635 255.064 422.635 257.544C422.635 257.768 422.619 257.944 422.603 258.072H416.315C416.475 259.752 417.659 260.776 419.051 260.776ZM418.939 254.6C417.659 254.6 416.539 255.56 416.331 257.16H421.323C421.179 255.464 420.155 254.6 418.939 254.6ZM425.95 253.832V255.688C426.462 254.408 427.502 253.784 428.814 253.784H429.374V255.08H428.782C426.894 255.08 425.982 256.04 425.982 258.024V261.56H424.622V253.832H425.95ZM429.964 254.92V253.832H431.468V252.296C431.468 250.712 432.332 249.88 433.948 249.88H435.02V250.936H434.14C433.324 250.936 432.828 251.352 432.828 252.344V253.832H435.02V254.92H432.828V261.56H431.468V254.92H429.964ZM440.034 261.832C437.746 261.832 436.018 260.024 436.018 257.672C436.018 255.384 437.762 253.56 440.082 253.56C442.37 253.56 444.098 255.352 444.098 257.72C444.098 260.008 442.354 261.832 440.034 261.832ZM440.066 260.712C441.57 260.712 442.722 259.448 442.722 257.704C442.722 255.96 441.554 254.664 440.05 254.664C438.546 254.664 437.394 255.944 437.394 257.688C437.394 259.432 438.562 260.712 440.066 260.712ZM447.371 253.832V255.688C447.883 254.408 448.923 253.784 450.235 253.784H450.795V255.08H450.203C448.315 255.08 447.403 256.04 447.403 258.024V261.56H446.043V253.832H447.371ZM453.418 253.832V255.4C453.962 254.28 454.954 253.64 456.138 253.64C457.514 253.64 458.426 254.36 458.826 255.496C459.37 254.296 460.426 253.64 461.722 253.64C463.61 253.64 464.634 254.984 464.634 256.872V261.56H463.274V256.952C463.274 255.64 462.634 254.744 461.354 254.744C459.978 254.744 459.034 256.008 459.034 257.784V261.56H457.69V256.952C457.69 255.64 457.034 254.744 455.77 254.744C454.378 254.744 453.45 256.008 453.45 257.784V261.56H452.09V253.832H453.418ZM472.102 261.56V259.8C471.462 261.048 470.31 261.752 468.95 261.752C467.446 261.752 466.326 260.824 466.326 259.464C466.326 258.008 467.478 257.064 469.654 257.064H472.07V256.952C472.07 255.448 471.286 254.664 470.006 254.664C469.222 254.664 468.374 255.032 467.574 255.688L466.982 254.808C467.846 254.04 468.854 253.592 470.182 253.592C472.134 253.592 473.382 254.776 473.382 257V261.56H472.102ZM469.702 257.96C468.23 257.96 467.638 258.568 467.638 259.416C467.638 260.168 468.246 260.76 469.27 260.76C470.662 260.76 471.99 259.64 472.07 257.96H469.702ZM476.918 253.832V255.432C477.478 254.296 478.502 253.64 479.766 253.64C481.622 253.64 482.694 254.968 482.694 256.84V261.56H481.334V256.92C481.334 255.624 480.646 254.744 479.382 254.744C477.926 254.744 476.95 256.008 476.95 257.784V261.56H475.59V253.832H476.918ZM488.58 261.832C486.26 261.832 484.596 260.232 484.596 257.704C484.596 255.4 486.356 253.56 488.676 253.56C490.292 253.56 491.412 254.28 492.052 255.688L490.996 256.296C490.5 255.144 489.684 254.664 488.644 254.664C487.14 254.664 485.972 256.008 485.972 257.72C485.972 259.416 487.124 260.712 488.644 260.712C489.636 260.712 490.564 260.184 491.108 259.16L492.116 259.72C491.492 261.016 490.196 261.832 488.58 261.832ZM497.566 260.776C498.526 260.776 499.39 260.408 500.158 259.56L500.878 260.296C499.998 261.304 498.894 261.832 497.454 261.832C495.086 261.832 493.502 260.152 493.502 257.688C493.502 255.32 495.294 253.56 497.454 253.56C499.55 253.56 501.15 255.064 501.15 257.544C501.15 257.768 501.134 257.944 501.118 258.072H494.83C494.99 259.752 496.174 260.776 497.566 260.776ZM497.454 254.6C496.174 254.6 495.054 255.56 494.846 257.16H499.838C499.694 255.464 498.67 254.6 497.454 254.6ZM506.906 261.56H505.418L510.282 250.312H512.09L516.922 261.56H515.386L514.042 258.392H508.234L506.906 261.56ZM508.714 257.256H513.562L511.13 251.496L508.714 257.256ZM521.955 261.832C519.635 261.832 517.971 260.232 517.971 257.704C517.971 255.4 519.731 253.56 522.051 253.56C523.667 253.56 524.787 254.28 525.427 255.688L524.371 256.296C523.875 255.144 523.059 254.664 522.019 254.664C520.515 254.664 519.347 256.008 519.347 257.72C519.347 259.416 520.499 260.712 522.019 260.712C523.011 260.712 523.939 260.184 524.483 259.16L525.491 259.72C524.867 261.016 523.571 261.832 521.955 261.832ZM528.7 253.832V255.688C529.212 254.408 530.252 253.784 531.564 253.784H532.124V255.08H531.532C529.644 255.08 528.732 256.04 528.732 258.024V261.56H527.372V253.832H528.7ZM536.815 261.832C534.527 261.832 532.799 260.024 532.799 257.672C532.799 255.384 534.543 253.56 536.863 253.56C539.151 253.56 540.879 255.352 540.879 257.72C540.879 260.008 539.135 261.832 536.815 261.832ZM536.847 260.712C538.351 260.712 539.503 259.448 539.503 257.704C539.503 255.96 538.335 254.664 536.831 254.664C535.327 254.664 534.175 255.944 534.175 257.688C534.175 259.432 535.343 260.712 536.847 260.712ZM548.969 259.384C548.969 260.68 547.721 261.784 545.641 261.784C544.377 261.784 543.241 261.416 542.281 260.712L542.841 259.752C543.833 260.408 544.793 260.744 545.657 260.744C547.049 260.744 547.721 260.152 547.721 259.432C547.721 258.776 547.289 258.36 545.609 258.184C543.401 257.96 542.569 257.224 542.569 255.848C542.569 254.68 543.753 253.608 545.641 253.608C546.825 253.608 547.801 253.944 548.745 254.6L548.233 255.592C547.257 254.936 546.457 254.648 545.609 254.648C544.441 254.648 543.817 255.208 543.817 255.8C543.817 256.424 544.217 256.856 545.737 257C548.089 257.24 548.969 257.976 548.969 259.384ZM557.047 259.384C557.047 260.68 555.799 261.784 553.719 261.784C552.455 261.784 551.319 261.416 550.359 260.712L550.919 259.752C551.911 260.408 552.871 260.744 553.735 260.744C555.127 260.744 555.799 260.152 555.799 259.432C555.799 258.776 555.367 258.36 553.687 258.184C551.479 257.96 550.647 257.224 550.647 255.848C550.647 254.68 551.831 253.608 553.719 253.608C554.903 253.608 555.879 253.944 556.823 254.6L556.311 255.592C555.335 254.936 554.535 254.648 553.687 254.648C552.519 254.648 551.895 255.208 551.895 255.8C551.895 256.424 552.295 256.856 553.815 257C556.167 257.24 557.047 257.976 557.047 259.384ZM574.094 261.56H572.27L569.038 251.848L565.806 261.56H563.998L561.326 250.36H562.814L565.006 260.152L568.238 250.36H569.902L573.134 260.216L575.31 250.36H576.782L574.094 261.56ZM579.888 249.88V255.352C580.464 254.264 581.472 253.64 582.688 253.64C584.56 253.64 585.632 254.984 585.632 256.872V261.56H584.272V256.952C584.272 255.64 583.584 254.744 582.32 254.744C580.864 254.744 579.888 256.008 579.888 257.784V261.56H578.528V249.88H579.888ZM591.55 261.832C589.262 261.832 587.534 260.024 587.534 257.672C587.534 255.384 589.278 253.56 591.598 253.56C593.886 253.56 595.614 255.352 595.614 257.72C595.614 260.008 593.87 261.832 591.55 261.832ZM591.582 260.712C593.086 260.712 594.238 259.448 594.238 257.704C594.238 255.96 593.07 254.664 591.566 254.664C590.062 254.664 588.91 255.944 588.91 257.688C588.91 259.432 590.078 260.712 591.582 260.712ZM598.999 249.88V261.56H597.639V249.88H598.999ZM605.098 260.776C606.058 260.776 606.922 260.408 607.69 259.56L608.41 260.296C607.53 261.304 606.426 261.832 604.986 261.832C602.618 261.832 601.034 260.152 601.034 257.688C601.034 255.32 602.826 253.56 604.986 253.56C607.082 253.56 608.682 255.064 608.682 257.544C608.682 257.768 608.666 257.944 608.65 258.072H602.362C602.522 259.752 603.706 260.776 605.098 260.776ZM604.986 254.6C603.706 254.6 602.586 255.56 602.378 257.16H607.37C607.226 255.464 606.202 254.6 604.986 254.6ZM614.038 250.36H615.478V261.56H614.038V250.36ZM619.59 253.832V255.432C620.15 254.296 621.174 253.64 622.438 253.64C624.294 253.64 625.366 254.968 625.366 256.84V261.56H624.006V256.92C624.006 255.624 623.318 254.744 622.054 254.744C620.598 254.744 619.622 256.008 619.622 257.784V261.56H618.262V253.832H619.59ZM628.42 259.096V254.92H626.916V253.832H628.42V251.464H629.764V253.832H632.004V254.92H629.764V258.984C629.764 260.04 630.292 260.456 631.156 260.456H632.004V261.56H630.948C629.188 261.56 628.42 260.776 628.42 259.096ZM637.379 260.776C638.339 260.776 639.203 260.408 639.971 259.56L640.691 260.296C639.811 261.304 638.707 261.832 637.267 261.832C634.899 261.832 633.315 260.152 633.315 257.688C633.315 255.32 635.107 253.56 637.267 253.56C639.363 253.56 640.963 255.064 640.963 257.544C640.963 257.768 640.947 257.944 640.931 258.072H634.643C634.803 259.752 635.987 260.776 637.379 260.776ZM637.267 254.6C635.987 254.6 634.867 255.56 634.659 257.16H639.651C639.507 255.464 638.483 254.6 637.267 254.6ZM644.39 249.88V261.56H643.03V249.88H644.39ZM650.081 250.36H651.521V255.304H658.465V250.36H659.905V261.56H658.465V256.52H651.521V261.56H650.081V250.36ZM667.711 261.56V259.8C667.071 261.048 665.919 261.752 664.559 261.752C663.055 261.752 661.935 260.824 661.935 259.464C661.935 258.008 663.087 257.064 665.263 257.064H667.679V256.952C667.679 255.448 666.895 254.664 665.615 254.664C664.831 254.664 663.983 255.032 663.183 255.688L662.591 254.808C663.455 254.04 664.463 253.592 665.791 253.592C667.743 253.592 668.991 254.776 668.991 257V261.56H667.711ZM665.311 257.96C663.839 257.96 663.247 258.568 663.247 259.416C663.247 260.168 663.855 260.76 664.879 260.76C666.271 260.76 667.599 259.64 667.679 257.96H665.311ZM672.528 253.832V255.688C673.04 254.408 674.08 253.784 675.392 253.784H675.952V255.08H675.36C673.472 255.08 672.56 256.04 672.56 258.024V261.56H671.2V253.832H672.528ZM683.299 261.56V259.96C682.643 261.064 681.523 261.752 680.243 261.752C678.355 261.752 676.627 260.2 676.627 257.736C676.627 255.24 678.451 253.64 680.371 253.64C681.619 253.64 682.659 254.312 683.267 255.336V249.88H684.627V261.56H683.299ZM683.315 257.656C683.315 255.992 682.051 254.744 680.643 254.744C679.155 254.744 678.003 255.848 678.003 257.704C678.003 259.528 679.123 260.632 680.595 260.632C682.003 260.632 683.315 259.352 683.315 257.656ZM695.957 261.56H694.373L692.181 255.032L689.957 261.56H688.373L686.34 253.832H687.669L689.269 260.408L691.445 253.832H692.949L695.125 260.36L696.709 253.832H698.021L695.957 261.56ZM704.602 261.56V259.8C703.962 261.048 702.81 261.752 701.45 261.752C699.946 261.752 698.826 260.824 698.826 259.464C698.826 258.008 699.978 257.064 702.154 257.064H704.57V256.952C704.57 255.448 703.786 254.664 702.506 254.664C701.722 254.664 700.874 255.032 700.074 255.688L699.482 254.808C700.346 254.04 701.354 253.592 702.682 253.592C704.634 253.592 705.882 254.776 705.882 257V261.56H704.602ZM702.202 257.96C700.73 257.96 700.138 258.568 700.138 259.416C700.138 260.168 700.746 260.76 701.77 260.76C703.162 260.76 704.49 259.64 704.57 257.96H702.202ZM709.418 253.832V255.688C709.93 254.408 710.97 253.784 712.282 253.784H712.842V255.08H712.25C710.362 255.08 709.45 256.04 709.45 258.024V261.56H708.09V253.832H709.418ZM717.582 260.776C718.542 260.776 719.406 260.408 720.174 259.56L720.894 260.296C720.014 261.304 718.91 261.832 717.47 261.832C715.102 261.832 713.518 260.152 713.518 257.688C713.518 255.32 715.31 253.56 717.47 253.56C719.566 253.56 721.166 255.064 721.166 257.544C721.166 257.768 721.15 257.944 721.134 258.072H714.846C715.006 259.752 716.19 260.776 717.582 260.776ZM717.47 254.6C716.19 254.6 715.07 255.56 714.862 257.16H719.854C719.71 255.464 718.686 254.6 717.47 254.6ZM726.394 250.36H731.242C733.786 250.36 735.274 251.736 735.274 253.784C735.274 255.896 733.578 257.288 730.986 257.288H727.834V261.56H726.394V250.36ZM731.194 251.56H727.834V256.088H731.082C732.81 256.088 733.818 255.144 733.818 253.816C733.818 252.44 732.89 251.56 731.194 251.56ZM740.425 261.832C738.137 261.832 736.409 260.024 736.409 257.672C736.409 255.384 738.153 253.56 740.473 253.56C742.761 253.56 744.489 255.352 744.489 257.72C744.489 260.008 742.745 261.832 740.425 261.832ZM740.457 260.712C741.961 260.712 743.113 259.448 743.113 257.704C743.113 255.96 741.945 254.664 740.441 254.664C738.937 254.664 737.785 255.944 737.785 257.688C737.785 259.432 738.953 260.712 740.457 260.712ZM747.762 253.832V255.688C748.274 254.408 749.314 253.784 750.626 253.784H751.186V255.08H750.594C748.706 255.08 747.794 256.04 747.794 258.024V261.56H746.434V253.832H747.762ZM753.217 259.096V254.92H751.713V253.832H753.217V251.464H754.561V253.832H756.801V254.92H754.561V258.984C754.561 260.04 755.089 260.456 755.953 260.456H756.801V261.56H755.745C753.985 261.56 753.217 260.776 753.217 259.096ZM757.933 254.92V253.832H759.437V252.296C759.437 250.712 760.301 249.88 761.917 249.88H762.989V250.936H762.109C761.293 250.936 760.797 251.352 760.797 252.344V253.832H762.989V254.92H760.797V261.56H759.437V254.92H757.933ZM768.003 261.832C765.715 261.832 763.987 260.024 763.987 257.672C763.987 255.384 765.731 253.56 768.051 253.56C770.339 253.56 772.067 255.352 772.067 257.72C772.067 260.008 770.323 261.832 768.003 261.832ZM768.035 260.712C769.539 260.712 770.691 259.448 770.691 257.704C770.691 255.96 769.523 254.664 768.019 254.664C766.515 254.664 765.363 255.944 765.363 257.688C765.363 259.432 766.531 260.712 768.035 260.712ZM775.452 249.88V261.56H774.092V249.88H775.452ZM779.423 250.488V251.944H777.903V250.488H779.423ZM777.983 253.832H779.343V261.56H777.983V253.832ZM785.393 261.832C783.105 261.832 781.377 260.024 781.377 257.672C781.377 255.384 783.121 253.56 785.441 253.56C787.729 253.56 789.457 255.352 789.457 257.72C789.457 260.008 787.713 261.832 785.393 261.832ZM785.425 260.712C786.929 260.712 788.081 259.448 788.081 257.704C788.081 255.96 786.913 254.664 785.409 254.664C783.905 254.664 782.753 255.944 782.753 257.688C782.753 259.432 783.921 260.712 785.425 260.712Z" fill="#242528"/>
</g>
<path d="M244 307.56L249.774 297.56L238.226 297.56L244 307.56ZM244 283.56L243 283.56L243 298.56L244 298.56L245 298.56L245 283.56L244 283.56Z" fill="#98F9E5"/>
<rect x="54" y="311.56" width="380" height="48" rx="2" fill="#98F9E5"/>
<g clip-path="url(#clip2_9210_36044)">
<path d="M232.788 340.024C234.164 340.024 235.3 339.368 236.1 338.024L237.62 338.936C236.788 340.536 235.108 341.816 232.724 341.816C229.348 341.816 226.996 339.352 226.996 335.976C226.996 332.696 229.46 330.104 232.868 330.104C235.14 330.104 236.724 331.208 237.588 332.92L236.004 333.912C235.188 332.472 234.196 331.896 232.82 331.896C230.612 331.896 229.06 333.64 229.06 335.944C229.06 338.264 230.644 340.024 232.788 340.024ZM238.974 330.36H244.11C246.734 330.36 248.27 331.8 248.27 333.944C248.27 336.152 246.494 337.608 243.886 337.608H241.022V341.56H238.974V330.36ZM244.062 332.168H241.022V335.816H243.966C245.374 335.816 246.19 335.08 246.19 333.976C246.19 332.856 245.422 332.168 244.062 332.168ZM257.779 336.568V330.36H259.811V336.6C259.811 339.736 257.731 341.816 254.531 341.816C251.379 341.816 249.331 339.736 249.331 336.6V330.36H251.379V336.568C251.379 338.648 252.691 340.024 254.579 340.024C256.499 340.024 257.779 338.648 257.779 336.568Z" fill="#242528"/>
</g>
<path d="M558 307.56L563.774 297.56L552.226 297.56L558 307.56ZM558 283.56L557 283.56L557 298.56L558 298.56L559 298.56L559 283.56L558 283.56Z" fill="#3FE4E6"/>
<path d="M458 313.56C458 312.455 458.895 311.56 460 311.56H656C657.105 311.56 658 312.455 658 313.56V357.56C658 358.664 657.105 359.56 656 359.56H460C458.895 359.56 458 358.664 458 357.56V313.56Z" fill="#3FE4E6"/>
<g clip-path="url(#clip3_9210_36044)">
<path d="M546.948 331.88C544.772 331.88 543.06 333.608 543.06 335.944C543.06 338.392 544.756 340.04 546.868 340.04C548.804 340.04 550.068 339 550.34 337.16H546.516V335.48H552.276C552.308 335.72 552.34 336.04 552.34 336.28C552.34 339.608 550.196 341.816 546.788 341.816C543.444 341.816 540.996 339.352 540.996 335.976C540.996 332.568 543.62 330.104 546.964 330.104C549.108 330.104 550.82 331.112 551.732 332.6L550.292 333.736C549.444 332.472 548.308 331.88 546.948 331.88ZM553.755 330.36H558.891C561.515 330.36 563.051 331.8 563.051 333.944C563.051 336.152 561.275 337.608 558.667 337.608H555.803V341.56H553.755V330.36ZM558.843 332.168H555.803V335.816H558.747C560.155 335.816 560.971 335.08 560.971 333.976C560.971 332.856 560.203 332.168 558.843 332.168ZM572.56 336.568V330.36H574.592V336.6C574.592 339.736 572.512 341.816 569.312 341.816C566.16 341.816 564.112 339.736 564.112 336.6V330.36H566.16V336.568C566.16 338.648 567.472 340.024 569.36 340.024C571.28 340.024 572.56 338.648 572.56 336.568Z" fill="#242528"/>
</g>
<path d="M744 307.56L749.774 297.56L738.226 297.56L744 307.56ZM744 283.56L743 283.56L743 298.56L744 298.56L745 298.56L745 283.56L744 283.56Z" fill="#1AD2F4"/>
<rect x="682" y="311.56" width="124" height="48" rx="2" fill="#1AD2F4"/>
<g clip-path="url(#clip4_9210_36044)">
<path d="M729.38 341.56H727.396V330.36H729.524L735.652 338.504V330.36H737.636V341.56H735.54L729.38 333.368V341.56ZM739.443 330.36H744.579C747.203 330.36 748.739 331.8 748.739 333.944C748.739 336.152 746.963 337.608 744.355 337.608H741.491V341.56H739.443V330.36ZM744.531 332.168H741.491V335.816H744.435C745.843 335.816 746.659 335.08 746.659 333.976C746.659 332.856 745.891 332.168 744.531 332.168ZM758.248 336.568V330.36H760.28V336.6C760.28 339.736 758.2 341.816 755 341.816C751.848 341.816 749.8 339.736 749.8 336.6V330.36H751.848V336.568C751.848 338.648 753.16 340.024 755.048 340.024C756.968 340.024 758.248 338.648 758.248 336.568Z" fill="#242528"/>
</g>
<path d="M892 307.56L897.774 297.56L886.226 297.56L892 307.56ZM892 283.56L891 283.56L891 298.56L892 298.56L893 298.56L893 283.56L892 283.56Z" fill="#02C7FD"/>
<rect x="830" y="311.56" width="124" height="48" rx="2" fill="#02C7FD"/>
<g clip-path="url(#clip5_9210_36044)">
<path d="M870.896 330.36H879.168V332.12H872.944V335.176H878.72V336.936H872.944V341.56H870.896V330.36ZM880.505 330.36H885.641C888.265 330.36 889.801 331.8 889.801 333.944C889.801 336.152 888.025 337.608 885.417 337.608H882.553V341.56H880.505V330.36ZM885.593 332.168H882.553V335.816H885.497C886.905 335.816 887.721 335.08 887.721 333.976C887.721 332.856 886.953 332.168 885.593 332.168ZM896.526 331.88C894.35 331.88 892.638 333.608 892.638 335.944C892.638 338.392 894.334 340.04 896.446 340.04C898.382 340.04 899.646 339 899.918 337.16H896.094V335.48H901.854C901.886 335.72 901.918 336.04 901.918 336.28C901.918 339.608 899.774 341.816 896.366 341.816C893.022 341.816 890.574 339.352 890.574 335.976C890.574 332.568 893.198 330.104 896.542 330.104C898.686 330.104 900.398 331.112 901.31 332.6L899.87 333.736C899.022 332.472 897.886 331.88 896.526 331.88ZM904.005 341.56H901.893L906.725 330.36H908.853L913.685 341.56H911.525L910.341 338.76H905.173L904.005 341.56ZM905.909 337H909.605L907.765 332.6L905.909 337Z" fill="#242528"/>
</g>
<line x1="48" y1="390.5" x2="960" y2="390.5" stroke="white" stroke-opacity="0.0803"/>
<path d="M168.544 430.184C173.152 429.48 177.792 428.808 182.432 428.168C182.432 432.232 182.432 436.264 182.432 440.328C177.792 440.36 173.184 440.424 168.544 440.424C168.544 437 168.544 433.608 168.544 430.184Z" fill="white"/>
<path d="M156.8 431.816C160.288 431.272 163.776 430.824 167.264 430.376C167.264 433.736 167.264 437.096 167.264 440.456C163.776 440.456 160.288 440.52 156.8 440.488V431.816Z" fill="white"/>
<path d="M212.064 432.392C212.992 431.816 214.144 433.032 213.6 433.928C213.344 434.6 212.384 434.856 211.872 434.376C211.2 433.896 211.296 432.712 212.064 432.392Z" fill="white"/>
<path d="M236.032 432.264C236.608 432.264 237.216 432.264 237.792 432.264C237.792 437.736 237.792 443.208 237.792 448.68C237.216 448.68 236.608 448.68 236.032 448.68C236.032 448.072 236.032 447.496 235.968 446.888C234.688 449.16 231.296 449.672 229.344 447.976C227.968 446.792 227.52 444.84 227.616 443.08C227.616 441.288 228.224 439.4 229.632 438.248C231.488 436.744 234.752 436.808 236 439.048C236.032 436.776 236.032 434.536 236.032 432.264ZM232.256 438.76C230.848 438.984 229.888 440.264 229.632 441.608C229.28 443.208 229.344 445.064 230.368 446.44C231.456 447.88 233.856 447.912 235.04 446.536C235.84 445.704 236.064 444.52 236.064 443.4C236.064 442.216 236.16 440.904 235.392 439.944C234.688 438.952 233.408 438.504 232.256 438.76Z" fill="white"/>
<path d="M190.208 433.128C190.88 433.128 191.52 433.128 192.192 433.128C193.216 436.84 194.24 440.584 195.264 444.296C195.488 445.064 195.648 445.864 195.744 446.696C196.832 442.12 198.272 437.672 199.52 433.128C200.096 433.128 200.672 433.128 201.248 433.128C202.144 436.36 203.008 439.592 203.904 442.824C204.224 444.104 204.672 445.384 204.8 446.696C205.76 442.12 207.168 437.672 208.256 433.128C208.896 433.128 209.568 433.128 210.208 433.128C208.8 438.312 207.296 443.496 205.888 448.68C205.184 448.68 204.48 448.68 203.776 448.68C202.72 444.968 201.696 441.224 200.64 437.512C200.48 436.904 200.384 436.296 200.32 435.656C200.224 436.2 200.16 436.744 200.032 437.256C198.976 441.032 197.888 444.84 196.864 448.616C196.16 448.648 195.456 448.648 194.752 448.648C193.216 443.496 191.712 438.312 190.208 433.128Z" fill="white"/>
<path d="M218.112 439.336C219.104 437.544 221.472 436.712 223.36 437.544C224.864 438.12 225.44 439.88 225.472 441.352C225.568 443.784 225.472 446.248 225.504 448.68C224.928 448.68 224.32 448.68 223.744 448.68C223.712 446.344 223.808 443.976 223.712 441.64C223.68 440.488 223.168 439.08 221.92 438.792C220.064 438.248 218.24 439.912 218.176 441.736C218.112 444.072 218.176 446.376 218.144 448.712C217.568 448.712 216.96 448.712 216.384 448.712C216.384 445 216.384 441.288 216.384 437.576C216.96 437.576 217.568 437.576 218.144 437.576C218.144 438.12 218.144 438.728 218.112 439.336Z" fill="white"/>
<path d="M244.64 437.256C246.208 437.128 247.936 437.352 249.12 438.504C250.464 439.72 250.848 441.64 250.784 443.4C250.752 444.968 250.176 446.568 249.024 447.656C246.624 449.832 242.176 449.352 240.64 446.344C239.456 443.816 239.68 440.36 241.856 438.44C242.656 437.768 243.648 437.48 244.64 437.256ZM244.32 438.856C241.728 439.656 241.312 443.016 242.112 445.256C242.752 447.24 245.248 448.104 247.072 447.176C248.288 446.6 248.832 445.256 248.96 443.976C249.088 442.504 248.96 440.84 247.936 439.688C247.04 438.696 245.536 438.504 244.32 438.856Z" fill="white"/>
<path d="M271.328 437.256C272.416 437.192 273.536 437.288 274.592 437.704C274.88 438.248 274.656 438.952 274.72 439.592C273.472 438.824 271.776 438.312 270.432 439.112C269.504 439.624 269.472 441.096 270.368 441.64C271.648 442.472 273.28 442.696 274.4 443.752C275.648 444.968 275.36 447.272 273.888 448.2C272.096 449.352 269.76 449.224 267.872 448.36C267.872 447.688 267.872 447.048 267.872 446.376C269.216 447.4 271.072 447.944 272.672 447.24C273.6 446.76 273.664 445.352 272.832 444.744C271.552 443.784 269.792 443.656 268.64 442.472C267.52 441.352 267.712 439.272 268.96 438.312C269.632 437.672 270.496 437.48 271.328 437.256Z" fill="white"/>
<path d="M211.68 437.544C212.256 437.544 212.864 437.544 213.44 437.544C213.44 441.256 213.44 444.968 213.44 448.68C212.864 448.68 212.256 448.68 211.68 448.68C211.68 444.968 211.68 441.256 211.68 437.544Z" fill="white"/>
<path d="M251.52 437.544C252.128 437.544 252.736 437.544 253.344 437.544C254.08 440.2 254.784 442.856 255.52 445.512C255.68 446.024 255.712 446.536 255.776 447.048C256.608 443.848 257.664 440.712 258.592 437.544C259.136 437.544 259.648 437.544 260.192 437.544C260.992 440.712 262.016 443.848 262.656 447.048C263.36 443.88 264.32 440.744 265.088 437.576C265.664 437.544 266.272 437.544 266.848 437.544C265.728 441.256 264.672 445 263.552 448.712C262.944 448.712 262.336 448.712 261.728 448.712C260.928 445.704 259.904 442.728 259.264 439.688C258.496 442.728 257.44 445.704 256.576 448.712C256 448.712 255.392 448.712 254.816 448.712C253.728 444.968 252.608 441.256 251.52 437.544Z" fill="white"/>
<path d="M156.8 441.576C160.288 441.576 163.776 441.608 167.264 441.608C167.264 444.968 167.264 448.36 167.264 451.72C163.776 451.208 160.288 450.76 156.8 450.28V441.576Z" fill="white"/>
<path d="M168.512 441.704C173.152 441.704 177.792 441.704 182.4 441.704C182.4 445.736 182.4 449.8 182.4 453.832C177.792 453.128 173.152 452.488 168.512 451.88C168.512 448.488 168.512 445.096 168.512 441.704Z" fill="white"/>
<path d="M476.196 429.717V428.857H480.448V429.709H479.666C479.666 429.709 479.354 429.713 479.354 430.061V439.139H481.98C481.98 439.139 482.423 439.423 482.541 436.819H483.634V440.007H476.206V439.239H477.018C477.018 439.239 477.365 439.122 477.365 438.847V430.025C477.365 430.025 477.328 429.741 476.944 429.741L476.196 429.717Z" fill="white"/>
<path d="M484.254 433.296V432.629L486.278 431.761H487.06V438.955C487.06 438.955 487.075 439.339 487.518 439.339H488.065V440.024H484.24V439.306H484.816C484.816 439.306 485.2 439.256 485.229 438.989V433.296H484.254Z" fill="white"/>
<path d="M492.362 440.024H488.744V439.306H489.305C489.305 439.306 489.689 439.256 489.704 438.956V433.247H488.7V432.546L490.767 431.744H491.506V432.762C491.506 432.762 493.116 431.778 494.061 431.778C494.061 431.778 495.951 431.611 495.966 433.948V438.889C495.966 438.889 496.01 439.289 496.438 439.289H497.014V440.024H493.411V439.256H493.913C493.913 439.256 494.179 439.239 494.238 438.939V434.632C494.238 434.632 494.149 433.146 492.864 433.196C492.864 433.196 491.978 433.33 491.52 433.514V438.956C491.52 438.956 491.58 439.239 491.89 439.272H492.377L492.362 440.024Z" fill="white"/>
<path d="M498.447 433.23H497.457V432.562L499.466 431.761H500.278V437.203C500.278 437.203 500.219 438.922 501.652 438.789C501.652 438.789 502.789 438.655 502.936 438.521V433.247H501.962V432.579L503.941 431.744H504.753V438.905C504.753 438.905 504.738 439.239 505.122 439.273H505.698V440.057H502.936V439.156C502.936 439.156 501.534 440.207 500.396 440.191C500.396 440.191 498.506 440.308 498.447 437.87V433.23H498.447Z" fill="white"/>
<path d="M506.171 432.645V431.877H509.7V432.629C509.7 432.629 508.918 432.595 509.139 433.029L510.291 434.915L511.428 433.029C511.428 433.029 511.709 432.645 510.808 432.679V431.911H513.511V432.645C513.511 432.645 512.846 432.679 512.566 433.013L510.823 435.65L512.994 439.172C512.994 439.172 513.23 439.339 513.776 439.356V440.04H510.306V439.422C510.306 439.422 511.089 439.422 510.838 438.939L509.612 436.869L508.327 438.972C508.327 438.972 508.002 439.322 508.977 439.306V440.007H506.141V439.322C506.141 439.322 506.806 439.373 507.086 438.955L509.006 436.134L507.116 433.012C507.116 433.012 507.027 432.662 506.171 432.645Z" fill="white"/>
<path d="M513.646 431.46H513.491V431.029H514.261V431.46H514.113V431.203H513.955V431.813H514.106V431.981H513.652V431.817H513.797V431.203H513.643L513.646 431.46Z" fill="white"/>
<path d="M514.34 431.984V431.813H514.416V431.203H514.34V431.018H514.567V431.2H514.652V431.385H514.725V431.46H514.804V431.375H514.885V431.211H514.958V431.022H515.188V431.2H515.113V431.817H515.188V431.988H514.807V431.813H514.961V431.55H514.883V431.631H514.807V431.728H514.725V431.639H514.652V431.546H514.567V431.803H514.725V431.986L514.34 431.984Z" fill="white"/>
<path d="M475.583 446.913C475.583 446.913 475.561 445.361 477.736 444.791C477.736 444.791 485.179 442.312 511.163 441.561C511.163 441.561 515.815 441.787 512.16 443.214C512.16 443.214 499.733 445.392 497.008 445.692C497.008 445.692 482.986 447.721 478.334 451.026C478.334 451.026 477.702 451.568 477.305 452.035C477.305 452.035 476.924 452.322 476.607 451.871C476.607 451.871 475.565 450.713 475.583 446.913Z" fill="url(#paint1_linear_9210_36044)"/>
<path d="M525.78 442.217C525.78 443.949 524.106 445.353 522.042 445.353C519.977 445.353 518.303 443.949 518.303 442.217C518.303 440.485 519.977 439.081 522.042 439.081C524.106 439.081 525.78 440.485 525.78 442.217Z" fill="url(#paint2_linear_9210_36044)"/>
<path d="M525.016 452.493C525.016 452.493 523.135 452.341 522.778 452.24C522.778 452.24 522.33 452.24 521.927 452.341C521.927 452.341 520.271 452.645 519.42 452.493L514.899 445.663C514.899 445.663 514.184 444.044 516.063 440.249C516.063 440.249 517.899 437.061 518.167 436.758C518.436 436.454 519.062 434.937 519.018 433.115C519.018 433.115 517.764 426.639 522.33 426.437C522.33 426.437 525.687 425.728 526.269 430.029C526.269 430.029 526.314 433.52 526.448 434.178C526.448 434.178 526.045 434.785 528.194 437.669C528.194 437.669 532.312 442.88 529.895 446.371L525.016 452.493Z" fill="black"/>
<path d="M519.765 435.125C519.765 435.125 519.61 437.428 518.369 440.182C518.369 440.182 517.395 442.286 517.239 444.539C517.239 444.539 515.866 442.786 517.793 439.306C517.793 439.306 517.93 439.106 517.836 439.059C517.836 439.059 517.772 438.984 517.65 439.227C517.65 439.227 515.637 442.561 516.671 444.598C516.671 444.598 516.907 445.048 517.409 445.532C517.409 445.532 518.591 446.417 518.931 446.818C519.27 447.219 520.319 448.387 519.698 449.038C519.698 449.038 519.462 449.322 519.063 449.272C519.063 449.272 519.669 451.358 522.504 451.241C522.504 451.241 524.232 451.024 525.429 449.856L530.022 445.883L529.903 445.599C529.903 445.599 530.509 444.531 528.456 443.63C528.456 443.63 529.194 441.359 526.861 438.638C526.861 438.638 526.58 438.421 526.699 438.739C526.699 438.739 528.825 440.875 527.939 443.446L527.481 443.413C527.481 443.413 527.083 441.343 526.137 439.423C526.137 439.423 524.638 435.851 524.594 434.448C524.55 433.046 519.765 435.125 519.765 435.125Z" fill="url(#paint3_linear_9210_36044)"/>
<path opacity="0.5" d="M524.272 436.616C524.272 437.464 523.324 438.151 522.155 438.151C520.986 438.151 520.038 437.464 520.038 436.616C520.038 435.768 520.986 435.081 522.155 435.081C523.324 435.081 524.272 435.768 524.272 436.616Z" fill="url(#paint4_linear_9210_36044)"/>
<path d="M519.409 434.315C519.409 434.315 521.007 436.63 523.215 434.873C523.215 434.873 523.491 434.495 524.333 434.249" stroke="#F7A81C" stroke-width="0.6774" stroke-miterlimit="10"/>
<path opacity="0.5" d="M525.116 428.688C525.215 429.954 524.061 431.103 522.538 431.255C521.015 431.407 519.7 430.504 519.601 429.239C519.502 427.973 520.657 426.825 522.18 426.673C523.703 426.52 525.018 427.423 525.116 428.688Z" fill="url(#paint5_linear_9210_36044)"/>
<path d="M521.262 431.78C521.262 432.63 520.87 433.32 520.386 433.32C519.902 433.32 519.51 432.63 519.51 431.78C519.51 430.929 519.902 430.24 520.386 430.24C520.87 430.24 521.262 430.929 521.262 431.78Z" fill="#CAC7C6"/>
<path d="M524.596 431.826C524.596 432.814 524.049 433.615 523.375 433.615C522.701 433.615 522.154 432.814 522.154 431.826C522.154 430.838 522.701 430.037 523.375 430.037C524.049 430.037 524.596 430.838 524.596 431.826Z" fill="#CAC7C6"/>
<path d="M520.698 432.148C520.698 432.583 520.533 432.935 520.328 432.935C520.124 432.935 519.958 432.583 519.958 432.148C519.958 431.714 520.124 431.362 520.328 431.362C520.533 431.362 520.698 431.714 520.698 432.148Z" fill="black"/>
<path opacity="0.5" d="M520.585 431.837C520.585 432.036 520.476 432.198 520.341 432.198C520.206 432.198 520.096 432.036 520.096 431.837C520.096 431.637 520.206 431.476 520.341 431.476C520.476 431.476 520.585 431.637 520.585 431.837Z" fill="url(#paint6_linear_9210_36044)"/>
<path d="M523.895 432.184C523.895 432.81 523.625 433.317 523.293 433.317C522.96 433.317 522.691 432.81 522.691 432.184C522.691 431.558 522.96 431.051 523.293 431.051C523.625 431.051 523.895 431.558 523.895 432.184Z" fill="black"/>
<path opacity="0.5" d="M523.711 431.735C523.711 432.023 523.533 432.256 523.313 432.256C523.094 432.256 522.916 432.023 522.916 431.735C522.916 431.447 523.094 431.214 523.313 431.214C523.533 431.214 523.711 431.447 523.711 431.735Z" fill="url(#paint7_linear_9210_36044)"/>
<path d="M519.851 435.069C519.851 435.069 519.016 434.597 519.205 433.953C519.205 433.953 519.218 433.61 519.623 433.281C520.028 432.952 519.977 432.995 520.028 432.952C520.078 432.909 520.977 432.18 521.255 432.094C521.534 432.008 522.141 431.994 522.534 432.265C522.926 432.537 523.862 432.952 524.027 432.995C524.191 433.038 524.647 433.324 524.71 433.624C524.773 433.925 524.647 434.354 524.444 434.611C524.242 434.869 523.887 435.14 523.47 435.341C523.052 435.541 522.9 435.684 522.635 435.855C522.369 436.027 521.635 436.37 521.002 436.013C520.37 435.655 520.458 435.512 520.256 435.384C520.053 435.255 519.851 435.069 519.851 435.069Z" fill="#F1883B"/>
<path d="M519.984 435.044C519.984 435.044 519.185 434.593 519.367 433.976C519.367 433.976 519.379 433.648 519.766 433.333C520.154 433.018 520.106 433.059 520.154 433.018C520.202 432.977 521.062 432.279 521.329 432.197C521.595 432.115 522.177 432.101 522.552 432.361C522.927 432.621 523.824 433.018 523.981 433.059C524.139 433.1 524.575 433.374 524.635 433.662C524.696 433.949 524.575 434.36 524.381 434.606C524.187 434.853 523.848 435.113 523.448 435.304C523.049 435.496 522.903 435.633 522.649 435.797C522.395 435.962 521.692 436.29 521.087 435.948C520.481 435.605 520.566 435.469 520.372 435.345C520.178 435.222 519.984 435.044 519.984 435.044Z" fill="#FBB91D"/>
<path opacity="0.1" d="M520.271 433.225C520.271 433.225 520.867 432.191 521.695 432.174C521.695 432.174 523.06 432.503 523.293 433.176C523.293 433.176 523.002 434.095 521.709 434.095C521.709 434.095 520.489 434.178 520.271 433.225Z" fill="url(#paint8_linear_9210_36044)"/>
<path opacity="0.3" d="M515.785 445.483C515.785 445.483 514.721 443.446 516.228 440.475C516.228 440.475 516.789 439.206 517.882 437.737C517.882 437.737 518.502 437.036 518.089 437.837C518.089 437.837 516.848 440.108 516.671 440.608C516.494 441.109 515.519 442.678 516.818 445.716C518.118 448.755 515.785 445.483 515.785 445.483Z" fill="url(#paint9_linear_9210_36044)"/>
<path d="M520.073 451.278C520.093 450.547 519.446 449.735 518.761 448.81C518.075 447.884 517.611 446.533 517.611 446.533C516.974 444.924 516.044 444.939 515.814 444.97C515.17 444.965 514.653 445.67 514.653 445.67C514.32 446.213 514.024 446.5 513.831 446.646C513.821 446.647 513.811 446.649 513.801 446.65C511.836 446.899 512.473 449.204 512.473 449.204C512.799 449.981 512.265 450.851 512.265 450.851C511.872 452.294 512.959 452.364 513.16 452.385C513.361 452.407 514.251 452.52 514.894 452.588C515.536 452.657 516.626 453.295 516.626 453.295C517.704 453.786 518.715 453.517 518.715 453.517C520.245 452.736 520.073 451.278 520.073 451.278Z" fill="#BE7247"/>
<path d="M519.945 451.197C519.966 450.495 519.343 449.72 518.683 448.836C518.023 447.952 517.578 446.658 517.578 446.658C517.162 445.61 516.612 445.285 516.233 445.193C515.832 445.048 515.202 445.205 514.849 445.662C514.468 446.155 514.372 446.254 514.078 446.586C513.984 446.691 513.915 446.755 513.862 446.794C511.991 447.059 512.593 449.246 512.593 449.246C512.904 449.989 512.385 450.825 512.385 450.825C511.998 452.212 513.051 452.273 513.246 452.293C513.44 452.312 514.301 452.416 514.923 452.479C515.546 452.541 516.599 453.148 516.599 453.148C517.64 453.613 518.62 453.35 518.62 453.35C520.105 452.594 519.945 451.197 519.945 451.197Z" fill="#F08128"/>
<path d="M519.813 451.128C519.831 450.447 519.229 449.691 518.589 448.829C517.95 447.967 517.517 446.709 517.517 446.709C516.942 445.255 516.108 445.225 515.863 445.251C515.791 445.256 515.718 445.267 515.644 445.285C515.344 445.358 515.041 445.537 514.83 445.822C514.442 446.349 514.335 446.467 514.046 446.809C514.019 446.813 513.991 446.817 513.963 446.82C512.129 447.054 512.723 449.201 512.723 449.201C513.025 449.925 512.527 450.735 512.527 450.735C512.159 452.081 513.174 452.145 513.361 452.165C513.549 452.185 514.379 452.289 514.979 452.352C515.578 452.416 516.595 453.01 516.595 453.01C517.601 453.466 518.544 453.215 518.544 453.215C519.972 452.486 519.813 451.128 519.813 451.128Z" fill="#FFD400"/>
<path opacity="0.6" d="M517.879 448.598C517.879 448.598 516.959 445.106 515.781 445.855C514.604 446.603 514.295 447.223 514.295 447.223C514.295 447.223 512.984 448.072 515.431 450.094L517.879 448.598Z" fill="url(#paint10_linear_9210_36044)"/>
<path opacity="0.2" d="M529.049 445.144C529.049 445.144 530.483 442.267 527.533 437.54C527.533 437.54 526.766 435.896 527.574 436.992C527.574 436.992 531.19 441.491 529.978 445.578L529.049 445.144Z" fill="url(#paint11_linear_9210_36044)"/>
<path d="M526.951 444.999C526.951 444.999 525.815 445.183 525.724 447.204C525.724 447.204 525.724 448.654 525.382 449.797C525.039 450.941 524.697 451.962 524.949 452.635C524.949 452.635 525.256 454.065 526.933 454.167C526.933 454.167 527.961 454.003 528.808 453.105C528.808 453.105 529.62 452.064 530.197 451.737C530.774 451.41 531.567 450.941 531.748 450.838C531.928 450.736 532.92 450.226 532.09 449.042C532.09 449.042 531.315 448.449 531.369 447.592C531.369 447.592 531.225 445.183 529.313 445.754C527.402 446.326 526.951 444.999 526.951 444.999Z" fill="#BE7247"/>
<path d="M526.985 445.197C526.985 445.197 525.882 445.373 525.795 447.307C525.795 447.307 525.795 448.695 525.463 449.79C525.13 450.884 524.798 451.861 525.043 452.506C525.043 452.506 525.34 453.874 526.967 453.972C526.967 453.972 527.964 453.816 528.787 452.956C528.787 452.956 529.574 451.959 530.134 451.646C530.693 451.334 531.463 450.884 531.638 450.786C531.813 450.689 532.775 450.2 531.971 449.067C531.971 449.067 531.218 448.5 531.271 447.679C531.271 447.679 531.131 445.373 529.276 445.92C527.422 446.467 526.985 445.197 526.985 445.197Z" fill="#F08128"/>
<path d="M527.012 445.276C527.012 445.276 525.952 445.447 525.867 447.33C525.867 447.33 525.867 448.68 525.548 449.745C525.228 450.81 524.908 451.761 525.144 452.389C525.144 452.389 525.43 453.72 526.995 453.815C526.995 453.815 527.955 453.663 528.746 452.826C528.746 452.826 529.503 451.856 530.042 451.552C530.58 451.248 531.321 450.81 531.489 450.715C531.657 450.62 532.583 450.145 531.809 449.042C531.809 449.042 531.085 448.49 531.136 447.691C531.136 447.691 531.001 445.447 529.217 445.98C527.433 446.512 527.012 445.276 527.012 445.276Z" fill="#FFD400"/>
<path opacity="0.6" d="M526.136 449.239C526.136 449.239 525.875 445.607 527.213 445.823C528.55 446.039 529.036 446.491 529.036 446.491C529.036 446.491 530.53 446.746 528.897 449.631L526.136 449.239Z" fill="url(#paint12_linear_9210_36044)"/>
<path d="M526.785 445.039C526.785 445.039 526.867 443.747 527.928 444.088C527.928 444.088 528.989 444.367 529.546 445.039C529.546 445.039 530.031 445.68 529.363 446.269C529.363 446.269 528.934 446.683 528.595 446.827C528.595 446.827 527.681 447.313 527.196 446.662C527.196 446.662 526.775 446.093 526.785 445.039Z" fill="black"/>
<path d="M527.045 445.03C527.045 445.03 527.1 444.161 527.814 444.39C527.814 444.39 528.528 444.578 528.903 445.03C528.903 445.03 529.229 445.461 528.78 445.858C528.78 445.858 528.491 446.136 528.263 446.233C528.263 446.233 527.648 446.561 527.321 446.122C527.321 446.122 527.038 445.74 527.045 445.03Z" fill="url(#paint13_linear_9210_36044)"/>
<path d="M486.233 430.518C486.835 430.518 487.324 429.965 487.324 429.284C487.324 428.603 486.835 428.051 486.233 428.051C485.63 428.051 485.141 428.603 485.141 429.284C485.141 429.965 485.63 430.518 486.233 430.518Z" fill="white"/>
<g clip-path="url(#clip6_9210_36044)">
<path d="M790.729 444.854C790.729 447.882 789.152 449.788 786.632 449.788C784.112 449.788 782.534 447.872 782.534 444.854C782.534 441.815 784.112 439.909 786.632 439.909C789.152 439.909 790.729 441.815 790.729 444.854ZM794.245 434.171L793.144 434.245C792.519 434.287 792.244 434.509 792.244 434.912C792.244 435.335 792.593 435.568 793.08 435.568C793.747 435.568 794.245 435.134 794.245 434.552V434.171ZM810 441C810 451.048 802.048 459 792 459C781.952 459 774 451.048 774 441C774 430.952 781.952 423 792 423C802.048 423 810 430.952 810 441ZM796.172 433.948C796.172 435.409 796.976 436.299 798.289 436.299C799.401 436.299 800.1 435.674 800.216 434.785H799.348C799.232 435.272 798.851 435.536 798.289 435.536C797.548 435.536 797.093 434.933 797.093 433.948C797.093 432.974 797.548 432.392 798.289 432.392C798.882 432.392 799.253 432.731 799.348 433.165H800.216C800.1 432.296 799.422 431.64 798.289 431.64C796.976 431.629 796.172 432.519 796.172 433.948ZM784.069 431.725V436.214H784.959V433.461C784.959 432.879 785.372 432.413 785.912 432.413C786.441 432.413 786.78 432.731 786.78 433.239V436.214H787.648V433.376C787.648 432.836 788.019 432.413 788.601 432.413C789.184 432.413 789.469 432.709 789.469 433.334V436.214H790.359V433.112C790.359 432.18 789.829 431.629 788.919 431.629C788.294 431.629 787.775 431.947 787.553 432.434H787.479C787.278 431.947 786.854 431.629 786.24 431.629C785.636 431.629 785.181 431.926 784.991 432.434H784.927V431.714L784.069 431.725ZM792.307 444.854C792.307 440.947 790.126 438.491 786.632 438.491C783.138 438.491 780.956 440.947 780.956 444.854C780.956 448.761 783.138 451.207 786.632 451.207C790.126 451.207 792.307 448.751 792.307 444.854ZM792.858 436.288C793.451 436.288 793.938 436.034 794.213 435.579H794.287V436.214H795.145V433.144C795.145 432.201 794.509 431.64 793.376 431.64C792.349 431.64 791.629 432.138 791.534 432.889H792.392C792.487 432.561 792.836 432.381 793.334 432.381C793.938 432.381 794.255 432.656 794.255 433.154V433.546L793.038 433.62C791.968 433.684 791.365 434.149 791.365 434.965C791.354 435.769 791.989 436.288 792.858 436.288ZM802.567 447.501C802.567 445.754 801.551 444.738 798.988 444.176L797.622 443.88C795.939 443.509 795.282 442.842 795.282 441.879C795.282 440.629 796.468 439.878 798.004 439.878C799.613 439.878 800.672 440.704 800.809 442.059H802.345C802.271 439.973 800.502 438.501 798.046 438.501C795.494 438.501 793.705 439.931 793.705 441.953C793.705 443.7 794.774 444.822 797.241 445.362L798.607 445.659C800.312 446.029 801 446.718 801 447.745C801 448.952 799.782 449.831 798.12 449.831C796.352 449.831 795.124 449.026 794.944 447.702H793.408C793.556 449.831 795.346 451.207 798.035 451.207C800.778 451.207 802.567 449.778 802.567 447.501Z" fill="white"/>
</g>
<defs>
<linearGradient id="paint0_linear_9210_36044" x1="900.078" y1="24" x2="0.0163089" y2="24" gradientUnits="userSpaceOnUse">
<stop offset="0.1" stop-color="#01C7FD"/>
<stop offset="0.5" stop-color="#4AE9E2"/>
<stop offset="0.9" stop-color="#B5FFE7"/>
</linearGradient>
<linearGradient id="paint1_linear_9210_36044" x1="475.583" y1="446.843" x2="513.561" y2="446.843" gradientUnits="userSpaceOnUse">
<stop stop-color="#FADC00"/>
<stop offset="0.0089" stop-color="#FADA00"/>
<stop offset="0.153" stop-color="#F5B715"/>
<stop offset="0.2988" stop-color="#F09424"/>
<stop offset="0.4433" stop-color="#EC752A"/>
<stop offset="0.5865" stop-color="#E95B2B"/>
<stop offset="0.7279" stop-color="#E8452B"/>
<stop offset="0.8667" stop-color="#E7382A"/>
<stop offset="1" stop-color="white"/>
</linearGradient>
<linearGradient id="paint2_linear_9210_36044" x1="522.186" y1="438.401" x2="521.646" y2="449.57" gradientUnits="userSpaceOnUse">
<stop offset="0.644" stop-color="white"/>
<stop offset="0.6827" stop-color="#CCCCCC"/>
<stop offset="0.7287" stop-color="#979797"/>
<stop offset="0.7754" stop-color="#686868"/>
<stop offset="0.8217" stop-color="#434343"/>
<stop offset="0.8676" stop-color="#262626"/>
<stop offset="0.9129" stop-color="#111111"/>
<stop offset="0.9573" stop-color="#040404"/>
<stop offset="1"/>
</linearGradient>
<linearGradient id="paint3_linear_9210_36044" x1="523.144" y1="426.591" x2="523.215" y2="444.942" gradientUnits="userSpaceOnUse">
<stop/>
<stop offset="0.1086" stop-color="#333333"/>
<stop offset="0.2381" stop-color="#686868"/>
<stop offset="0.3692" stop-color="#979797"/>
<stop offset="0.4993" stop-color="#BCBCBC"/>
<stop offset="0.6281" stop-color="#D9D9D9"/>
<stop offset="0.7553" stop-color="#EEEEEE"/>
<stop offset="0.8801" stop-color="#FBFBFB"/>
<stop offset="1" stop-color="white"/>
</linearGradient>
<linearGradient id="paint4_linear_9210_36044" x1="522.303" y1="434.162" x2="521.907" y2="439.314" gradientUnits="userSpaceOnUse">
<stop offset="0.7701" stop-color="white"/>
<stop offset="0.7951" stop-color="#CCCCCC"/>
<stop offset="0.8248" stop-color="#979797"/>
<stop offset="0.855" stop-color="#686868"/>
<stop offset="0.8849" stop-color="#434343"/>
<stop offset="0.9145" stop-color="#262626"/>
<stop offset="0.9437" stop-color="#111111"/>
<stop offset="0.9724" stop-color="#040404"/>
<stop offset="1"/>
</linearGradient>
<linearGradient id="paint5_linear_9210_36044" x1="522.163" y1="426.05" x2="522.756" y2="432.949" gradientUnits="userSpaceOnUse">
<stop offset="0.1239" stop-color="white"/>
<stop offset="0.1971" stop-color="#D7D7D7"/>
<stop offset="0.4145" stop-color="#656565"/>
<stop offset="0.5644" stop-color="#1C1C1C"/>
<stop offset="0.6335" stop-color="#20201F"/>
<stop offset="0.7277" stop-color="#050505"/>
</linearGradient>
<linearGradient id="paint6_linear_9210_36044" x1="520.244" y1="430.966" x2="520.547" y2="433.096" gradientUnits="userSpaceOnUse">
<stop stop-color="white"/>
<stop offset="0.0427" stop-color="#DCDCDC"/>
<stop offset="0.1123" stop-color="#A9A9A9"/>
<stop offset="0.1853" stop-color="#7C7C7C"/>
<stop offset="0.2601" stop-color="#565656"/>
<stop offset="0.3373" stop-color="#363636"/>
<stop offset="0.4175" stop-color="#1E1E1E"/>
<stop offset="0.5022" stop-color="#0D0D0D"/>
<stop offset="0.5942" stop-color="#030303"/>
<stop offset="0.7074"/>
</linearGradient>
<linearGradient id="paint7_linear_9210_36044" x1="523.173" y1="430.478" x2="523.611" y2="433.552" gradientUnits="userSpaceOnUse">
<stop stop-color="white"/>
<stop offset="0.0427" stop-color="#DCDCDC"/>
<stop offset="0.1123" stop-color="#A9A9A9"/>
<stop offset="0.1853" stop-color="#7C7C7C"/>
<stop offset="0.2601" stop-color="#565656"/>
<stop offset="0.3373" stop-color="#363636"/>
<stop offset="0.4175" stop-color="#1E1E1E"/>
<stop offset="0.5022" stop-color="#0D0D0D"/>
<stop offset="0.5942" stop-color="#030303"/>
<stop offset="0.7074"/>
</linearGradient>
<linearGradient id="paint8_linear_9210_36044" x1="521.845" y1="432.05" x2="521.554" y2="436.202" gradientUnits="userSpaceOnUse">
<stop stop-color="white"/>
<stop offset="0.0954" stop-color="#CCCCCC"/>
<stop offset="0.2091" stop-color="#979797"/>
<stop offset="0.3243" stop-color="#686868"/>
<stop offset="0.4385" stop-color="#434343"/>
<stop offset="0.5516" stop-color="#262626"/>
<stop offset="0.6633" stop-color="#111111"/>
<stop offset="0.773" stop-color="#040404"/>
<stop offset="0.8783"/>
</linearGradient>
<linearGradient id="paint9_linear_9210_36044" x1="516.731" y1="449.545" x2="516.92" y2="435.423" gradientUnits="userSpaceOnUse">
<stop offset="0.0838"/>
<stop offset="0.1116" stop-color="#333333"/>
<stop offset="0.1448" stop-color="#686868"/>
<stop offset="0.1785" stop-color="#979797"/>
<stop offset="0.2119" stop-color="#BCBCBC"/>
<stop offset="0.2449" stop-color="#D9D9D9"/>
<stop offset="0.2775" stop-color="#EEEEEE"/>
<stop offset="0.3096" stop-color="#FBFBFB"/>
<stop offset="0.3403" stop-color="white"/>
<stop offset="0.5602" stop-color="white"/>
</linearGradient>
<linearGradient id="paint10_linear_9210_36044" x1="519.055" y1="454.188" x2="511.795" y2="443.34" gradientUnits="userSpaceOnUse">
<stop offset="0.4551" stop-color="#E1DA1D"/>
<stop offset="0.4832" stop-color="#E4DE33"/>
<stop offset="0.5583" stop-color="#EBE668"/>
<stop offset="0.6343" stop-color="#F1EE97"/>
<stop offset="0.7097" stop-color="#F6F4BC"/>
<stop offset="0.7844" stop-color="#FAF9D9"/>
<stop offset="0.8581" stop-color="#FDFCEE"/>
<stop offset="0.9305" stop-color="#FEFEFB"/>
<stop offset="1" stop-color="white"/>
</linearGradient>
<linearGradient id="paint11_linear_9210_36044" x1="528.27" y1="435.98" x2="530.299" y2="450.442" gradientUnits="userSpaceOnUse">
<stop/>
<stop offset="0.037" stop-color="#333333"/>
<stop offset="0.081" stop-color="#686868"/>
<stop offset="0.1257" stop-color="#979797"/>
<stop offset="0.1699" stop-color="#BCBCBC"/>
<stop offset="0.2138" stop-color="#D9D9D9"/>
<stop offset="0.257" stop-color="#EEEEEE"/>
<stop offset="0.2995" stop-color="#FBFBFB"/>
<stop offset="0.3403" stop-color="white"/>
<stop offset="0.5602" stop-color="white"/>
</linearGradient>
<linearGradient id="paint12_linear_9210_36044" x1="526.83" y1="454.93" x2="529.308" y2="441.696" gradientUnits="userSpaceOnUse">
<stop offset="0.4551" stop-color="#E1DA1D"/>
<stop offset="0.4832" stop-color="#E4DE33"/>
<stop offset="0.5583" stop-color="#EBE668"/>
<stop offset="0.6343" stop-color="#F1EE97"/>
<stop offset="0.7097" stop-color="#F6F4BC"/>
<stop offset="0.7844" stop-color="#FAF9D9"/>
<stop offset="0.8581" stop-color="#FDFCEE"/>
<stop offset="0.9305" stop-color="#FEFEFB"/>
<stop offset="1" stop-color="white"/>
</linearGradient>
<linearGradient id="paint13_linear_9210_36044" x1="527.281" y1="443.68" x2="528.497" y2="445.862" gradientUnits="userSpaceOnUse">
<stop offset="0.062" stop-color="#454544"/>
<stop offset="0.0748" stop-color="#6A6A69"/>
<stop offset="0.0928" stop-color="#979797"/>
<stop offset="0.1108" stop-color="#BDBDBC"/>
<stop offset="0.1287" stop-color="#DADAD9"/>
<stop offset="0.1464" stop-color="#EEEEEE"/>
<stop offset="0.1637" stop-color="#FBFBFB"/>
<stop offset="0.1803" stop-color="white"/>
<stop offset="1"/>
</linearGradient>
<clipPath id="clip0_9210_36044">
<rect width="161" height="32" fill="white" transform="translate(423.5 168)"/>
</clipPath>
<clipPath id="clip1_9210_36044">
<rect width="573" height="24" fill="white" transform="translate(217.5 243.56)"/>
</clipPath>
<clipPath id="clip2_9210_36044">
<rect width="35" height="24" fill="white" transform="translate(226.5 323.56)"/>
</clipPath>
<clipPath id="clip3_9210_36044">
<rect width="35" height="24" fill="white" transform="translate(540.5 323.56)"/>
</clipPath>
<clipPath id="clip4_9210_36044">
<rect width="35" height="24" fill="white" transform="translate(726.5 323.56)"/>
</clipPath>
<clipPath id="clip5_9210_36044">
<rect width="44" height="24" fill="white" transform="translate(870 323.56)"/>
</clipPath>
<clipPath id="clip6_9210_36044">
<rect width="36" height="36" fill="white" transform="translate(774 423)"/>
</clipPath>
</defs>
</svg>
