<svg width="126" height="61" viewBox="0 0 126 61" fill="none" xmlns="http://www.w3.org/2000/svg">
<path d="M51.2151 51.8332L62.9996 40.0487L62.9998 40.0489L72.4279 30.6208L72.4277 30.6206L72.4283 30.62L72.4277 30.6194L84.2122 18.8349C90.7209 12.3261 101.274 12.3261 107.782 18.8349C114.291 25.3436 114.291 35.8964 107.782 42.4051C101.274 48.9139 90.7209 48.9139 84.2122 42.4051L73.3707 31.5637L63.9426 40.9917L74.7841 51.8332C86.4998 63.5489 105.495 63.5489 117.21 51.8332C128.926 40.1175 128.926 21.1225 117.21 9.4068C105.495 -2.30893 86.4998 -2.30892 74.7841 9.40681L62.9996 21.1913L62.9958 21.1874L53.5677 30.6155L53.5715 30.6194L53.5709 30.62L53.5715 30.6206L41.7871 42.4051C35.2783 48.9138 24.7256 48.9138 18.2168 42.4051C11.7081 35.8964 11.7081 25.3436 18.2168 18.8349C24.7256 12.3261 35.2783 12.3261 41.7871 18.8349L52.6249 29.6727L62.0529 20.2446L51.2151 9.4068C39.4994 -2.30894 20.5045 -2.30894 8.78875 9.4068C-2.92698 21.1225 -2.92698 40.1175 8.78875 51.8332C20.5045 63.5489 39.4994 63.5489 51.2151 51.8332Z" fill="url(#paint0_linear_8686_25886)"/>
<defs>
<linearGradient id="paint0_linear_8686_25886" x1="0.244369" y1="0.619998" x2="94.7886" y2="40.2639" gradientUnits="userSpaceOnUse">
<stop stop-color="#CBFFEF"/>
<stop offset="0.5" stop-color="#7CFFD1"/>
<stop offset="0.97" stop-color="#00C7FD"/>
</linearGradient>
</defs>
</svg>
